<svg xmlns="http://www.w3.org/2000/svg" viewBox="0 0 500 500"><g id="freepik--background-complete--inject-34"><path d="M232.75,343.39a35.75,35.75,0,1,1-35.35-41v35.74Z" style="fill:#ebebeb"></path><path d="M240.42,330.87a34.75,34.75,0,0,1-.39,5.24l-35.35-5.24V295.13a35.71,35.71,0,0,1,35.74,35.74Z" style="fill:#dbdbdb"></path><path d="M421.77,126.59v29.47l-19.12,22.41a29.47,29.47,0,0,1,19.12-51.88Z" style="fill:#ebebeb"></path><path d="M457.24,159.06a29.47,29.47,0,0,1-48.59,22.41l19.12-22.41V129.59a29.45,29.45,0,0,1,29.47,29.47Z" style="fill:#ebebeb"></path><path d="M457.24,159.06a29.47,29.47,0,0,1-48.59,22.41l19.12-22.41V129.59a29.45,29.45,0,0,1,29.47,29.47Z" style="fill:#dbdbdb"></path><rect x="408.15" y="103.68" width="1" height="38.01" style="fill:#c7c7c7"></rect><path d="M408.65,104.18a3.17,3.17,0,1,1,3.16-3.16A3.17,3.17,0,0,1,408.65,104.18Zm0-5.33a2.17,2.17,0,1,0,2.16,2.17A2.17,2.17,0,0,0,408.65,98.85Z" style="fill:#c7c7c7"></path><rect x="416.72" y="98.35" width="29.53" height="1.33" style="fill:#c7c7c7"></rect><rect x="416.72" y="101.02" width="16.71" height="1.33" style="fill:#c7c7c7"></rect><rect x="215.53" y="357.45" width="38.01" height="1" style="fill:#c7c7c7"></rect><path d="M256.21,361.11a3.17,3.17,0,1,1,3.16-3.16A3.17,3.17,0,0,1,256.21,361.11Zm0-5.33a2.17,2.17,0,1,0,2.16,2.17A2.17,2.17,0,0,0,256.21,355.78Z" style="fill:#c7c7c7"></path><rect x="265.87" y="355.95" width="29.53" height="1.33" style="fill:#c7c7c7"></rect><rect x="265.87" y="358.61" width="16.71" height="1.33" style="fill:#c7c7c7"></rect></g><g id="freepik--Floor--inject-34"><polygon points="37.43 403.76 90.58 403.51 143.72 403.43 250 403.26 356.28 403.43 409.42 403.51 462.57 403.76 409.42 404 356.28 404.09 250 404.26 143.72 404.09 90.58 404 37.43 403.76" style="fill:#263238"></polygon></g><g id="freepik--Board--inject-34"><rect x="117.17" y="52.13" width="265.65" height="196.02" style="fill:#ebebeb"></rect><rect x="384.75" y="51.59" width="1" height="140.3" style="fill:#263238"></rect><polygon points="387.05 196.61 383.45 196.61 384.35 191.44 386.15 191.44 387.05 196.61" style="fill:#263238"></polygon><rect x="388.4" y="51.59" width="1" height="113.57" style="fill:#263238"></rect><polygon points="390.7 168.96 387.1 168.96 388.01 163.79 389.8 163.79 390.7 168.96" style="fill:#263238"></polygon><rect x="107.45" y="44.33" width="285.11" height="14.53" style="fill:#c7c7c7"></rect><rect x="195.36" y="77.29" width="109.29" height="2.42" style="fill:#c7c7c7"></rect><rect x="214.04" y="82.35" width="71.91" height="2.42" style="fill:#c7c7c7"></rect><path d="M282.73,136a17.39,17.39,0,1,1-8.38-32.63v17.39Z" style="fill:#263238"></path><path d="M284.66,106.73l-10.31,14V103.34A17.26,17.26,0,0,1,284.66,106.73Z" style="fill:#2F2E41"></path><path d="M291.74,120.73a17.29,17.29,0,0,1-4.61,11.78l-12.78-11.78,10.31-14A17.35,17.35,0,0,1,291.74,120.73Z" style="fill:#a6a6a6"></path><path d="M293.38,140.58A17.22,17.22,0,0,1,289,144l-8.37-15.24Z" style="fill:#455a64"></path><path d="M227.42,104l-4.77,16.73v17.39a17.39,17.39,0,0,1,0-34.78A17.78,17.78,0,0,1,227.42,104Z" style="fill:#a6a6a6"></path><path d="M232.94,134.73a17.25,17.25,0,0,1-10.29,3.39V120.73Z" style="fill:#263238"></path><path d="M240,120.73a17.33,17.33,0,0,1-7.09,14l-10.29-14,13.52-10.93A17.28,17.28,0,0,1,240,120.73Z" style="fill:#455a64"></path><path d="M240,104.17,226.51,115.1l4.78-16.73A17.38,17.38,0,0,1,240,104.17Z" style="fill:#2F2E41"></path><path d="M170.94,103.34v17.39l-11.71,12.85a17.39,17.39,0,0,1,11.71-30.24Z" style="fill:#455a64"></path><path d="M183.39,108.59l-12.45,12.14V103.34A17.34,17.34,0,0,1,183.39,108.59Z" style="fill:#2F2E41"></path><path d="M188.33,120.73a17.32,17.32,0,0,1-6.41,13.47l-11-13.47,12.45-12.14A17.36,17.36,0,0,1,188.33,120.73Z" style="fill:#a6a6a6"></path><path d="M181.92,138.76a17.39,17.39,0,0,1-22.69-.62l11.71-12.85Z" style="fill:#263238"></path><path d="M326.06,103.34v34.78a17.39,17.39,0,0,1,0-34.78Z" style="fill:#2F2E41"></path><path d="M330.45,103.9l-4.39,16.83V103.34A17.6,17.6,0,0,1,330.45,103.9Z" style="fill:#263238"></path><path d="M346.45,119.73a17.31,17.31,0,0,1-1.21,6.37l-16.18-6.37,4.39-16.83A17.4,17.4,0,0,1,346.45,119.73Z" style="fill:#455a64"></path><path d="M342.24,127.1a17.41,17.41,0,0,1-16.18,11V120.73Z" style="fill:#a6a6a6"></path><rect x="162.92" y="148.34" width="20.3" height="1.95" style="fill:#c7c7c7"></rect><rect x="162.92" y="152.41" width="13.47" height="1.95" style="fill:#c7c7c7"></rect><rect x="153.55" y="148.32" width="6.08" height="6.08" style="fill:#455a64"></rect><rect x="214.63" y="148.34" width="20.3" height="1.95" style="fill:#c7c7c7"></rect><rect x="214.63" y="152.41" width="13.47" height="1.95" style="fill:#c7c7c7"></rect><rect x="205.26" y="148.32" width="6.08" height="6.08" style="fill:#a6a6a6"></rect><rect x="266.34" y="148.34" width="20.3" height="1.95" style="fill:#c7c7c7"></rect><rect x="266.34" y="152.41" width="13.47" height="1.95" style="fill:#c7c7c7"></rect><rect x="256.97" y="148.32" width="6.08" height="6.08" style="fill:#263238"></rect><rect x="318.05" y="148.34" width="20.3" height="1.95" style="fill:#c7c7c7"></rect><rect x="318.05" y="152.41" width="13.47" height="1.95" style="fill:#c7c7c7"></rect><rect x="308.68" y="148.32" width="6.08" height="6.08" style="fill:#2F2E41"></rect><path d="M152.21,172.77l47-.12c15.66,0,31.33,0,47,.12-15.66.11-31.33.08-47,.13Z" style="fill:#c7c7c7"></path><path d="M152.21,176.6l47-.12c15.66,0,31.33,0,47,.12-15.66.11-31.33.09-47,.13Z" style="fill:#c7c7c7"></path><path d="M152.21,180.44l47-.13c15.66.05,31.33,0,47,.13-15.66.1-31.33.08-47,.12Z" style="fill:#c7c7c7"></path><path d="M152.21,184.27l47-.13c15.66.05,31.33,0,47,.13-15.66.11-31.33.08-47,.12Z" style="fill:#c7c7c7"></path><path d="M152.21,188.1l47-.12c15.66,0,31.33,0,47,.12-15.66.11-31.33.08-47,.13Z" style="fill:#c7c7c7"></path><path d="M152.21,191.93l47-.12c15.66,0,31.33,0,47,.12-15.66.11-31.33.09-47,.13Z" style="fill:#c7c7c7"></path><path d="M152.21,195.77l47-.13c15.66.05,31.33,0,47,.13-15.66.1-31.33.08-47,.12Z" style="fill:#c7c7c7"></path><path d="M152.21,199.6l47-.13c15.66.05,31.33,0,47,.13-15.66.11-31.33.08-47,.12Z" style="fill:#c7c7c7"></path><path d="M152.21,203.43l47-.12c15.66,0,31.33,0,47,.12-15.66.11-31.33.08-47,.13Z" style="fill:#c7c7c7"></path><path d="M152.21,207.26l47-.12c15.66,0,31.33,0,47,.12-15.66.11-31.33.09-47,.13Z" style="fill:#c7c7c7"></path><path d="M152.21,211.1l47-.13c15.66.05,31.33,0,47,.13-15.66.1-31.33.08-47,.12Z" style="fill:#c7c7c7"></path><path d="M152.21,214.93l47-.13c15.66,0,31.33,0,47,.13-15.66.11-31.33.08-47,.12Z" style="fill:#c7c7c7"></path><path d="M152.21,218.76l47-.12c15.66,0,31.33,0,47,.12-15.66.11-31.33.08-47,.13Z" style="fill:#c7c7c7"></path><path d="M152.21,222.59l47-.12c15.66,0,31.33,0,47,.12-15.66.11-31.33.09-47,.13Z" style="fill:#c7c7c7"></path><path d="M152.21,226.43l47-.13c15.66,0,31.33,0,47,.13-15.66.1-31.33.08-47,.12Z" style="fill:#c7c7c7"></path><rect x="162.15" y="199.6" width="7.13" height="31.3" style="fill:#2F2E41"></rect><rect x="175.37" y="186.36" width="7.13" height="44.53" style="fill:#455a64"></rect><rect x="188.59" y="195.9" width="7.13" height="35" style="fill:#a6a6a6"></rect><rect x="201.81" y="184.27" width="7.13" height="46.63" style="fill:#2F2E41"></rect><rect x="215.03" y="190.52" width="7.13" height="40.37" style="fill:#455a64"></rect><rect x="228.25" y="213.4" width="7.13" height="17.5" style="fill:#a6a6a6"></rect><path d="M154.76,170.08l.19,15.21.14,15.2c.09,10.13.11,20.27.13,30.4l-.46-.46,22.86,0,22.86.06,22.85.15,22.86.28-22.86.27-22.85.15-22.86.06-22.86,0h-.47v-.47q0-15.19.13-30.4l.13-15.2Z" style="fill:#c7c7c7"></path><rect x="162.15" y="234.11" width="7.13" height="0.64" style="fill:#c7c7c7"></rect><rect x="175.37" y="234.11" width="7.13" height="0.64" style="fill:#c7c7c7"></rect><rect x="188.59" y="234.11" width="7.13" height="0.64" style="fill:#c7c7c7"></rect><rect x="201.81" y="234.11" width="7.13" height="0.64" style="fill:#c7c7c7"></rect><rect x="215.03" y="234.11" width="7.13" height="0.64" style="fill:#c7c7c7"></rect><rect x="228.25" y="234.11" width="7.13" height="0.64" style="fill:#c7c7c7"></rect><rect x="267.43" y="186.91" width="78.45" height="8.52" style="fill:#fff"></rect><rect x="270.27" y="189.33" width="34.49" height="3.69" style="fill:#455a64"></rect><path d="M256.44,191.44a1,1,0,0,1-2,.11h0a1.93,1.93,0,0,1,0-.24,2.47,2.47,0,0,1,.14-.84,1.45,1.45,0,0,1,.53-.7,1.22,1.22,0,0,1,.61-.19.23.23,0,0,1,.24.22.24.24,0,0,1-.22.24.66.66,0,0,0-.38.11.74.74,0,0,0-.26.29l-.06.1a1.06,1.06,0,0,1,.4-.08A1,1,0,0,1,256.44,191.44Zm-.45,0a.54.54,0,1,0-1.08,0,.54.54,0,0,0,1.08,0Z" style="fill:#263238"></path><path d="M257.08,191a1.8,1.8,0,0,1,.28-1,.87.87,0,0,1,1.52,0,1.71,1.71,0,0,1,.27,1,1.73,1.73,0,0,1-.27,1,.87.87,0,0,1-1.52,0A1.82,1.82,0,0,1,257.08,191Zm1.62,0a1.31,1.31,0,0,0-.2-.73.49.49,0,0,0-.38-.25.52.52,0,0,0-.39.25,1.4,1.4,0,0,0-.19.73,1.43,1.43,0,0,0,.19.73.52.52,0,0,0,.39.25.49.49,0,0,0,.38-.25A1.34,1.34,0,0,0,258.7,191Z" style="fill:#263238"></path><path d="M260,190.27h0a.68.68,0,1,1,1.35,0h0a.69.69,0,0,1-.68.73A.68.68,0,0,1,260,190.27Zm1,0h0a.38.38,0,0,0-.32-.42c-.19,0-.31.19-.31.41h0c0,.23.13.41.32.41S260.94,190.5,260.94,190.27Zm-.52,1.92,1.88-2.57a.15.15,0,0,1,.14-.07.16.16,0,0,1,.16.16.17.17,0,0,1,0,.1l-1.88,2.57a.18.18,0,0,1-.15.07.16.16,0,0,1-.16-.16A.18.18,0,0,1,260.42,192.19Zm1.26-.45h0a.69.69,0,0,1,.68-.73.68.68,0,0,1,.67.73h0a.68.68,0,1,1-1.35,0Zm1,0h0c0-.23-.13-.41-.32-.41s-.3.18-.3.41h0c0,.24.13.42.31.42S262.67,192,262.67,191.74Z" style="fill:#263238"></path><rect x="267.43" y="174.4" width="78.45" height="8.52" style="fill:#fff"></rect><rect x="270.27" y="176.82" width="17.01" height="3.69" style="fill:#2F2E41"></rect><path d="M256,178.18a1,1,0,0,1,0,1.44,1,1,0,0,1-.72.3,1,1,0,0,1-.71-.3.24.24,0,0,1,0-.33.22.22,0,0,1,.32,0,.54.54,0,0,0,.39.16.55.55,0,0,0,.4-.16.54.54,0,0,0,.16-.39.51.51,0,0,0-.16-.39.54.54,0,0,0-.39-.16.21.21,0,0,1-.17-.08h0a.23.23,0,0,1,0-.33l.42-.43h-.67a.23.23,0,0,1,0-.46h1.21a.23.23,0,0,1,.23.23.2.2,0,0,1,0,.11.21.21,0,0,1,0,.06l-.51.53A.9.9,0,0,1,256,178.18Z" style="fill:#263238"></path><path d="M257,178.49a1.72,1.72,0,0,1,.28-1,.86.86,0,0,1,1.52,0,1.79,1.79,0,0,1,.27,1,1.84,1.84,0,0,1-.27,1,.87.87,0,0,1-1.52,0A1.76,1.76,0,0,1,257,178.49Zm1.62,0a1.31,1.31,0,0,0-.2-.73c-.12-.17-.25-.26-.38-.25a.48.48,0,0,0-.39.25,1.4,1.4,0,0,0-.19.73,1.36,1.36,0,0,0,.19.72.49.49,0,0,0,.39.26.48.48,0,0,0,.38-.26A1.28,1.28,0,0,0,258.57,178.49Z" style="fill:#263238"></path><path d="M259.82,177.76h0a.68.68,0,1,1,1.35,0h0a.69.69,0,0,1-.68.73A.68.68,0,0,1,259.82,177.76Zm1,0h0c0-.23-.13-.42-.31-.42s-.31.19-.31.41h0c0,.23.13.41.32.41S260.8,178,260.8,177.76Zm-.51,1.92,1.88-2.57a.16.16,0,0,1,.14-.08.16.16,0,0,1,.16.16.15.15,0,0,1,0,.11l-1.88,2.57a.15.15,0,0,1-.14.07.16.16,0,0,1-.16-.16A.15.15,0,0,1,260.29,179.68Zm1.26-.45h0a.68.68,0,1,1,1.35,0h0a.68.68,0,1,1-1.35,0Zm1,0h0c0-.23-.13-.42-.32-.42s-.31.19-.31.41h0a.38.38,0,0,0,.32.42C262.42,179.64,262.54,179.45,262.54,179.23Z" style="fill:#263238"></path><rect x="267.43" y="224.45" width="78.45" height="8.52" style="fill:#fff"></rect><rect x="270.27" y="226.87" width="58.86" height="3.69" style="fill:#2F2E41"></rect><path d="M254.46,228.09a1,1,0,0,1,2-.1h0a1.85,1.85,0,0,1,0,.23,2.43,2.43,0,0,1-.14.84,1.4,1.4,0,0,1-.53.7,1.14,1.14,0,0,1-.61.2.23.23,0,0,1,0-.46.74.74,0,0,0,.38-.11.81.81,0,0,0,.26-.29.37.37,0,0,0,.05-.11.83.83,0,0,1-.39.09A1,1,0,0,1,254.46,228.09Zm.45,0a.54.54,0,1,0,1.08,0,.54.54,0,0,0-1.08,0Z" style="fill:#263238"></path><path d="M257.08,228.54a1.8,1.8,0,0,1,.28-1,.86.86,0,0,1,1.52,0,1.71,1.71,0,0,1,.27,1,1.76,1.76,0,0,1-.27,1,.87.87,0,0,1-1.52,0A1.85,1.85,0,0,1,257.08,228.54Zm1.62,0a1.29,1.29,0,0,0-.2-.73c-.12-.17-.25-.26-.38-.25s-.26.08-.39.25a1.48,1.48,0,0,0,0,1.45.51.51,0,0,0,.39.26.48.48,0,0,0,.38-.26A1.28,1.28,0,0,0,258.7,228.54Z" style="fill:#263238"></path><path d="M260,227.81h0a.68.68,0,1,1,1.35,0h0a.68.68,0,1,1-1.35,0Zm1,0h0a.37.37,0,0,0-.32-.41c-.19,0-.31.18-.31.41h0c0,.24.13.42.32.42S260.94,228,260.94,227.81Zm-.52,1.91,1.88-2.56a.16.16,0,0,1,.14-.08.16.16,0,0,1,.16.16.2.2,0,0,1,0,.11l-1.88,2.57a.18.18,0,0,1-.15.07.16.16,0,0,1-.16-.16A.21.21,0,0,1,260.42,229.72Zm1.26-.44h0a.69.69,0,0,1,.68-.73.68.68,0,0,1,.67.72h0a.68.68,0,1,1-1.35,0Zm1,0h0c0-.23-.13-.42-.32-.42s-.3.19-.3.41h0c0,.23.13.42.31.42S262.67,229.5,262.67,229.28Z" style="fill:#263238"></path><rect x="267.43" y="211.94" width="78.45" height="8.52" style="fill:#fff"></rect><rect x="270.27" y="214.35" width="52.9" height="3.69" style="fill:#455a64"></rect><path d="M256.37,216.48a1,1,0,1,1-2,0,1,1,0,0,1,.44-.81.66.66,0,0,1-.14-.41.68.68,0,0,1,1.36,0,.66.66,0,0,1-.14.41A1,1,0,0,1,256.37,216.48Zm-.45,0a.53.53,0,1,0-.53.53A.53.53,0,0,0,255.92,216.48Zm-.76-1.22a.23.23,0,1,0,.23-.22A.23.23,0,0,0,255.16,215.26Z" style="fill:#263238"></path><path d="M257,216a1.85,1.85,0,0,1,.28-1,.87.87,0,0,1,1.52,0,1.76,1.76,0,0,1,.28,1,1.72,1.72,0,0,1-.28,1,.86.86,0,0,1-1.52,0A1.8,1.8,0,0,1,257,216Zm1.62,0a1.34,1.34,0,0,0-.2-.73.47.47,0,0,0-.38-.25.53.53,0,0,0-.39.25,1.43,1.43,0,0,0-.19.73,1.4,1.4,0,0,0,.19.73.53.53,0,0,0,.39.25.47.47,0,0,0,.38-.25A1.31,1.31,0,0,0,258.65,216Z" style="fill:#263238"></path><path d="M259.9,215.3h0a.68.68,0,1,1,1.35,0h0a.68.68,0,1,1-1.35,0Zm1,0h0c0-.23-.13-.42-.32-.42s-.31.19-.31.41h0c0,.23.13.42.32.42S260.89,215.52,260.89,215.3Zm-.52,1.91,1.88-2.57a.15.15,0,0,1,.14-.07.16.16,0,0,1,.16.16.2.2,0,0,1,0,.11l-1.88,2.56a.19.19,0,0,1-.15.08.16.16,0,0,1-.16-.16A.21.21,0,0,1,260.37,217.21Zm1.26-.45h0a.7.7,0,0,1,.68-.74.68.68,0,0,1,.67.73h0a.69.69,0,0,1-.68.73A.68.68,0,0,1,261.63,216.76Zm1,0h0c0-.23-.13-.42-.32-.42s-.3.19-.3.41h0c0,.23.13.41.31.41S262.62,217,262.62,216.76Z" style="fill:#263238"></path><rect x="267.43" y="199.42" width="78.45" height="8.52" style="fill:#fff"></rect><rect x="270.27" y="201.84" width="44.9" height="3.69" style="fill:#2F2E41"></rect><path d="M256.29,202.39l-1,2.42a.2.2,0,0,1-.21.13H255a.23.23,0,0,1-.12-.3l.88-2.1h-1.06a.22.22,0,0,1-.22-.23.22.22,0,0,1,.22-.22h1.45l.09,0v0h0l0,0s0,0,0,0v0l0,0v.13S256.29,202.38,256.29,202.39Z" style="fill:#263238"></path><path d="M256.77,203.51a1.8,1.8,0,0,1,.28-1,.94.94,0,0,1,.77-.45.92.92,0,0,1,.75.45,1.72,1.72,0,0,1,.28,1,1.74,1.74,0,0,1-.28,1,.92.92,0,0,1-.75.45.94.94,0,0,1-.77-.45A1.82,1.82,0,0,1,256.77,203.51Zm1.62,0a1.43,1.43,0,0,0-.19-.73.42.42,0,0,0-.77,0,1.43,1.43,0,0,0,0,1.46.42.42,0,0,0,.77,0A1.43,1.43,0,0,0,258.39,203.51Z" style="fill:#263238"></path><path d="M259.64,202.79h0a.7.7,0,0,1,.68-.74.68.68,0,0,1,.67.73h0a.68.68,0,1,1-1.35,0Zm1,0h0c0-.23-.13-.42-.32-.42s-.3.19-.3.41h0c0,.23.13.42.31.42S260.63,203,260.63,202.79Zm-.52,1.91,1.88-2.57a.15.15,0,0,1,.14-.07.17.17,0,0,1,.17.16.18.18,0,0,1,0,.1l-1.88,2.57a.17.17,0,0,1-.15.07.14.14,0,0,1-.15-.15A.18.18,0,0,1,260.11,204.7Zm1.26-.45h0a.69.69,0,0,1,.68-.73.68.68,0,0,1,.67.73h0a.69.69,0,0,1-.67.74A.69.69,0,0,1,261.37,204.25Zm1,0h0c0-.23-.13-.41-.31-.41s-.31.18-.31.41h0c0,.24.13.42.31.42S262.36,204.47,262.36,204.25Z" style="fill:#263238"></path></g><g id="freepik--character-1--inject-34"><path d="M157.42,440.69c-2,.61-59.12-.62-61.21-2-.8-.51,4.1-54.65,4.1-54.65l36.25.69-4.12,36.21s21.09,10,23.22,11.77S159.37,440.09,157.42,440.69Z" style="fill: rgb(255, 196, 192);"></path><path d="M157.42,440.69c-2,.61-59.12-.63-61.21-2-.25-.16-.33-5.65.58-12.81,10.37,1.73,47.37,7.41,50.25,5.72,2-1.18.23-3-1.42-4.27,4.73,2.36,9.13,4.62,10,5.38C157.78,434.46,159.37,440.09,157.42,440.69Z" style="fill:#263238"></path><path d="M133.46,412.24l-35.59-.5s7-85.24,6.75-86.88c-.37-2.1-25.62-101.1-25.62-101.1h34S139.75,316,140.71,324.93C142.27,339.29,133.46,412.24,133.46,412.24Z" style="fill: rgb(255, 196, 192);"></path><path d="M114.73,440.82c-2,.61-59.12-.62-61.2-2-.81-.52,2.18-54.69,2.18-54.69l35.77.69-1.73,36.25s21.09,10,23.22,11.76S116.69,440.22,114.73,440.82Z" style="fill: rgb(255, 196, 192);"></path><path d="M114.73,440.82c-2,.61-59.12-.62-61.2-2-.26-.15-.2-5.51,0-12.82,10.37,1.74,47.94,7.43,50.82,5.73,2-1.18.23-3-1.41-4.27,4.72,2.36,9.13,4.62,10,5.39C115.1,434.59,116.69,440.22,114.73,440.82Z" style="fill:#263238"></path><path d="M115.05,435a6.18,6.18,0,0,0-2.84-2.94c-1.56-.88-3.16-1.67-4.76-2.47s-3.24-1.65-5.07-2.46c-.09,0-.16,0-.07.06a50,50,0,0,1,4.49,2.57c1.43.87,2.91,1.66,4.38,2.46a7.38,7.38,0,0,1,3.29,2.83,12.25,12.25,0,0,1,1.11,4.37c0,.12.09.12.09,0A12,12,0,0,0,115.05,435Z" style="fill:#455a64"></path><path d="M111.87,223.74s-1,16.25-4.87,29.07c-.31,1.06-.65,2.1-1,3.1a60.75,60.75,0,0,0-9.85,4.91s-2.45,62.12-2.41,66c.16,14.43-3.53,84.73-3.53,84.73l-35.88-.34s3.72-79.5,3.73-84.78c0-8.5,7.53-102.65,7.53-102.65Z" style="fill: rgb(255, 196, 192);"></path><path d="M113,223.76H65.58A66.92,66.92,0,0,0,63.05,258l-6.61,89.11s32,4.81,51.65,4.81,33.55-6.47,33.55-6.47.13-15.06-.42-20.59S113,223.76,113,223.76Z" style="fill:#37474f"></path><path d="M116.91,191.86l-6.34-.1A19.46,19.46,0,0,1,109,180.05c.15-.91-2.22,4.26-1.65,11.66-6.69-.1-15.79-.24-23.74-.44,0-3.11-.2-6-.2-6a34.29,34.29,0,0,1-1.53,5.95l-3.17-.08a121.35,121.35,0,0,0-.07-13.23A42.52,42.52,0,0,1,74.19,191c-5-.18-8.36-.39-8.13-.62,8-8.45,2.58-13.71,5-21.33,3-9.13,11-10.28,11-17.23,0-5.64-.26-15.91,7-17.82a13.75,13.75,0,0,1,15-2.27c11.1,4.76,6,22,6.59,25.55.89,5.1,3.23,7,4.8,12.81s-1.21,9.68-1.66,13.62S118.17,191.89,116.91,191.86Z" style="fill:#263238"></path><path d="M65.88,189.13a19.6,19.6,0,0,0,2.64-4.85,10.38,10.38,0,0,0,.19-5.29,53.38,53.38,0,0,1-.71-5.61,14.71,14.71,0,0,1,.78-5.79A13,13,0,0,1,72,162.7a35.06,35.06,0,0,1,4.48-3.51,20.87,20.87,0,0,0,4.15-3.55,10.08,10.08,0,0,0,2.22-5,9.51,9.51,0,0,1-1.67,5.37,19.25,19.25,0,0,1-4,4A43.14,43.14,0,0,0,73,163.66a12.37,12.37,0,0,0-2.81,4.43,14.56,14.56,0,0,0-.73,5.24c0,1.81.3,3.63.47,5.52a19.65,19.65,0,0,1,.07,2.88,8.59,8.59,0,0,1-.75,2.84A16.35,16.35,0,0,1,65.88,189.13Z" style="fill:#263238"></path><path d="M110.21,138.46a28.56,28.56,0,0,1,1.27,6.79c.19,2.3.28,4.61.34,6.9l.11,3.43a16.72,16.72,0,0,0,.39,3.28,18.18,18.18,0,0,0,2.84,5.95,27.06,27.06,0,0,1,1.73,3.09,16.41,16.41,0,0,1,1.12,3.41,23.71,23.71,0,0,1,.35,3.54,14.19,14.19,0,0,1-.33,3.56c-.25,1.17-.63,2.27-1,3.35a17.63,17.63,0,0,0-.65,3.28A7.05,7.05,0,0,0,119,191a7.19,7.19,0,0,1-3.26-6,17,17,0,0,1,.44-3.49c.24-1.15.57-2.24.74-3.33a18.23,18.23,0,0,0-.27-6.58,15.33,15.33,0,0,0-1.06-3.1,25.68,25.68,0,0,0-1.66-2.9,33.15,33.15,0,0,1-1.77-3,14.93,14.93,0,0,1-1.2-3.4,18.9,18.9,0,0,1-.31-3.56c0-1.16,0-2.31,0-3.45,0-2.3.11-4.59.09-6.87A33.31,33.31,0,0,0,110.21,138.46Z" style="fill:#263238"></path><path d="M96.11,176.83c3.09,6.92,26.28,39.54,38,40.55,12.23,1.05,41.78-18.62,44.61-20.26,7.76-4.48-13.51-25.76-17.27-22.06-6.28,6.18-21.26,17.8-24.88,17-7.62-1.75-23.38-15.28-34.58-22.35C95.19,165.4,92.69,169.17,96.11,176.83Z" style="fill: rgb(255, 196, 192);"></path><path d="M176.82,198.18c1.34-.87,12.11-6.7,16.19-12.39,2.15-3,7.15-12,5.49-13.51s-3.5.7-3.5.7,2.17-4,0-5.95-5.29,1.81-5.29,1.81,1.93-4.3-.34-6.07-4.81,2.52-4.81,2.52,1.95-3.85-.54-4.52c-3-.81-5.78,6.68-8.72,9.54-.67.65-14.47,12.21-14.47,12.21Z" style="fill: rgb(255, 196, 192);"></path><path d="M184.43,165.28c-2.07,5.51-3.92,7.56-8.53,11.06-.09.07,0,.22.09.15,4.83-3,7.53-5.25,8.71-11.12C184.76,165.08,184.53,165,184.43,165.28Z" style="fill:#263238"></path><path d="M189.57,168.81c-2.64,5.53-4.63,7.78-9.19,11.8-.06,0,0,.17.1.12,4.8-3.57,7.44-5.87,9.35-11.74C189.92,168.72,189.7,168.56,189.57,168.81Z" style="fill:#263238"></path><path d="M194.77,173.17c-2.94,5.17-5,7.73-10,11.06a.11.11,0,0,0,.12.19c5.35-2.91,8-6.08,10-11.14C195.06,172.93,195,172.85,194.77,173.17Z" style="fill:#263238"></path><path d="M156.24,180.78s3.11-6.68,5.12-9.31,13.13-9.69,14.79-7.37c2.14,3-3.47,8.32-6.56,10.57,0,0,5,6.91,1.76,11.61S156.24,180.78,156.24,180.78Z" style="fill: rgb(255, 196, 192);"></path><path d="M176.47,165.11c0,4.13-4.26,6.83-7.1,9.24a.35.35,0,0,0,0,.56c1.89,3,3.67,7.86,2.18,11.33a.09.09,0,0,0,.15.08c2.1-3.5.74-8.39-1.54-11.58,2.95-2.42,7.09-5.32,6.32-9.63C176.5,165.08,176.47,165.08,176.47,165.11Z" style="fill:#263238"></path><path d="M96.41,178.79c3.58,7.34,24.62,38.74,36.16,39.36S172,202.33,172,202.33l-15.77-23.08s-17.59,11.51-19.53,11.56-28.17-17.69-34.21-21.53S90.57,166.84,96.41,178.79Z" style="fill:#ebebeb"></path><path d="M96.41,178.79c3.58,7.34,24.62,38.74,36.16,39.36s34.18-11.56,34.18-11.56l-16-24.9s-12.5,8.82-14.45,8.87-27.81-17.44-33.85-21.28S90.57,166.84,96.41,178.79Z" style="fill:#2F2E41"></path><path d="M148.34,214.82c-5.63,2-11.47,3.56-15.76,3.33-11.55-.61-32.58-32-36.17-39.36-3.15-6.44-2.89-9.82-1-11Z" style="opacity:0.1"></path><path d="M146.71,186.26c.44,1,1,1.85,1.58,2.77s1.08,1.82,1.65,2.72c1.08,1.74,2.19,3.45,3.31,5.16s2.24,3.42,3.37,5.13,2.26,3.62,3.56,5.29c.06.07.17,0,.12-.08-1-1.88-2.19-3.65-3.3-5.45s-2.19-3.54-3.3-5.31-2.22-3.52-3.36-5.27c-.56-.86-1.13-1.7-1.72-2.54a30.08,30.08,0,0,0-1.8-2.51C146.76,186.1,146.68,186.19,146.71,186.26Z" style="fill:#263238"></path><path d="M115.68,211.56l3.57,28.56s-46.42-.25-57.93-1.29c0,0,10.47-53.05,23.13-66.25,6.33-6.6,13.59-6,18.14-1.16,1.14,1.22,14.77,20,16.1,27.09C119.85,204.78,115.68,211.56,115.68,211.56Z" style="fill:#2F2E41"></path><path d="M118.55,197.28a22.84,22.84,0,0,0-2.35-5.3c-.71-1.27-1.45-2.52-2.2-3.77-.23-.43-.42-.87-.63-1.31s-.38-.76-.56-1.13c-.41-.82-.83-1.63-1.26-2.44,0,0-.1,0-.08,0,.33.82.67,1.62,1.06,2.41-1.11-1.81-2.2-3.64-3.39-5.4,0,0-.06,0,0,0,2.4,4.47,5.14,8.75,7.35,13.33a18.34,18.34,0,0,1,1.89,6.87,19.1,19.1,0,0,1-.88,7.16c0,.09.1.17.14.07a17.83,17.83,0,0,0,1.37-5.2A14.45,14.45,0,0,0,118.55,197.28Z" style="fill:#263238"></path><path d="M90.69,170.35c.32.88,5.37,6.22,9.49,5.52,1.34-.23.4-7.6.4-7.6l0-.56.77-7.84-9.67-4.65-1.39-.6s-.07,2.16-.12,4.85c0,.12,0,.25,0,.38s0,.3,0,.44l0,1.22c0,.31,0,.61,0,.94s0,.64,0,1A52.53,52.53,0,0,0,90.69,170.35Z" style="fill: rgb(255, 196, 192);"></path><path d="M90.22,159.47a15.79,15.79,0,0,0,10.41,8.24l.77-7.84-9.67-4.65-1.39-.6S90.27,156.78,90.22,159.47Z" style="fill:#263238"></path><path d="M111.45,148.38c1,13.79-7.14,16-10.11,16.16-2.7.19-11.91.51-14.34-13.1s3.67-18.43,9.82-19.2S110.44,134.6,111.45,148.38Z" style="fill: rgb(255, 196, 192);"></path><path d="M108.6,145.46c-.33,0-.62-.12-.94-.18a1.54,1.54,0,0,1-.92-.37.49.49,0,0,1,0-.6,1.24,1.24,0,0,1,1.2-.3,1.74,1.74,0,0,1,1.13.61A.52.52,0,0,1,108.6,145.46Z" style="fill:#263238"></path><path d="M99.74,145.64c.32,0,.61-.14.93-.21a1.58,1.58,0,0,0,.91-.4.5.5,0,0,0,0-.6,1.24,1.24,0,0,0-1.21-.27,1.8,1.8,0,0,0-1.11.66A.52.52,0,0,0,99.74,145.64Z" style="fill:#263238"></path><path d="M101.64,149.09s-.07,0-.07.09c.07.94,0,2-.85,2.37,0,0,0,.06,0,0C101.77,151.42,101.86,150,101.64,149.09Z" style="fill:#263238"></path><path d="M100.76,148.15c-1.52-.06-1.51,3-.1,3S102,148.19,100.76,148.15Z" style="fill:#263238"></path><path d="M100.17,148.31c-.27.17-.53.47-.85.51s-.65-.28-.89-.59c0,0-.05,0-.05,0,0,.58.21,1.17.84,1.26s1-.44,1.12-1C100.37,148.4,100.27,148.24,100.17,148.31Z" style="fill:#263238"></path><path d="M106.84,148.94s.07,0,.07.08c0,.94.08,2,.93,2.34,0,0,0,.06,0,0C106.79,151.26,106.65,149.82,106.84,148.94Z" style="fill:#263238"></path><path d="M107.68,148c1.52-.11,1.62,2.93.22,3S106.41,148.05,107.68,148Z" style="fill:#263238"></path><path d="M108.32,148.14c.25.15.49.43.78.44s.57-.32.77-.64c0,0,0,0,0,0,0,.58-.14,1.19-.69,1.32s-.9-.37-1-.94C108.15,148.24,108.22,148.07,108.32,148.14Z" style="fill:#263238"></path><path d="M101.44,156.75c.21.23.42.55.76.59a2.53,2.53,0,0,0,1-.19,0,0,0,0,1,0,0,1.27,1.27,0,0,1-1.21.46,1,1,0,0,1-.71-.87S101.4,156.72,101.44,156.75Z" style="fill:#263238"></path><path d="M105.66,153.13s.21,1.41.22,2.07c0,.06-.16.09-.38.11h0a3.17,3.17,0,0,1-3.08-1.13.07.07,0,0,1,.1-.1,4.79,4.79,0,0,0,2.89.79c0-.19-.45-2.39-.34-2.4a5.61,5.61,0,0,1,1.51.32c-.36-2.94-1.19-5.79-1.5-8.72a.09.09,0,0,1,.17,0,47.72,47.72,0,0,1,2,9.32C107.3,153.72,105.93,153.24,105.66,153.13Z" style="fill:#263238"></path><path d="M105.31,155.19a3.76,3.76,0,0,1-1.48,1.23,1.74,1.74,0,0,1-1,.09c-.76-.17-.8-.86-.68-1.45a4.15,4.15,0,0,1,.31-.91A4.92,4.92,0,0,0,105.31,155.19Z" style="fill:#263238"></path><path d="M103.83,156.42a1.74,1.74,0,0,1-1,.09c-.76-.17-.8-.86-.68-1.45A1.78,1.78,0,0,1,103.83,156.42Z" style="fill:#ff9cbd"></path><path d="M87.62,150.76c1.48-.1,5.34-4.2,5.44-11.38,0,0-.53,6.44-1,7.39s2.15-2.31,2.31-8.11a23.55,23.55,0,0,0,6,3.07c2.74.75,4.42.72,4.61.53s-3.83-1.46-4.93-2.71c0,0,7.29,3.36,10.65,3.6.38,0,.82-8-4.37-11.32s-13.4.32-15.61,2.46c0,0-2.59.38-5.39,4.22S86,150.86,87.62,150.76Z" style="fill:#263238"></path><path d="M99.35,154.25a4.29,4.29,0,1,1,4.6-5h0a4.28,4.28,0,0,1-4.6,5Zm.69-8a3.62,3.62,0,0,0-.93,0,3.75,3.75,0,1,0,.93,0Z" style="fill:#2F2E41"></path><path d="M109.19,153.89c-1.63-.14-3-1.94-3-4.18a5.09,5.09,0,0,1,.81-3,2.68,2.68,0,0,1,4.58-.14,5.14,5.14,0,0,1,1,3c.07,2.37-1.3,4.34-3.06,4.39Zm.26-8h-.22a2.29,2.29,0,0,0-1.79,1.11,4.53,4.53,0,0,0-.72,2.69c.07,2.05,1.29,3.68,2.74,3.64s2.57-1.75,2.5-3.8a4.52,4.52,0,0,0-.88-2.64A2.36,2.36,0,0,0,109.45,145.9Z" style="fill:#2F2E41"></path><path d="M103.82,149.77l-.38-.42c.64-.57,2.12-1.35,3.2-.26l-.41.4C105.27,148.51,103.88,149.72,103.82,149.77Z" style="fill:#2F2E41"></path><path d="M84.74,151.47l-.52-.25c.12-.24,1.17-2.36,2.44-2.61s8.9.25,9.23.27l0,.58c-2.22-.14-8.17-.47-9.09-.29S85,150.89,84.74,151.47Z" style="fill:#2F2E41"></path><path d="M89.27,152.34s-3-4.35-4.93-3.3.21,7.33,2.5,8.22A2.35,2.35,0,0,0,90,156Z" style="fill: rgb(255, 196, 192);"></path><path d="M85,150.82a0,0,0,0,0,0,.06,5.91,5.91,0,0,1,3,3.74,1.29,1.29,0,0,0-1.92-.38s0,.1,0,.09a1.44,1.44,0,0,1,1.57.52,7.18,7.18,0,0,1,.74,1.29c.08.15.34.07.29-.09l0,0C88.77,154,87.21,151.06,85,150.82Z" style="fill:#263238"></path><path d="M90,156a2.51,2.51,0,0,1-1.18,1.23,1.82,1.82,0,0,1-.43.16,2.4,2.4,0,0,1-1,0l-.47-.14,0,0c-2.28-.88-4.48-7.17-2.49-8.21s4.92,3.31,4.92,3.31Z" style="fill: rgb(255, 196, 192);"></path><path d="M85,150.82a0,0,0,0,0,0,.06,5.91,5.91,0,0,1,3,3.74,1.29,1.29,0,0,0-1.92-.38s0,.1,0,.09a1.44,1.44,0,0,1,1.57.52,7.18,7.18,0,0,1,.74,1.29c.08.15.34.07.29-.09l0,0C88.77,154,87.21,151.06,85,150.82Z" style="fill:#263238"></path><path d="M100.54,168.26l-1.25,6.41-8.84-6.13-1.64,2.82s9.52,10.59,9.47,10l1.47-5.6,4.23,2.9-2-8.91Z" style="fill:#ebebeb"></path><path d="M103.24,174.24c-.38-1.46-.72-2.94-1.17-4.39,0,0-.1,0-.1,0,0,1.48,1.45,7.06,1.71,8.42h0c-.18-.13-3.89-2.52-3.91-2.47-.37.92-1.46,5-1.52,5.36-1.51-1.68-7.8-8.25-9.5-9.79,0-.05-.12,0-.07.07,1.39,1.81,9.55,10.51,9.64,10.47A59,59,0,0,0,99.83,176a40.66,40.66,0,0,0,4.43,3.1A46.93,46.93,0,0,0,103.24,174.24Z" style="fill:#263238"></path><polygon points="122.89 241.99 154.44 241.56 159.8 196.84 128.25 197.26 122.89 241.99" style="fill:#a6a6a6"></polygon><polygon points="124.44 241.97 155.98 241.54 161.35 196.82 129.81 197.24 124.44 241.97" style="fill:#c7c7c7"></polygon><path d="M147,217.38a3.42,3.42,0,0,1-3.29,3.12,2.78,2.78,0,0,1-2.85-3,3.44,3.44,0,0,1,3.3-3.12A2.76,2.76,0,0,1,147,217.38Z" style="fill:#fff"></path><path d="M81.92,176.72c-7,13.74-22.27,49.41-15.45,54.88,11.22,9,35.59,14.23,43.05,15,3.22.35,10-23.87,6.75-25.16-3.85-1.55-28-4.74-28.26-6.85-.15-1.19.5-14.45.58-27.56C88.68,171.87,84.33,172,81.92,176.72Z" style="fill: rgb(255, 196, 192);"></path><path d="M104.87,222s8.8-4.44,14.68-7.08c3.29-1.47,9.14-3.48,12-3.46,4.35,0,22.51,3,21.89,7.38-.55,4-15.83-.49-15.83-.49s15.82,3.17,14.26,7.86-18.15-2.68-18.15-2.68,16.19,3.62,13.82,8.21c-1.79,3.46-17.2-2.37-17.2-2.37s13.89,3.21,12.21,6.85c-1.87,4-16.43-.46-16.43-.46-5.85,8.54-12.82,11.66-17.61,10.79C107.45,246.32,104.87,222,104.87,222Z" style="fill: rgb(255, 196, 192);"></path><path d="M133,217.05c11.83,1.45,17.19,5.78,17,5.7-3.91-2-10.47-3.83-12.31-4.3s-2.9-.86-4.73-1.33C132.93,217.11,133,217.05,133,217.05Z" style="fill:#263238"></path><path d="M130.43,223.49a40.69,40.69,0,0,1,13.91,3.61c.16.09.08.13-.1.08-2.32-.66-11.48-3.09-13.82-3.64A0,0,0,1,1,130.43,223.49Z" style="fill:#263238"></path><path d="M127.85,228.88A30,30,0,0,1,138.53,232c.17.08.05.15-.13.1-3.53-1.11-6.3-2-10.57-3.09A.06.06,0,0,1,127.85,228.88Z" style="fill:#263238"></path><path d="M108.33,219.13,102,246.81s-34.43-8.71-37.84-17.5,13-45.06,16.34-51.09c.94-1.7,3.61-5.68,5.28-5.59,1.89.1,2.2,2.79,3.25,9,1.39,8.21-.84,31.92-.18,32.75S108.33,219.13,108.33,219.13Z" style="fill:#ebebeb"></path><path d="M102,217.11l-7.4,28.28s-27-7.29-30.37-16.08,13-45.06,16.34-51.09c.94-1.7,3.61-5.68,5.28-5.59,1.89.1,2.2,2.79,3.25,9,1.39,8.21-.84,31.92-.18,32.75S102,217.11,102,217.11Z" style="fill:#2F2E41"></path><path d="M101.83,217c-2.27-.71-13-3-13-3h0s.33-4.19.42-6.22.15-4.18.21-6.27c0-1.32.07-2.64.11-4l.63-2.33c.34-1.29.6-2.6.89-3.9,0-.05-.06-.08-.08,0a32.61,32.61,0,0,0-1.25,3.85c-.06.25-.1.49-.16.74,0-.21,0-.43,0-.64,0-1.07,0-2.13,0-3.2s.08-2,0-3c0-.06-.1-.05-.11,0-.16,1-.16,2.13-.24,3.18s-.16,2.12-.22,3.18c-.13,2.09-.22,4.18-.32,6.26s-.2,4.18-.27,6.27a55.69,55.69,0,0,0-.11,6.71c0,.1,10.76,2.26,13.32,2.69C102,217.42,102,217.07,101.83,217Z" style="fill:#263238"></path><path d="M79.49,240a54.24,54.24,0,0,1-9.9-5.39c-3-2-6.1-4.69-5.8-8.61,0,0,0,0,0,0-.69,3.76,2.11,6.93,5,8.88a56.05,56.05,0,0,0,10.71,5.27C79.53,240.21,79.57,240.08,79.49,240Z" style="fill:#263238"></path><path d="M90.36,242.37c.42-1,.66-2,1-3s.61-2,.9-3.06c.55-2,1.07-3.95,1.57-5.92s1-4,1.52-6,1.14-4.11,1.5-6.19c0-.1-.11-.13-.14,0-.74,2-1.22,4.08-1.8,6.11s-1.13,4-1.69,6-1.11,4-1.63,6c-.25,1-.5,2-.71,3a28.45,28.45,0,0,0-.64,3C90.22,242.44,90.33,242.44,90.36,242.37Z" style="fill:#263238"></path></g><g id="freepik--Desk--inject-34"><polygon points="140.88 287.58 118.3 444.97 113.84 444.97 127.79 287.58 140.88 287.58" style="fill:#455a64"></polygon><polygon points="140.88 287.58 138.72 301.75 126.45 301.75 127.78 287.58 140.88 287.58" style="fill:#263238"></polygon><polygon points="360.56 287.58 383.14 444.97 387.6 444.97 373.65 287.58 360.56 287.58" style="fill:#455a64"></polygon><polygon points="360.56 287.58 362.72 301.75 374.99 301.75 373.66 287.58 360.56 287.58" style="fill:#263238"></polygon><rect x="105.44" y="277.05" width="290.55" height="7.45" style="fill:#455a64"></rect><rect x="109.66" y="284.5" width="282.12" height="3.08" style="fill:#263238"></rect></g><g id="freepik--Device--inject-34"><rect x="280.31" y="274.58" width="55" height="2.47" style="fill:#c7c7c7"></rect><rect x="280.31" y="274.58" width="27.68" height="2.47" style="fill:#a6a6a6"></rect><polygon points="305.01 277.05 251.41 277.05 244.4 240.64 298 240.64 305.01 277.05" style="fill:#c7c7c7"></polygon><path d="M278,258.84a2.94,2.94,0,0,1-3,3.26,3.64,3.64,0,0,1-3.55-3.26,2.94,2.94,0,0,1,3-3.26A3.64,3.64,0,0,1,278,258.84Z" style="fill:#a6a6a6"></path></g></svg>