<svg xmlns="http://www.w3.org/2000/svg" viewBox="0 0 1345.37 820.48"><defs><style>.cls-1{fill:#fff;}.cls-2{fill:#6250fe;}.cls-3{fill:#ffd622;}.cls-4,.cls-5{fill:none;stroke:#fff;stroke-width:5px;}.cls-5{stroke-linecap:round;stroke-linejoin:round;}</style></defs><g id="Layer_2" data-name="Layer 2"><g id="All"><g id="Online-Team-Meeting"><g id="Online-Team-Meeting-2" data-name="Online-Team-Meeting"><g id="Laptop"><path id="Path" class="cls-1" d="M451.25,753.68l457.37.75c2.25,0,4.38.25,6.5-1.12,1.63-1,7.5-1.63,7.63.37,0,.75,1.24,3.25,1,4-1.75,5.62-5,13.5-6.76,19.12-4.37,13.75-16.23,22.63-29.11,29.63-6.5,3.5-12.87,7.13-19.62,10.13a23.79,23.79,0,0,1-10.13,1.75q-143.43-1.12-287-2.13-87.18-.55-174.5-1.25-138.18-.93-276.49-2c-21.88-.12-43.88-.37-65.75-.5-1.5,0-3-.12-4.5,1-.75.63-2.13.38-3.25.25-2.5-.37-5.13-.87-7.63-1.5-.87-.25-2.12-.62-2.5-1.37a7.53,7.53,0,0,0-3.37-2.63c-9-5.12-17.5-10.87-23.88-19.37C4.5,782.43,3.5,775.06,2,767.43c-.75-3.62-2.13-14.12-.25-14.37a14.55,14.55,0,0,1,2.38-.13q199.68.38,399.24.63C421,753.68,439,753.68,451.25,753.68Z"/><path d="M812.25,787.06a6,6,0,0,1-2.63-.25,2.37,2.37,0,0,1,0-4.5,4.47,4.47,0,0,1,2.25-.38c3.75-.12,7.5-.25,11.25-.12,10.5.12,21.13.37,31.63.62a15.48,15.48,0,0,1,3.37.38,2.33,2.33,0,0,1,1.75,2.62,2.37,2.37,0,0,1-2.37,2.38c-1.25.12-2.5,0-3.75,0H834C834,787.31,819.5,787.06,812.25,787.06Z"/><path d="M70.25,783.43c2.38,0,4.75-.12,7.13,0,2,.13,3,1,3.12,2.5s-.87,2.63-2.87,2.63c-4.75.12-9.5,0-14.25,0a2.88,2.88,0,0,1-1.38-.38,2.41,2.41,0,0,1-1.87-2.87,2.47,2.47,0,0,1,2.62-2.13c2.63.13,5,.13,7.5.25Z"/><path d="M42,781.81c1.88,0,3.88-.13,5.75,0,2.13.12,3.38,1.5,3.13,3.12s-1.63,2.38-3.88,2.25c-2.87-.12-5.87,0-8.75.13a25,25,0,0,1-3,0,2.57,2.57,0,0,1,0-5.13c2.25-.25,4.5-.25,6.75-.37Z"/><path id="Shape" d="M156.75,751.18c.75-2.62,1.5-5,2.12-7.37q21.94-91.69,43.75-183.25Q226.25,461.19,250,361.81q23.43-97.87,46.62-195.75c3-12.38,5.88-24.75,8.75-37.13,2.63-10.87,7.13-20.87,14.38-29.37a41.67,41.67,0,0,1,18.37-13,19.92,19.92,0,0,1,4.63-.63,27,27,0,0,1,3.12,0q283.5-.37,566.88-.62c48.75,0,97.5.87,146.25,1.37,17.62.13,35.25.5,52.87.5q45,0,90-.37a41.47,41.47,0,0,1,16.88,3.62c10.25,4.5,15.87,12.38,17.5,23.38a59.2,59.2,0,0,1-1,21c-1.88,9.12-4.75,18-7,27q-28.87,115.68-57.75,231.25-34.87,139.87-69.88,279.87c-5.25,21.13-10.62,42.25-15.75,63.5a83.9,83.9,0,0,0-1.5,11.13c-.12.62,0,1.62.38,1.87,1.75,1.63,1.37,3.5,1,5.38-2.75,12.87-6.88,25.12-13.63,36.5a63.3,63.3,0,0,1-14,17,33.19,33.19,0,0,1-21.25,7.87c-53.25.88-106.62,2-159.87,3-25.38,2.38-50.88.75-76.25.88s-50.63-.25-76-.38q-164.25-.55-328.63-1.25-165-.55-330-1.25c-2.5,0-5,.13-7.5.25-25.88,1-46.25-14-54.13-38.75A79.36,79.36,0,0,1,0,754.56c0-3.5,1-4.25,4.63-3.5a12.17,12.17,0,0,0,3,.25c48.62,0,97.25-.13,145.87-.13Zm920.75-2c1-5.37,1.5-10.12,2.62-14.87q29.63-119.25,59.5-238.63L1200,253.81c9.75-38.88,19.37-77.75,29.12-116.63a65.48,65.48,0,0,0,2-20.87c-.5-6.75-2.75-13-8.37-17.25a32.31,32.31,0,0,0-19.25-6.88c-43.5-.12-87,0-130.5-.37-52.38-.38-104.75-1.25-157.13-1.38q-226.5,0-453,.38c-38.75,0-77.5.25-116.25.12a24.52,24.52,0,0,0-15.87,5.5,52.58,52.58,0,0,0-7.13,6.75,56.41,56.41,0,0,0-10.75,19.25c-1.75,5.63-3.37,11.38-4.75,17q-17.25,71.63-34.25,143.5-23.25,97.88-46.62,195.75-21,87.75-41.88,175.63c-7.62,31.75-15.25,63.62-22.87,95.37-.13.25,0,.63.12,1.38h4q261.95-.37,524-.63L920,750.06c1.5,0,3,.12,4.37.25a55.09,55.09,0,0,0,6.38.62c2,.13,4.12-.12,6.12-.12,45.38-.63,90.63-1.25,136-1.75C1074.62,749.06,1076.12,749.18,1077.5,749.18Zm-1072,7.5c-.5,9.13,2.13,20.63,6.5,29.25,8.5,16.38,22,25.38,40.5,26.38,4.25.25,8.63-.25,13-.13q63.38.2,126.75.5,277.31,1.13,554.62,2.13l114.88.37c7.37,0,14.25-1.5,20.25-5.75,3.62-2.62,7.37-5.25,10.75-8.25,7.5-6.75,14.75-13.75,19.75-22.87,3.5-6.38,5.75-13.38,8-20.25.25-.75.25-1.5.5-2.38h-4q-121.32.2-242.75.25c-46.38,0-92.75.13-139.13.13-2.5,0-3.87.62-5.12,2.87a86.77,86.77,0,0,1-6.5,10,16.72,16.72,0,0,1-11.38,7,56.85,56.85,0,0,1-8.12.75c-6.63.13-13.13.25-19.75.25-29.38.38-58.88.88-88.25,1.13-7.88.12-15.63-1.13-23.38-2.38s-12.75-5.5-15.5-12.75a6.13,6.13,0,0,1-.62-1.62c-.75-1.63-1.5-3.25-2.25-5.13Q180.06,756.38,5.5,756.68Zm355-.37c.62,1.5,1.12,2.62,1.5,3.75,2.12,6.37,6.5,9.62,13.12,10.62a165.53,165.53,0,0,0,26.13,2c34.25-.5,68.5-1.12,102.87-1.37,8.75,0,15.13-3.13,19.13-10.88.75-1.37,2-2.5,2-4.12Z"/><path d="M748.25,100.32a4.65,4.65,0,0,1,5.25,3.87c.38,1.25,1.25,2.38,1.75,3.63,2.75,7.37-3.37,15.5-11.12,15.12a7,7,0,0,1-5.38-2.62,11.62,11.62,0,0,1-1.5-12.75C739.38,102.82,743,100.32,748.25,100.32Zm-7,12.37c.13,1.88.38,3.88,2.13,4.75s3.5-.12,5-1.37c2.87-2.5,2.87-6.25,0-9.25a2.49,2.49,0,0,0-3.63-.38A8.08,8.08,0,0,0,741.25,112.69Z"/></g><g id="Big-Screen"><path d="M586.89,174.63H960.51c2.75,0,5.5-.63,8.13-.13,10.87,1.63,16.62,8.13,17.75,19.63a37.44,37.44,0,0,1-1,12.87q-39.2,151.32-78.13,302.75Q879.51,617.18,851.89,724.5c-3.13,12.12-10.5,20.12-22.63,23.5a65.6,65.6,0,0,1-16.37,2.62q-177.75,1.32-355.5,2.75-87.94.75-175.88,1.38-87.55.75-175.25,1.37c-9.75.13-19.5.25-29.37.25a38.49,38.49,0,0,1-14-2.5,40.08,40.08,0,0,1-5.25-2.5c-7.88-4.87-11.13-13-9-22q10.68-43.3,21.62-86.62,30.57-122.07,61.13-244.12c16-64,32.12-128,47.87-192a51.58,51.58,0,0,1,8-17.88c4.88-6.87,11.25-11.87,19.75-13.37a25.91,25.91,0,0,1,4.38-.38H586.76C586.89,174.75,586.89,174.75,586.89,174.63Z"/><path id="Path-Copy-5" class="cls-1" d="M556.89,135.63c124.5,0,249.12,1,373.62,1,2.75,0,5.5-.63,8.13-.13,10.87,1.63,16.62,7.13,17.75,18.63a37.44,37.44,0,0,1-1,12.87q-39.2,151.32-78.13,302.75c-18.5,71.62-36.87,141.12-55.37,212.75-3.13,12.12-10.5,20.12-22.63,23.5a65.6,65.6,0,0,1-16.37,2.62q-177.75,1.32-355.5,2.75-87.94.75-175.88,1.38-87.55.75-175.25,1.37c-9.75.13-19.5.25-29.37.25a38.49,38.49,0,0,1-14-2.5,40.08,40.08,0,0,1-5.25-2.5c-7.88-4.87-10.13-13-8-22C26.76,659.5,34,632.62,41.26,603.75Q71.83,481.7,102.39,359.63c16-64,32.12-128,47.87-192a51.58,51.58,0,0,1,8-17.88c4.88-6.87,10.25-10.87,18.75-12.37a25.91,25.91,0,0,1,4.38-.38H556.76A5.38,5.38,0,0,0,556.89,135.63Z"/><path d="M414.75,713.93q-162,1.32-323.88,2.5l-44.25.38a38.51,38.51,0,0,1-15.87-3.38c-10.13-4.75-14.25-13.62-11.63-24.37q43.5-174.19,87.13-348.25c14.37-57.75,29-115.38,43.25-173.13a56,56,0,0,1,7.12-17.12,34,34,0,0,1,10.75-10.75,26.41,26.41,0,0,1,16.5-4.25c1.25.12,2.5,0,3.75,0q371.82-.37,743.5-.38c2.75,0,5.5-.37,8.13,0,9.5,1.38,14.5,6.13,16.62,15.5a33.6,33.6,0,0,1-.12,16.13q-34.69,134.43-69.38,268.75-32.05,124.68-64.25,249.37c-3.12,12.38-10.62,20.25-22.87,23.63a66.69,66.69,0,0,1-16.5,2.62L532.5,713.06q-58.69.38-117.75.87Zm142.5-573.5v.25q-188.07,0-376,.13a21.81,21.81,0,0,0-7.88,1.75c-5.12,2-8.87,5.87-11.87,10.37a47.1,47.1,0,0,0-6.5,15.25c-8.38,34.13-17,68.25-25.63,102.38L69,511.68Q46.5,601.3,24.12,691.06a15.69,15.69,0,0,0-.5,3.37c-.12,6.25,2.88,10.63,8.25,13.38,4.75,2.62,10,3.5,15.5,3.5,22.5-.13,45-.38,67.5-.5q87.75-.75,175.5-1.38,88.7-.75,177.25-1.37,156.95-1.12,313.88-2.38a62.13,62.13,0,0,0,16.5-2.5c10.25-2.75,16.37-9.5,19-19.75q21.56-84,43.25-167.87Q897.56,371,934.87,226.31c5.25-20.5,10.5-40.88,15.88-61.38a27.27,27.27,0,0,0-1.13-17c-2-5-8.12-8.5-13.37-8-1.75.13-3.38.25-5.13.25Q744.19,140.56,557.25,140.43Z"/><g id="Man"><path class="cls-2" d="M867.65,337.31c1.37-1.5,2.5-3,3.75-4.38l1.5-1.87c3.62-5.88,7.25-11.75,10.75-17.75a24.61,24.61,0,0,0,1.5-4.25,4.42,4.42,0,0,0-4.88-.38c-7.5,3.13-14.37,7.25-19.12,14.25-.63,1-1.5,2-2.25,3-13.13-18.5-13.5-52.75,11-74.62a59.19,59.19,0,1,1,78.5,88.62C922.4,362.56,886.65,357.06,867.65,337.31Z"/><path d="M463.62,393.68c-5.12,1-10,2-14.87,2.88-10,1.87-20.13,3.25-30.13,5.5a129.74,129.74,0,0,0-19.12,5.87c-10.5,3.88-18.38,11.13-24.25,20.63A161.69,161.69,0,0,0,361,458.31c-7.5,20.12-13.25,40.75-18.37,61.62-1.75,7.38-3.88,14.75-5.63,22.13-1.25,5.12-.62,6.12,4.38,7.87,3,1,6.12,1.75,9.12,2.5,10.37,2.5,20.62,5.38,31.12,7.38,7.38,1.37,14.88,1.75,22.38,2.62.37,0,.87-.12,1.62-.12a12.08,12.08,0,0,0,.13-3c-.5-18.13,0-36.13.75-54.13.25-5-.13-10-.25-15a19.42,19.42,0,0,1,0-2.75c.25-2.12,1.37-3.25,2.87-3.12s2.25,1.12,2.38,3.25c.12,4.37.37,8.62.37,13-.12,6.5-.5,13-.5,19.37-.12,16.13-.25,32.25-.25,48.38,0,9.37.38,18.87.63,28.25,0,2.25-.75,3.37-2.38,3.5s-2.75-.88-2.87-3.13c-.38-3.87-.5-7.75-.5-11.62-.13-4.5,0-9.13,0-13.63,0-1.12-.13-2.25-.13-3.5-9.12-1.12-18.12-2-27-3.62s-17.5-4-26.5-6.13l-2.62,15.38c-1.13,6.12-2.25,12.25-3.25,18.5a38.77,38.77,0,0,0-.37,5.37,3.1,3.1,0,0,1-2.63,3.38,2.73,2.73,0,0,1-3-2.88,37.38,37.38,0,0,1,.5-5.12l5.63-32.25a28.65,28.65,0,0,0,.37-3.63c-1.12-.37-2.12-.62-3.12-1-2.5-1-5.25-1.62-7.63-2.87-4.12-2.13-5.5-5-4.75-9.63.63-3.62,1.5-7.12,2.38-10.62,4.5-17.13,8.75-34.38,13.74-51.25,3.63-12.13,8.13-24.13,12.88-35.88a145.64,145.64,0,0,1,10.75-20.5c6.75-11.37,16.62-19,29.12-23.5,10.63-3.87,21.63-6,32.75-8,14-2.5,27.88-5.25,41.88-7.87,1.37-.25,2.62-.5,4.25-.75,3.25-14.38,1.37-28.63-.13-43.13a19.93,19.93,0,0,0-1.87.75c-13.63,6.38-31.88-4-33.13-21a22.88,22.88,0,0,1,.5-5.75,4.18,4.18,0,0,0-.87-4c-7.5-9.87-12.88-20.87-17.88-32.12a87.72,87.72,0,0,1-7-30.38c-1.25-19.12,13.5-37.5,31.88-41.12a58.77,58.77,0,0,1,11.5-1.13c3.25,0,5.12-1.12,6.25-4,4.37-10.37,12.37-16.75,22.62-20.87a74.91,74.91,0,0,1,43.75-4.25c6.75,1.25,7,1.25,11.13-4.25,2.12-2.75,4.12-5.5,6.25-8a13.32,13.32,0,0,1,7-4.63c4.62-1.12,8.87.25,11.12,4.38a54.1,54.1,0,0,1,3.38,8.87,37.65,37.65,0,0,1,.87,4.63,18.91,18.91,0,0,0,2.13-1c.87-.5,1.75-1.13,2.62-1.63,7.5-4.12,15.13,0,15.5,8.63a29.72,29.72,0,0,1-1,8.12c-2.5,10.25-8.5,18.25-16.75,24.63-1.12.87-2.12,1.62-3.37,2.5a184.92,184.92,0,0,1,11.12,25.62c6,17.75,9.25,35.88,8.5,54.5-.5,12.75-2.75,25-8.12,36.63a60.37,60.37,0,0,1-12,17.62c-10.13,10.13-22.38,14.75-36.63,14.25-1,0-2-.12-3.25-.12-.37,3.75.75,7.12,1.88,10.87,1.5-.5,2.62-.87,3.75-1.37,14.25-5,28.5-10.13,43.12-13.63,12.25-3,24.75-5,37.38-4.62,17.62.62,33.12,6.37,45.87,18.87,5.25,5.13,10.13,10.75,15,16.25,10.13,11.38,20.25,22.75,30.25,34.25,9.5,10.75,18.88,21.5,28.25,32.38,1.75,2,3.38,4.37,5,6.5,2.25,3,2.38,6,.25,9.12a3.43,3.43,0,0,0-.5.88c6.13,6.37,12.25,12.62,18.5,19.25.63-1.25,1.25-2.13,1.63-3.13,14.25-32.37,29.12-64.37,44.37-96.25a452.31,452.31,0,0,1,30.25-52.87,141.7,141.7,0,0,1,30.13-32.75,66.36,66.36,0,0,1,8.88-5.63c2.25-1.25,4.87-1.87,7,.25s1.87,4.63.87,7a32.61,32.61,0,0,1-4.12,7.75c-4.38,6-9,11.75-13.63,17.5a5.28,5.28,0,0,1-1.5,1.38c-1.12.62-2.37.75-3.12-.38a4.17,4.17,0,0,1-.5-2.75,7.94,7.94,0,0,1,1.62-2.5c4-5.25,8.13-10.37,12.13-15.62a19.59,19.59,0,0,0,4-7.88,9.57,9.57,0,0,0-2.38.88c-3.12,2.25-6.5,4.25-9.37,6.75a143.34,143.34,0,0,0-27.76,31.75,523.89,523.89,0,0,0-31.25,56.25c-15.62,33-31,66.25-45.62,99.75a14.79,14.79,0,0,1-1.25,2.37,2.22,2.22,0,0,1-3,.63,4,4,0,0,1-1.25-2.5,21.84,21.84,0,0,1,1.12-3.75c-6.62-7.13-13.25-14-19.75-20.88-17.12,14.13-33.75,28.25-49.75,43.38,3.38,3.62,6.5,7.12,10,10.5A305.28,305.28,0,0,0,740,569.68a90.87,90.87,0,0,0,23,11.88,59.09,59.09,0,0,0,12.25,2.62c7.87,1,14.5-1.87,19.62-7.87A100.57,100.57,0,0,0,806,560.43c8.5-14.75,15.25-30.12,21.75-45.87,10.62-25.63,19.38-51.88,28.63-78,6.87-19.38,14-38.63,21-58a15.4,15.4,0,0,1,5-7c8-6.25,15.75-12.75,23.62-19.13a18.6,18.6,0,0,1,2.5-1.75,2.19,2.19,0,0,1,3,.63,2.3,2.3,0,0,1,.13,3.12,10.81,10.81,0,0,1-1.75,1.63c-7.63,6.12-15.13,12.5-22.75,18.5a15.64,15.64,0,0,0-5.5,7.5c-11.38,32-22.5,64-34.25,95.87-8.88,24.38-18.13,48.75-29.88,72a150.51,150.51,0,0,1-8,14.63,141.25,141.25,0,0,1-10.75,14.87c-7,8.63-16.5,11.25-27.25,9.63-8.25-1.25-15.75-4.38-23-8.25-10.75-5.75-20.5-13-30-20.63-11.25-9-22.25-18.37-31.75-29.37-.25-.25-.5-.38-1.13-.88-1.25,1.13-2.62,2.38-4,3.5-3.37,2.88-5.62,2.88-8.37-.62-4-5.25-7.75-10.63-11.38-16.13-2.75-4-5-8.37-7.87-13.25a14.82,14.82,0,0,0-.25,3c1,12,1.87,24,3,36,1.87,18.75,4.87,37.38,4.75,56.38a8.53,8.53,0,0,1,0,1.75,2.65,2.65,0,0,1-2.5,2.75c-1.5.12-2.38-.75-2.63-2.5a15.82,15.82,0,0,1-.12-2.38c0-15-1.88-29.87-3.63-44.75-1.87-16.12-3.87-32.25-4.37-48.5-.13-2.75-.5-5.37-.63-8.12a12.15,12.15,0,0,1,.75-4.25c1-2.13,3-2.25,4.63-.5a8,8,0,0,1,1.12,1.75c2.38,4,4.75,8,7.25,11.87,4.5,7,9,13.88,13.63,20.88a30.85,30.85,0,0,0,2.62,3.25c1.13-1,2-1.63,2.75-2.38,16.13-14.5,32-29.25,48.88-42.87a114.39,114.39,0,0,0,8.87-8.5c2.13-2.25,2.13-2.88.38-5.38-1.5-2-3-4-4.63-5.87-21.5-24.5-43.12-49-64.62-73.38-2.13-2.5-4.38-4.87-6.75-7.25-12.25-12.37-27.25-18.12-44.38-18.5-13.12-.37-25.87,1.88-38.37,5.25-9.75,2.63-19.25,6-29,9-1.75.5-2.63,1.25-2.75,3.25-.13,6-2.63,11.25-6,16-6.5,9.5-15.75,15.13-26.63,18.5-14.87,4.63-28,1.25-40.25-7.62-4.62-3.38-7.25-8.38-10.25-13.13A7.48,7.48,0,0,0,463.62,393.68Zm16.75-101.62v3.87c0,3.75.13,7.5-.12,11.25-.13,3.38-2,4.13-5,3-3.5-1.25-7-2.75-10.63-3.25a13.75,13.75,0,0,0-15.62,13c-.38,7.13,4.12,14.38,11.25,17.63,6.75,3.12,13.25,2.75,18.87-2.75,2-1.88,2.75-1.75,4.88.12,4.62,4.25,9.25,8.75,14.12,12.75a72.15,72.15,0,0,0,28,14.38c20.63,5.37,39-1.75,50.38-19.75a66.72,66.72,0,0,0,4.87-9.38,86.5,86.5,0,0,0,6.75-30.75c1-18.5-2.12-36.5-8-54a154.28,154.28,0,0,0-11-25.25c-13,7.75-27.25,10.38-42.37,11v4.88a31.89,31.89,0,0,1-2.63,13.62,83,83,0,0,1-3.5,7.75c-7,13-17,23-30.75,28.75C487,290.31,483.87,290.93,480.37,292.06Zm46.5,75.75c-16.37-3.75-29.87-13-42.37-24.75a16.82,16.82,0,0,0,0,2.62c1.75,14.75,2.37,29.38-.88,44.13-.37,1.5-.5,3.12-.87,4.62a2.52,2.52,0,0,1-3.13,2,2.48,2.48,0,0,1-2-2.75c0-.87.13-1.75.25-3-3,.63-5.75,1.25-8.62,1.88,3.62,7.5,8,13.37,15.25,16.87,6.87,3.38,13.87,5.75,21.62,4.75a48.28,48.28,0,0,0,20.13-6.87c7.5-4.75,13.12-11.13,16-19.63a38.11,38.11,0,0,0,1-5.12c-2.63,1-4.5,1.75-6.63,2.62.25,1,.5,1.63.63,2.25.37,1.75-.38,3.13-1.75,3.5a2.73,2.73,0,0,1-3.25-1.75,18.52,18.52,0,0,1-.88-2.87C530,380.31,528.5,374.31,526.87,367.81Z"/><path d="M568.87,292.31c-1.87-.25-3.37-.5-5-.75a11.78,11.78,0,0,1-7.5-4.88,25,25,0,0,1-4-11.37,5.19,5.19,0,0,1,.13-2.38,2,2,0,0,1,2.37-1.87,3.63,3.63,0,0,1,2.25,1.62,6.38,6.38,0,0,1,.5,2.25,25.91,25.91,0,0,0,1,4.25c1.88,5.75,3.75,7.25,9.75,7.63,4.75.25,6.25,2.12,5.63,6.75-.63,4-1.38,8-2.13,12-.37,2-1.5,2.75-3,2.5s-2.37-1.38-2.12-3.25c.37-3.25,1.12-6.5,1.75-9.75A13,13,0,0,0,568.87,292.31Z"/><path d="M553,335.56c-9.25-.38-16.25-4.38-20.25-13a12.24,12.24,0,0,1-1-3.5,2.52,2.52,0,0,1,4.87-1.25,44.73,44.73,0,0,0,2.63,5.5,17,17,0,0,0,22.12,5c1-.63,1.88-1.25,2.88-1.88,1.87-1.25,3.25-1.12,4.25.13s.62,3-1.25,4.37C563,333.81,558.37,335.68,553,335.56Z"/><path d="M534.62,285.31a21.28,21.28,0,0,1-1.75,5c-1.75,2.87-4.87,3.25-7.12.75a14.14,14.14,0,0,1-4-11.5c.37-4.38,4.37-6,8-3.38A12.36,12.36,0,0,1,534.62,285.31Z"/><path d="M580.12,266.06v1.37c-.12,3.25-1.87,5.75-4.25,6.25s-4.75-.87-6-4a31.1,31.1,0,0,1-1.62-7.5,4.47,4.47,0,0,1,2.62-5c1.88-.87,5.25.25,6.75,2A11.6,11.6,0,0,1,580.12,266.06Z"/><path d="M547.37,345.56a18.56,18.56,0,0,1-8.37-3.38,6.86,6.86,0,0,1-1.63-2.12,2.23,2.23,0,0,1,.88-3c.75-.38,2.25-.5,2.75,0,2.25,2,4.87,2.75,7.62,3.37,1.5.38,2.5,1.13,2.38,2.88C550.87,344.68,549.5,345.56,547.37,345.56Z"/><path class="cls-1" d="M897.75,287.31a2.14,2.14,0,0,1,1.59.65,2.17,2.17,0,0,1,.66,1.6v22.5a2.25,2.25,0,0,1-2.25,2.25h-7.5a2.14,2.14,0,0,1-1.59-.66,2.17,2.17,0,0,1-.66-1.59v-22.5a2.17,2.17,0,0,1,.66-1.6,2.13,2.13,0,0,1,1.59-.65ZM894,310.56a2.25,2.25,0,0,0,2.25-2.25,2.17,2.17,0,0,0-.66-1.6,2.27,2.27,0,0,0-3.18,0,2.26,2.26,0,0,0,0,3.19A2.14,2.14,0,0,0,894,310.56Zm30-36.66a10.72,10.72,0,0,1-.56,3.37,24.43,24.43,0,0,1-1.32,2.63,12.46,12.46,0,0,0-1.21,2.91h9.46a5.39,5.39,0,0,1,4,1.64,5.22,5.22,0,0,1,1.64,3.79,6.3,6.3,0,0,1-.52,2.53,7.38,7.38,0,0,1-1.26,2.07h-.1a8,8,0,0,1,.57,3.84,7,7,0,0,1-1.41,3.66,6.8,6.8,0,0,1,.09,3.75,7.69,7.69,0,0,1-1.59,3.28,5.08,5.08,0,0,1-.66,4.22,6.24,6.24,0,0,1-4.16,2.28l-.34.06a31.52,31.52,0,0,1-5.2.37h-1.17a19.73,19.73,0,0,1-5.66-.87l-.53-.17a39.71,39.71,0,0,1-4.27-1.64l-.84-.37a14.18,14.18,0,0,0-4.64-1.45h-.19a1.07,1.07,0,0,1-.79-.33,1.09,1.09,0,0,1-.33-.8V288.62a.89.89,0,0,1,.37-.75,47.26,47.26,0,0,0,4.3-5.48l.3-.43a30.09,30.09,0,0,1,3.75-4.69,6.42,6.42,0,0,0,1.38-2.21l.24-.63a25.09,25.09,0,0,0,.72-2.69v-.09l.19-.69a22.11,22.11,0,0,1,.84-2.59c.63-1.38,1.35-2.06,2.16-2.06a7,7,0,0,1,4.22,1.21Q924,269.4,924,273.9Z"/></g><g id="Bubbles"><path d="M424.14,687.06H97.26a62.89,62.89,0,0,1-9.75-.63A17.83,17.83,0,0,1,77,680.56c-6.25-6.88-10.62-14.75-10.75-24.38a8.64,8.64,0,0,0-.12-1.75c-1.25-15,6.12-25.37,18.25-33,4.75-3,10.25-4.25,15.62-5.75a12.08,12.08,0,0,1,3-.12q237.75,1.31,475.5,2.5,79.32.38,158.5.87c3.13,0,4.88-.87,6.13-3.62,1.75-3.75,3.75-7.5,5.75-11.25a22.33,22.33,0,0,1,1.37-2.38,3,3,0,0,1,5.13.25,19.18,19.18,0,0,1,1.75,4.38c1,3,1.87,6,2.75,9.12.5,2,1.75,2.75,3.75,3.25a66.89,66.89,0,0,1,11.62,3.88c9.13,4.12,13.5,11.75,14.63,21.37a30.57,30.57,0,0,1-2.25,15.63c-4.13,9.37-10.38,17-19.25,22.25-8.63,5-8.63,5-18.63,5H424.26Z"/><path d="M504,554.31a31.89,31.89,0,0,1,32.13-32c17.5-.13,31.87,14.5,31.87,32a32,32,0,1,1-64,0Z"/><path d="M294,554.43c0-17.75,14.5-32.25,32-32.12a32,32,0,1,1-32,32.12Z"/><path d="M399.64,554.31a31.89,31.89,0,0,1,32.12-32c17.5-.13,31.75,14.5,31.75,32a31.94,31.94,0,1,1-63.87,0Z"/><path id="Path-Copy-4" class="cls-3" d="M411.14,672.06H84.26a62.89,62.89,0,0,1-9.75-.63A17.83,17.83,0,0,1,64,665.56c-6.25-6.88-10.62-14.75-10.75-24.38a8.64,8.64,0,0,0-.12-1.75c-1.25-15,6.12-25.37,18.25-33,4.75-3,10.25-4.25,15.62-5.75a12.08,12.08,0,0,1,3-.12q237.75,1.31,475.5,2.5,79.32.38,158.5.87c3.13,0,4.88-.87,6.13-3.62,1.75-3.75,3.75-7.5,5.75-11.25a22.33,22.33,0,0,1,1.37-2.38,3,3,0,0,1,5.13.25,19.18,19.18,0,0,1,1.75,4.38c1,3,1.87,6,2.75,9.12.5,2,1.75,2.75,3.75,3.25a66.89,66.89,0,0,1,11.62,3.88c9.13,4.12,13.5,11.75,14.63,21.37a30.57,30.57,0,0,1-2.25,15.63c-4.13,9.37-10.38,17-19.25,22.25-8.63,5-8.63,5-18.63,5H411.26Z"/><path class="cls-1" d="M449.59,632.29,176,631.54a36.15,36.15,0,0,1-3.75-.13,2.46,2.46,0,0,1,0-4.87,18.92,18.92,0,0,1,3.75-.25q78,.18,156.12.5,194.82.56,389.5,1H726c2.25.12,3.37,1,3.37,2.62s-1.12,2.5-3.25,2.63a31.57,31.57,0,0,1-3.37,0l-273.13-.75Z"/><path class="cls-1" d="M405.59,649.29l-224.25-.75a29.21,29.21,0,0,1-3.37-.13,2.48,2.48,0,0,1-2.25-2.62,2.42,2.42,0,0,1,2.12-2.38,22.91,22.91,0,0,1,4.13-.25c42.12.13,84.37.38,126.5.5q159.93.57,319.75,1c1.5,0,3,0,4.37.13s2.63,1,2.5,2.62a2.63,2.63,0,0,1-2.75,2.5c-1.37.13-2.75,0-4.12,0q-111.19-.18-222.63-.62Z"/><path class="cls-1" d="M120,657.16c-6.38-.12-12.13-2.12-16.63-7a18.44,18.44,0,0,1-.5-24.87c8.38-9.88,24.75-10.38,33.75-1a18.51,18.51,0,0,1-.87,26.75C131.22,655.16,126,656.91,120,657.16Zm6.62-6.87c9.5-3.75,12.75-13.88,7-21.25-6.75-8.63-21.62-8.13-27.75.87-4.75,7-2,16.25,6.13,19.63,1.25-3.63,3.12-6.63,7.62-6.5C123.84,643.29,125.84,646.16,126.59,650.29Z"/><path class="cls-1" d="M675.09,650.41h-26.5a15.31,15.31,0,0,1-3.37-.25,2.17,2.17,0,0,1-1.88-2.5,2.42,2.42,0,0,1,2.13-2.37,14.49,14.49,0,0,1,2.37-.13c18-.12,36-.12,54.13-.25a19.55,19.55,0,0,1,2.75.13,2.42,2.42,0,0,1,2.12,2.37,2.3,2.3,0,0,1-2.25,2.5,23.17,23.17,0,0,1-3,.13H675.34C675.09,650.16,675.09,650.29,675.09,650.41Z"/><path class="cls-1" d="M126.59,636a6.27,6.27,0,0,1-6.37,6.12,6.72,6.72,0,0,1-6.75-6.25c0-3.37,3.25-6.5,7-6.5C123.72,629.41,126.59,632.41,126.59,636Z"/><path id="Path-Copy-3" class="cls-3" d="M491,539.31a31.89,31.89,0,0,1,32.13-32c17.5-.13,31.87,14.5,31.87,32a32,32,0,1,1-64,0Z"/><path id="Path-Copy-2" class="cls-3" d="M281,539.43c0-17.75,14.5-32.25,32-32.12a32,32,0,1,1-32,32.12Z"/><path id="Path-Copy" class="cls-3" d="M386.64,539.31a31.89,31.89,0,0,1,32.12-32c17.5-.13,31.75,14.5,31.75,32a31.94,31.94,0,1,1-63.87,0Z"/><path d="M523,550h-3.5c-6.37-.13-11-3-11.87-11.38a27.09,27.09,0,0,1,.62-7.75c.63-4,3.13-6.37,7-7.5a26.64,26.64,0,0,1,12.13-.5,68.59,68.59,0,0,1,9.87,2.5c4,1.5,6.63,4.63,6.75,9a51,51,0,0,1-.87,9.75,6.41,6.41,0,0,1-4,4.88,9.43,9.43,0,0,0-4.25,3.75,13,13,0,0,1-6.75,5,4.82,4.82,0,0,1-5.13-.88c-1.5-1.37-1.25-3-.62-4.75A7.28,7.28,0,0,0,523,550Zm6,1.37a20.53,20.53,0,0,0,2.38-3,6,6,0,0,1,4.12-3.62,3.37,3.37,0,0,0,2.75-3.38c.13-1.62.5-3.12.5-4.75,0-3.87-1.12-5.87-4.75-6.87a46.26,46.26,0,0,0-11.62-2c-8.5,0-9.63,1.75-9.5,10.25a7,7,0,0,0,.25,1.62c.87,3.38,2.5,4.75,6,5,1.37.13,2.75,0,4.12,0,5,0,5.63.63,5.63,5.75C528.71,550.48,528.71,550.48,529,551.35Z"/><path d="M319.09,545c-4.38,4.62-9.88,5.37-15.25,2.5a6,6,0,0,1-3.5-5.13,63.83,63.83,0,0,1,.25-9.87,5.47,5.47,0,0,1,5.37-5.25c5.38-.5,10.5.25,13.63,5.62,2.12-.75,4.12-1.62,6.12-2.37,3.88-1.38,6,.12,5.88,4.25a42.64,42.64,0,0,1-1.25,8.75c-.75,3.12-2.38,4-5.63,3.12C322.84,546.1,321,545.48,319.09,545Zm-13.63-7.13h0v1.75c0,3,.25,3.25,3.13,3.88a7.57,7.57,0,0,0,1.62.25c2.63.25,3.25-.25,3.75-2.75a24.77,24.77,0,0,0,.5-4.38c0-2.25-.62-3-2.75-3.62a26.69,26.69,0,0,0-3-.63c-2.5-.25-2.87.25-3.12,2.75C305.59,536,305.46,537,305.46,537.85Zm19.88,3.5c.25-1.75.5-3.25.75-5.5-2.5,1.25-4.38,2.13-6.75,3.25,1,.5,1.37.75,1.75.88A41.93,41.93,0,0,1,325.34,541.35Z"/><path d="M422.21,551c-.12,2.12-.37,4.12-.5,6-.25,2.5-1.12,3.5-2.87,3.37s-2.5-1.37-2.38-3.87c.13-1.88.25-3.88.38-5.75-1.38-.5-2.5-.88-3.63-1.38-3.62-1.62-6.37-4-7.5-7.87a14.52,14.52,0,0,1-.37-4.63,2.4,2.4,0,0,1,2.5-2.37,2.37,2.37,0,0,1,2.5,2.25,5.26,5.26,0,0,0,.12.62c.75,5,3,7.25,7.75,7.88,5.38.87,9.75-1.25,11.75-5.38,0-.12.13-.25.13-.37,1-2.13,2.12-2.88,3.5-2.38,1.62.63,2.12,2.13,1.37,4.38-1.5,4.12-4.5,6.62-8.5,8.12A24,24,0,0,1,422.21,551Z"/><path d="M412.59,533.85c.5-5,2.25-8.62,5.87-11.12a5.27,5.27,0,0,1,6.63,0c3.62,2.37,5.25,5.62,4.37,9.87a20,20,0,0,1-2.37,6.63c-3.25,5.25-10.13,4.87-12.88-.63A19.06,19.06,0,0,1,412.59,533.85Zm12-2.87c-.63-1.13-.88-2.25-1.63-3a2.63,2.63,0,0,0-2.37-.13c-2.38,1.5-3.25,5.88-1.75,8.25,1,1.75,2.75,2,3.75.25A54.81,54.81,0,0,0,424.59,531Z"/><path d="M526.84,539.23c-1.63,0-3.13.12-4.75,0-2-.13-3.25-1.38-3-2.88s1.25-2.25,3.25-2.25c2.5-.12,5-.12,7.5-.12a7.66,7.66,0,0,1,2.37.25,2.46,2.46,0,0,1,2,2.75,2.23,2.23,0,0,1-2.5,2.25Z"/></g><path d="M181.5,267.82a66.25,66.25,0,1,1-64.87-66.5A66.07,66.07,0,0,1,181.5,267.82Z"/><path class="cls-1" d="M140.66,259.71a22.55,22.55,0,0,1-2.25-1.5c-1.12-.87-1.62-2-.87-3.25a2.45,2.45,0,0,1,3.12-1.25c2.25.75,4.5,1.38,6.75,2.25,2.5.88,3.38,2.5,2.63,5.13s-1.75,5.12-2.75,7.75a2.7,2.7,0,0,1-3.13,2c-1.5-.38-2.12-1.63-1.87-3.5,0-.5.25-1,.37-2.13-1.37.63-2.25,1-3,1.38-7.25,4-14.62,7.87-21.87,11.87-.75.38-1.38.75-2.13,1.13-3.62,1.62-6.5-.13-6.37-4,.25-6.25.62-12.5.87-18.75.38-7.88.75-15.63,1.13-23.5a14.53,14.53,0,0,0-.13-2.25,7,7,0,0,1-1.75.75c-2.37.5-4.12-1-3.12-3.13a37.66,37.66,0,0,1,4.25-7.25c1.12-1.5,3.12-1.5,5-.25a67.36,67.36,0,0,1,5.87,4.63c1.5,1.37,1.75,2.75.75,3.87a2.59,2.59,0,0,1-3.62.5c-.38-.25-.75-.37-1.75-.87-.75,14.87-1.5,29.37-2.25,44C117.29,273,137,262.46,140.66,259.71Z"/><g id="Wifi"><path d="M166.14,28.32a34.4,34.4,0,0,1,17.5,4.5c4.13,2.25,8,5.12,12,7.75a6.86,6.86,0,0,1,1,.87c.75,1,1.13,2,.38,3.13a2.33,2.33,0,0,1-3.25.87c-1.25-.75-2.38-1.75-3.63-2.5-3.75-2.25-7.37-4.87-11.37-6.75-8.38-3.87-17-3.62-25.5-.25A42.49,42.49,0,0,0,135,49.82a18.72,18.72,0,0,0-2,3.5,2.58,2.58,0,0,1-3.13,1.5A2.52,2.52,0,0,1,128,51.94a8.56,8.56,0,0,1,1.37-3.5C137.14,37.19,151.64,27.94,166.14,28.32Z"/><path d="M192.77,55.94c0,2.13-1.25,3.25-2.75,3a8.43,8.43,0,0,1-2.5-.87c-2.13-.88-4.13-2-6.13-2.88a24.65,24.65,0,0,0-16.87-1.62c-5,1.25-9.88,2.75-13.88,6.12a18.35,18.35,0,0,0-5.25,6.25c-1,2-2.25,2.63-3.62,2s-2.13-2.5-1-4.37a32,32,0,0,1,5.37-6.88c5.13-4.87,11.63-6.87,18.38-8.37a28.21,28.21,0,0,1,18.62,2c2.63,1.12,5.13,2.25,7.63,3.62C191.64,54.32,192.27,55.44,192.77,55.94Z"/><path d="M168.14,94.44c-4.75.13-9.12-3.62-9.12-7.75,0-4.37,4.5-9.25,8.75-9.37,3.87-.13,9.25,5.12,9.37,8.87C177.14,90.44,172.77,94.44,168.14,94.44Z"/><path d="M182.14,70.82c0,1.87-1.75,2.87-3.62,2.12s-3.88-1.75-6-2.37a15.22,15.22,0,0,0-13.13,1.37A27,27,0,0,0,155,76.07c-.88,1-1.88,1.62-3.25,1.12a2.39,2.39,0,0,1-1.25-3.37,14,14,0,0,1,3.12-4.38c5.25-4.5,11.38-5.87,18.13-4.5,2.75.5,5.37,1.88,8,2.88A3.34,3.34,0,0,1,182.14,70.82Z"/></g><path d="M198.37,164.81a12.22,12.22,0,0,1-12.12,12.12A11,11,0,0,1,175,166.06a12.32,12.32,0,0,1,12-12.38A11.13,11.13,0,0,1,198.37,164.81Zm-12,6.75a6.89,6.89,0,0,0,6.75-6.75,5.76,5.76,0,0,0-5.87-5.75,6.81,6.81,0,0,0-6.88,7A5.6,5.6,0,0,0,186.37,171.56Z"/><path d="M220.87,178.93a11.37,11.37,0,0,1-11.5-11,11.51,11.51,0,1,1,11.5,11Zm.13-17.12a6.22,6.22,0,0,0-6.38,5.87,6.07,6.07,0,0,0,12.13.25A5.54,5.54,0,0,0,221,161.81Z"/><path d="M245.12,165.31a10.17,10.17,0,0,1,10.13-10.5,11.36,11.36,0,0,1,11.37,11.12,10.27,10.27,0,0,1-10.12,10.63C250.5,176.68,245.25,171.43,245.12,165.31Zm16.25.75a6.21,6.21,0,0,0-5.75-6,4.84,4.84,0,0,0-5.12,5.12,6.12,6.12,0,0,0,5.75,6A5,5,0,0,0,261.37,166.06Z"/></g><g id="Speech-Bubble"><path d="M1105.75,73.93c-.5,23.38-9.63,43.13-25.63,59.88a47.53,47.53,0,0,1-5.25,4.87,3.5,3.5,0,0,0-1.37,3.5,32.44,32.44,0,0,0,3,10.13c2.87,5.87,1.62,7.87-5,7.62-5.75-.25-11.13-2.25-16.13-4.87-1.87-1-3.25-1.25-5.25-.25a92.8,92.8,0,0,1-42.62,8.62c-22.5-1-42.13-9-57.13-26.25-13.5-15.37-19.12-33.62-17.25-54,2.5-27.12,16-48.25,37.5-64.12,19.63-14.38,41.75-21.13,66-18.5,28.13,3,49.75,16.37,62.5,42.37A73.54,73.54,0,0,1,1105.75,73.93Z"/><path class="cls-1" d="M1007.8,51.53c5.38-.75,9.25,1.5,12.25,5.38a38.61,38.61,0,0,0,4.75,5.25c5.25,4.62,13.88,4.75,19.5.37a33.74,33.74,0,0,1-.87-3.5c-.38-2.87,1.12-5.12,3.37-5.5s4.25,1.38,4.63,4.38c.12,1.12,0,2.25,0,3.75a33.94,33.94,0,0,0,13.25-.5c2.87-.75,4.5-.5,5.12,1.37s-.75,3.5-3.62,3.88c-5.38.75-10.75,1.75-16.25.12a3.24,3.24,0,0,0-2.38.5,23.67,23.67,0,0,1-11.87,3.75,19.29,19.29,0,0,1-16.38-6.62c-1.5-1.63-2.87-3.5-4.37-5.13-1.63-1.87-3.63-3-6.38-2.25-.37,1.63-.62,3.25-1,4.75-1.12,3.63-3.25,6.25-6.87,7.38-3.88,1.12-6.88-1.13-6.88-5.13,0-2.87,1.38-5,3.38-6.87,1.62-1.38,3.37-2.63,5-3.88-1.25-3.25-3.13-4.75-6.75-4.5a20.83,20.83,0,0,0-15.38,7.75A9,9,0,0,0,978.68,60c-.38,2-1.13,3-2.63,2.88s-2.62-1.13-2.62-3a11.83,11.83,0,0,1,.87-4.63c3.75-7.62,16.38-13.5,24.75-11.62a10.72,10.72,0,0,1,7.25,5.25A16.46,16.46,0,0,1,1007.8,51.53Zm-8.5,11.38c.25.25.5.37.75.62.75-1,1.5-2,2.25-2.87-.25-.25-.5-.38-.75-.63C1000.93,61,1000.05,61.91,999.3,62.91Z"/><path class="cls-1" d="M1058.93,104.41c.12,9.5-8.25,16.75-18.13,16a17,17,0,0,1-12.37-6.5,15.48,15.48,0,0,1,3.37-22.75,17.72,17.72,0,0,1,23.38,3.25A14.85,14.85,0,0,1,1058.93,104.41Zm-16.75,11c7.62-.25,13-6.75,11-13.63-1.38-4.87-5-7.37-10-8.12a11.41,11.41,0,0,0-12.63,7.5c-1.62,5,1,10.5,6.38,12.75A41.38,41.38,0,0,0,1042.18,115.41Z"/><path class="cls-1" d="M987.3,101.28c-2.12-3.5-4-4.5-7.37-3.5-3.13.88-6,2.13-7.13,5.63a2.29,2.29,0,0,1-3,1.5,2.41,2.41,0,0,1-1.75-2.88,6.71,6.71,0,0,1,1.13-3.12,15.68,15.68,0,0,1,14.5-6.5c3.62.25,6.25,2.37,8,5.62a16.22,16.22,0,0,1,1,2c5.12.25,10,.63,15,.88h1.37a2.68,2.68,0,0,1,2.63,2.25,2.51,2.51,0,0,1-2,2.75,20.87,20.87,0,0,1-4,.25c-3.5-.13-7-.25-10.5-.5a3.26,3.26,0,0,0-3.5,1.87,19,19,0,0,1-3.38,3.75,3.25,3.25,0,0,1-4.37.13,3.37,3.37,0,0,1-1.13-4.25,11.41,11.41,0,0,1,2.38-3.63C985.43,102.66,986.3,102.16,987.3,101.28Z"/><path class="cls-1" d="M1041.93,113.28c-3.25,0-5-1-6.38-2.5a2.57,2.57,0,0,1-.25-3.62,2.29,2.29,0,0,1,3.38-.38c1.75,1.38,3.5,1.25,5.37.5a2.83,2.83,0,0,1,2-.25c.75.25,1.88,1,1.88,1.5.12,1-.25,2.5-.88,2.88C1045.05,112.28,1042.93,112.91,1041.93,113.28Z"/><path class="cls-1" d="M1038.05,101.16a2.45,2.45,0,1,1-4.87-.5,2.57,2.57,0,0,1,2.62-2.13A2.8,2.8,0,0,1,1038.05,101.16Z"/><path class="cls-1" d="M1047.3,102.16a2.53,2.53,0,0,1-2.5,2.62,2.43,2.43,0,0,1-2.5-2.5,2.2,2.2,0,0,1,2.25-2.37A2.32,2.32,0,0,1,1047.3,102.16Z"/></g><g id="Small-Screen"><path d="M1138.61,535.06h-95.5a19.29,19.29,0,0,1-6.62-.88c-6.13-2.25-9-7.37-10-13.5a7.84,7.84,0,0,1,.25-3c5.12-20.5,10.37-41,15.5-61.37,6.62-26.63,13.25-53.38,19.87-80,2.38-9.5,8.38-15.38,18.25-16.88a39.76,39.76,0,0,1,7.75-.62l187.75,1.87c2.38,0,4.75-.12,7.13,0,8.62.75,13.37,7.5,11.25,15.88Q1276,448,1258,519.56c-2.25,8.62-8.13,13.12-16.25,15.12a49,49,0,0,1-10.5.88c-30.88.12-61.75,0-92.75,0A2.1,2.1,0,0,0,1138.61,535.06Z"/><path d="M1189.49,346.81h-95.75a19.35,19.35,0,0,1-6.63-.88c-6.12-2.25-9-7.37-10-13.5a8,8,0,0,1,.25-3l16.13-64.12c6.5-25.75,12.75-51.63,19.25-77.38,2.37-9.5,8.37-15.37,18.25-16.87a39.69,39.69,0,0,1,7.75-.63l187.5,1.88h4.37a25.08,25.08,0,0,1,3,.12c8.63.75,13.38,7.5,11.25,15.88L1340,207.43q-15.57,61.32-31,122.5c-2.63,10.25-9.5,16.13-20.25,17.13-2.5.25-5,.25-7.5.25h-91.75Z"/><path d="M1132.11,551.06c31,.37,62,.62,93,1a67.86,67.86,0,0,1,7.13.12c8,1,12.5,7.63,10.5,15.5q-16.5,65.25-33,130.38c-1,4-2.25,7.87-3,11.87-1.88,9.5-8.25,14.25-17.25,16.13a41.79,41.79,0,0,1-8.75.75c-63.25,0-126.63-.25-189.88-.13-8.75,0-14.5-6.25-15.75-13.62a12.9,12.9,0,0,1,.13-4.38q12.18-48.93,24.37-97.75c3.63-14.5,7.13-29.12,10.88-43.62,2.37-9.13,8.12-14.75,17.5-16.38a51.61,51.61,0,0,1,8.75-.75Q1084.74,550.55,1132.11,551.06Z"/><path class="cls-1" d="M1109.07,497.26h-93.61a19.08,19.08,0,0,1-6.5-.85c-6-2.2-8.82-7.22-9.8-13.21a7.93,7.93,0,0,1,.24-2.94c5-20.05,10.17-40.11,15.2-60,6.49-26.05,13-52.22,19.48-78.27,2.33-9.29,8.21-15,17.89-16.51a38.94,38.94,0,0,1,7.6-.61l184,1.83c2.32,0,4.65-.12,7,0,8.45.74,13.11,7.34,11,15.54q-17.83,69.89-35.54,139.9c-2.2,8.44-8,12.84-15.92,14.8a48.42,48.42,0,0,1-10.3.85c-30.26.12-60.53,0-90.91,0A2,2,0,0,0,1109.07,497.26Z"/><path class="cls-1" d="M1159.31,310.32h-93.85a19.08,19.08,0,0,1-6.5-.86c-6-2.2-8.82-7.21-9.8-13.2a7.86,7.86,0,0,1,.24-2.93l15.81-62.72c6.37-25.18,12.5-50.48,18.87-75.67,2.33-9.29,8.21-15,17.89-16.5a38.94,38.94,0,0,1,7.6-.61l183.79,1.83h4.29a22.25,22.25,0,0,1,2.94.13c8.45.73,13.11,7.33,11,15.52q-2.4,9.36-4.78,18.7-15.25,60-30.39,119.8c-2.57,10-9.31,15.77-19.85,16.75a72.2,72.2,0,0,1-7.35.25h-89.94Z"/><path class="cls-1" d="M1103.18,517.66c30.4.37,60.79.62,91.19,1a65,65,0,0,1,7,.13c7.85,1,12.26,7.46,10.3,15.18q-16.19,63.9-32.36,127.7c-1,3.91-2.2,7.71-2.94,11.63-1.84,9.3-8.09,14-16.91,15.79a40.79,40.79,0,0,1-8.58.74c-62,0-124.16-.25-186.17-.13-8.58,0-14.22-6.12-15.44-13.34a12.38,12.38,0,0,1,.12-4.29q11.94-47.92,23.9-95.74c3.55-14.2,7-28.53,10.66-42.73,2.33-8.94,8-14.45,17.16-16a50.71,50.71,0,0,1,8.58-.73Q1056.72,517.17,1103.18,517.66Z"/><path class="cls-2" d="M1076.36,547.82a54.09,54.09,0,0,1,53.88,54.5c-.38,31.25-25.5,53.62-54.25,53.75-29.63.12-54-24.63-53.88-54.13A54.1,54.1,0,0,1,1076.36,547.82Z"/><ellipse id="Oval" class="cls-4" cx="1074.61" cy="591.31" rx="18.5" ry="17.5"/><path class="cls-2" d="M1056.74,495.19c.37-2.62.62-7.12,1.25-9.62,1.25-5.88,2.62-11.75,4.12-17.5,1.75-6.75,6.13-11.38,12.5-14.38,10.38-4.75,21-7.87,32.38-8.25a11,11,0,0,1,7.75,2.75l7.5,6.38c.87.75,1.75,1.37,2.87,2.37,1.88-2.87,3.63-5.62,5.5-8.37l2.25-3.38a3.07,3.07,0,0,1,4.13-1.37,9.77,9.77,0,0,0,3.25.37,118.54,118.54,0,0,1,24,1.88c7.87,1.5,13.25,6.12,16.37,13.5a72.78,72.78,0,0,1,4.63,17.75c.5,4.37,1,8.75,1.37,13.25a11.59,11.59,0,0,1,0,3c-.25,2.37-1.37,3.5-3.87,4a19.5,19.5,0,0,1-2.75.25c-8.5,0-17-.13-25.5-.13-3.13,0-6.38-.12-9.5,0a269,269,0,0,1-44.88-1.37c-8.37-1-16.75,1.37-25.12.87-5.5-.25-11.13-.87-16.63-1.37C1057.86,495.69,1057.49,495.44,1056.74,495.19Z"/><path class="cls-2" d="M1190.61,308.82c-14.25-.5-28.62-1.13-42.87-1.63a300.49,300.49,0,0,0-36.75.5,5.83,5.83,0,0,0-2,.5c-2.75.75-4.5-.25-5-2.87a10.4,10.4,0,0,1-.13-2,49.49,49.49,0,0,1,6.63-22c3.5-5.88,8.5-9.38,15.25-10.25a54.18,54.18,0,0,1,7.75-.5c13.12,0,26.37.37,39.5.25,6,0,12-.5,18-.88a57.31,57.31,0,0,1,16.62,1.25c14.88,3.25,23.25,12.88,26,27.63a69.19,69.19,0,0,1,.88,7.12c.12,2.38-.88,3.38-3.13,3.63-1.37.12-2.75,0-4.12,0-12.25-.38-24.5-.88-36.75-1.25C1190.74,308.32,1190.61,308.57,1190.61,308.82Z"/><path d="M1181.38,262c.5,2.37.88,4.75,1.38,7.25.12.75.5,1.5.62,2.25.38,1.87-.25,3.12-1.75,3.5s-2.75-.38-3.37-2.13-1-3.75-1.5-5.62c-.25-1.25-.5-2.63-.75-4.25-1.75.25-3.38.37-5,.5s-3.13.25-5,.37l-1.13,5.25a15.52,15.52,0,0,1-.5,2.38,2.61,2.61,0,0,1-5.12-1,30.81,30.81,0,0,1,.62-3.38c.13-.87.38-1.75.5-2.62a9,9,0,0,0-.25-1c-7.25,5.25-14.37,6.87-20.87-.13-3.75.38-7.13,1-10.5,1a14,14,0,0,1-6.13-1.87,7.94,7.94,0,0,1-2.87-11.25c.75-1.38,2-2.5,2.75-3.88,1.75-2.75,3.37-5.62,4.87-8.5a10.53,10.53,0,0,0,.38-8.5,15.66,15.66,0,0,1,1.5-13.5,5,5,0,0,0,.75-3.75,25,25,0,0,1,1.12-12.5c4-11.25,10.75-20.25,22-25,3.38-1.5,6.88-2.25,10.63-.87a5.73,5.73,0,0,0,2.87-.38c4.88-1,9.75-2.37,14.63-3.12a38.43,38.43,0,0,1,17.25,1.37c13.75,4.25,21.75,14,25.37,27.5,2.25,8.63,1.38,17.38,1.13,26.13-.13,4.12,0,8.37.25,12.62a13.24,13.24,0,0,0,3.5,8c1,1.25,2,2.5,2.87,3.75,3.38,5.38,1.63,11.88-4.12,14.63a14.39,14.39,0,0,1-7.88,1.5,27.1,27.1,0,0,1-5.37-.88,8.22,8.22,0,0,0-7.88,1.13c-6.5,4.5-14.87,2.75-19.62-3.38a9.14,9.14,0,0,1-1-1.37C1184.63,260.48,1183.38,260.48,1181.38,262Zm-13.5-65.63a88.3,88.3,0,0,0-23.62,17.75,6.82,6.82,0,0,0-2,3.88c-1,8-.88,15.87,2,23.5,3.5,9.37,13.25,16.75,22.37,16.87a39.79,39.79,0,0,0,17.5-3.5,25.11,25.11,0,0,0,13.5-13.75c2.38-5.62,2.38-11.62,2.75-17.75C1187,217.6,1175.13,210.1,1167.88,196.35Zm-31.37,36.5V217.73c-3.38,1.5-3.88,4.25-4,7.12C1132.26,228.1,1132.76,231,1136.51,232.85Zm69.25-7c-.38,3.63-.63,7.13-1,10.63,3.25-1,5.25-3.5,5.12-6.75C1209.88,227.48,1209,226.6,1205.76,225.85Z"/><path d="M1107.88,429.85c-13.5.5-20.75-10.5-15.25-20.25a4.24,4.24,0,0,0-.5-1.12c-10-11.63-9-33.75,1-45.25,7.88-9,17.13-15.63,28.88-18.25,10.25-2.25,19.5.62,28,6.5a13.74,13.74,0,0,0,3.87,1.87,12.38,12.38,0,0,1,9.5,11.5,7.6,7.6,0,0,1,0,2.38c-1,3.37.5,6.12,1.88,9,3.37,7.25,6.37,14.5,7.87,22.37,1,5.13,1.63,10.38.5,15.5a19.61,19.61,0,0,1-1.87,5.38c-7,11.87-17.13,18.5-31.25,18.12-1.25,0-2.5-.12-3.75-.12-.13,0-.25.12-.75.25.5,1.25,1,2.37,1.5,3.62.25.75.75,1.38,1,2.13.75,1.87.5,3.25-.75,3.87s-3,.38-3.88-1.5c-1.25-2.62-2.25-5.5-3.25-8.25a6.86,6.86,0,0,1-.37-1.87,13.08,13.08,0,0,0-2.38-1,23.89,23.89,0,0,1-8.62-5.38c-1.88-1.75-2.25-3.37-1.13-4.62s2.5-1.13,4.5.5c5,4.5,11.13,6.5,17.75,6.87,12.25.88,22-6.25,27.13-16,2.25-4.37,1.62-9.12,1-13.75-.88-7-3.25-13.62-6.13-20.12-1.25-2.88-2.62-5.75-4-8.75-3,1.5-5.87,2.62-8.5,4.12-10.25,5.5-20.62,11-30.75,16.75-6.62,3.75-6.62,3.13-6,12.38.13,1.37.5,2.62.75,4s.13,3-1.5,3.87c-1.37.75-2.62.13-3.75-.75-1.5-1.25-3-2.5-4.5-3.62-2.25-1.5-3.87-1.25-5.75.75-3.37,3.62-3,7.87,1,10.87a10.51,10.51,0,0,0,8.38,2c3-.37,3.37-.25,4.87,2.5a27.36,27.36,0,0,1,3.13,10.75c.37,3.5.5,7,.75,10.5.12,2.25-.63,3.38-2.25,3.5s-2.88-1-3-3c-.38-3.75-.38-7.5-.75-11.25C1109.88,434.73,1109.38,432.1,1107.88,429.85Z"/><path d="M1149.88,399.73c-1.25-.38-2.37-.63-3.5-.88a8.61,8.61,0,0,1-5.37-5.25c-.5-1.37-.5-2.75,1-3.5a2.39,2.39,0,0,1,3.5,1c1.25,2.25,3.12,3,5.5,3.25,3.87.5,4.87,1.88,4.37,5.75a27.48,27.48,0,0,1-.87,4.63,2.42,2.42,0,0,1-2.75,2,2.3,2.3,0,0,1-2.25-2.5C1149.63,402.73,1149.76,401.35,1149.88,399.73Z"/><path d="M1152.38,420.23c-5.25.12-9-2.5-11.87-6.63a5.39,5.39,0,0,1-1.13-2.75,2.51,2.51,0,0,1,1.38-2.87,2.4,2.4,0,0,1,3,.87l.75,1.13a9.18,9.18,0,0,0,8.62,5,8.54,8.54,0,0,1,1.75.12,2.48,2.48,0,0,1,2.5,2.38c.13,1.37-.87,2.37-2.5,2.75Z"/><path d="M1134.63,400.1c-.25.38-.62,1.63-1.37,1.88-1,.37-2.75.5-3.38-.13a10.28,10.28,0,0,1-2.87-4.37c-.75-2.13,1.12-3.75,3.25-3.38C1132.13,394.48,1134.63,397.48,1134.63,400.1Z"/><path d="M1156.38,385.6a2.82,2.82,0,0,1-2.87,3.13c-1.88,0-4.25-2.38-4.38-4.5A3.36,3.36,0,0,1,1152,381C1154,380.85,1156.26,383.35,1156.38,385.6Z"/><path d="M1174.76,242.1c.5,2.13-1.13,3.88-2.25,5.38a7.35,7.35,0,0,1-12.63-.88,27.19,27.19,0,0,1-1.87-5c-.63-2,0-3.25,2-3.5,3-.37,5.5-1.75,8.12-3.25,2.13-1.25,4-.75,5,1.5A31.81,31.81,0,0,1,1174.76,242.1Zm-5.88-1.37c-1,.5-1.75.75-2.5,1.12l-2.25,1.13c.38,1.62,1.13,2.5,2.63,2.25S1168.88,243.85,1168.88,240.73Z"/><path d="M1160.13,229.23a6.88,6.88,0,0,1,2.13,1.62,3.2,3.2,0,0,1,.5,2.75,3.45,3.45,0,0,1-2.38,1.5c-1.87.25-5.62-2.25-6.37-4a3.2,3.2,0,0,1,.62-3.75c1.75-2,3.25-4,3.13-6.87a2.07,2.07,0,0,1,2.25-2.13c.87.13,2.37,1,2.5,1.75a17,17,0,0,1-.38,5.63A20.39,20.39,0,0,1,1160.13,229.23Z"/><path d="M1175.63,223.73c0-2.88,1.38-4.5,3.75-4.5a2.83,2.83,0,0,1,1,.12c1.63.5,2.63,2.5,2.38,5.13-.25,2.25-1.38,3.62-3.13,3.87s-3.25-1-3.75-3.12A4,4,0,0,1,1175.63,223.73Z"/><path d="M1145.38,221.6a6.91,6.91,0,0,1,.25-2.12,3.24,3.24,0,0,1,3.25-2.5c1.5-.13,2.5,1,2.88,2.75a15.22,15.22,0,0,1,.12,3.37,3.17,3.17,0,0,1-3.37,3c-1.5-.12-2.63-1.37-2.88-3.25C1145.51,222.48,1145.51,222.1,1145.38,221.6Z"/><path d="M1055.11,691.43H961.36c-8.87,0-14.25-4.25-16.12-13a10.22,10.22,0,0,1,0-4.37c3-12.13,6.12-24.25,9.25-36.25,8.75-35,17.37-70.13,26.12-105.13,2.25-9.12,8-15.12,17.5-16.87a56.44,56.44,0,0,1,9.13-.88l188.5,1.88a44.62,44.62,0,0,1,7.12.25c8,1.5,12,7.75,10,15.62-2.75,11-5.62,22-8.37,33-9.25,36.38-18.5,72.88-27.63,109.25-2.37,9.25-9.25,15.38-18.62,16.25a111.61,111.61,0,0,1-11.25.63h-91.75C1055.11,691.81,1055.11,691.68,1055.11,691.43Zm2.38-5.12v.37h91a52.11,52.11,0,0,0,9.87-.75c6.63-1.25,11.5-4.62,13.25-11.87,8.75-35.25,17.75-70.5,26.75-105.63,3.13-12.37,6.25-24.87,9.38-37.25.62-2.5.37-4.75-1.5-6.62a7.9,7.9,0,0,0-5.88-2.25h-6.12l-185.75-1.88a63.85,63.85,0,0,0-8.5.63c-7.63,1-12.25,5.62-14.13,12.87-7.75,31-15.37,61.88-23.12,92.88-3.88,15.62-7.75,31.25-11.75,46.87-1.63,6.5,2.75,12.63,9.37,12.63Z"/><path d="M1106.86,499.93h-94.12c-8.5,0-13.75-4-15.75-12.12a12.8,12.8,0,0,1-.13-5.75c3.5-14.38,7.25-28.63,10.75-42.88,8.25-32.87,16.25-65.62,24.5-98.5,2.25-8.75,7.75-14.37,16.88-16.37a46.32,46.32,0,0,1,10.12-1l188.13,1.87a39.77,39.77,0,0,1,7.75.5c7.37,1.63,11,7.88,9.25,15.25l-28.13,110.63c-2.75,10.75-5.62,21.5-8.12,32.37-1.63,7-5.88,11.38-12.13,14.13-4.62,2-9.5,2.25-14.37,2.25h-94.75A.48.48,0,0,0,1106.86,499.93Zm2-5.25v.38h91a86.22,86.22,0,0,0,9.88-.63c7.12-1,11.62-5.25,13.37-12.25,1.5-6,3-11.87,4.5-17.87q15.75-61.87,31.38-123.75c1.5-6.13-1.13-9.75-7.5-9.88h-5.75l-186.13-1.87a53.32,53.32,0,0,0-7.75.62c-8,1-12.62,5.63-14.62,13.25-6,23.88-11.88,47.88-17.88,71.75l-17.25,69a3.86,3.86,0,0,0-.25,1.63c1,6.5,5.63,9.87,10.25,9.75C1044.36,494.56,1076.61,494.68,1108.86,494.68Z"/><path d="M1196.86,136.18c38.25.38,69.25.63,100.25,1a38.69,38.69,0,0,1,8.5.5c7.38,1.63,11.13,7.88,9.25,15.13q-18.18,72-36.5,143.87c-1.37,5.63-4.87,9.38-9.75,12-5.12,2.88-10.87,3.38-16.5,3.38-45.75,0-91.62-.13-137.37-.25-17.25,0-34.5-.38-51.75,0-9.25.12-14.25-6.38-15.63-12.88a11.4,11.4,0,0,1,0-5q13.13-53.06,26.5-106c3-11.75,5.75-23.62,8.88-35.37,2.37-8.88,8-14.63,17.25-16.38a59.6,59.6,0,0,1,9.5-.87C1140.86,135.56,1172.49,135.93,1196.86,136.18Zm7.25,5.38h0q-47.05-.57-94.12-1a60.14,60.14,0,0,0-8.13.62c-7.75,1-12.5,5.63-14.37,13.13-8.5,34-16.88,68.12-25.38,102.12-3.12,12.5-6.12,24.88-9.37,37.38-1.75,6.62,2.75,12.75,9.5,12.75q94.13.18,188.12.25a53.05,53.05,0,0,0,9.88-.75c4.75-.75,8.87-3,11.37-7.25,1.13-1.88,1.5-4.25,2.13-6.38q17.8-69.93,35.37-140c1.63-6.37-1.12-9.87-7.75-10h-5.75C1265.24,142.18,1234.74,141.81,1204.11,141.56Z"/><path d="M999.49,653.68c2,2.38,1.75,5.25,1.37,8.13-.25,1.75-.5,3.62-.87,5.37-.75,3.38-2.5,4.25-5.75,3.25-2-.62-3.88-1.25-6-2-1.38,3.63-4,5.13-7.75,4.75a3.61,3.61,0,0,0-3.25,1.38c-1.25,1.25-2.63,2.5-4,3.75s-2.88,1.37-4,.25-1-2.38.25-4c.37-.5.87-1,1.12-1.38-1.37-1.25-3.12-2.25-3.75-3.62a10.61,10.61,0,0,1-.25-5.25q.57-4.5,1.5-9c.5-2.63,2-4.13,4.75-4a107.09,107.09,0,0,1,11.13.87,7.24,7.24,0,0,1,5.62,3.5c2.25-2.12,4.38-4,6.5-6,.88-.75,1.63-1.62,2.5-2.25a2.54,2.54,0,0,1,3.5,3.63A25.62,25.62,0,0,0,999.49,653.68Zm-26.25,2.63c-.38,2.12-.75,3.75-1,5.5s-.5,3.5-.63,5.12c3.25,1.13,5.75.75,7.75-1.75a21.59,21.59,0,0,1,3.5-3.25,4,4,0,0,0,1.38-4.37C980.74,656.18,977.11,656.43,973.24,656.31Zm22.37,3.62c-2.37.75-4.5,1.13-6,3.25,1.88.63,3.5,1.13,5.38,1.88C995.24,663.06,995.49,661.68,995.61,659.93Z"/><path d="M1162.74,652.18c1.62-1.25,2.87-2.37,4.25-3.37,1.62-1.13,3-1,4,.12s.62,2.63-.75,3.88l-1.88,1.5c-.62.5-1.12,1-2,1.75,3,1.62,2.5,4,1.5,6.37a15,15,0,0,1-9.37,8.88c-.88.25-1.75.5-2.75.87-.25,1.88-.5,3.88-.88,5.75-.37,2.13-1.5,3.25-3,3s-2.37-1.62-2.25-3.62c.13-1.38.38-2.75.38-4a2.45,2.45,0,0,0-.88-1.88,2.63,2.63,0,0,0-2.12.25c-1.63,1.13-3.25,2.5-4.75,3.75a14.68,14.68,0,0,1-2.25,1.63,2.5,2.5,0,0,1-3.13-3.88c1.25-1.25,2.75-2.37,4.13-3.5.87-.75,1.75-1.5,2.5-2.12-.75-2.13-1.63-4.13-2.13-6.13a10.77,10.77,0,0,1-.12-4,2.76,2.76,0,0,1,3-2.62c1.62.37,2.12,1.37,2.25,3a20.73,20.73,0,0,0,.37,4,16.74,16.74,0,0,0,1,2c.75-.38,1.25-.75,1.88-1.13a13.78,13.78,0,0,1-1.13-11.87,19.12,19.12,0,0,1,2.5-4.38c3.13-3.62,8-2.75,9.88,1.63C1162,649.06,1162.24,650.43,1162.74,652.18Zm.25,6.75c-3.13,2.5-6.13,4.88-9.38,7.63C1158.86,666.68,1162.61,663.68,1163,658.93Zm-8.75-.25c2.87-2.75,3.37-5.62,1.75-8.87C1153.36,651.81,1152.74,654.43,1154.24,658.68Z"/><path d="M1195.24,475.81c-.75-2.13-1.63-3.63-1.88-5.25a15.31,15.31,0,0,1-.25-4.75c.13-1.88,1.38-3,2.88-2.75s2.25,1.37,2.37,2.87.38,3.25.5,5.13c2.25-.5,2-1.5,1.5-2.88a13.23,13.23,0,0,1,.5-10,12.39,12.39,0,0,1,2.13-3.5c3-3.5,7.12-3.12,9.62.75a22.35,22.35,0,0,1,1.13,2,24.84,24.84,0,0,1,2.37-1.87,11,11,0,0,1,1.88-1.5,2.47,2.47,0,0,1,3.12.5,2.37,2.37,0,0,1,0,3.37c-1.75,1.88-3.62,3.5-5.25,5.25a26.07,26.07,0,0,0-3.25,4.25c-1.37,2.38-2.87,4.25-5.75,5-1,.25-1.75,1.13-3,1.88a8.64,8.64,0,0,0,10.5-4.63c.5-.87.63-2,1.13-2.87.75-1.5,2-2.25,3.25-1.75a2.54,2.54,0,0,1,1.62,3.37,24.84,24.84,0,0,1-2.62,5.88c-2.25,3.5-5.88,5.25-10.13,6.12-.25,1.75-.5,3.38-.62,5-.38,2.63-1.38,4-3,3.75s-2.5-1.62-2.25-4.25c.12-1.62.37-3.12.5-4.62-2.5-1.63-2.5-1.63-4.38,0-1.12,1-2.12,2-3.25,3s-2.5,1.12-3.62-.13-.75-2.5.25-3.62a17.06,17.06,0,0,1,2.12-2.13A12.57,12.57,0,0,1,1195.24,475.81Zm9.75-10.38c4-2.37,4.37-4.12,2.25-7.12C1205.11,460.31,1204.74,461.31,1205,465.43Z"/><path d="M1039.86,476.81c-.5.87-.87,1.5-1.25,2.12a5,5,0,0,1-4.25,2.5,111.42,111.42,0,0,1-11.25-.5c-4.25-.5-5.62-2.25-5.25-6.37a114.89,114.89,0,0,1,1.88-11.38,4.22,4.22,0,0,1,4.37-3.62c4,.12,8.13.5,12.13,1a5.65,5.65,0,0,1,5.12,4.25c2-.88,3.75-1.63,5.5-2.38,3.38-1.25,5.88.13,5.75,3.75a71.55,71.55,0,0,1-1.37,10.38c-.5,2.25-2.38,3.12-4.75,2.37S1042,477.56,1039.86,476.81ZM1036,466.06c-3.88-1.38-7.38-1.38-11.25-1.25-.63,3.62-1.13,7-1.75,10.87,4.12.13,7.62.75,11.37.13C1034.86,472.56,1035.36,469.31,1036,466.06Zm10.62,7.37c-.12-2,1-3.37.13-5.25-2,.88-3.88,1.63-5.75,2.5v.75C1042.61,472.06,1044.24,472.56,1046.61,473.43Z"/><path d="M1090.11,288.56c-1.37,4.12-4.5,5-8.12,4.75-3-.25-6.13-.25-9.13-.75-3.37-.5-4.87-2.25-4.5-5.63.38-4,1.13-8.12,1.88-12.12.5-2.38,2.12-3.63,4.75-3.5a92.85,92.85,0,0,1,10.12.62c2.88.38,5.63,1.25,6.75,4.63,1.88-.88,3.5-1.63,5.25-2.25,3.63-1.38,6.13,0,6,3.75a57.11,57.11,0,0,1-1.5,10.37c-.5,2.25-2.37,3-4.87,2.25C1094.49,290.06,1092.36,289.31,1090.11,288.56Zm-14.87-12.25c-.75,4-1.75,7.37-1.5,11.25h10.62a20,20,0,0,0,1.38-10.38C1082.49,277.06,1079,276.68,1075.24,276.31Zm21.62,8.87c.13-1.87,1.13-3.25.38-5.12-2,.87-3.88,1.62-6.13,2.62.75.5.88.75,1.25.88C1093.61,284.06,1095,284.56,1096.86,285.18Z"/><path d="M1257.74,292.56c-.25,1.62-.38,3-.5,4.25a16.23,16.23,0,0,1-.38,2.37,2.37,2.37,0,0,1-2.75,2,2.49,2.49,0,0,1-2.25-2.62,38,38,0,0,1,.38-4c.12-.75.12-1.63.25-2.5-1-.5-1.88-1-2.75-1.5-4.63-2.88-6.5-7.13-6.25-12.38.12-2.12,1.25-3.37,2.62-3.37s2.38,1.12,2.5,3.37v.38c.25,4.62,2,7.37,5.63,8.25s7.75-.88,9.87-4.38a27.1,27.1,0,0,0,1.5-3.37c.63-1.38,1.5-2.38,3.13-2a2.79,2.79,0,0,1,1.87,3.5,14.83,14.83,0,0,1-9.62,11C1260,291.93,1259,292.18,1257.74,292.56Z"/><path d="M1264.36,273.06a14.2,14.2,0,0,1-3.12,8.87c-3.5,4.13-8.88,3.13-10.63-2a13.68,13.68,0,0,1,2.38-12.87,5.84,5.84,0,0,1,5.87-2.63,5.91,5.91,0,0,1,4.75,4.38A41.23,41.23,0,0,1,1264.36,273.06Zm-8,5.87c3-3.25,3.38-6.37,1.38-8.87C1255.11,272.81,1254.61,275.43,1256.36,278.93Z"/><path id="Path-6" class="cls-5" d="M1047.05,646.85q12.23-31.53,27.56-31.53t28.61,34.49"/></g></g></g></g></g></svg>