<svg xmlns="http://www.w3.org/2000/svg" viewBox="0 0 1198.84 675.09"><defs><style>.cls-1{fill:#ffd622;}.cls-2{fill:#fff;}.cls-3,.cls-4{fill:#6250fe;}.cls-4{fill-rule:evenodd;}</style></defs><g id="Layer_2" data-name="Layer 2"><g id="All"><g id="Work-Essentials"><g id="Work-Essentials-2" data-name="Work-Essentials"><g id="Board"><path id="Path" class="cls-1" d="M505.48,36.64l267-1.44c2.16,0,4.32-.24,6.48-.24a2.46,2.46,0,0,1,2.64,2.4,23.12,23.12,0,0,1,.12,2.88c-.48,31.8-1.08,63.72-1.56,95.52-.6,32-1.08,64.08-1.68,96.24-.72,38.64-1.32,77.16-2,115.8a11.15,11.15,0,0,1-.6,3.48,3.65,3.65,0,0,1-3.72,2.64h-3q-267.66.54-535.32,1.2h-.6c-4.32,0-5.64-1.2-5.88-5.52v-2.28Q228.58,195.58,230,44a19.44,19.44,0,0,1,.12-2.64,3.84,3.84,0,0,1,3.6-3.24,14.46,14.46,0,0,1,2.28,0q134.64-.54,269.52-1.44Z"/><path class="cls-2" d="M466.9,169.16l-1.08,57.6c-.12,3.84-.72,4.56-4.56,4.8-7.08.36-14.16.48-21.24.72-30.84,1.08-61.68,2-92.52,3.12a7.29,7.29,0,0,1-2.28-.12c-2-.36-2.64-1.68-2-3.6a19.77,19.77,0,0,0,.72-3.84c1.08-38.4,2-76.8,3.12-115.2.24-9.36.48-18.72.84-28.08a19.44,19.44,0,0,1,.12-2.64c.36-2.76,1.8-3.48,4.32-2.28a6.55,6.55,0,0,0,3.36.72c6.36-.12,12.6-.48,19-.6,12.48-.48,25.08-.84,37.56-1.32,5.28-.24,10.44-.36,15.72-.72a13.65,13.65,0,0,1,8.28,2.4,137,137,0,0,1,19.56,14.76c4,3.72,7.44,7.92,11,12a7.38,7.38,0,0,1,1.44,4.2c-.24,15.84-.6,31.68-.84,47.4-.12,3.48,0,7,0,10.44C467,169.16,466.9,169.16,466.9,169.16Z"/><path class="cls-2" d="M511.18,246h33c4.56,0,6,1.2,6.84,5.76,1,4.92.6,9.72,0,14.64-1.44,13.32-6.48,25.32-13.08,36.72-2.4,4.08-5.16,7.8-7.56,11.88a5.5,5.5,0,0,1-4.8,2.76c-12.84.48-25.68,1.08-38.52,1.68-8.16.36-16.32.72-24.48,1a6.91,6.91,0,0,1-3.48-.6c-1.56-.72-2-3.24-1.2-4.92,1.44-3,2.88-6.12,4.44-9.12,8.16-15.84,10.8-32.76,10.8-50.4,0-1.68-.12-3.24,0-4.92.24-2.76,1.2-3.6,4-3.6,11.28-.24,22.68-.36,34-.6C511.18,246.2,511.18,246.08,511.18,246Z"/><path class="cls-2" d="M617.14,248c14.4.36,24.72.6,35.16,1,.84,0,1.8.12,2.64.12a5.79,5.79,0,0,1,5.52,4.32A36.39,36.39,0,0,1,662,262c.48,17.88-3.24,34.68-13.92,49.44a54,54,0,0,0-3.72,5.4,6.2,6.2,0,0,1-5.88,3.24c-8-.12-16.08-.12-24.24-.12-12.6,0-25.32,0-37.92-.12a12.55,12.55,0,0,1-4.68-1c-2-1-2.4-2.28-1.56-4.32a31.09,31.09,0,0,1,1.68-3.48,105.68,105.68,0,0,0,12.6-41.64,74.43,74.43,0,0,0-.12-13.68c-.48-5.88-.12-6.72,5.88-7C600.46,248.48,610.78,248.12,617.14,248Z"/><path id="Shape" d="M342.24,158.08l2.16-75.24c.12-3.72,1.56-5.52,5.28-6.12a10.32,10.32,0,0,1,1.92-.12l77.88-1.8a8.58,8.58,0,0,1,5.76,1.92L469.8,104.8a5.65,5.65,0,0,1,2.28,5q-1.44,57.78-2.76,115.44c0,2.4-.12,4.8-.24,7.2-.24,2.64-1.44,3.84-4.08,4.2-.72.12-1.56,0-2.28.12-38.16.6-76.32,1.32-114.48,1.92-1.32,0-2.64.12-4,0-3-.12-4.08-1.32-4.08-4.32,0-1.8.12-3.48.24-5.28.48-23.76,1.2-47.4,1.8-71Zm121.68,73.2c1-39.36,1.92-78.36,2.88-117.24H455c-6.12-.12-12.24-.12-18.36-.48-5-.36-6.48-2.16-6.48-7V83.68c0-1.08-.12-2.16-.24-3.6l-80.16,1.8c-1.44,50.64-2.88,100.92-4.32,151.44C385.08,232.6,424.32,232,463.92,231.28ZM435.48,108.16a154.11,154.11,0,0,0,29.76,0c-4.2-4.44-27.6-23-29.76-23.76Z"/><path d="M507.48,293.92c-2.28,1.92-4.32,4-6.48,5.64a9,9,0,0,1-4.2,1.56,3.76,3.76,0,0,1-4.08-5.28,11.59,11.59,0,0,1,3.36-4.2c2.4-1.68,5-2.88,7.68-4.44.12-2.64-.6-3.48-3.12-3.12A20.86,20.86,0,0,0,496,285.4c-4.92,2.28-9.36,5.28-11.52,10.56a2.58,2.58,0,0,1-3.12,1.68,2.54,2.54,0,0,1-1.56-3.48,13,13,0,0,1,2-4.08,29.82,29.82,0,0,1,16.56-10.92c6.48-1.56,10.08.84,11,7.32a3.91,3.91,0,0,0,.48,1.56l4.32,5.88a32,32,0,0,0,4.68-2.16c3-1.68,6.12-1.56,9.24-.72,1.92.48,2.76,1.8,2.4,3.36a2.5,2.5,0,0,1-3.36,1.68,9.4,9.4,0,0,0-7.8,1.32,12.11,12.11,0,0,1-1.8.84c-4,1.56-7.44,1-9.24-3.24C508,294.52,507.6,294,507.48,293.92Z"/><path d="M608.64,280.12c-3.48-1.56-8.28-.36-10.32,2.52-.36.48-.48,1.08-.84,1.32a4.5,4.5,0,0,1-2.52.84,2.08,2.08,0,0,1-1.8-2.4,6.28,6.28,0,0,1,1.2-3.24c2.76-4,10.68-6.48,15.12-4.8,1.68.72,3.12,2.16,4.8,3.24,2.52.6,5.4,1,8,1.8a11,11,0,0,0,8.52-.24c3.24-1.44,6.6-1.2,10-1.08a2.68,2.68,0,0,1,2.76,2.64,2.62,2.62,0,0,1-2.64,2.4c-1.32.12-2.64,0-4,.12a22.69,22.69,0,0,0-4.8,1,15.55,15.55,0,0,1-10.92.24c-1.08-.36-2-.6-3.12-1-2.16-.6-4-.6-5.4,1.68s-3.48,2.52-5,1.32-1.44-3,0-5.28A8.73,8.73,0,0,0,608.64,280.12Z"/><path d="M598.2,300.52a40.63,40.63,0,0,0,4.44.48c1.56,0,2.88-.48,3.12-2.52a3.07,3.07,0,0,1,2.64-2.88,2.94,2.94,0,0,1,3.36,1.92,14.08,14.08,0,0,1,.6,1.32h5.88a23.06,23.06,0,0,1,2.88,0c1.8.24,2.76,1.2,2.64,2.64a2.54,2.54,0,0,1-2.64,2.4c-3,.12-6.12.36-9.12.24a8,8,0,0,0-4.68.84A11.72,11.72,0,0,1,598.8,306c-4.08-.84-6.72-4.32-5.88-8a7.13,7.13,0,0,1,2.16-3.48,3.11,3.11,0,0,1,4.44.48c1.2,1.32,1.08,2.52-.36,4.32C599.28,299.44,599,299.68,598.2,300.52Z"/><path d="M613.08,258.76h11.4a14.46,14.46,0,0,1,2.28,0,2.42,2.42,0,0,1,.24,4.8,18.32,18.32,0,0,1-3.6.36l-23.76.36c-.6,0-1.44.12-1.92-.24-.72-.6-1.56-1.32-1.68-2.16a3.18,3.18,0,0,1,1.44-2.28,6.6,6.6,0,0,1,3.12-.6H613C613.08,259,613.08,258.88,613.08,258.76Z"/><path d="M498.84,263.8H487.08c-.6,0-1.44.12-1.92-.24-.72-.48-1.68-1.32-1.8-2a2.72,2.72,0,0,1,1.32-2.28,6.64,6.64,0,0,1,3.12-.72h23.52a7,7,0,0,1,1.56.24,2.32,2.32,0,0,1,1.8,2.4,2.22,2.22,0,0,1-1.92,2.28,9.41,9.41,0,0,1-2.64.24c-3.6.12-7.44.12-11.28.12Z"/><path d="M766.2,336.88a7.35,7.35,0,0,1-7.2,7.44c-3.48,0-6.84-3.48-6.84-7a7.69,7.69,0,0,1,7.44-7.2A6.61,6.61,0,0,1,766.2,336.88Z"/><path d="M248.76,48.88c4.2.12,6.72,2.4,6.6,6-.12,3.36-3.72,6.6-7.32,6.6a6.25,6.25,0,0,1-6-6.36C242,52,245.4,48.28,248.76,48.88Z"/><path d="M242.88,343c-3.36,0-5.64-2.16-5.64-5.4s2.88-5.88,6.48-5.88,5.88,2,5.88,5.4S247,343,242.88,343Z"/><path d="M764.88,55.36a5.79,5.79,0,0,1-5.64-5.64,6.21,6.21,0,0,1,6.48-6c2.88.12,4.92,2.52,5,5.88A5.64,5.64,0,0,1,764.88,55.36Z"/><path d="M529.92,263.2c-1.44,0-2.88.12-4.2,0a2.62,2.62,0,0,1-2.76-2.64c0-1.44,1-2.28,2.88-2.4,2.4-.12,4.8-.24,7.2-.24a9.35,9.35,0,0,1,2.52.48,2.06,2.06,0,0,1,1.32,2.64,3.5,3.5,0,0,1-1.92,1.8A33.28,33.28,0,0,1,530,263,.37.37,0,0,0,529.92,263.2Z"/><path d="M632.52,298.12a2.18,2.18,0,0,1,2,2.4,2.28,2.28,0,0,1-2.52,2,2.14,2.14,0,0,1-1.92-2.28A2.27,2.27,0,0,1,632.52,298.12Z"/><path d="M376.44,213.64v-11a43.16,43.16,0,0,1-4.32-.48q-2.88-.36-2.88-2.52a2.57,2.57,0,0,1,2.88-2.52,34.17,34.17,0,0,1,6.12.48,3.37,3.37,0,0,1,3,3.36c.24,4.44.36,8.88.24,13.32-.12,2.28-1.68,3.72-4,4.32a36.22,36.22,0,0,1-13,.36c-2.52-.36-3.72-1.8-4-4.44-.24-2.88-.36-5.88-.48-8.76,0-1.92,1-3.24,2.4-3.24s2.64,1,2.76,3c.24,2.76.24,5.4.48,8.4A45.6,45.6,0,0,0,376.44,213.64Z"/><path d="M367.92,146.44c3.24.12,6.12.24,8.88.36a4.79,4.79,0,0,1,2.28.24,3.72,3.72,0,0,1,1.68,2.16,1.93,1.93,0,0,1-1.68,2.4c-4.8.36-9.6.72-14.16-1.08a4.34,4.34,0,0,1-2.16-3,53.69,53.69,0,0,1-.6-10.68c.36-5.28,6.12-8.88,11.28-7.32a2.75,2.75,0,0,1,2.16,2.88,2.46,2.46,0,0,1-2.4,2.16h-.6c-5.16.48-5.4.72-5.28,5.88C367.44,142.36,367.68,144.28,367.92,146.44Z"/><path d="M365.4,180.4c2.16.12,3.72.12,5.16.36,2,.24,2.88,1.44,2.76,3s-1.2,2.16-3.12,2.16a48.18,48.18,0,0,1-5.88-.24c-2.28-.24-3.6-1.2-3.72-3.36a112.45,112.45,0,0,1,0-12.72c.24-3.48,2.52-5.52,5.88-6.12a59.12,59.12,0,0,1,6.48-.6,7.54,7.54,0,0,1,2.28.36A2.42,2.42,0,0,1,377,166a2.47,2.47,0,0,1-2.52,2.16c-1.68.12-3.24,0-4.92.12-3.48.36-4.08,1-4.2,4.44Z"/><path d="M406.68,146.44c-1.68,0-2.76-.6-3-2.16s1-2.88,3.12-3c5.16-.48,10.44-1,15.6-1.2s10-.12,15-.24a7.92,7.92,0,0,1,1.68.12,2.54,2.54,0,0,1,2,2.28,2.48,2.48,0,0,1-1.92,2.64,23.3,23.3,0,0,1-2.88.24c-7.08.24-14.16.36-21.24.6C412.32,145.84,409.68,146.2,406.68,146.44Z"/><path d="M386,110.56H373.32a19.44,19.44,0,0,1-2.64-.12,2.47,2.47,0,0,1-2.28-2.4,2.22,2.22,0,0,1,2-2.52c.6-.12,1.32-.12,1.92-.24,9-.24,18-.6,27-.84a11.59,11.59,0,0,1,2.88.12,2.43,2.43,0,0,1,2.16,2.16,2.25,2.25,0,0,1-1.68,2.52,9.64,9.64,0,0,1-3.24.48H385.8A1,1,0,0,1,386,110.56Z"/><path d="M376.44,174.16c2.52-4.08,4.8-7.92,7.08-11.76a14.55,14.55,0,0,1,1.8-2.64,2.35,2.35,0,0,1,3-.6,2.54,2.54,0,0,1,1.2,3.12,10.64,10.64,0,0,1-1,2L380.28,178c-1.68,2.76-3.12,3.12-5.88,1.2-1.8-1.2-3.48-2.64-5.16-4s-2.16-2.88-1.08-4.2,2.4-1.2,4.32.12C373.68,172,374.76,173,376.44,174.16Z"/><path d="M376.32,139.12c3-3.48,5.76-6.72,8.52-10a10.94,10.94,0,0,1,2-2,2.42,2.42,0,0,1,3.24.36,2.22,2.22,0,0,1,.24,3l-.72,1.08c-3.48,4.08-6.84,8.16-10.44,12.12-2.64,3-4.44,2.76-6.72-.6a18.68,18.68,0,0,1-1.92-3.36,2.58,2.58,0,0,1,4.44-2.64C375.36,137.56,375.6,138.16,376.32,139.12Z"/><path d="M409.44,170.32c2.4-.12,4.8-.36,7.08-.48,1.8-.12,2.88.72,3.12,2.16s-.72,2.52-2.4,3a4.5,4.5,0,0,1-1.32.12c-4.44.24-8.88.6-13.32.72-3,.12-4.44-.72-4.56-2.4s1.2-2.64,4.32-2.76l7.08-.36Z"/><path d="M410.64,210h-6.48c-1.92,0-3-.6-3.24-1.92s.72-2.64,2.64-3.12a29.72,29.72,0,0,1,3.24-.36l11-.36h1c1.92.12,3,.84,3.12,2.28s-.84,2.64-2.76,2.88-3.84.24-5.88.36h-2.64Z"/><path d="M434.88,174.52c-1.68,0-3.48.12-5.16,0s-2.88-1.08-2.88-2.4.84-2.52,2.76-2.64c3.84-.24,7.8-.48,11.76-.6a2.63,2.63,0,0,1,2.88,2.52A2.51,2.51,0,0,1,441.6,174c-2.16.24-4.32.24-6.48.36C434.88,174.4,434.88,174.52,434.88,174.52Z"/></g><g id="Password"><path class="cls-2" d="M191.14,77.12h95.52a21.43,21.43,0,0,1,10.92,2.76c4.32,2.52,7.2,5.88,7.08,11.52-.36,15.6-.36,31.2-.48,46.8,0,2.28-.36,4-2.76,4.92a10,10,0,0,0-3.48,2.4C295.78,148,293,148.4,290,148.4c-5.28.12-10.68.6-16,.72-26.64.36-53.16.6-79.8,1-18.72.24-37.32-1-55.92-1.8a307.66,307.66,0,0,0-37.92.6c-4,.24-7.8.36-11.76.36-5.64-.12-9.72-2.88-12.24-7.92a33,33,0,0,1-3.36-13.92c-.12-3.84.24-7.56.36-11.4.12-8.28.24-16.56.12-24.84a7.49,7.49,0,0,1,1.08-4.32,16.69,16.69,0,0,1,6.72-5.52c3-1.32,6-2.64,9-3.84a12.23,12.23,0,0,1,4.2-.48q48.42.18,96.6.12Z"/><path d="M190.68,75.16q49-.36,97.8-.6a25.84,25.84,0,0,1,9,1.56c6.72,2.28,10.56,7.08,10.8,14.4.36,14.76.6,29.4.84,44.16.12,9.12-7.56,17.16-16.68,17.76-1.56.12-3,.12-4.56.12q-94.32-.36-188.52-.84a58.85,58.85,0,0,0-6.48.48c-7.68.84-15.6-3.12-19.08-9.6-1.8-3.24-2-7-2.16-10.44-.12-13.68-.12-27.24-.12-40.92A13,13,0,0,1,77.64,80a26.11,26.11,0,0,1,12.6-4.08c1.44-.12,2.88-.12,4.2-.12,32.16-.36,64.2-.48,96.24-.6Zm2.64,71.76v.36h95.16a24,24,0,0,0,4.2-.24c5.64-.6,11.16-6.48,11-12-.24-14.76-.48-29.4-.84-44.16-.12-6.12-3.36-9.6-9.48-10.68a48.57,48.57,0,0,0-7.2-.6c-36.48.12-72.84.36-109.32.6-28,.12-55.8.36-83.76.48a25.94,25.94,0,0,0-10.8,2.16c-4,1.8-5.88,4.8-5.88,9.24.12,10.32,0,20.76.12,31.08,0,4.08.36,8.28.48,12.36a10.11,10.11,0,0,0,4.32,8,14.94,14.94,0,0,0,11.4,3,32.73,32.73,0,0,1,4.92-.36C129.72,146.68,161.52,146.8,193.32,146.92Z"/><path d="M34.56,113.32c.36-3.6.6-7,.84-10.32a14.08,14.08,0,0,1,4.68-9.12c3.48-3.24,7.8-2.76,10.08,1.56a22.89,22.89,0,0,1,2.16,6.48c.48,2,.48,4.08.84,6.12.24,1.44.6,3,.84,4.08.48.36.72.48,1,.48,4.68.72,5.16,1.2,5.4,6,.12,3.72.48,7.44.48,11.16a32.58,32.58,0,0,1-.6,5.88c-.48,2.64-2,4.44-4.92,4.44-6.48.12-12.84.48-19.32.12-4.08-.12-5.52-2-5.76-6.12-.24-5.4-.12-10.92-.24-16.32A3.43,3.43,0,0,1,32.52,114,6.93,6.93,0,0,0,34.56,113.32Zm10.2-16.2C39,101.2,40.68,107.2,40,113.2c3.12-.24,5.76-.36,8.4-.48C48.24,104.68,47.16,100,44.76,97.12Z"/><path d="M156.6,115.84c-1.44-.6-2.52-1.08-3.48-1.56a13.68,13.68,0,0,1-2.28-1.2c-1.32-.84-1.8-2.28-1.08-3.36a2.54,2.54,0,0,1,3.12-1.2,20,20,0,0,1,2.4,1c1,.36,1.92.72,3.36,1.2V106a2.38,2.38,0,0,1,2.16-2.52,2.35,2.35,0,0,1,2.76,2.16c.24,1.44.24,3,.36,4.68,1.56,0,2.52-1.2,3.6-1.8s2.16-1.44,3.36-2a2.41,2.41,0,0,1,2.52,4.08,47.71,47.71,0,0,1-4,2.88l-1.32,1.32q3.42,1.44,6.48,2.88a14.58,14.58,0,0,1,2.4,1.08,2.48,2.48,0,0,1,1,3.36,2.42,2.42,0,0,1-3.12,1.2c-1.8-.6-3.36-1.44-5.16-2.16s-3.36-1.44-5.28-2.16v4.92c0,2.28-.84,3.48-2.4,3.6s-2.52-1.08-2.76-3.36c-.12-1-.24-1.92-.36-3.24-1.44,1-2.64,1.8-3.72,2.52a22.51,22.51,0,0,1-2.16,1.44,2.46,2.46,0,0,1-3.24-.72,2.29,2.29,0,0,1,.36-3.24,40.8,40.8,0,0,1,3.6-2.76C154.56,117.4,155.4,116.8,156.6,115.84Z"/><path d="M110.88,111.52c-.24-1.68-.36-3-.48-4.2-.24-2,.36-3.36,1.92-3.6s2.64.6,3.24,2.52a41.56,41.56,0,0,1,.84,4.92c1.56-1.08,3-2.16,4.32-3.12a15.9,15.9,0,0,1,3-1.92,2.32,2.32,0,0,1,3.12.84,2.29,2.29,0,0,1-.48,3.24l-4.68,3.6a18.67,18.67,0,0,1-1.44,1.32c1.44.6,2.64,1.08,3.72,1.56a25.68,25.68,0,0,1,2.64,1.2c1.2.72,1.92,1.8,1.32,3.24a2.47,2.47,0,0,1-3.24,1.32,13.06,13.06,0,0,1-3-1.2c-1.32-.48-2.64-1-4.44-1.68.12,1.92.36,3.36.48,4.8.24,2-.48,3.24-2,3.48s-2.64-.72-3-2.64c-.24-1.08-.36-2.16-.6-3.6-.84.48-1.56.84-2.16,1.2-.84.48-1.56,1.2-2.4,1.68a2.29,2.29,0,0,1-3.24-.48,2.4,2.4,0,0,1,.12-3.24,20.82,20.82,0,0,1,3-2.52c.6-.48,1.08-1,1.92-1.68-1.32-.6-2.4-1-3.48-1.44a7.49,7.49,0,0,1-1.92-1.2,2.49,2.49,0,0,1,2.16-4.32A26.57,26.57,0,0,0,110.88,111.52Z"/><path d="M248,116.44c-1.56-.84-2.64-1.32-3.72-2-1.92-1.08-2.52-2.64-1.8-4s2-1.56,4.08-.72c.84.36,1.56.6,2.4,1a1.61,1.61,0,0,0,.6-.12v-3.48c.12-2,1-3.24,2.4-3.24s2.52,1.08,2.76,3.12a10.32,10.32,0,0,1,.12,1.92c0,.6.12,1.08.12,2.16a22.94,22.94,0,0,0,2.52-1.68,25.14,25.14,0,0,0,2-1.68,2.29,2.29,0,0,1,3.24.24,2.55,2.55,0,0,1,.12,3.36,12.76,12.76,0,0,1-1.8,1.8c-.48.48-1.08,1-1.92,1.8,1.68.72,3,1.32,4.44,1.92a13.68,13.68,0,0,1,2.28,1.2,2.32,2.32,0,0,1,.72,3.24,2.29,2.29,0,0,1-3,1.2c-1.92-.72-3.84-1.56-5.76-2.4a15,15,0,0,0-2.16-.72v3.6c0,.84.24,1.68.24,2.64a2.73,2.73,0,0,1-2.28,2.88c-1.32.24-2.52-.84-2.88-2.52-.24-1.32-.36-2.76-.6-4.68-1.44,1.08-2.64,1.8-3.72,2.64a17.17,17.17,0,0,1-1.8,1.32c-1.44.84-2.64.6-3.48-.6a2.27,2.27,0,0,1,.24-3.24,30.3,30.3,0,0,1,3-2.52C245.52,118.24,246.6,117.4,248,116.44Z"/><path d="M211.68,120.16v5c0,1.92-.84,2.88-2.28,3s-2.4-.72-2.76-2.64c-.24-1.68-.36-3.36-.6-5.4-1.08.48-1.8,1-2.52,1.32-1.92,1-3.24.84-4.08-.48s-.36-2.4,1.2-4c.36-.36.84-.72,1.44-1.2-1.44-.72-2.76-1.2-4-1.92-1.56-.84-2.16-2.16-1.68-3.48s1.92-1.8,3.6-1.32,3.12,1.32,5.28,2.16v-4.56c.12-2.28,1.08-3.48,2.64-3.48s2.4,1.2,2.64,3.6c.12,1.08.12,2.16.24,3.24,0,.12.12.12.36.48,1.8-1,3.48-1.92,5.4-2.88q3.42-1.8,4.68.36c.84,1.44.12,2.88-2.28,4.32-1.2.72-2.52,1.44-3.72,2a7.11,7.11,0,0,0-.48.72c1.08.48,2.16,1,3.12,1.32,2.16,1,2.88,2.16,2.28,3.6s-2,1.92-4.2,1.2c-.72-.24-1.44-.6-2.16-.84A4.77,4.77,0,0,1,211.68,120.16Z"/></g><g id="Mail"><path class="cls-2" d="M882.7,193.4H822.82c-4.32.12-4.92-1-4.92-4.8-.36-19.68-.84-39.24-1.32-58.8,0-1.92-.84-3.84-1.08-5.64a10.32,10.32,0,0,1,0-3.84,3.41,3.41,0,0,1,5.16-2,77.87,77.87,0,0,1,6.6,4.32,2.63,2.63,0,0,1,1.2,1.08c1.08,3.12,4,3.84,6.36,5.16,16,8,32,16,47.88,24a4.88,4.88,0,0,0,5.64-.36q25.56-16.74,51.36-33.24c.84-.48,1.68-1.08,2.52-1.56,2.76-1.56,4.56-.48,4.8,2.76.24,2.64.24,5.28.36,7.8.84,19.92,1.56,39.84,2.4,59.76.24,4.56-1.2,4.44-4.2,5.28a14.65,14.65,0,0,1-3.24.12H882.82C882.7,193.28,882.7,193.28,882.7,193.4Z"/><path d="M879.5,44a20,20,0,0,1,2.76,1.44A9.59,9.59,0,0,1,883.82,47c20.52,21.6,41,43.08,61.56,64.68.72.84,1.56,1.56,2.16,2.4,1.2,1.8.48,3.36-1.56,4.08a21.9,21.9,0,0,0-3.84,1.68q-25.2,16.38-50.28,33c-1,.6-1.8,1.2-2.76,1.8a4.34,4.34,0,0,1-4.92.12c-3.84-2.16-7.68-4.08-11.52-6.24-17.52-9.36-34.92-18.72-52.44-28.08A17.18,17.18,0,0,1,817.7,119c-3.24-2.16-3.48-4.08-1-7,19.44-22,39-43.8,58.44-65.76C876.26,45.2,877.46,44,879.5,44Z"/><path d="M957.26,73.28c-.72-.48-1.8-.84-2-1.56a3.67,3.67,0,0,1,.12-2.76,5.27,5.27,0,0,1,1.92-1.68c7.92-4.92,16-10,23.88-14.88a8.06,8.06,0,0,1,1.44-.72,2.6,2.6,0,0,1,2.64,4.44l-1.08.72c-7.92,4.92-16,9.84-23.88,14.76A22.33,22.33,0,0,1,957.26,73.28Z"/><path d="M946.1,60.68c-2.4.12-3.6-1.8-2.64-3.6a16.72,16.72,0,0,1,1.8-2.28l18-16.56a5.33,5.33,0,0,1,1.32-1,2.55,2.55,0,0,1,3,.48,2.37,2.37,0,0,1,.24,3,7.53,7.53,0,0,1-1.32,1.44L947.78,59.48A9.09,9.09,0,0,1,946.1,60.68Z"/><path d="M985.58,74.48c1.44.12,2.4.6,2.76,2a2.47,2.47,0,0,1-1.44,3,4.57,4.57,0,0,1-1.2.36c-5.88,1.68-11.64,3.48-17.52,5.16-1.92.6-3.36,0-3.84-1.32s.12-2.88,2-3.48c6-1.92,12-3.72,18.12-5.52A4.45,4.45,0,0,0,985.58,74.48Z"/><path class="cls-1" d="M929.41,104.88c-.24,6.84-.48,13.68-.72,20.64,0,2.28-.84,3.6-3.24,4.56a69.22,69.22,0,0,0-10.44,6l-22,13.68a14.65,14.65,0,0,0-3,2.4,3,3,0,0,1-3.84.6c-.72-.36-1.32-.72-2-1.08q-25.38-13.86-50.88-27.6c-2.52-1.32-3.36-2.88-3.24-5.88.6-11.4.72-22.92,1.08-34.32.24-7.44.36-14.88.6-22.2.12-3.48.72-4.08,4.32-4.08,20.64-.12,41.16-.36,61.8-.6a9.31,9.31,0,0,1,7,2.76c7.44,6.84,15,13.68,22.56,20.4A6.68,6.68,0,0,1,930,86.4c-.48,6-.48,12.24-.6,18.48Z"/><path d="M814.08,157c-.48-13.56-1-25.44-1.44-37.32a10.26,10.26,0,0,1,0-1.92c.24-4.2,2.4-5.4,6-3.36q26.1,14.22,52.2,28.56c4.32,2.4,8.64,4.56,12.84,7.08a4.15,4.15,0,0,0,5-.12q26.64-17.1,53.52-34.08l2.16-1.44c3-1.68,5.16-.6,5.52,2.76.36,4,.36,7.8.48,11.76.6,20.28,1.32,40.56,1.92,60.84,0,1.2.24,2.4.24,3.6.12,2-.48,2.88-2.52,3.12-1.2.12-2.4.12-3.6.12-40.56.12-81.12.12-121.68.24-2,0-4.08.12-6.24.24s-3-.72-3.36-2.76c-.12-.6,0-1.32-.12-1.92C814.8,179.92,814.44,167.68,814.08,157Zm133,34.2c-.72-23.76-1.44-47-2.28-70.92-1.56,1-2.52,1.44-3.48,2.16l-48.6,31c-1.08.72-2.28,1.32-3.36,2-2.52,1.56-4.68,1.08-7.2-.36q-30.42-16.74-60.84-33.24a23.72,23.72,0,0,0-3.48-1.68c1,24.12,1.68,47.76,2.64,71.28C862.92,191.2,904.68,191.2,947,191.2Z"/><path d="M870.84,93.76c-7.56.12-15,.36-22.56.48a23.12,23.12,0,0,1-2.88-.12,2.22,2.22,0,0,1-1.92-2.28,2.43,2.43,0,0,1,1.92-2.4,9.36,9.36,0,0,1,2.64-.36c15.72-.36,31.44-.6,47-.84h1.32a2.61,2.61,0,0,1,2.52,2.52,2.54,2.54,0,0,1-2.4,2.64,18.58,18.58,0,0,1-2.64.12H871C870.84,93.52,870.84,93.64,870.84,93.76Z"/><path d="M882.72,102h14.64a6.59,6.59,0,0,1,3.12.48,3,3,0,0,1,1.44,2.28,3.39,3.39,0,0,1-1.56,2.16,5.85,5.85,0,0,1-2.52.36c-9.72.12-19.32.36-29,.48a8.18,8.18,0,0,1-3.48-.48,2.91,2.91,0,0,1-1.56-2.4c.12-.84,1.2-1.68,2-2.16.6-.36,1.44-.12,2.28-.12h14.64Z"/><path d="M862.8,75.16c4-.12,7.8-.36,11.76-.48.84,0,1.8-.12,2.64-.12,1.8.12,2.88,1,3.12,2.28s-1,2.64-2.88,2.88c-3,.24-6.12.36-9.12.48-6.12.24-12.24.36-18.24.6a23.12,23.12,0,0,1-2.88-.12c-1.56-.36-2.52-1.44-2.28-2.76a2.68,2.68,0,0,1,2.4-2.28c.48,0,.84-.12,1.32-.12H863C862.8,75.4,862.8,75.28,862.8,75.16Z"/><path d="M862.92,121.72H850.8a7.92,7.92,0,0,1-1.68-.12,2.54,2.54,0,0,1-2.64-2.4c-.12-1.44.84-2.4,2.64-2.64a19.44,19.44,0,0,1,2.64-.12c8.16.12,16.32.12,24.6.24,2.64,0,4,.84,4.08,2.4s-1.32,2.76-4,2.88c-4.44.12-9,0-13.44,0C862.92,122,862.92,121.84,862.92,121.72Z"/><path d="M850.2,108.64h-4.56c-1.8-.12-2.88-1.08-3-2.4s.84-2.52,2.76-2.64c3.6-.36,7.2-.36,10.68-.48a2.28,2.28,0,0,1,2.52,2,2.4,2.4,0,0,1-1.68,2.76,14,14,0,0,1-2.16.48c-1.56.12-3,0-4.56,0Z"/></g><g id="Clock"><circle id="Oval" cx="1061.54" cy="136.5" r="58.5"/><path class="cls-2" d="M1065.44,133.77c3.48-2.4,6.24-4.32,9.12-6.36,2.28-1.56,3.48-1.68,4.56-.36s.6,3-1.56,4.68c-3.12,2.28-6.24,4.32-9.48,6.48a16.12,16.12,0,0,1-3.24,1.56c-2.4.72-4.08-.36-4.56-2.76a11.68,11.68,0,0,1-.24-2.88c0-3.6.12-7.2.12-10.8v-16c0-2,.84-3.24,2.28-3.36s2.64.84,2.76,3c.24,3.84.24,7.56.24,11.4,0,4.08-.24,8.28-.24,12.36C1065.2,131.37,1065.32,132.21,1065.44,133.77Z"/><path class="cls-2" d="M1013.61,134.32h2.4a2.24,2.24,0,0,1,2.4,1.8A2.28,2.28,0,0,1,1017,139a8.9,8.9,0,0,1-7.8-.48,2.7,2.7,0,0,1-1.08-2.4,4,4,0,0,1,2.16-2A11.09,11.09,0,0,1,1013.61,134.32Z"/><path class="cls-2" d="M1107.41,141.9c-2-.24-3.24-1.08-3.36-2.52s.84-2.4,2.88-2.88a30.15,30.15,0,0,1,3.24-.48c1.32-.12,2.4.24,2.76,1.56a2.3,2.3,0,0,1-1.2,3A18,18,0,0,1,1107.41,141.9Z"/><path class="cls-2" d="M1066.05,89.19c-.72.72-1.32,1.68-2.28,2a2,2,0,0,1-2.64-1.2,15.64,15.64,0,0,1-1.08-4.68,2,2,0,0,1,1.92-2.28,2.24,2.24,0,0,1,2.76,1.32A29.91,29.91,0,0,1,1066.05,89.19Z"/><path class="cls-2" d="M1056.05,186.76a2.47,2.47,0,0,1,2.28-2.76c1.56-.12,3.6,2,3.72,3.84a2.36,2.36,0,0,1-2.4,2.52C1057.85,190.48,1056.17,188.68,1056.05,186.76Z"/></g><g id="Accent"><path d="M759.61,6.15c-1.92,1.56-3.72,3-5.52,4.44-2.76,2.16-3.48,2.16-6.36.24-2.16-1.44-4.32-3-6.6-4.68l-6.48,6.48c-2.64,2.64-3.6,2.64-6.36.24-1.32-1.08-2.64-2.28-4.2-3.6-.84,1.32-1.44,2.4-2.16,3.48s-1.44,2.52-2.16,3.6a2.41,2.41,0,0,1-3.48.84c-1.44-.84-1.44-2.16-1-3.48a17,17,0,0,1,1.56-2.88c1.2-1.92,2.28-4,3.48-5.88,1.68-2.64,3.12-2.88,5.52-1,1.68,1.32,3.36,2.76,5.28,4.44,1.56-1.56,3.12-3,4.68-4.56l2.28-2.28c1.8-1.68,2.88-1.8,4.92-.48,1.32.84,2.52,1.8,3.72,2.64s2.52,1.68,3.84,2.64c2.16-1.68,4.2-3.36,6.24-4.92,2.64-2,3.84-2,6.12.48,1.92,2.16,3.84,4.44,5.76,6.6a7.7,7.7,0,0,1,1.2,1.56,2.44,2.44,0,0,1-3.72,3.12,21.56,21.56,0,0,1-2.28-2.4C762.61,9.51,761.17,7.83,759.61,6.15Z"/><path d="M131.87,58c20.52-.24,37-.48,53.4-.6a23.12,23.12,0,0,1,2.88.12,2.22,2.22,0,0,1,1.92,2.28,2.24,2.24,0,0,1-1.8,2.4,14.9,14.9,0,0,1-3.24.36c-25,.12-49.92.36-74.88.48-7.44,0-14.88-.12-22.2-.24a14.74,14.74,0,0,1-3.24-.24c-1.8-.36-2.88-1.44-2.64-2.76.24-1.56,1.32-2.16,2.76-2.28h2.64C103.67,57.76,119.87,57.88,131.87,58Z"/><path d="M176.39,54.64c-1.68,0-3.24.12-4.92,0s-2.88-1.08-3-2.4.84-2.4,2.76-2.64c3.48-.36,7-.48,10.44-.6a2.74,2.74,0,0,1,3,2.4c0,1.32-1,2.4-2.76,2.64s-3.72.24-5.52.36Z"/><path d="M674.79,665.81c-7.8-.12-15.72-.36-23.52-.48-1.92,0-3-.72-3.24-2s.84-2.76,2.76-3a35.74,35.74,0,0,1,6.24-.24l39.24,1.44a18.32,18.32,0,0,1,3.6.36A2.65,2.65,0,0,1,702,665c-.36,1.44-1.44,2-3,2-8.16-.48-16.2-.72-24.24-1.2Z"/><path d="M198.94,276.6a20.17,20.17,0,0,1-2.28,2.28c-2.88,1.68-6,3.12-8.76,4.92s-5.64,4-8.4,6.12c-1.2.84-2.16,1.44-3.48.6a2.52,2.52,0,0,1-.48-3.72,13.72,13.72,0,0,1,2.88-3c5.4-3.36,10.92-6.6,16.56-9.84C196.9,272.76,198.94,274,198.94,276.6Z"/><path d="M94.78,373.92c-.36-.36-1.44-.72-1.8-1.56-2.28-4.68-6.12-8.16-9.24-12.12a8.49,8.49,0,0,1-1.44-2.16,2.41,2.41,0,0,1,.6-3,2.55,2.55,0,0,1,3.36-.12.94.94,0,0,1,.48.48c3.24,4.2,6.6,8.28,9.84,12.6a8.3,8.3,0,0,1,1.2,3C97.9,372.72,96.82,373.92,94.78,373.92Z"/><path d="M75.7,371.4a4.94,4.94,0,0,1,1,.36L90,377.88a14.37,14.37,0,0,1,2.52,1.56,2.5,2.5,0,0,1,.84,3.48c-.72,1.2-2,1.56-3.72.84l-13-6.12a8.69,8.69,0,0,1-2.28-1.32,3.92,3.92,0,0,1-1.32-1.8A2.69,2.69,0,0,1,75.7,371.4Z"/><path d="M106.42,359.52c-.24,1.44-.72,2.4-2,2.88a2.3,2.3,0,0,1-3-1.32,33.92,33.92,0,0,1-1.32-3.72c-1.08-3.24-2.28-6.6-3.36-9.84-.6-1.8-.12-3.12,1.2-3.6a2.42,2.42,0,0,1,3.36,1.2C102.94,349.92,104.62,354.72,106.42,359.52Z"/><path d="M190.66,269.76a6.69,6.69,0,0,1-1.44,1.92c-3.12,2.28-6.36,4.44-9.6,6.6a2.55,2.55,0,0,1-3.48-.24,2.7,2.7,0,0,1,0-3.36,7.53,7.53,0,0,1,1.32-1.44c2.88-1.92,5.76-3.84,8.64-5.64a4.49,4.49,0,0,1,2.16-.6C189.58,267.12,190.3,268,190.66,269.76Z"/><path d="M1167,359.54c-1.68,1.92-3.36,3.72-5,5.64-10.32,12.84-18.24,26.88-22.08,43-2.4,10.32-4.44,20.64-6.6,31-.6,2.64-1.32,3.72-2.88,3.6s-2.76-1.8-2.28-4.32c3-15.48,5.52-31.2,11.4-46,5-12.6,12.48-23.64,21.24-34,.72-.84,1.56-1.8,2.4-2.76a35.65,35.65,0,0,1-5-12.12,27,27,0,0,1,.24-12,48.19,48.19,0,0,1,9.84-20.76,27.32,27.32,0,0,1,4.32-4,4,4,0,0,1,2.76-.84,3.7,3.7,0,0,1,2.52,1.68,2,2,0,0,1-1,2.76c-9.24,6.12-12.36,15.72-13.8,25.92-.84,5.52,1,10.68,4.2,15.6,1.2-.84,2-1.44,3-2,3-1.92,6.12-3.48,9.6-3.72a19.73,19.73,0,0,1,4.56.24,6.68,6.68,0,0,1,5.4,5,7.06,7.06,0,0,1-2.28,7.44,12.08,12.08,0,0,1-6.24,2.64C1176.35,362.54,1173.59,362.06,1167,359.54Zm4.68-3.84c4.08,1.56,7.68,1.68,11.16.24a2.36,2.36,0,0,0,1.68-2.52c-.12-1.32-1.32-1.68-2.4-1.8a3.42,3.42,0,0,0-1.56,0A15.78,15.78,0,0,0,1171.67,355.7Z"/><path d="M1119.56,472.56c-4.32,0-7.56-3.6-7.56-8.16s3.6-8.4,7.8-8.4a8,8,0,0,1,7.8,8.28A8.33,8.33,0,0,1,1119.56,472.56Zm-2.4-8.28a2.57,2.57,0,0,0,2.28,3,2.85,2.85,0,0,0,2.76-3,2.81,2.81,0,0,0-2.28-3C1118.48,461.16,1117.28,462.6,1117.16,464.28Z"/></g><g id="Stationary"><path class="cls-2" d="M437.84,600.48v-61.2a2.78,2.78,0,0,1,2.52-2.88c1.32-.12,2.64-.24,4-.24,23.16.72,46.44,1.56,69.6,2.28,1.68,0,3.48.36,4.92-1.08a2.61,2.61,0,0,1,2.16-.12,4.5,4.5,0,0,1,2.16,5.88,9,9,0,0,0-.6,3.12c-.24,11.4-.48,22.92-.6,34.32-.48,27.12-.84,54.24-1.32,81.48-.12,4.44-1.2,5.64-5.64,5.52-21.48-.72-43-1.44-64.44-2.28q-5-.18-10.08-.72c-2.88-.36-3.24-1-3.24-3.84V600.6A.9.9,0,0,1,437.84,600.48Z"/><path class="cls-2" d="M484.34,478.67c-2.28,13.56-1.08,27.24-2,40.8-1,13.32-2,26.52-3,39.84-.84,10.56-1.56,21.12-2.28,31.68-1.08,15.12-2.16,30.24-3.48,45.36a10.24,10.24,0,0,1-1.8,4.44,39.17,39.17,0,0,1-3.48,4.32c-.36.36-.72.84-1.08,1.2a3.83,3.83,0,0,1-4.32.48c-1.32-.72-1.44-2-1.32-3.36.12-2.64.36-5.28.48-7.8,1.44-20.4,2.88-40.92,4.32-61.32l3.6-52.2,2.88-41.4c.12-2.52.48-4.8,3.72-5,.36,0,.72-.48,1.08-.72a4.94,4.94,0,0,1,5.28-.24C484.46,475.19,484.46,476.87,484.34,478.67Z"/><path class="cls-2" d="M483.26,462.83c-.36,2.16-.72,4.68-1.08,7.2a.9.9,0,0,1-.12.6c-.48,1.68-1.68,2.76-2.88,2.64a2.9,2.9,0,0,1-2.16-3.48c.36-2.64.72-5.4,1.2-8,.36-2,1.56-3,3-2.76S483.38,460.55,483.26,462.83Z"/><path d="M487.82,481.56c-.24,1.44-.48,2.4-.6,3.36-1,14.28-1.8,28.56-2.76,42.72l-5.4,79.92c-.72,11.16-1.56,22.44-2.28,33.6a7.43,7.43,0,0,1-2.16,4.92c-2,2.16-4,4.44-5.88,6.6s-3.84,2.28-5.52-.24a24,24,0,0,1-3.24-5.28,13.33,13.33,0,0,1-1-5.64c.6-11.16,1.44-22.44,2.28-33.6,1-14.16,2-28.32,3-42.36,1-14.4,2-28.68,3-43.08l2.88-41.76c.24-3,.48-5.88,3-7.92.6-.48.72-1.68.84-2.64.36-3,.48-6.12.84-9.12.48-3.72,1.68-4.8,5.52-5a19.44,19.44,0,0,1,2.64.12c2.76.48,4.08,1.8,4.08,4.56,0,2.4-.24,4.8-.36,7.2-.12,1.56-.12,3-.24,4.56a3.49,3.49,0,0,0,2.4,3.84,7,7,0,0,1,5,6.6,81.15,81.15,0,0,1,.24,10.8c-.12,4.68-.48,9.36-.72,14-.24,2.76-1,3.84-2.64,3.72s-2.64-1.44-2.52-4.2c.24-6.72.6-13.56,1-20.28A8.52,8.52,0,0,0,487.82,481.56ZM474.26,599.64a13.38,13.38,0,0,0,.36-2.76c1-13.44,1.8-26.76,2.64-40.2,1.32-19.08,2.52-38,3.84-57.12.48-6.6.84-13.32,1.32-19.92a2.58,2.58,0,0,0-1.2-2.76c-1.32-.72-2.52-1.2-4-.36s-1.68,2-1.8,3.48c-1.2,18.12-2.52,36.36-3.84,54.48-1.44,21.12-3,42.24-4.44,63.36a24.75,24.75,0,0,0,.24,2.52A62.8,62.8,0,0,0,474.26,599.64Zm-7.56,6.12c-.6,9.12-1.2,17.88-1.8,27.12h7.44l1.8-27.72C471.38,605.4,469.22,605.52,466.7,605.76Zm-.12,41.64c1.8-3,6.12-4.2,4.92-9h-7C464.18,641.52,463.34,644.52,466.58,647.4Zm15.48-186.12c-1,.24-1.56.24-1.56.36-.36,2.88-.72,5.64-1,8.52,0,.24,1,.48,1.8.84C481.58,467.64,481.82,464.64,482.06,461.28Z"/><path class="cls-2" d="M434.32,486a27.29,27.29,0,0,1,.48-3.6c.48-2.28,1.44-2.88,3.72-2.4a6.35,6.35,0,0,1,4.8,7.44,4.27,4.27,0,0,1-1.68,2.16,7.09,7.09,0,0,1-2.4.84C435.52,491.68,434.2,490.48,434.32,486Z"/><path class="cls-3" d="M474.57,657.88c1-7.92,1.92-15.36,2.76-22.8,1.92-15.12,3.72-30.24,5.64-45.48,1.92-15,3.72-30.12,5.64-45.12s3.72-29.64,5.52-44.52c1.92-15.12,3.72-30.24,5.64-45.48.36-2.76.6-5.64,1.08-8.4.6-3.84,1.68-4.68,5.52-3.72,9.36,2.4,18.72,4.92,28.08,7.44,4,1.08,5,3,4.56,7-3,21.6-5.88,43.2-8.88,64.8-3.36,24.6-6.84,49.2-10.2,73.8q-4.68,34.38-9.36,68.64a15.43,15.43,0,0,1-.48,2.28c-.6,1.92-1.56,3.52-3.48,3-9.6-2.16-19.08-4.32-28.68-6.6C475.29,662.24,474.45,659.92,474.57,657.88Z"/><path class="cls-3" d="M470.73,661.84c0,2.52-.84,4.32-3.12,4.92a77.19,77.19,0,0,1-9.12,2c-1.68.24-2.4-1.2-2.64-2.76-.6-4-1.08-8-1.68-12-2.28-17.16-4.68-34.32-7-51.48-2.28-16.8-4.56-33.72-6.84-50.52s-4.56-34-6.84-50.88c-.48-3.72-1.08-7.32-1.44-11a9.73,9.73,0,0,1,0-2.64L434.25,476c.24-1.56.6-3.12,2.4-3.48s3,.48,4.08,1.68c4.32,4.92,7.56,10.2,8.28,16.92,1.92,16.2,4.08,32.4,6.24,48.6S459.33,572,461.37,588s4.2,32.4,6.24,48.6l2.88,23A16.86,16.86,0,0,1,470.73,661.84ZM438.81,480c-.6,3.12-1.08,5.28-1.44,7.56-.24,1.44.48,2,1.92,1.56s3.24-.6,3.84-2.64C441.81,484.6,440.61,482.68,438.81,480Z"/><path d="M444.17,535.53c-.48-4.2-1-8-1.56-11.88-1.2-9-2.4-17.88-3.6-26.88a18,18,0,0,1-.24-2.64c-.12-2,.72-3.24,2.16-3.48s2.52.84,2.88,2.88.6,4.32.84,6.48c1.56,11.4,3,22.68,4.56,34.08a10,10,0,0,0,.24,1.56c1.08,0,2.28.12,3.48.12l66,1.44a42.48,42.48,0,0,1,5.52.24c2.4.24,3.24,1.2,3.24,3.6,0,3.6-.12,7.2-.24,10.8-.6,19.32-1.2,38.52-1.8,57.84s-1.2,38.76-1.8,58.2c-.12,4-1,4.68-5,4.56-20.64-.48-41.16-1.08-61.8-1.68l-15.36-.36c-4.44-.12-5.76-1.44-5.64-5.64.24-41.28.6-82.68.84-124,0-4.08.84-4.92,4.92-5.16A17.76,17.76,0,0,0,444.17,535.53Zm74.76,131.88c1.08-35.76,2.16-71,3.24-106.68-23.4-.12-46.32-1-69.36-.84.48,3.84.84,7.32,1.32,10.8q5.22,38.88,10.32,77.76c.24,1.44.48,2.52,2,3.36a2.19,2.19,0,0,1,.12,4,13.17,13.17,0,0,1-8.52,1.56,2.88,2.88,0,0,1-1.8-1.92,3.56,3.56,0,0,1,1.2-2.4c.48-.6,1.44-.72,2.28-1.08-4.08-30.84-8.16-61.44-12.24-92.16-1.32-.12-2.28-.12-3.36-.24a16.44,16.44,0,0,0-1.92.24c-.24,35.16-.6,70.2-.84,105.48Zm3.48-124.8c-23.88-.48-47.88-1.08-72.12-1.56.6,4.68,1.2,8.88,1.8,13.44,23.52.12,46.8,1,70.32,1Zm-80,11.4h4.2c-.48-4-1-7.56-1.44-11.28-.24-1.68-1.08-2.28-2.76-1.32Z"/><path d="M506.21,507c-1.92-.48-4.44-.84-6.72-1.56a2.37,2.37,0,0,1-1.8-3,2.29,2.29,0,0,1,2.64-1.92,76.65,76.65,0,0,1,7.56,1.56,2.34,2.34,0,0,1,1.68,2.76C509.21,506.37,508.13,507,506.21,507Z"/><path d="M506,452c2.16.6,4.68,1.2,7.2,1.92a2.31,2.31,0,0,1,1.68,2.88,2.23,2.23,0,0,1-2.64,1.92,56.93,56.93,0,0,1-7.8-1.92,2.23,2.23,0,0,1-1.44-2.88C503.09,452.49,504.05,451.89,506,452Z"/><path d="M502,487.89c2.64,0,4.08.84,4.08,2.64s-1.92,2.88-4.44,2.64c-1.92-.24-3.12-1.32-3.12-2.64C498.53,488.85,499.85,488,502,487.89Z"/><path d="M497.09,526.05c2.52,0,4.44,1.2,4.44,3,0,1.44-1.2,2.4-3,2.4-2.52.12-4.44-1.2-4.32-2.88C494.21,527.13,495.41,526.17,497.09,526.05Z"/><path d="M504.65,469.41c-2.28-.12-4.32-1.68-4.08-3.36a2.64,2.64,0,0,1,2.76-2.28c2.52,0,4.44,1.32,4.44,3A2.73,2.73,0,0,1,504.65,469.41Z"/><path d="M502.85,481.29a9,9,0,0,1-2.16-1.08,3.52,3.52,0,0,1-.84-2.28c-.12-1.2,1.68-2.4,3.48-1.92,2.4.6,3.72,1.44,3.48,3.12C506.57,480.45,505,481.53,502.85,481.29Z"/><path d="M499.49,518.85a3.13,3.13,0,0,1-3.36-2.88,2.62,2.62,0,0,1,2.88-2.4c2,0,3.48,1.08,3.48,2.64A2.69,2.69,0,0,1,499.49,518.85Z"/><path d="M493.85,648c-3.36-.72-7.2-1.56-10.8-2.4a2.57,2.57,0,0,1,1-5c3.72.72,7.44,1.56,11.16,2.4a2.36,2.36,0,0,1,1.92,3C496.85,647.61,495.65,648,493.85,648Z"/><path d="M490.73,590.61c2,.48,4.56,1,7.08,1.56,1.68.48,2.52,1.8,2.16,3.12a2.62,2.62,0,0,1-3.24,1.92c-2.52-.48-5.16-1-7.68-1.68a2.8,2.8,0,0,1-2.28-3.12C487.25,591.09,488.33,590.49,490.73,590.61Z"/><path d="M492.41,583.53a22.29,22.29,0,0,1-3.12-1,2.51,2.51,0,0,1,1.32-4.8,24.58,24.58,0,0,1,2.88.6c1.44.48,2.28,1.32,2,2.88S494.21,583.41,492.41,583.53Z"/><path d="M489.41,621.69c-2.16.12-4.56-1.8-4.68-3.36a2.62,2.62,0,0,1,2.52-2.52c2.16-.12,4.56,1.68,4.56,3.36A2.43,2.43,0,0,1,489.41,621.69Z"/><path d="M490.25,608.49c-2.28,0-4.2-1.44-4.32-3.12a2.36,2.36,0,0,1,2.52-2.4c2.52-.12,4.68,1.32,4.68,3.12C493.13,607.53,491.93,608.49,490.25,608.49Z"/><path d="M492.29,570.57a6,6,0,0,1-2-.72,3.39,3.39,0,0,1-1.32-1.8,2.32,2.32,0,0,1,2-2.76c2.28-.48,4.56.48,4.92,2a2.6,2.6,0,0,1-2.16,3.12A7.49,7.49,0,0,0,492.29,570.57Z"/><path d="M485.93,627.81c2.28,0,4.08,1.32,4,3a2.78,2.78,0,0,1-2.88,2.52c-2.16,0-3.84-1.56-3.72-3.24C483.29,628.65,484.25,627.81,485.93,627.81Z"/><path d="M499.25,551c-1.56-.24-3.48-.48-5.4-.84a2.83,2.83,0,0,1-2.52-3c.24-1.44,1.56-2.28,3.48-2.16l6.48.72c.48.12,1.08.12,1.56.24,1.44.36,2.4,1.2,2.28,2.64a2.37,2.37,0,0,1-2.64,2.28A24.21,24.21,0,0,1,499.25,551Z"/></g><g id="Lamp"><path class="cls-2" d="M406.44,642.56c4.2.24,8.28.36,12.24.6,19.44.6,38.76,1.44,58.2,1.8a15.55,15.55,0,0,1,10.32,3.72,15.2,15.2,0,0,1,5.52,10.08c.36,2.64.72,5.4,1.08,8.16.36,2.52-.36,3.36-3,3.36-5.4,0-10.68-.12-16.08-.24l-64.8-1.8c-37.08-1.08-74.16-2-111.24-3.12-1.68,0-3.6.12-4.32-2-.36-1.56.36-2.4,3.48-3.6a12.45,12.45,0,0,0,.48-1.2c3.12-9.24,9.84-14.64,18.6-18a7.32,7.32,0,0,1,3.24-.36l66,2.16h3.6c-.24-1.32-.48-2.4-.72-3.48q-20.88-86-41.76-172.2-16-66.24-32.16-132.48a6.41,6.41,0,0,1-.36-2.52,4.4,4.4,0,0,1,1.08-2.52c3.6-3,7.32-5.76,10.92-8.76q103.86-86.76,207.72-173.4a25.75,25.75,0,0,1,2.88-2.16c1.68-1,3.72,0,3.6,1.8-.24,3,1.8,4.32,3.6,5.76,3,2.4,3.12,3.36.12,6l-25.92,22q-92,77.76-184,155.4c-.36.36-.84.72-1.2,1.08-1.68,1.08-1.8,2.4-1.32,4.2,1.56,6.24,3.12,12.48,4.56,18.72q30.06,122.4,60,244.8c3,12.12,6,24.12,8.88,36.24A7.55,7.55,0,0,1,406.44,642.56Z"/><path class="cls-2" d="M636.84,213.32a19.38,19.38,0,0,0-2.64,0c-3.48.72-5.64-1.8-8-3.48-1.32-1-1-2.64.6-3.84,6.6-5.28,13.32-10.56,19.92-15.84l14.76-11.88a17.64,17.64,0,0,1,1.56-1.2c2.52-1.68,4.8-1.2,5.64,1.8a22,22,0,0,1,1,7.32,33.3,33.3,0,0,1-3.84,13.44c-3,5.76-8,9.24-14.16,11.4C646.8,212.6,641.88,213.8,636.84,213.32Z"/><path d="M669.73,186.2c0,17.76-14.88,32.52-31.68,32a25.3,25.3,0,0,1-17.16-7c-1.92-1.8-2.4-3.6-1.32-4.8s2.64-1,4.8,1c5.52,4.92,11.88,6.48,19.2,5,14.28-2.88,24.12-18.24,20.16-31.92a39,39,0,0,0-2.16-5.16c-.84-1.92-.6-3.36.72-4.08s2.76-.24,3.84,1.56A27.79,27.79,0,0,1,669.73,186.2Z"/><path d="M409.56,640.53c1.32,0,2.4.12,3.48.12,19.68.48,39.24.84,58.92,1.44a34.56,34.56,0,0,1,10,1.56,19.16,19.16,0,0,1,12,11.4,35.3,35.3,0,0,1,3,15.24c-.12,3.72-1.2,4.8-5,4.8-6.6-.12-13.32-.24-19.92-.48l-67.08-1.8c-34.08-1-68.28-1.8-102.36-2.76-1.8,0-3.48-.12-5.28-.24a3.35,3.35,0,0,1-3.24-3.72v-.36c1.92-10,6.36-18.24,15.24-23.76a19.17,19.17,0,0,1,9.24-2.64c18.36-1.2,36.6.36,55,.48h14.4c-.24-1.2-.48-2.4-.84-3.6q-37.62-151.38-75.48-302.64c-.84-3.48-.12-5.64,2.64-7.92l227.16-185.4c.72-.6,1.56-1.2,2.4-1.8a2.29,2.29,0,0,1,3.24.48,2.4,2.4,0,0,1-.12,3.24c-.84.84-1.8,1.68-2.64,2.4l-87.12,71.28c-7.32,5.88-14.52,11.88-21.84,17.76-.84.72-1.68,1.44-2.64,2.28,2.28,2.64,4.44,5.16,6.84,7.92,1.08-1,2-1.68,2.88-2.4q54-46.08,108.12-92a22.07,22.07,0,0,1,2.64-2,2.44,2.44,0,0,1,3.24.48,2.28,2.28,0,0,1-.12,3.24,25.06,25.06,0,0,1-2.64,2.4q-67,57.06-134,114.12-41,34.92-82,69.72c-2.16,1.8-2.64,3.36-1.92,6.12q36.54,146.52,73,293.16C408.84,638,409.2,639.09,409.56,640.53Zm-110,24.24c64.2,1.68,128,3.48,192.12,5.16a30.18,30.18,0,0,0-3.12-14,14.89,14.89,0,0,0-5.76-6.12c-3.24-2-6.72-2.4-10.32-2.52-14.4-.48-28.8-.84-43.2-1.2-24.6-.6-49.32-1-73.92-1.56-12.24-.36-24.36-.72-36.6,0a15.77,15.77,0,0,0-11.4,5.52,32.35,32.35,0,0,0-6.6,10.8C300.24,662,300,663.21,299.52,664.77ZM370.8,507.45c-.24-1.08-.24-2-.48-3q-20-80.28-40-160.44c-1.44-6-2-5.4,3.24-9.84q49.32-41.94,98.64-84c1.08-.84,2-1.8,3.12-2.76-2.52-2.88-4.68-5.4-7-7.92-.84.6-1.44,1.08-2,1.56Q372.54,285,318.72,329c-1.8,1.56-2.16,2.88-1.56,5q21.78,87.3,43.56,174.72c.24,1,.6,1.8,1,2.88C364.8,510.09,367.68,508.77,370.8,507.45Zm32.88,132.84c-.36-4.44-30.72-125.28-32-127.56-2.88,1.32-5.88,2.64-9,4.08,10.32,41.28,20.52,82.32,30.72,123.48Z"/><path d="M565.63,153.17c-8.76,9.84-17.88,11.64-26.16,5.88a17.65,17.65,0,0,1-5.4-22.68,17,17,0,0,1,11.52-8.88,17.91,17.91,0,0,1,14.28,2.64,25.82,25.82,0,0,0,.72-3.48,33.76,33.76,0,0,1,4.8-13.08,5.7,5.7,0,0,0,.72-5.52,19.18,19.18,0,0,1-.6-2.52,11.49,11.49,0,0,1,3.84-11.76,26.94,26.94,0,0,1,10.32-5.52,5.52,5.52,0,0,1,5.52,1.32,21,21,0,0,1,3.48,3.84,3.88,3.88,0,0,0,4.44,1.68,34.76,34.76,0,0,1,16.8,1.2A40.57,40.57,0,0,1,634,114.77a5.34,5.34,0,0,0,4.32,2.88c19.44,3.24,38.88,6.72,58.32,10.2,5.64,1,6.12,2,3.36,7.08a155.65,155.65,0,0,1-19.2,26.76,284.23,284.23,0,0,1-92,70c-3.72,1.8-7.56,3.36-11.4,4.8-3.24,1.32-4.56.48-4.8-2.88-.72-7.68-1.2-15.48-1.8-23.16-1-13.08-1.92-26-2.88-39.12l-1.08-13.68C566.47,156.17,566.11,155,565.63,153.17Z"/><path d="M322.12,354.36a18.18,18.18,0,1,1,18.36-17.88A18.26,18.26,0,0,1,322.12,354.36Z"/><path d="M413.92,625.28a17.46,17.46,0,1,1-34.92.36c0-9.6,7.56-17.52,16.92-17.64A17.45,17.45,0,0,1,413.92,625.28Z"/></g><g id="Box"><g id="Cat"><path class="cls-2" d="M275.8,435.72c1.92.24,3.84.36,4.2,2.64.24,1.56-.84,2.4-3.6,3a32.32,32.32,0,0,1-4.8.36c-22.92,1.2-45.84,1.44-68.64,1.2a405.5,405.5,0,0,1-68-6.36,36.06,36.06,0,0,1-3.84-.84c-2.4-.84-3-2.52-1.44-4.56a74.4,74.4,0,0,1,6.48-7.32,126.6,126.6,0,0,1,30.12-20.64c1.8-.84,3.48-1.92,5.52-3-1.56-1.44-2.88-2.64-4.2-3.84a91,91,0,0,1-18.84-22.8c-7.2-12.12-6.24-31.32,5.4-42.6,6.12-6,12.6-11.4,20.16-15.48,10.56-5.64,21.12-11.4,31.68-17,7.68-4.08,15.4-6.33,22.48-11.25,5-3.6,8.6-10.35,11.6-15.75,2-3.6,3-7.44,1.92-11.64a74,74,0,0,1-1.08-7.44c-.6-4.08-.24-8,3.48-10.68a12.54,12.54,0,0,1,13.08-1.2,15.71,15.71,0,0,1,8.52,9,31.9,31.9,0,0,1,2.16,14.16,69.06,69.06,0,0,1-1.8,12c-1.56,7.32-6,13-11.88,17.52a90.13,90.13,0,0,1-20.52,12c-12.24,5.28-24.36,10.68-35.64,17.88-6.36,4.08-12.36,8.64-18.36,13.2a39.66,39.66,0,0,0-9,10c-5.28,8.28-5.28,16.68-.72,25.2,1.68,3.24,4.32,6,6.48,9a2.55,2.55,0,0,0,1.2,1.08c5.28,1.68,8.64,5.76,12.48,9.24,1.92,1.68,3.72,3.36,5.52,5a5.75,5.75,0,0,0,4.8,1.56c12.24-.72,24.12.72,35.52,5.52,3.36,1.44,6.6,2.88,9.84,4.32,12.24,5.88,22.08,14.28,28.32,26.52A7.46,7.46,0,0,1,275.8,435.72Z"/><path d="M230.15,287c2.88-3,5.88-6,8.64-9.24a11.88,11.88,0,0,0,3-8.76c-.24-4-.72-7.8-1-11.64a35.28,35.28,0,0,1-.24-6.12c.84-8.16,9.6-12.6,17.28-9a15.25,15.25,0,0,1,6.84,6.36,31.7,31.7,0,0,1,3.6,24.84c-2.4,9.12-7.68,16.56-14,23.16a27.24,27.24,0,0,1-4.2,3.12,7.65,7.65,0,0,1-8.28.48c-2.16-1.08-4.8-1.32-7.2-1.92-1.44-.36-3-.36-4.44-.84a7.51,7.51,0,0,1-5.4-6C223.91,287.5,225.71,285.94,230.15,287Z"/><path d="M264,441.18a58.35,58.35,0,0,0-6.48,0c-4.68.6-9.12-.36-13.44-1.8-5.4-1.68-8.88-5.4-9.24-11-.36-4.56-2.64-7.32-6.24-9.72a28.59,28.59,0,0,1-6.24-5.16c-3.48-3.84-2.88-10.92.84-14.28,1.2-1.08,2.76-1.2,3.72.12a5.74,5.74,0,0,0,3.48,2.16A83.51,83.51,0,0,1,253,412.14c1.2.72,2.4,1.56,3.6,2.28,8,4.08,14.16,10.56,19.56,17.52a18.59,18.59,0,0,1,2.4,3.84c1.56,3.36.24,5.28-3.36,5.4-3.84.12-7.56,0-11.28,0Z"/><path d="M167.74,399.47c-2.28-1.92-4.44-3.6-6.48-5.4a106.61,106.61,0,0,1-9.48-8.52c-9.12-9.84-13-21.6-10.44-34.92a41.9,41.9,0,0,1,4.2-10.92,57,57,0,0,1,15.48-18c10-7.92,21.12-13.8,32.88-18.72,4.2-1.8,8.52-3.48,12.72-5.28a106,106,0,0,0,22.08-13.32,73.7,73.7,0,0,0,5.64-5c5.16-5.16,6.72-11.28,5-18.36-.6-2.52-1.32-5-1.8-7.68-2.28-10.56,6.24-19,16.92-17a18.38,18.38,0,0,1,9.24,4.68c9.6,9,13,24.72,7.8,36.84-3.72,8.76-10,15.6-17.52,21.24a98.82,98.82,0,0,1-22.68,12.36c-6.36,2.52-12.84,4.8-19.2,7.32a101.4,101.4,0,0,0-26.76,15c-5.52,4.44-10.08,9.6-12.6,16.32-4,10.44-1.44,20.28,7.2,27.24,2.16,1.8,4.56,3.36,6.84,5.16,3.24,2.64,6.48,5.16,9.48,8a7.47,7.47,0,0,0,5.16,2.16A99.23,99.23,0,0,1,257.14,410c9.36,6.36,17.16,14.16,22.68,24.12.48,1,1,1.92,1.44,3a2.44,2.44,0,0,1-1,3.12,2.6,2.6,0,0,1-3.48-.84l-.72-1.08C270.94,428,263,420.23,253.42,413.87a93.67,93.67,0,0,0-52.44-16,10.11,10.11,0,0,1-8-3.36c-3.12-3-6.6-5.76-10-8.4-2.76-2.16-5.64-4.08-8.16-6.48q-12.24-11.7-7.92-28.08c2-7.92,6.6-14.4,12.72-19.8a92.87,92.87,0,0,1,25.44-15.72c6.72-2.88,13.56-5.4,20.4-7.92,8.64-3.24,16.92-7.08,24.36-12.48a53.89,53.89,0,0,0,13.68-13.92c7.32-10.8,7-22-.24-33.12-2-3.12-4.68-5.76-8.52-6.84s-7.32,0-10.32,2.52a5.38,5.38,0,0,0-2,4.68,29.26,29.26,0,0,0,.84,5.52c.36,2,1.08,4,1.44,6,1.92,8.28,0,15.6-5.88,21.72a61,61,0,0,1-7.8,7,117.94,117.94,0,0,1-27.84,15.72c-6.48,2.64-12.84,5.52-19.08,8.4a103.45,103.45,0,0,0-20,12.84,57.39,57.39,0,0,0-13.44,15.48c-6.24,10.32-5.88,20.88-1,31.56a36,36,0,0,0,10.2,12.72c4.32,3.6,8.64,7.08,13,10.56,2.28,1.8,2.52,2.64,1.56,5a5.33,5.33,0,0,1-2,2.28,22.25,22.25,0,0,1-4,1.44c-12.48,4.44-22.68,12.48-32,21.6a34.25,34.25,0,0,0-3.72,4.56c-.36.48-.72,1.08-1.08,1.56a2.46,2.46,0,0,1-3.24.72,2.41,2.41,0,0,1-1.08-3.12,6.88,6.88,0,0,1,1.2-2.28,96.54,96.54,0,0,1,7.44-8.28c8.88-8.16,18.48-15.36,30-19.44A12.18,12.18,0,0,0,167.74,399.47Z"/></g><path class="cls-2" d="M282.32,439c-2.64-.72-4.2.12-5.64,2.52-11.88,20.4-23.88,40.68-35.76,61a11.91,11.91,0,0,0-1.44,3.6,2.85,2.85,0,0,1-2.88,2.52,14.52,14.52,0,0,1-2.28.12q-111.24.72-222.48,1.56c-2.16,0-4.2-.36-6.48.48-1.8.72-3.36-1.08-2.88-3a21.11,21.11,0,0,1,1.08-2.4c12.36-23.76,24.84-47.52,37.08-71.4,1.2-2.4,2.64-3.12,5.4-3.12,28.08.36,56.28.6,84.36,1,46.2.6,92.52,1.08,138.72,1.68q41.22.54,82.44.84a4.41,4.41,0,0,1,4.56,2.76c4.44,8.52,8.88,16.92,13.44,25.44,7.2,13.68,14.52,27.36,21.72,41,.72,1.44,1.8,2.88.84,4.56a3.67,3.67,0,0,1-3.36,2.28h-3c-20.64-.36-41.28,1.28-61.8,1-1.68,0-3.48.12-5.16.24a4,4,0,0,1-4.32-3c-.36-1.2-.72-4.28-1.2-5.36-10.08-21-20.16-42.12-30.24-63.12C282.8,439.8,282.56,439.32,282.32,439Z"/><path d="M358.75,515.24c-1,52.56-.48,104.52-2.4,156.72a21.55,21.55,0,0,1-2.64.24c-25.56-.24-51-.6-76.56-.84-1.8,0-3.48-.12-4.44-1.32-2.28.24-4.2.72-6,.72q-110.52.36-220.92.84H44.11c-3.24-.12-4-1.08-3.36-4.2a18.16,18.16,0,0,0,.24-3.6c-.84-31.8-1.68-63.72-2.52-95.52-.48-17.28-.84-34.68-1.32-52a6.91,6.91,0,0,0-.24-1.2H33.43c-9.36.12-18.72.24-28.2.24a19.38,19.38,0,0,1-2.64,0c-2.16-.24-3-1.56-2.4-3.72A10.5,10.5,0,0,1,1.39,509c12.12-25,24.12-49.8,36.12-74.76,1.32-2.64,3-3.24,5.76-3.24q45.36.54,90.6.84,78.48.72,157.08,1.32c19.8.12,39.72.36,59.52.48,7.56,0,6.24,0,9.24,5.52,12,23,23.88,46.08,35.88,69.12a23.08,23.08,0,0,1,1.44,3,2.57,2.57,0,0,1-2.16,3.6A23.12,23.12,0,0,1,392,515c-9.72.12-19.44.36-29.16.48A22,22,0,0,0,358.75,515.24Zm-82.08-77a26.18,26.18,0,0,0-2.88-.12q-113.94-.9-228-2c-2.52,0-3.84.6-4.92,3C30.07,461.6,19,484.16,8.11,506.72c-.48,1-.84,1.92-1.44,3.24h4c31.56-.36,63-.84,94.56-1.2q64.62-.9,129.24-1.56a5.1,5.1,0,0,0,5.16-3q17.64-31.5,35.52-62.88C275.59,440.48,276,439.52,276.67,438.2Zm5.64-.12c11.76,24.6,23.16,48.48,34.56,72.36,4.56.6,70.56-.6,73.08-1.32-.36-.84-.72-1.56-1.08-2.28-11.28-21.84-22.68-43.68-34-65.64-1-1.92-2.16-2.52-4.32-2.52-21.6-.12-43.2-.36-64.8-.48A26.3,26.3,0,0,0,282.31,438.08Z"/><path id="Path-7" class="cls-4" d="M36.91,515.12l199.94-3.32a7,7,0,0,0,6-3.6l36.71-66.13h0l2.87,229.43-239.38.69a3,3,0,0,1-3-2.94L36.91,515.12Z"/></g><g id="PC"><path class="cls-2" d="M822.08,646.08c-11.4-35.64-22.8-70.92-34.08-106.44h-4.44c-45.84.36-91.56.84-137.4,1.2-7.92.12-16.44-6.36-17.76-14a7,7,0,0,1,.36-3.48c6.84-28.68,13.8-57.48,20.64-86.16q23.76-98.46,47.4-197c.36-1.32.6-2.52,1-3.84s.72-2.64-.72-3.84c-1-.84-.6-2.28,0-3.36a15.81,15.81,0,0,1,6-6.84c2.4-1.32,4.92-2.28,7.44-3.36a4.46,4.46,0,0,1,2.52-.24c2.88.12,5.64.36,8.52.36q199.26.72,398.52,1.56a45.35,45.35,0,0,1,8,.6,9.85,9.85,0,0,1,6.84,5,31.79,31.79,0,0,1,3,6.48,8,8,0,0,1-.12,4.44c-5,20.52-10.2,41-15.24,61.56q-27.9,111.78-55.68,223.68a8.63,8.63,0,0,0-.36,3.48,5.44,5.44,0,0,1-2,5.16,23.25,23.25,0,0,1-9,5.16c-1.92.72-4.08,1-5.52,2.76-.36.48-1.32.6-2.16.6a29.18,29.18,0,0,1-3.24,0c-45.12,0-90.36-.12-135.48-.12h-4.8c11.4,35.4,22.68,70.2,34.08,105.36,4.56.36,9,.72,13.44,1.2a66.18,66.18,0,0,1,18.6,4.68,9.8,9.8,0,0,1,6.12,6.72c.84,3-.24,4.68-3.36,4.8h-3.6q-114.12.9-228.12,1.92a29.18,29.18,0,0,1-3.24,0c-1.92-.24-3-1.56-2.4-3.48a38.8,38.8,0,0,1,2.64-7.08,12.27,12.27,0,0,1,10.68-7,48.09,48.09,0,0,1,7.2-.12l37.56,1.08C803.24,648,812.48,647.16,822.08,646.08Z"/><path class="cls-3" d="M921.24,430.28c1,3.72.24,4.68-3.72,4.68-16.08,0-32.28.12-48.36.12-34,0-68-.12-102-.12h-16a3.4,3.4,0,0,1-3.36-2.16,12.39,12.39,0,0,1-.84-4.08c0-2,1.2-2.88,3.12-2.88q83.16-.36,166.44-.84h3.6a3,3,0,0,1,2.88,1.8,2.51,2.51,0,0,1-1.08,2.88A1.23,1.23,0,0,0,921.24,430.28Z"/><path d="M908.35,543.63c11.64,34.2,23,67.92,34.56,101.76.84,0,1.92.12,3,.12,6.24,0,12.48,0,18.6-.12a20,20,0,0,1,7.92,1.68c7.68,3.48,8.88,8.64,8.64,15.6-.12,1.92-1.44,3.24-3.6,3.6a14.74,14.74,0,0,1-3.24.24l-236.64,1.08a19.44,19.44,0,0,1-2.64-.12c-2.52-.48-3.84-1.92-3.84-4.44a12.47,12.47,0,0,1,3.24-9c1.2-1.32,2.52-2.4,3.72-3.6a16.37,16.37,0,0,1,12.12-4.68c21,.24,41.88,0,62.88,0h3.84c-.12-2.64-31.2-97.44-33.48-101.88h-3.72c-43.32.12-86.64.36-130,.48a72,72,0,0,1-11.28-1.2c-7.2-1.32-15.36-12.84-13.08-21.84,5.64-21.84,10.56-43.92,15.72-65.76L689.35,254c1.8-7.68,3.84-15.24,5.76-22.8a23.92,23.92,0,0,1,4.92-9.48,16.5,16.5,0,0,1,15-5.52,42.64,42.64,0,0,0,5.52.36l397.2.36a50.87,50.87,0,0,1,8.52.6,16.87,16.87,0,0,1,14.4,16.92,55.17,55.17,0,0,1-1.32,13.32c-7.8,32-15.84,64.08-23.76,96.24q-21.78,88.2-43.68,176.52c-.36,1.44-.72,3-1,4.44-2,11.28-12.6,18.36-22.8,18.36l-135.48.36Zm219-320.4a12.93,12.93,0,0,0-2.4-.72c-2.76-.24-5.4-.48-8.16-.48l-394.68-.36c-3,0-6.12-.36-9.12-.48a11.68,11.68,0,0,0-2.88.24,11.27,11.27,0,0,0-8.16,6.84,56.5,56.5,0,0,0-3.24,9.6q-27.18,113.4-54.24,226.68c-.24,1.2-.48,2.4-.84,4.08h422.88Q1096.75,346.41,1127.35,223.23ZM631,528.87h2.76q189.72-.54,379.56-1h31.08a8.7,8.7,0,0,0,7.92-4.8,24.07,24.07,0,0,0,1.92-5.16c2.52-9.84,4.92-19.68,7.32-29.52,1.08-4.56,2.16-9.12,3.48-14H642.31c-.24.72-.48,1.56-.72,2.4l-7.2,29.88c-1.2,5-2.4,10-3.6,15C630.31,523.83,629.59,526.23,631,528.87Zm158.16,15q17.1,51.48,33.6,101.64H937.27q-17.46-51.3-34.56-101.64Zm-155-9.72a10.8,10.8,0,0,0,7.8,4.56,77.58,77.58,0,0,0,9.12.6q198.18-.54,396.36-1.32h2.28a17.56,17.56,0,0,0,16.2-13.44l1.8-7.92q22.32-90.54,44.76-181,11-44.28,21.84-88.56a56.57,56.57,0,0,0,1.32-12,11,11,0,0,0-3.6-8.76c-.36,1.32-.72,2.28-1,3.36-2,8.4-4.2,16.68-6.24,25.08Q1097.47,365,1070.11,475c-3.84,15.48-7.68,30.84-11.64,46.32-1.56,6.12-5.16,10.32-11.52,11.64a24.74,24.74,0,0,1-5.16.12L638,534.15ZM909.07,661.71a11.72,11.72,0,0,0-2.4-8.88c-1.92-2.28-4.44-1.92-7-1.92-35.76.12-71.52.12-107.28.24-14.64,0-29.16.12-43.8,0a7.32,7.32,0,0,0-5.4,1.92c-1.56,1.44-3.24,2.88-4.8,4.44a5.32,5.32,0,0,0-1.68,5.16Q822.79,662.13,909.07,661.71Zm3.36-10.92c1,3.84,1.8,7.2,2.64,10.44h60.48c.48-4.08-.72-7-4.08-8.76a15,15,0,0,0-7.2-1.92c-16.2.12-32.4.12-48.72.12A24.15,24.15,0,0,1,912.43,650.79Z"/><path class="cls-3" d="M978.52,341.64a10.11,10.11,0,0,1,7.08,2.52,61.51,61.51,0,0,1,7.2,7.56c3,3.84,5.64,8,8.52,12a43.75,43.75,0,0,0,4.68,5.88c2.76,3,5.64,3.48,9.12,1.32a29.75,29.75,0,0,0,6-5c5.52-6.12,10.8-12.24,16.2-18.48,3-3.48,6-7,8.88-10.44,8.16-10.32,17.76-19.2,27.24-28.32.36-.36.84-.72,1.2-1.08a2.29,2.29,0,0,1,3.24.24,2.4,2.4,0,0,1,.24,3.24,17.38,17.38,0,0,1-2,2.16c-3.36,3.24-6.84,6.36-10.08,9.84-5.64,6-11.28,12.12-16.68,18.36-7.92,9-15.6,18.12-23.64,27.12a35.79,35.79,0,0,1-7.08,6.36c-6,4.08-11.88,3.24-16.68-2a65.68,65.68,0,0,1-4.92-6.48c-2.76-4-5.4-7.92-8.28-11.76a47.68,47.68,0,0,0-5.28-5.76,7.47,7.47,0,0,0-7.92-1.68,38,38,0,0,0-6,2.64,37.3,37.3,0,0,0-11.76,10.32c-5.88,7.92-11.4,16.2-17,24.36-1.2,1.68-1.8,3.72-2.76,5.52s-2,2.28-3.36,1.8-1.92-1.8-1.44-3.6a18.66,18.66,0,0,1,1.68-4A175.28,175.28,0,0,1,955.6,354.6a45.34,45.34,0,0,1,13.56-10.68A20.34,20.34,0,0,1,978.52,341.64Z"/><path d="M907.51,255.75l-197.64.72a21.85,21.85,0,0,1-4-.12c-1.68-.24-2.76-1.56-2.28-3,2-5.52,3.36-11.28,8-15.48,3.24-2.88,6.48-4.56,11-4.56q184.32.36,368.76.48a28.85,28.85,0,0,1,9.6,1.68,17,17,0,0,1,8.76,7.08c2.28,3.6,1.8,7.32.72,11-.24.72-1.32,1.2-2.16,1.56-.48.24-1.08,0-1.56,0q-99.9.36-199.32.6Z"/><path d="M827.47,272.67c37.56.36,75,.84,112.56,1.2a26.1,26.1,0,0,1,3,.12c2.64.24,4,1.8,3.48,4.44a25.25,25.25,0,0,1-.72,2.88L914.11,387.87l-.72,2.52a3.25,3.25,0,0,1-3.24,2.4h-2.64q-111.42.18-222.84.48a21.85,21.85,0,0,1-4-.12c-2-.24-2.88-1.32-2.52-3.36.6-2.88,1.32-5.76,2.16-8.52,9.48-35,19.08-70.08,28.56-105l.72-2.52a2.78,2.78,0,0,1,3-2q57.42.36,114.84,1Zm-113.76,5.52c-9.6,35.28-19.08,70.2-28.8,106,41.4-17.52,81.84-34.8,123.12-52.32C776.35,313.71,745.15,296.07,713.71,278.19ZM691,387.39c0,.12.12.36.12.48,71.16-.12,142.2-.36,214.2-.48-1.2-.84-1.8-1.32-2.4-1.68-29-16.44-58-33-87-49.44a4.74,4.74,0,0,0-4.56-.24q-59,25.2-118.2,50.28A18.13,18.13,0,0,0,691,387.39Zm32.4-110.52c0,.24-.12.48-.12.72.6.36,1.08.72,1.68,1.08,29,16.44,58,33,87,49.44a4.44,4.44,0,0,0,4.56.24c13.56-5.88,27.24-11.64,40.92-17.4,23.52-10,47.16-20,70.68-30.12.84-.36,2-.36,2.52-1.8ZM909.79,383.55c10.2-34.08,20.16-67.8,30.36-102.24-40.32,17.16-80,34-120.36,51.12C850.15,349.71,879.79,366.51,909.79,383.55Z"/><path d="M883.15,438.63H756c-1.8,0-3.48,0-5.28-.12a8.08,8.08,0,0,1-7.56-7.8c-.12-4.2,3.48-8.4,7.44-8.52,1.56-.12,3,0,4.56,0l258.12.72c2.64,0,5.16,0,7.44,1.8,3.72,2.88,4.44,9.12,1.08,12.48a4.05,4.05,0,0,1-2.28,1.08,42.64,42.64,0,0,1-5.52.36q-65.34-.18-130.8,0ZM1018,433.35c1.08-3.84.24-5.16-3.24-5.28h-2.28c-40.44-.12-80.88-.12-121.32-.24q-68-.18-136.08-.48c-1.2,0-2.4-.12-3.6-.12a3.06,3.06,0,1,0,.24,6.12H1018Z"/><path d="M941.83,380.31c.84-.84,1.56-1.68,2.4-2.52,6.24-6.84,12.6-13.56,19.92-19.32a59.6,59.6,0,0,1,7.2-5c7-3.72,13.92-3.36,19.8,3.24a76.59,76.59,0,0,0,6.12,6.36c4.08,3.6,7.2,3.6,10.8-.36,2.88-3.24,5.4-6.84,7.92-10.32,3.6-5,7-10.32,10.56-15.36,3.36-4.68,7.08-9,11.76-12.12a55.52,55.52,0,0,1,8.4-4.32,15,15,0,0,1,11.16.24c1.44.6,2.76,1.2,4.2,1.8a10.45,10.45,0,0,0,12.12-2.16c1.56-1.44,3-2.88,4.44-4.32.6-.6,1.2-1.44,2-1.56a3.31,3.31,0,0,1,2.64.36c.6.48.6,1.68.72,2.64a1.52,1.52,0,0,1-.48.84c-3.36,3.6-6.48,7.44-11.16,9.48a13.61,13.61,0,0,1-10,.48,38.44,38.44,0,0,1-5.16-2c-4-1.92-7.8-1.56-11.64.24a34.16,34.16,0,0,0-12,9.84c-3.84,5-7.44,10.2-11.16,15.36-1.92,2.76-3.6,5.76-5.64,8.4a47.14,47.14,0,0,1-6.48,7.32c-4.92,4.44-10.2,4.56-15.36.6a61.27,61.27,0,0,1-5-4.68c-1.2-1.2-2.4-2.52-3.6-3.84-3.12-3.48-7-4-11-2.16a30.93,30.93,0,0,0-6.36,3.84c-7.68,5.76-14.16,12.6-20.64,19.56-2.76,3-5.52,6.24-8.76,9.84,1.92.12,3.12.12,4.32.12l119,1.44c1.44,0,2.88,0,4.2.12,2,.24,3.12,1.2,2.88,2.76s-1.08,2.16-3,2.28h-1.92l-127.92-1.44c-4.68,0-6-1.8-4.56-6.48L961,291.51c1.08-3.6,2-7.08,3.12-10.68l.72-2.52c.72-1.8,1.8-2.52,3.12-2.16s2.28,1.68,1.8,3.72c-.84,3.36-1.92,6.72-2.88,10.08-8.4,28.92-16.8,57.72-25.2,86.64-.36,1.08-.48,2.28-.84,3.36A2.63,2.63,0,0,1,941.83,380.31Z"/><path d="M705,457.59a24.52,24.52,0,0,1-24.6-23.16c-.6-11.28,7.68-21.84,19-24.12a24.11,24.11,0,0,1,9.72,0,14.51,14.51,0,0,1,2.16.6,2.67,2.67,0,0,1,2,3c-.24,1.44-1.44,2-3.24,1.92-2.76-.24-5.64-.84-8.4-.48a18,18,0,0,0-16,17.16c-.48,8.64,5.52,16.68,14,19.08,10.2,2.88,20-2.4,23.28-12.6.24-.6.36-1.32.6-1.92a2.54,2.54,0,0,1,2.88-1.68,2.41,2.41,0,0,1,1.92,3,12.66,12.66,0,0,1-.72,2.88C724.51,451.11,715.39,457.47,705,457.59Z"/><path d="M706,433.59c6-5.64,11.64-10.8,17.28-16.08.72-.72,1.44-1.32,2.16-1.92,1.32-1,2.76-.84,3.48.24a2.7,2.7,0,0,1,0,3.36c-.48.6-1.08,1.08-1.56,1.68l-17.88,16.8a13.81,13.81,0,0,1-2,1.68c-1.56,1.08-2.88,1.08-4.08-.36-2-2.4-3.84-4.92-5.76-7.56a2.49,2.49,0,0,1,.48-3.48c1.08-1,2.64-.72,3.72.6C703.27,430,704.47,431.67,706,433.59Z"/><path d="M1040.11,442.23c-2.28.12-3.6-1.68-2.88-3.36a5,5,0,0,1,1.32-1.8c4.68-4.56,9.48-9.12,14.16-13.56a8,8,0,0,1,3-1.92,2.41,2.41,0,0,1,3.12,1.08,2.38,2.38,0,0,1-.48,3c-1.08,1-2.16,1.8-3.24,2.76-4.2,4-8.28,8-12.48,12A12.61,12.61,0,0,1,1040.11,442.23Z"/><path d="M1048.15,422.55a4,4,0,0,1-3.84,4,3.68,3.68,0,0,1-3.36-3.72,4.26,4.26,0,0,1,4-4A3.58,3.58,0,0,1,1048.15,422.55Z"/><path d="M1055.71,439.47a3.51,3.51,0,0,1-3.48,3.6,3.28,3.28,0,0,1-3.48-3.48,4,4,0,0,1,3.84-3.72A3.64,3.64,0,0,1,1055.71,439.47Z"/></g><g id="Books"><path class="cls-2" d="M1000.76,629c-4.44-3.24-6.48-7.56-7.8-12.24-2-7.44-.12-13.8,5.4-19.08a51,51,0,0,1,5.64-4.44c.6-.48,1.56-.72,1.8-1.32,1.32-2.52,3.72-2.76,6.12-3q24.3-2.52,48.6-3.24l83-2.52c2.64-.12,5.28-.12,7.8,0,3.24.12,4.44,1.44,4.68,4.56.36,5,1,10.2,1.44,15.24a49.17,49.17,0,0,1-.24,5.88c-.36,5.28-.72,10.68-1,16-.12,1.44.84,2.16,2.16,2.4a29.42,29.42,0,0,0,3.24.24c4.44.12,9,.12,13.44.24a17.15,17.15,0,0,1,10,2.76,4.18,4.18,0,0,0,2,.72,5.09,5.09,0,0,1,4.44,3.36c4,9.72,1.92,17.64-6.6,23.52a11,11,0,0,1-5.16,1.68c-6.72.6-13.44,1.2-20.28,1.2-24.36.12-48.6.12-73-.12-10.56-.12-21.12-.72-31.68-1.08-13.2-.48-26.4.24-39.6,1.08a100.29,100.29,0,0,1-13.44.12c-4.08-.12-5-1.44-5-5.52a22.91,22.91,0,0,0-.6-5.76,13.62,13.62,0,0,1,.36-9,10.67,10.67,0,0,0,1-3.72C997.76,634.2,998.36,631.44,1000.76,629Z"/><path d="M1105,511.48c3.12-1.68,5.76-3.36,8.64-4.68a23.49,23.49,0,0,1,19.68.24,32.72,32.72,0,0,1,19.56,32,38.46,38.46,0,0,1-5,17.4,65.88,65.88,0,0,1-14.76,17.76,27,27,0,0,1-10.8,5.76,19.52,19.52,0,0,1-15.12-1.8c-3.48-1.92-6.48-2-9.72.36a19.12,19.12,0,0,1-3.48,1.8,7.39,7.39,0,0,1-6.36-.12c-.72-.36-1.44-.6-2-1-19.92-11.88-26.52-33.36-20.76-51.36a33.08,33.08,0,0,1,10.2-15.36,24.17,24.17,0,0,1,29.64-1.44A.38.38,0,0,0,1105,511.48Z"/><path d="M1161.16,625.8h3.6c6.12,0,12.24.12,18.36-.12a13.69,13.69,0,0,1,11.64,5.52c7.92,10,3.36,23.88-5.52,28.2a24.12,24.12,0,0,1-11.16,2.88c-62,.24-124.08.72-186.12,1.08h-2.28c-1.8-.12-2.88-1.08-2.88-2.52s1-2.4,2.76-2.64c1.44-.12,2.76,0,4.08,0,1.2-3,1.56-5.76.36-8.52a8.94,8.94,0,0,1-.12-6.36c1.2-3.12.84-6.36.72-10.08h-4.8a14.46,14.46,0,0,1-2.28,0,2.61,2.61,0,0,1-2.52-2.52,2.49,2.49,0,0,1,2.16-2.52,21.94,21.94,0,0,1,4-.24h6.36a18.41,18.41,0,0,0-1.2-2c-8-10.68-7.2-24.48,2-34a42.51,42.51,0,0,1,5-4.2,14.22,14.22,0,0,1,8.76-2.88q50.22-1.8,100.32-3.84c17.28-.72,34.68-1.32,52-2a14.46,14.46,0,0,1,2.28,0c1.8.24,2.88,1.2,2.76,2.64a2.43,2.43,0,0,1-2.52,2.4c-.72.12-1.56,0-2.28.12-2.52.12-4.2,1.8-3.6,4.2a18.83,18.83,0,0,1-.6,10.92,7,7,0,0,0,.24,3.84,12.91,12.91,0,0,1,0,9.24,4.83,4.83,0,0,0-.36,2.88A20.52,20.52,0,0,1,1161.16,625.8Zm-59.52-39.24h-3.48c-7.08.24-14.16.48-21.24.84-21.36.84-42.72,1.68-64.08,2.4a11.49,11.49,0,0,0-7.44,2.64c-1.44,1.32-3,2.52-4.32,4a20,20,0,0,0-1.92,24.24c2.4,3.72,5.76,6.12,10.2,6.12q42.66-.18,85.32-.6a21.55,21.55,0,0,0,2.64-.24C1088.44,611.76,1091.92,599,1101.64,586.56Zm-34.44,70.92h3.36q54-.36,107.88-.6a19.17,19.17,0,0,0,7.8-1.92c6.24-2.64,9.84-12,5.28-19.32a9.55,9.55,0,0,0-8.64-4.92c-37.32.36-74.52.6-111.84.84h-3.24C1072.84,646.56,1071.4,646.44,1067.2,657.48Zm88.44-31.68c.84-2.76,1.08-5.16,0-7.56a9.66,9.66,0,0,1,0-7.32,8.61,8.61,0,0,0,.12-6,13.32,13.32,0,0,1,0-8.64,12.28,12.28,0,0,0,.6-4.2c-.12-2.4-.6-4.92-1-7.44-.36,0-.84-.12-1.2-.12L1113.4,586a3.45,3.45,0,0,0-1.92.36,54.08,54.08,0,0,0-7.08,5.64c-5,5.52-7,12.24-6.72,19.56a18,18,0,0,0,3.72,10.32,9.39,9.39,0,0,0,8.28,4.2c14.28-.24,28.56-.24,42.84-.36A26.1,26.1,0,0,0,1155.64,625.8ZM999.16,657.72c1,.12,1.44.24,1.8.24,18.84-.12,37.68-.24,56.52-.24a4.28,4.28,0,0,0,3.6-1.8c6.12-7.56,5.64-14.88,1.08-22.32-1-1.56-2.4-1.92-4.2-1.8-18.12.24-36.12.48-54.24.84-3.24,0-3.84.6-3.72,3.84a23.7,23.7,0,0,1-1,7.68,5.78,5.78,0,0,0-.12,3.48A15.23,15.23,0,0,1,999.16,657.72Z"/><path d="M1109.56,489a2.71,2.71,0,0,1,2.76,3,25.25,25.25,0,0,1-.72,2.88c-1.2,4.56-2.76,9-3.6,13.56-.72,3.6-.6,7.32-.72,11a19.38,19.38,0,0,1,0,2.64,2.43,2.43,0,0,1-2.28,2,2.36,2.36,0,0,1-2.52-1.68,7.54,7.54,0,0,1-.36-2.28c.24-4.44.12-9,.84-13.32,1-5.16,2.76-10.08,4.2-15.12C1107.52,490.2,1108.24,489,1109.56,489Z"/><path d="M1013.56,608.64c.12,1.68.24,3.24.36,4.92v1.92a2.32,2.32,0,0,1-2.16,2.16,2.25,2.25,0,0,1-2.64-1.92,137.22,137.22,0,0,1-.48-14,2.7,2.7,0,0,1,3.12-2.64c1.32.24,1.92,1.32,1.92,3.36s0,4.2-.12,6.24Z"/><path d="M1021.6,608.88c-.12,1.92-.12,4-.36,5.88-.24,2.28-1.2,3.36-2.76,3.24s-2.4-1.2-2.28-3.36c.12-3.84.36-7.56.6-11.4.12-2.16,1.2-3.12,2.76-2.88s2.28,1.2,2.28,3.36c0,1.68-.24,3.36-.24,5.16Z"/><path d="M1071.52,610.32H1066a2.63,2.63,0,0,1-2.88-2.16,2.52,2.52,0,0,1,2.52-2.88c4-.24,8-.36,12.12-.36a2.39,2.39,0,0,1,2.52,2.52,2.46,2.46,0,0,1-2.52,2.52c-2,.12-4.08,0-6.24,0Z"/><path d="M1169.92,642a7.43,7.43,0,0,1,7.56-7.44,7.91,7.91,0,0,1,7.8,8,7.4,7.4,0,0,1-7.68,7.2A7.84,7.84,0,0,1,1169.92,642Zm10.08.24a2.51,2.51,0,0,0-2.52-2.4,2.11,2.11,0,0,0-2.16,2.28,2.51,2.51,0,0,0,2.52,2.4A2.18,2.18,0,0,0,1180,642.24Z"/><path d="M1084.48,643.44v4.92a2.46,2.46,0,0,1-2.4,2.64,2.4,2.4,0,0,1-2.64-2.4,87.63,87.63,0,0,1-.24-9.72,2.61,2.61,0,0,1,2.76-2.64c1.44.12,2.16,1.08,2.28,3,.24,1.32.12,2.76.24,4.2Z"/><path d="M1092.76,643.32a29.72,29.72,0,0,0,.36,3.24c.24,1.44-.12,2.64-1.56,3.12a2.66,2.66,0,0,1-3.36-1.8,3.7,3.7,0,0,1-.36-1.56c0-2,0-4.08.12-6.12s1.2-2.76,2.64-2.64,2.28,1.08,2.4,2.88a23.06,23.06,0,0,1,0,2.88Z"/><path d="M1128.28,594.84c6.24-.36,10.92-.72,15.6-1a7.86,7.86,0,0,1,1.68,0,2.73,2.73,0,0,1,2.76,2.4c.24,1.32-.84,2.52-2.64,2.76-2,.24-4.08.36-6.24.48-8.52.6-16.92,1.08-25.44,1.56-2.76.12-4-.36-4.2-2s1-2.88,3.72-3.12C1119,595.44,1124.44,595.2,1128.28,594.84Z"/><path d="M1123.48,608.88c-1.32.12-2.64.24-3.84.24a23.3,23.3,0,0,1-2.88-.24,2.42,2.42,0,0,1-2-2.64,2.39,2.39,0,0,1,2.4-2.28l5.88-.36c2.4-.12,4.8-.36,7.2-.48a7.84,7.84,0,0,1,1.68,0c1.44.24,2.52.84,2.52,2.4a2.46,2.46,0,0,1-2.4,2.64c-1.56.24-3,.36-4.56.48C1126.12,608.76,1124.8,608.88,1123.48,608.88Z"/><path d="M1029.4,641.4h-17a13.48,13.48,0,0,1-3.84-.48,2.26,2.26,0,0,1-1.8-2.76,2.37,2.37,0,0,1,2.52-2h4.2c10.56,0,21.12-.12,31.68-.12,1.32,0,2.64.12,4,.24a2.37,2.37,0,0,1,2,2.52,2.53,2.53,0,0,1-2.52,2.52c-1.68.12-3.24-.12-4.92-.12h-14.4A.37.37,0,0,1,1029.4,641.4Z"/><path d="M1018.36,651.36h-7.2c-1.8,0-2.88-1-3-2.28a2.54,2.54,0,0,1,2.64-2.76c5.16-.24,10.44-.36,15.6-.36a2.57,2.57,0,0,1,2.88,2.52c0,1.32-1,2.4-2.88,2.52-2.76.12-5.4,0-8.16,0A.44.44,0,0,1,1018.36,651.36Z"/><path d="M1050.52,651.36l-7-.72a4.57,4.57,0,0,1-1.8-.6,2.42,2.42,0,0,1-1.32-2.76,2.32,2.32,0,0,1,2.28-1.92,10.32,10.32,0,0,1,1.92.12c2.52.24,5,.36,7.44.6a10.5,10.5,0,0,1,1.92.24,2.4,2.4,0,0,1-.12,4.68A8.06,8.06,0,0,1,1050.52,651.36Z"/></g><g id="Cup"><path class="cls-2" d="M592.16,598.2c14.64.24,29.16.48,43.8.84h1.92c3.24.12,4,1,4.44,4a50.17,50.17,0,0,1-1.56,22.32,85,85,0,0,1-9.12,20.52c-4.08,7-10.08,11.88-16.8,16.2a8.21,8.21,0,0,1-3.48.72c-8.64.84-17.16-.12-25.8-.6a22.56,22.56,0,0,0-4.92-.24c-4.68.48-8.4-1.56-12-4.08a33.43,33.43,0,0,1-5-4.2,98.76,98.76,0,0,1-14.88-19c-4.08-6.48-5.64-13.92-6.36-21.48-.24-2.64.36-5.4.72-8,.12-1.32.48-2.4-.36-3.72-1.2-1.8-.36-3.36,1.8-3.84a18.58,18.58,0,0,1,2.64-.12Z"/><path d="M644.3,599.2c2.64-1,5-1.92,7.56-2.64,7.8-2,13.44,4,14.28,10.56a21.4,21.4,0,0,1-3.12,14,43.57,43.57,0,0,1-12.24,13c-4.8,3.36-10,6.24-14.88,9.48a17.7,17.7,0,0,0-3.84,3.48,75.11,75.11,0,0,1-15.72,15.12,5.77,5.77,0,0,1-4,1.2c-12.72-.48-25.44-.84-38.28-1.32a5.26,5.26,0,0,1-2.76-.72c-9.48-5.64-17.76-12.48-23.64-22.08-7.8-12.6-10-26.28-8-40.8a7.33,7.33,0,0,1,.36-1.56c1.32-4.68,1.92-5.16,6.84-5,30.24.6,60.36,1.32,90.6,2h.36C642.5,594.16,643.1,594.64,644.3,599.2ZM545.54,597c-.24,1.08-.48,1.68-.6,2.28s-.24,1.08-.36,1.56c-.72,9.6-.12,19,3.6,28,5,12,13.68,20.76,24.84,27.36a6.66,6.66,0,0,0,3.36.84l34.32,1.08a5.72,5.72,0,0,0,4.2-1.32c3.72-3.48,7.8-6.72,11-10.68,10.44-12.48,15.12-27,13.44-43.44-.12-1.2-.48-2.28-.72-3.6C607.58,598.48,576.74,597.76,545.54,597Zm94.08,37.68c7-3.36,13.08-7.8,17.64-14.16,1-1.44,1.8-3,2.64-4.44a14.26,14.26,0,0,0,1.08-8.64c-.6-3.6-3.12-6.12-6.24-6a11.51,11.51,0,0,0-7,2.52,6.61,6.61,0,0,0-2.76,5.52,58.75,58.75,0,0,1-2.64,17.64C641.54,629.68,640.46,632.2,639.62,634.72Z"/><path d="M570.38,550.12c1.44.12,2.64.6,2.88,2s-.48,2.4-1.92,3a10.38,10.38,0,0,0-2,.84,2.89,2.89,0,0,0-.84,4.32c.72,1.2,1.56,2.28,2.4,3.48,2.52,4.08,2.76,8.16-.24,12.12a47,47,0,0,1-3,3.84,2.27,2.27,0,0,1-3.48.24c-1.2-1-1.08-2.28-.36-3.48a41.49,41.49,0,0,1,2.64-3.72,4.88,4.88,0,0,0,.12-6.12c-1-1.44-2-2.88-2.88-4.32A8.66,8.66,0,0,1,569.42,550,2.34,2.34,0,0,0,570.38,550.12Z"/><path d="M591.74,558c1.2,1,2.28,1.8,3.36,2.76,4,3.48,4.44,7.92,1.2,12.12a35.73,35.73,0,0,1-2.76,3.24c-1.44,1.44-2.88,1.56-4,.48s-1-2.28.12-3.84c.72-1,1.56-1.8,2.28-2.76,1.68-2.28,1.56-3.72-.6-5.64-1.08-1-2.28-1.8-3.24-2.76-2-2.28-2.28-4.56-.6-7.2a8.58,8.58,0,0,1,5.28-4.08,6.89,6.89,0,0,1,3.48.24,2.46,2.46,0,0,1,1.56,2.88,2.28,2.28,0,0,1-2.52,2C593.66,555.52,592.58,556.12,591.74,558Z"/><path d="M617.18,559.24a33,33,0,0,1,4.08,10.44c.6,3.36-1.2,6.12-3.6,8.4a2.47,2.47,0,0,1-3.48.24c-1.2-1-1.08-2.28-.36-3.48a6.59,6.59,0,0,1,.84-1.08c1.92-2,1.8-4.32.72-6.6-.72-1.44-1.56-2.88-2.28-4.32-1.32-2.52-1.56-5,.24-7.32a9.42,9.42,0,0,1,8.4-3.48,2.47,2.47,0,0,1,2.4,2.28,2.37,2.37,0,0,1-2.28,2.64C620.18,557.32,618.5,557.2,617.18,559.24Z"/></g></g></g></g></g></svg>