<svg xmlns="http://www.w3.org/2000/svg" viewBox="0 0 1190.27 851.72"><defs><style>.cls-1{fill:#fff;}.cls-2{fill:#6250fe;}.cls-3{fill:#ffd622;}</style></defs><g id="Layer_2" data-name="Layer 2"><g id="All"><g id="E-Commerce2"><g id="E-Commerce2-2" data-name="E-Commerce2"><g id="Phone"><path id="Shape" d="M406.5,404.25Q407.25,219.56,408,35a20.59,20.59,0,0,1,1.38-7.25,43.32,43.32,0,0,1,20.12-24A28.71,28.71,0,0,1,443.88,0Q529.93.57,616,1L819.13,2.12c6.25,0,12.5,0,18.5,2.26,9.62,3.74,17.87,9.37,24.12,17.74a27.64,27.64,0,0,1,5.63,17.13q-1.12,226.13-2.25,452.37C864.75,581,864,670.5,863.88,759.88c0,36.87-28.75,68-61.25,74.74-4.63,1-9.5,1-14.25,1.13-10.25.13-20.5,0-30.63,0l-267.62-1.13c-6.38,0-12.75.13-19-.37a79.35,79.35,0,0,1-35.13-11c-17.37-10.5-28-25.63-30.5-46a87.91,87.91,0,0,1-.37-12.87q.75-180.2,1.37-360.13Zm4.25,326.25q224.06.93,447.63,2,1.5-330.75,3.12-661c-75,.25-149.62.62-224.25.88s-149.12.37-223.87.87C412.5,292.5,411.63,511.12,410.75,730.5Zm.25,5.62c-.12,1-.25,1.38-.25,1.88,0,11.5-.25,23,0,34.38a52.36,52.36,0,0,0,15,35.62c10.13,10.62,22.88,16.5,37.13,19.38,8,1.62,16,1.62,24,1.62q152.05.38,304.12,1.12A51.42,51.42,0,0,0,801.75,829c22.38-5.25,38.5-18.62,49.25-38.62a55.7,55.7,0,0,0,6.88-24.76c.25-8.5.25-17,.37-25.5a7.65,7.65,0,0,0-.37-2Q634.56,737,411,736.12ZM861.63,65.88V61.75c0-7.75,0-15.5.12-23.13A19.2,19.2,0,0,0,858.38,27c-5-7.62-12-12.88-20.38-16.5a32.86,32.86,0,0,0-13.87-2.88c-3.38.13-6.88,0-10.25,0q-109.7-.56-219.5-1.24L444.13,5.62a24.24,24.24,0,0,0-14.38,4.5,38,38,0,0,0-14.87,19A19.66,19.66,0,0,0,413.63,35c-.13,9.88-.13,19.75-.13,29.62a28.1,28.1,0,0,0,.25,2.88Q637.63,66.75,861.63,65.88Z"/><path id="Path" d="M631.64,448.44q-87.37.38-174.88.63a18.83,18.83,0,0,1-3.75-.13,2.71,2.71,0,0,1-2.37-2.87,2.66,2.66,0,0,1,2.37-2.5,19.55,19.55,0,0,1,2.75-.13q175.32-.56,350.75-1.25a29.38,29.38,0,0,1,3.38.13,2.57,2.57,0,0,1,2.37,2.5,2.6,2.6,0,0,1-2.37,2.75,31.82,31.82,0,0,1-3.38.12q-87.56.57-174.87.75Z"/><path d="M547,482.07c-29.37.12-58.87.37-88.25.5a36.15,36.15,0,0,1-3.75-.13,2.67,2.67,0,0,1-.12-5.25,9.93,9.93,0,0,1,2.75-.12l178.87-1.13a8.57,8.57,0,0,1,3.63.38,4.17,4.17,0,0,1,2,2.37,2.3,2.3,0,0,1-2.13,2.63,18.92,18.92,0,0,1-3.75.25q-44.62.18-89.25.5Z"/><path d="M471.51,556.57a60.94,60.94,0,0,1,5.88,3.5,2.36,2.36,0,0,1,.25,3.37,2.7,2.7,0,0,1-3.38.75,11.2,11.2,0,0,0-1.25-.62,12.33,12.33,0,0,0-1.5-.38v11.13c1.5.5,3.13,1.12,4.75,1.75,4.25,1.75,6.5,4.62,6.38,8s-2.63,5.87-7.25,7c-1.25.37-2.63.62-4.38,1v5.37c0,2.25-.87,3.38-2.5,3.5s-3-1.12-3.12-3.25c-.13-1.62,0-3.37,0-5.5h-4.88c-2,.13-3.25-.75-3.5-2.37a3.15,3.15,0,0,1,2.75-3.38,20.19,20.19,0,0,1,2.75-.12h2.63c.75-2.38.37-4.63.37-7.25-1.25-.38-2.5-.75-3.75-1.25-4.5-1.75-6.37-5.5-4.75-10.13a13,13,0,0,1,6.25-7.37,4.55,4.55,0,0,0,2.63-4.88,21.81,21.81,0,0,1,0-4.12c.12-2.13,1.25-3.25,2.75-3.25s2.62,1.12,2.62,3.25A39.6,39.6,0,0,1,471.51,556.57Zm5.63,27.25c-1.25-2.38-3.25-3-5.63-3.13v5.5C473.64,585.82,475.39,585.57,477.14,583.82Zm-11.5-18.63c-1.25,1.38-2,2.13-2.63,3-1.75,2.75-1,4,2.88,4.5v-4.75C465.89,567.32,465.76,566.69,465.64,565.19Z"/><path d="M527.89,569.44a26.67,26.67,0,0,1-3,2.25c-3.25,1.88-6.63,2.5-10,.38s-4-5.38-3.75-9a14.89,14.89,0,0,1,11.75-13.38c4.75-1.12,8.62,1.25,9.5,6a63.26,63.26,0,0,1,.75,22.75c-1.25,7.63-5.25,12.88-13,15-1.38.38-2.88.88-4.25,1.13-1.88.37-3.13-.38-3.63-1.75s.38-2.75,2.13-3.38a37.78,37.78,0,0,1,4.87-1.5,10.53,10.53,0,0,0,8-8.75c.5-3.12.88-6.25,1.25-9.37C528.51,569.57,528.26,569.44,527.89,569.44Zm-2.25-14.37c-5.13.87-8.13,3.5-8.75,7.75-.38,2.62.12,4.12,1.62,4.75s3.75-.38,5-2a4.06,4.06,0,0,0,.75-1.5A21.63,21.63,0,0,0,525.64,555.07Z"/><path d="M557.51,570.57c-1,.62-1.62,1.12-2.25,1.5-5.87,3.87-12.37,1.37-14.25-5.25-2-7.13,3.88-15.88,11.25-16.5a7.34,7.34,0,0,1,7.5,5.25c1.38,5.87,2.75,11.75,3.63,17.62a34.39,34.39,0,0,1,0,10.13c-1,6-5.13,9.37-10.75,11a4.7,4.7,0,0,1-2.63,0,2.84,2.84,0,0,1,0-5.5c.5-.13,1.13,0,1.63-.13a8,8,0,0,0,6.25-5.75C558.89,578.94,558.14,574.94,557.51,570.57Zm-3.75-14.25c-5.37.12-9,5.62-7.12,9.75,1.25,2.62,3.75,3.12,5.75,1.12a5.32,5.32,0,0,0,1.37-2.62C553.89,561.82,553.76,559.19,553.76,556.32Z"/><path d="M626.26,580.32a4.44,4.44,0,0,1-1.12.12c-4,.75-6.63-.37-8.13-3.62-1.62-3.5-.87-7.13,2.13-9.38a12.32,12.32,0,0,1,3.62-1.87c3.63-1.25,5.38-.63,7.13,2.87a21.37,21.37,0,0,1,2,14.13,10.53,10.53,0,0,1-10,8.12c-1.38,0-2.63-.62-2.75-2a3.94,3.94,0,0,1,1.12-2.87,10.24,10.24,0,0,1,3.38-1.38C625.39,583.82,626.39,582.69,626.26,580.32Zm-3-4.75c.5-1.5,1-2.75,1.5-4.25C621.51,572.32,621.39,572.69,623.26,575.57Z"/><path d="M606,580.07h-.87c-3.88,1.37-6.13.87-8.13-1.88a8.31,8.31,0,0,1-.25-9.25,8.56,8.56,0,0,1,5.5-3.75,4.34,4.34,0,0,1,4.38,1.13c3.37,4.12,6,8.5,5.25,14.25-.63,4.75-3.25,8-7.75,9.25-1.75.5-3.13.12-3.88-1.25s-.25-3,1.88-4C603.89,583.82,606,582.94,606,580.07Zm-4.5-5.13h.88c.12-1.12.25-2.37.5-4.12C600.89,572.32,600.51,573.57,601.51,574.94Z"/><path d="M579.89,584.32a3.06,3.06,0,1,1-.13,6.12,2.56,2.56,0,0,1-2.87-2.62A3.24,3.24,0,0,1,579.89,584.32Z"/><path d="M332.75,73.25h-32c-3-.25-3.87-1.13-4.12-3.87a14.55,14.55,0,0,1,0-2.38V31.88c0-3.5.62-4.26,4-4.5a29.21,29.21,0,0,1,3.37-.13h60c3.88.13,4.75,1,4.75,4.87V68.25c0,4.25-.87,5.13-5.25,5.13-10.25,0-20.5,0-30.75-.13ZM302.5,67.38c5.63.62,58.13.5,60.5-.13.63-5,.38-17.5-.37-19.87-5.13-.63-57.63-.76-60.25-.13C302.5,53.88,302.5,60.62,302.5,67.38Zm0-30.26h60.63c0-.87.12-1.5.12-2.12a12,12,0,0,0-.25-2H302.5Z"/><path d="M637,814.5a28.78,28.78,0,0,1-28.75-29.25,30.06,30.06,0,0,1,30.13-29.37,28.94,28.94,0,0,1,28.87,29.5A29.64,29.64,0,0,1,637,814.5ZM661.75,785c0-13.12-10.37-23.38-23.75-23.38a24,24,0,0,0-24.12,24A23.18,23.18,0,0,0,637.25,809,24.28,24.28,0,0,0,661.75,785Z"/><path d="M646.75,36.62A11.75,11.75,0,1,1,635,25,11.79,11.79,0,0,1,646.75,36.62ZM635.12,43a6.27,6.27,0,0,0,6-6.5,6.2,6.2,0,0,0-6.5-6,6.11,6.11,0,0,0-5.87,6.25A6.38,6.38,0,0,0,635.12,43Z"/><path d="M354.25,54.62c3.63.13,4.75,1.38,4.63,5.13,0,2.75-1.38,4.13-4.25,4-3.38-.13-4.63-1.63-4.63-5.25C350,55.38,351,54.5,354.25,54.62Z"/><path d="M311.63,56.12c.87.13,1.87.13,2.75.26a2.3,2.3,0,0,1,2,2.37,2.39,2.39,0,0,1-1.75,2.63,15.94,15.94,0,0,1-5.38-.13,2.49,2.49,0,0,1-2-3.13c.25-1.62,1.5-2.12,3-2.12.38,0,.88.12,1.38.12Z"/><path d="M324.75,58.12a2.37,2.37,0,0,1-2.37,2.38,2.46,2.46,0,0,1-2.5-2.25,2.54,2.54,0,0,1,2.5-2.63A2.68,2.68,0,0,1,324.75,58.12Z"/></g><g id="Screen"><path d="M846.13,126.62c.12,1.88.25,3,.25,4.25q1.5,111,2.87,221.88c.13,14.25.25,28.37.63,42.62.12,5.13-1.75,6.25-6.13,6.25-38.87,0-77.75.25-116.63.25-48.74.13-97.5.13-146.24.25H577.5c-3.38-.12-4.62-1.37-4.62-4.87-.13-15.13-.26-30.25-.26-45.37q-.55-111.19-1-222.26v-2c.13-2.62,1.13-3.62,3.76-3.87a19.27,19.27,0,0,1,2.74,0L840.25,126C842,126,843.88,126.37,846.13,126.62Z"/><path id="Path-Copy" class="cls-1" d="M826.13,106.62c.12,1.88.25,3,.25,4.25q1.5,111,2.87,221.88c.13,14.25.25,28.37.63,42.62.12,5.13-1.75,6.25-6.13,6.25-38.87,0-77.75.25-116.63.25-48.74.13-97.5.13-146.24.25H557.5c-3.38-.12-4.62-1.37-4.62-4.87-.13-15.13-.26-30.25-.26-45.37q-.55-111.19-1-222.26v-2c.13-2.62,1.13-3.62,3.76-3.87a19.27,19.27,0,0,1,2.74,0L820.25,106C822,106,823.88,106.37,826.13,106.62Z"/><path d="M725.64,194.07c6.13,0,11.75.13,17.38,0a10.82,10.82,0,0,1,9.87,4.75,54.13,54.13,0,0,1,10.38,36.88c-.13,1.37-1.13,2.75-1.88,4.62.75,4.38,1.63,9.38,2.5,14.63,1.88.5,3.88.75,5.75,1.37,4.88,1.75,10.13,3,14.63,5.63,8.62,4.87,13.37,12.5,12.5,22.75a24,24,0,0,1-4.63,11.87A38.64,38.64,0,0,1,779.27,308a55.19,55.19,0,0,1-23,6.87c-12,.75-24,1.63-36,2-13.75.38-27.5.13-41.25,0-14.63-.25-29.25-.62-43.88-1.25-8.87-.37-17.62-1.12-26.5-1.87a29.38,29.38,0,0,1-13-4.75c-8.62-5.38-12-14-8.87-23.75a47,47,0,0,1,19.75-25.63c4.5-3,9.5-5.25,14.37-7.75,2.38-1.25,4.75-2.62,7.25-3.75a4.68,4.68,0,0,0,2.75-4.25A96.34,96.34,0,0,1,636,221a116.55,116.55,0,0,1,6.37-13.88,49.66,49.66,0,0,1,4.75-6.62,13.75,13.75,0,0,1,12.13-5.5c4.12.25,8.37,0,12.62-.13,1.13,0,2.25-.12,3.5-.12.25-.88.38-1.63.63-2.38,1.37-3.62,2.37-7.37,4.12-10.75,4.25-8.12,11.38-11.5,20.25-11.37,12,.25,21.13,7.75,24.25,19.37A27.84,27.84,0,0,0,725.64,194.07Zm38,74v3.38c-.12,4-1.87,5.75-5.87,5.87-1.88,0-3.63,0-5.5.13-32.88.37-65.63.87-98.5,1.25-5.88.12-11.88.12-17.75.12a8,8,0,0,1-3.5-.75,4.72,4.72,0,0,1-2.38-4.25c-.25-3.62-.5-7.37-.75-11.12-7.12,2.37-17.62,9-22.25,14a36.44,36.44,0,0,0-7.5,11.75c-1.37,3.87-.62,5.87,3.13,7.75a18.12,18.12,0,0,0,6,2.12,205.68,205.68,0,0,0,21.62,2.75c17.13,1,34.25,1.63,51.38,2.13,20.62.62,41.37.25,62-.75a144.5,144.5,0,0,0,14.62-1.38c8-1.25,15-4.62,20.25-10.87,4.75-5.75,3.63-13.38-2.5-17.5C772.52,270.32,768.14,269.32,763.64,268.07ZM669,233.45c9.5.75,86,.62,88.87-.13a47.25,47.25,0,0,0-9.25-30.87,6.23,6.23,0,0,0-5.62-2.88c-26.88.38-53.88.5-80.75.75-.88,0-1.75.13-3.38.13A130.68,130.68,0,0,1,669,233.45Zm88.87,38.25c.13-11.13.88-21.75-3-32H728.52c-.13.87-.25,1.5-.38,2.12-.87,3.75-2,4.75-5.75,5l-6.5.38c-2.75.12-5.5.37-8.12.25-3.63-.13-4.88-1.25-5.25-4.88-.13-1-.25-2-.38-3.12H669.77c1,11.25-.25,22.12-1.88,33.37ZM637.27,239.2a16.06,16.06,0,0,0,3.87-8.5c.5-2.75.75-5.63,1.25-8.38s1.25-3.62,4-4.37a14.63,14.63,0,0,1,7,.25c2,.5,2.75,1.37,2.63,3.37a16.67,16.67,0,0,1-.63,4.38c-2.75,13-6.87,25-19,32.62a2.51,2.51,0,0,0-1.25,1.75,59.39,59.39,0,0,0,.63,12.5h26C667,248,664.14,224.57,653,201.57,642.89,212.45,639.52,225.57,637.27,239.2ZM650,223.57c-.25-.12-.5-.37-.75-.5-.5.5-1.25.88-1.38,1.38a39.44,39.44,0,0,0-.62,4c-1.25,9.25-5.13,16.87-13.25,21.87-3.5,2.13-7,4.13-10.63,6-4.62,2.5-9.62,4.75-14.12,7.63a41.94,41.94,0,0,0-17.38,22.12c-2.62,7.88-.12,14.13,7,18.25a26.23,26.23,0,0,0,10.88,3.75c8.5.75,17,1.38,25.5,1.75q24.38.94,48.75,1.5c12.37.25,24.75.13,37.12-.25,10.75-.25,21.5-1.12,32.38-1.75a50.22,50.22,0,0,0,22.5-6c4.62-2.62,8.75-5.75,11.75-10.25,6.12-9,4.25-19.25-4.63-25.37-5.37-3.63-11.5-5.38-17.75-6.63-.5-.12-1,.38-2.37.75,1.87.63,3,.88,4,1.25a108.4,108.4,0,0,1,10.5,4,16.44,16.44,0,0,1,8.87,10.25c2,6.63.38,12.63-4.25,17.63a37.51,37.51,0,0,1-22.25,11.62,142.17,142.17,0,0,1-14.5,1.38c-21.87,1-43.87,1.62-65.75.75C661,308,642.39,307,623.77,306.07A71.15,71.15,0,0,1,606,303.2a33.12,33.12,0,0,1-8.25-3.88A8.93,8.93,0,0,1,594,288.57a50.23,50.23,0,0,1,3.5-8.12c4.25-7.5,10.5-13,18-17.25,5-2.88,10.25-5.38,15.37-8a29.54,29.54,0,0,0,12.75-12A61.07,61.07,0,0,0,650,225.32Zm69.37-29.37c-.87-10.25-7.12-16.13-15-18.13a18.36,18.36,0,0,0-23,18.13ZM708.14,242c4.63-.25,9-.38,13.25-.75.5,0,.88-.75,2-1.75H708.14Z"/><path d="M690.38,385.25H554.75c-5.63,0-6.13-.5-6.13-6.25q.2-135.75.38-271.38v-2.37c.25-2,1-2.75,3-3a19.42,19.42,0,0,1,2.75,0q134.25.38,268.63.62c4.75,0,5.87,1.25,6,6.13.12,8.12.37,16.12.37,24.25q1.13,94.5,2.38,189.13c.25,18.12.5,36.37.75,54.49a27.21,27.21,0,0,1,0,3.13c-.13,3-1.38,4.25-4.38,4.5h-2c-45.37.12-90.62.37-136,.5C690.38,385,690.38,385.12,690.38,385.25Zm-135.76-5.63c91-.25,181.76-.62,272.76-.87-1.13-90.37-2.38-180.25-3.5-270.5-90-.25-179.5-.38-269.26-.63Z"/></g><g id="Empty-Screen"><path d="M526.12,126.62c.13,1.88.26,3,.26,4.25q1.5,111,2.87,221.88c.13,14.25.25,28.37.63,42.62.12,5.13-1.76,6.25-6.13,6.25-38.87,0-77.75.25-116.63.25-48.74.13-97.5.13-146.24.25H257.5c-3.38-.12-4.62-1.37-4.62-4.87-.13-15.13-.26-30.25-.26-45.37q-.56-111.19-1-222.26v-2c.13-2.62,1.13-3.62,3.76-3.87a19.27,19.27,0,0,1,2.74,0L520.25,126A58.7,58.7,0,0,1,526.12,126.62Z"/><path class="cls-1" d="M506.12,106.62c.13,1.88.26,3,.26,4.25q1.5,111,2.87,221.88c.13,14.25.25,28.37.63,42.62.12,5.13-1.76,6.25-6.13,6.25-38.87,0-77.75.25-116.63.25-48.74.13-97.5.13-146.24.25H237.5c-3.38-.12-4.62-1.37-4.62-4.87-.13-15.13-.26-30.25-.26-45.37q-.56-111.19-1-222.26v-2c.13-2.62,1.13-3.62,3.76-3.87a19.27,19.27,0,0,1,2.74,0L500.25,106A58.7,58.7,0,0,1,506.12,106.62Z"/><path d="M370.38,385.25H234.75c-5.63,0-6.13-.5-6.13-6.25q.19-135.75.38-271.38v-2.37c.25-2,1-2.75,3-3a19.42,19.42,0,0,1,2.75,0q134.25.38,268.63.62c4.74,0,5.87,1.25,6,6.13.12,8.12.37,16.12.37,24.25q1.13,94.5,2.37,189.13c.26,18.12.5,36.37.76,54.49a27.21,27.21,0,0,1,0,3.13c-.13,3-1.38,4.25-4.38,4.5h-2c-45.38.12-90.62.37-136,.5C370.38,385,370.38,385.12,370.38,385.25Zm-135.76-5.63c91-.25,181.76-.62,272.76-.87-1.13-90.37-2.38-180.25-3.5-270.5-90-.25-179.5-.38-269.26-.63Z"/></g><g id="Woman"><path class="cls-1" d="M118,761.82a19.94,19.94,0,0,0-1.5,2c-3.62,7-7.25,13.88-10.75,20.88a10.57,10.57,0,0,0-.5,8.25c.75,2.12.5,4.25,1.25,6.5,2.63,7.62,6.38,15.12,9,22.75.75,2.25-.5,4.25-3,4.12a8.14,8.14,0,0,1-3.5-1c-13.5-6.62-26.25-14.5-36.37-25.87-3.63-4-4-6.88-.88-11.25,2.5-3.38,5.25-6.63,8-9.75a13.28,13.28,0,0,0,3.38-7.63c1.5-16,5.87-31.12,11.75-46,3.5-8.87,6.37-18,9.62-27,2.88-7.87,3.63-16.12,3.5-24.5,0-10.25,0-20.5.25-30.62.13-11.13.5-22.25.75-33.38a19.09,19.09,0,0,1,.38-3.75c.5-2.37,1.25-2.87,3.75-2.87a3.06,3.06,0,0,0,2.12-.63c8.38-6.62,18.25-9.62,28.38-11.75,13-2.75,26.12-2.87,39.37-2a20.5,20.5,0,0,1,4,.63c4.38,1.25,5.88,4.25,4,8.25-4.37,9.87-8.75,19.75-13.37,29.5-5.5,11.75-11.38,23.25-17.13,34.87a13.55,13.55,0,0,0-1.5,6.25c0,10-.37,20-.37,30,.12,12.63.75,25.25,1,37.88.37,21.25.75,42.5.87,63.75,0,6-.5,12-1,18-.25,3.25.63,5.5,3.63,6.87,1.75.88,3.25,2,5,2.88,10.25,4.37,20.5,8.75,30.62,13.12,1.38.63,2.75,1.13,4,1.75a3.12,3.12,0,0,1,1.63,3.13,3.32,3.32,0,0,1-2.75,2.62,2.68,2.68,0,0,1-1,.13c-13.38.5-26.75.62-40.13-1.63-5-.87-10.12-1.5-15.12-2.37-4.63-.88-5.38-1.88-6-6.5a10.62,10.62,0,0,1-.25-2c.25-6.38-1.88-12.25-3.75-18.25-5.5-17.38-10.88-34.88-16.38-52.38A20.1,20.1,0,0,0,118,761.82Z"/><path class="cls-1" d="M220.35,182c4.75-4.25,10.12-4.5,15.37-4.87,3.25-.25,6.63,0,9.88,0h3.5c.37-4.13.62-7.75,1-11.5a93.06,93.06,0,0,1,1.5-10.13,24.45,24.45,0,0,1,12.12-16.12c4-2.38,8.25-1.25,11.88,1,9.37,5.87,12,17.25,6.5,26.87a16.89,16.89,0,0,0-1.13,2.13c-1,2.62,0,4.25,2.75,5,1.75.5,3.5,1,5.25,1.37,5.13,1.25,8.25,4.5,10,9.25,1,2.88,2,5.75,3.13,8.88,3.5-.25,4.37,2.25,5,4.87,1.87,8.75,3.75,17.5,5.25,26.38a44.23,44.23,0,0,1,.37,9.12c-.12,4.5-2.37,7.63-6.62,8.88A52.7,52.7,0,0,1,295.47,245c-7,.5-14.12.63-21.12.88h-1c-4.88-.38-7.5,1.87-9.25,6.5-3.38,8.87-7.38,17.62-11.25,26.25a62.83,62.83,0,0,1-5.13,8.87,23.67,23.67,0,0,1-4,4.63c-6,5.5-14.12,4.75-19.12-1.75a33.85,33.85,0,0,1-3.38-5.88c-.62-1.12-1.12-2.25-1.75-3.5-.87.5-1.75-1.12-2.37-.62-8.13,6.25-15.88,12.75-22.5,20.75-3.75,4.62-8.5,10.5-13.25,14.25-6.38,5-13.13,9.75-19.88,14.37-3.12,2.13-6.62,4-10,5.88-5.12,2.75-10.12,5.5-15.37,8.12a82.88,82.88,0,0,1-8.88,4.13c-5.5,2-10.37.62-14.25-3.63a61.44,61.44,0,0,1-6.75-9.37c-2.62-4.25-4.87-8.75-7.37-13-5.13-9.13-7.63-19.13-9.5-29.38a301.32,301.32,0,0,0-8.63-36.37c-4.75-14.88-5.87-30.25-4.62-45.88.62-7.75,1.75-15.37,5-22.5A47.84,47.84,0,0,1,92,171.91l6.5-6.13c1.88-1.75,3.75-3.62,5.63-5.37,6.75-6.13,9.25-13.38,7.12-22.38-1.62-6.75-3.12-13.5-4.37-20.25-3-15.87,1.25-29.25,13.5-39.87s26.37-18,42.75-20.5c6.25-.88,12.5-.88,18.5,1a22.48,22.48,0,0,1,9.25,5.5A10.12,10.12,0,0,1,194,72.53a6,6,0,0,0,.63,3.88,7,7,0,0,1,.87,3.25A68.12,68.12,0,0,1,193.22,108a28.74,28.74,0,0,1-9.62,15,5.58,5.58,0,0,0-2.25,6.25,91.65,91.65,0,0,0,3.5,11.38,6.08,6.08,0,0,0,3.25,3.12c8.12,2.63,13.12,8.75,17.87,15.13,3.75,5,6.75,10.5,10,15.75C217.47,177,218.85,179.41,220.35,182Z"/><path class="cls-2" d="M195,300.77c-1-4-.38-5,4.12-4.88.5-.62,1-1.12,1.5-1.75A3,3,0,0,1,204,293a2.86,2.86,0,0,1,1.87,3c.13,2.25.13,4.5.25,6.75.25,12.25,3,24,5.63,35.87,4.25,20,8.12,40,11.62,60.13Q230.16,436.27,236,474c2,12.5,3.12,25.25,4.25,37.87A653.26,653.26,0,0,1,242.54,580c-.13,6.5-.38,13-.63,19.37-.12,2.75-.62,3.13-3.25,4-7.75,2.5-15.5,1.75-23.25,0-6.5-1.5-13-3-19.5-5-12.5-3.75-25.12-3.75-37.75-1.87-17.62,2.62-34.87,7.25-52,12.25-9.37,2.75-18.87,4.87-28.87,4.37A67.78,67.78,0,0,1,52,606.77c-3.75-1.75-4.63-3.63-4.38-7.88.38-6.75.5-13.62,1.13-20.37,1.62-16.63,3.12-33.25,5.25-49.75,4.75-38.5,13.12-76.25,21-114.13,5.75-27.62,12.87-54.75,20.5-81.87.5-1.63.75-3.38,1.37-4.88,1.13-2.75,3.38-3,5.13-.62s3.62,5.25,5.37,7.87a32.88,32.88,0,0,0,3.5,4.63c5.13,5.87,11.63,8,19.38,6.62a60.52,60.52,0,0,0,24.25-10.25c9.87-7,19.25-14.37,28.75-21.87a57.25,57.25,0,0,0,7.12-7.38C191.79,305.14,193,303.27,195,300.77Z"/><path d="M52.42,169.22c-.88-1.13-1.88-2.13-2.63-3.25-7.25-9.63-9.87-19.88-4.62-31.25,3-6.5,8.25-11,14.37-14.5a99.4,99.4,0,0,1,9.88-4.5c2.12-1,4.5-1.75,6.62-2.63A25.87,25.87,0,0,0,91.92,94.72c1.37-5.38,2.37-10.88,3.62-16.25.88-3.75,1.63-7.5,2.63-11.25,4.62-16.13,14.62-27.75,29.62-35a38.9,38.9,0,0,1,20.5-3.88c6,.38,11.38,2.25,15.38,7.13l5.62-1.13A19.3,19.3,0,0,1,185,38.22c7.63,5.87,12,13.75,13.88,23.12,1,4.88-.75,9.38-1.88,14a10.27,10.27,0,0,0-.37,3.88c1,7.75,1.62,15.37.25,23.12a34,34,0,0,1-9.38,18.88,7.37,7.37,0,0,0-1.87,3.5c-1.63,7.25.25,13.5,5.75,18.5a8.06,8.06,0,0,0,2.87,1.62,23.5,23.5,0,0,1,14.63,11.38c3.12,5.5,6.25,11,9.5,16.5.5,1,1.12,2,1.75,3.12,2.62-2.37,5.75-2.25,8.75-2.25h8.25c.12-1.37.25-2.25.37-3.25.88-6.87,3.25-12.87,9-17.37a5.41,5.41,0,0,0,1.88-3,25.16,25.16,0,0,1,8.87-13.38c4.38-3.62,9.25-4.5,14.63-2.12,9.75,4.37,16.37,16.37,14.75,26.87a16.44,16.44,0,0,1-3.63,8.25c-.62.75-1.12,1.5-2,2.75,1.25.25,2,.38,2.75.5a14.55,14.55,0,0,0,2.38,0c6.62-1.25,10.75,2.25,13.87,7.5,5,8,8.13,16.75,10.38,25.88,2.5,10.25,3.37,20.62,1.37,31.12a46.86,46.86,0,0,1-2.62,7.75,3.13,3.13,0,0,1-3.88,2,12.08,12.08,0,0,0-3-.12c-11.37.25-22.75.37-34.12.62-3.13,0-3.13.13-4.13,2.88-3.25,9-6.5,17.87-9.87,26.87a83.89,83.89,0,0,1-3.88,9.13,25.53,25.53,0,0,1-10.12,10.75c-5.25,3-10.75,2.62-15-1.75-2.63-2.63-4.63-5.88-6.88-8.88-.75-1.12-1.37-2.25-2.25-3.62-6.12,5-12.25,9.87-18.37,14.87.25,2.88-1.38,5-3.5,7-13,12.25-26.63,23.75-41.88,33.25-7.87,5-16.25,9.13-25.5,11.25a20.91,20.91,0,0,1-19.75-5.5,39.6,39.6,0,0,1-9.25-13.37c-3.37-8-6.62-16.13-9.5-24.38-7.12-20.25-11.5-41.12-14.75-62.25a62.32,62.32,0,0,1-.87-6.75c-.13-2.25-.75-3.75-3.13-4.5a19.56,19.56,0,0,1-9-6.5c-1.62-2.12-3.12-4.25-3.37-7-.25-1.75-1.25-2.5-2.5-3.37a69.73,69.73,0,0,1-7.25-4.38c-9.38-6.62-12.25-17.12-7.63-27.75a32.71,32.71,0,0,1,9.38-12C50.54,170.72,51.42,170,52.42,169.22Zm104-19.38c-6.5,1.75-12.63,2.75-18.88,1.25a3.05,3.05,0,0,0-3.62,1.63c-4.75,7.75-11.75,12.5-20.5,14.87-2.88.75-5.63,1.63-8.5,2.5-14.38,4.25-22.63,14.13-25.75,28.5A79.08,79.08,0,0,0,77.54,221c.13,3.12.88,6.25,1.13,9.37.25,2.63,0,5.25.37,7.75,1.38,8.63,2.75,17.25,4.38,25.88,3.75,19.75,9.75,38.75,17,57.37a57.61,57.61,0,0,0,8.25,14.88c5.62,7.25,11.62,9.12,20.37,6.62a76.91,76.91,0,0,0,18-8c16-9.75,30.38-21.5,43.88-34.37a3.14,3.14,0,0,0,.87-4.13,56.16,56.16,0,0,0-12.87-19,20.55,20.55,0,0,0-6.88-4.25,25.31,25.31,0,0,0-2.62,1.75l-28.5,21c-.88.63-1.63,1.25-2.38,1.88-1.37.87-2.75,1.37-4,.12a2.72,2.72,0,0,1-.12-3.75l.75-1.12c-.5-1.13-1-2.13-1.5-3.13-5.13-11-10.38-22-15.5-33q-1.32-3,.75-4.12c1.37-.75,2.87-.25,4,1.5.87,1.37,1.62,3,2.37,4.5,4.38,9.25,8.63,18.5,13,27.75a32.14,32.14,0,0,0,1.63,2.87c9.62-7,19.12-13.75,28.5-20.5a2,2,0,0,0,.5-.5c2.37-2.12,2.5-2.12,5.25-.75.5.25,1,.38,1.25.5,7.75-5.5,15.37-10.87,22.87-16.25a7,7,0,0,1-.87-2.37c-.5-5.63-1-11.25-1.25-17a15.55,15.55,0,0,1,2.75-9,47.61,47.61,0,0,0,5.87-13.38c1.5-5.12,1-10-2-14.37-2.5-3.5-5.5-6.63-8.25-9.88-.87-1-2.12-1.75-3-2.75-1.62-1.62-1.75-3.37-.62-4.5s2.5-1.12,4.25.25a53.1,53.1,0,0,1,12.5,13.88c.75,1.37,1.5,2.75,2.37,4.37l.88-1.75c1.62-3.75,3.25-7.5,5.12-11.12a4.45,4.45,0,0,0,0-4.5A159.23,159.23,0,0,0,204,158a17.64,17.64,0,0,0-13-8.38,39.57,39.57,0,0,0-10.12-.25c-4.63.5-9.13,1.75-13.63,2.63C163.42,153,159.54,153.47,156.42,149.84Zm149,91.38A28.24,28.24,0,0,0,307.67,231c1-14.38-2.25-28-8.25-41a62.76,62.76,0,0,0-5.25-8.75c-1.25-2-3.13-2.75-5.75-2.75-18.63.37-37.25.5-55.88.75-2.5,0-5.37-.5-7.25.62s-2.75,4-3.87,6.25A85.17,85.17,0,0,0,210.92,233c.12,2.37.62,4.87,1,7.75,2-1.63,3.5-2.88,5-4,1.75-1.13,3.62-2.25,5.62-.75s1.88,3.5,1.25,5.62c-.25,1-.5,2.13-.87,3.75,3.87-2.37,7.12-4.37,10-6.12,1.25-7.63.75-14.88-.25-22.13a127.32,127.32,0,0,0-6.25-24.37,30.08,30.08,0,0,1-1-3.63,2.56,2.56,0,0,1,1.62-3,2.64,2.64,0,0,1,3.38,1.5l.75,1.88c5.25,14.37,8.5,29,7.87,44.37a9.63,9.63,0,0,0,.25,1.5c1.38-.37,2.5-.75,3.63-1.12,3.87-.88,6,1.37,5,5.12-.25.88-.5,1.75-.88,3.13C267.17,241.84,286.17,241.59,305.42,241.22Zm-140-179.38a8.56,8.56,0,0,1-.88,1c-5,8.25-12.12,14.38-20.25,19.25a54.68,54.68,0,0,1-14.5,6.63c-2.12.5-4,1.25-6.25.87a6.25,6.25,0,0,0-3.87,1c-5.5,3.25-6,11.5-1,16a8.12,8.12,0,0,0,6.87,2.38,18.83,18.83,0,0,1,3.75-.13c2.13.13,2.75.75,3.13,2.75.37,1.5.62,3.13,1.12,4.63a79.1,79.1,0,0,1,3.75,27.5,7.57,7.57,0,0,0,.25,1.62c5.75,1.63,11.13.75,16.38-.62-.38-5.63-.75-10.88-1.13-16.13-2.87-1.62-5.87-3.37-8.75-5l-1.12-.75c-2.13-1.5-2.88-2.87-2-4.37s2.5-1.75,4.75-.38c1.87,1.13,3.62,2.38,5.5,3.38,18.25,9.12,35.62.12,40-16.88a50,50,0,0,0,1-18.25c-.38-3.37-.88-6.62-1.25-9.75C183,74.59,178.29,72,165.42,61.84Zm30.87,230.25c1.25-.87,2.13-1.62,3-2.25,6.63-5.25,13.25-10.37,19.63-15.75,5.62-4.75,11-9.75,16.25-14.87a32.28,32.28,0,0,0,4.75-6.63,29.61,29.61,0,0,0,1.37-3.5,11.9,11.9,0,0,0-3.25,2.63,2.73,2.73,0,0,1-3.75.37,2.77,2.77,0,0,1-.5-4c.5-.87,1.38-1.5,2-2.37s1.25-1.5,1.88-2.38a2.16,2.16,0,0,0-1.63.38c-3.75,2.25-7.5,4.62-11.37,6.75a14.67,14.67,0,0,1-4.38,1.75c-3.25.62-5.25-1.63-4.5-4.88.25-.75.38-1.62.63-2.37-10.63,10.62-24.5,16.5-35.63,26.37A66.25,66.25,0,0,1,196.29,292.09Zm25.13-12.87c2.25,4.37,4.5,8.62,8,11.87,2.87,2.63,5.75,2.75,9,.75a18.86,18.86,0,0,0,7.5-8.12C247,281.34,248,279,249,276.47c3.13-8.5,6.25-17,9.38-25.63.37-.87.5-1.87.87-3.12h-12c-2.37,8-3.87,10.75-9.5,16.37-4.37,4.38-9,8.38-13.5,12.5A20.15,20.15,0,0,1,221.42,279.22Zm37.37-130.88c.25-1.12.38-2,.63-2.87.62-2.13,1.75-3,3.25-2.75s2.5,1.62,2.12,4-1.25,5-1.87,7.62c-.13.63-.13,1.38-.25,2.75,1.12-1.25,1.62-1.87,2.25-2.5,2.12-2.5,3.5-3.12,5.12-2.12s1.75,2.5.88,5.5c-.5,1.75-.88,3.62-1.25,5.37.25.13.37.25.62.25.88-.87,1.63-1.75,2.5-2.62,1.13-1.13,2.38-1.88,3.88-1s1.75,2.25,1.37,3.87c-.25,1.13-.5,2.25-.75,3.88,3-2.25,3.88-3.63,4.38-6.63,1.37-8.12-4-18-11.5-21.37a7.26,7.26,0,0,0-7.75.62,20.46,20.46,0,0,0-6.75,7.88c-.13.12.12.37.25.75C256.79,148.72,257.67,148.59,258.79,148.34Zm4.88,16.25a7.89,7.89,0,0,1-1.5.75c-4.13,2-6.63.38-6.38-4.25a11.51,11.51,0,0,1,.25-2c.25-1.37.5-2.75.88-4.37-2.5.12-3.75,1-3.88,3.37-.25,2.88-.87,5.88-1.12,8.75-.13,2.13-.63,4.25-.13,6.13h20.13c-.38-1.13-.5-2-.75-2.88C265,171.84,264,169.22,263.67,164.59Zm-58.75,60.88c-.13-.13-.38-.13-.5-.25-.75,1.62-2,3.12-2.25,4.75-1.13,6.12,0,12.25.87,19,1.75-1.5,3-2.5,3.88-3.25C206.29,238.59,205.54,232.09,204.92,225.47Zm41.75-62.63a14,14,0,0,0-3,9c0,.5.62,1,.87,1.5.5-.5,1.25-1,1.38-1.5C246.29,169,246.42,165.84,246.67,162.84Z"/><path d="M175.54,845.72a54.36,54.36,0,0,0,2.38-7.25c.62-2.75-.13-3.75-2.63-5.13-4.37-2.37-8.75-4.87-13.12-7.25-3.38-1.87-4.75-4.5-4.75-8.62q-.57-107.62-1.5-215.13a25.08,25.08,0,0,1,.12-3c.25-1.87,1.38-3,2.88-2.87s2.37,1.25,2.62,2.75a29.21,29.21,0,0,1,.13,3.37c.12,15.5.25,30.88.25,46.38v4c1.5-.75,1.62-2.13,2.12-3.13q11.07-24.55,22-49.12a22.69,22.69,0,0,1,1.5-3,2.65,2.65,0,0,1,4.88,2,15.52,15.52,0,0,1-1,2.5c-8.75,19.75-17.63,39.37-26.5,59.12-.38.75-.5,1.63-1.13,2.13-2.25,1.87-2,4.25-2,6.75l1.13,146.25a5.77,5.77,0,0,0,3,5.5,140.41,140.41,0,0,0,23.87,11.62c5.25,2,10.38,4,15.5,6.13a14.74,14.74,0,0,1,3.88,2.12c2.87,2.13,2.75,5.5-.25,7.25a13,13,0,0,1-6,2,132.79,132.79,0,0,1-17.38.5c-12.5-.75-24.87-2-37.37-3.12-1.5-.13-2.88-.38-4.38-.63-4.37-.75-6.25-2.75-6.62-7.25-.13-2.12-.5-4.25-.5-6.5a18.54,18.54,0,0,0-2-8.12,270.59,270.59,0,0,1-12.5-33.5c-2.13-6.88-4.13-13.75-6.25-20.5a26.7,26.7,0,0,0-1-2.88c-.75,1.25-1.25,2.13-1.75,3-2.25,4.38-4.38,8.75-6.63,13.13a7.46,7.46,0,0,0-.87,4.87A64.31,64.31,0,0,0,109.54,806c2.5,5.75,5.13,11.37,7.63,17.12a32.08,32.08,0,0,1,1.75,4.75,3.93,3.93,0,0,1-1.38,4.25c-1.5,1.13-3,.75-4.5-.12-5.37-3.25-11-6.5-16.25-10-8.75-6-17.5-12.38-26-18.63-5.75-4.37-6.37-6.62-3-13a36.79,36.79,0,0,1,6.38-8.75,19.85,19.85,0,0,0,6.37-15.25c-.12-9.37,2.63-18.37,5.63-27.25,5-15.12,9.62-30.37,16.12-44.87a31.49,31.49,0,0,0,2.38-12.88c-.13-16.87.37-33.87.62-50.75.13-7.12.5-14.25.88-21.5a10.29,10.29,0,0,1,.25-2.75c.37-1.25,1.25-2.12,2.5-1.87a3.9,3.9,0,0,1,2.37,1.62,5.86,5.86,0,0,1,.5,3c-.12,6.38-.37,12.75-.62,19.13L110,654.84c-.5,17.63.5,35.25,1.63,52.75a381.68,381.68,0,0,0,6.37,49,276.21,276.21,0,0,0,11.25,39.63c3.13,8.75,6,17.62,10.13,26,2.62,5.37,2.75,10.87,3.25,16.37.25,3.63.25,3.75,3.87,4.25C156,843.84,165.54,844.72,175.54,845.72Zm-74.37-48.63c-.38-2.37-.5-4.37-.88-6.37a12.55,12.55,0,0,1,1.38-7.88c3.5-6.62,6.62-13.37,10.12-20.12a8.71,8.71,0,0,0,.75-5.88,393.94,393.94,0,0,1-6.62-52.62,17.81,17.81,0,0,0-.5-2.63,22.37,22.37,0,0,0-1.5,3.5c-3.63,10.5-7.38,21-10.88,31.5-4,12.25-7.5,24.5-7,37.63.13,2.12-1,3.62-2.25,5.12-2.5,2.75-5.12,5.5-7.37,8.5a64.52,64.52,0,0,0-4.25,7,2.13,2.13,0,0,0,.75,3c4.5,3.38,8.87,6.63,13.37,10C90.67,803.22,94.92,799.09,101.17,797.09Zm1.25,5.75c-4.5,1.25-9.13,4.88-10.75,8.25,5.5,4.88,16.75,12.13,19.62,12.5C108.29,816.72,105.42,810,102.42,802.84Zm100.75,41.88c-6.38-2.5-12.75-4.88-19.13-7.38-.87,3.13-1.5,5.75-2.25,8.38C189.67,846.84,198.29,846.59,203.17,844.72Z"/><path d="M263,189.09c-7.37.38-14.25.75-21,1.13a21,21,0,0,1-2.75,0,2.3,2.3,0,0,1-2.12-2.63,4.61,4.61,0,0,1,1.87-2.5,7.41,7.41,0,0,1,3.38-.5c14.12-.75,28.12-1.37,42.25-2a5.94,5.94,0,0,1,2.62.25,3.79,3.79,0,0,1,1.88,2.5c.25,1.38-.88,2.38-2.25,2.63-1.63.25-3.38.37-5.13.5C275.29,188.72,268.79,189,263,189.09Z"/><path d="M169.54,99.22c-4.37-3-3.5-6.88-2.25-10.75.63-1.88,1.75-2.5,3.25-2.25s2.25,1.62,2,3.37a11,11,0,0,1-.5,2,3.82,3.82,0,0,0,.88,3.38c3.12,3.5,3.12,5.25,0,8.75a14,14,0,0,1-2.38,2.37,2.37,2.37,0,0,1-3.37,0,2.41,2.41,0,0,1-.5-3.37C167.42,101.72,168.29,100.72,169.54,99.22Z"/><path d="M162.67,116.34a9.63,9.63,0,0,1-8.88-8.75,5.71,5.71,0,0,1,.38-2,2.34,2.34,0,0,1,2.62-1.75,2.23,2.23,0,0,1,2.38,2c.37,3.13,1.62,5,5,5.25a2.54,2.54,0,0,1,2.25,3.25C166.17,115.72,164.92,116.47,162.67,116.34Z"/><path d="M185.29,94.84c0,.38-.12.63-.12,1-.5,2.63-1.88,4-4,3.63-1.88-.38-2.88-2.38-2.5-4.88a3.59,3.59,0,0,1,.37-1.25c.75-1.75,2.5-2.87,4-2.5S185.42,92.47,185.29,94.84Z"/><path d="M159.92,89.47a11.76,11.76,0,0,1-1,2.5,2.71,2.71,0,0,1-3.25,1.25,4.11,4.11,0,0,1-2.25-4.88c.37-2.37,1.62-3.5,3.5-3.25S159.92,86.59,159.92,89.47Z"/></g><g id="Button"><path class="cls-1" d="M836.26,719.84c-12.13.25-24.25.62-36.5.87H798c-3.5,0-4.75-1.25-4.75-4.75-.25-8.25-.38-16.62-.5-24.87-.25-14.38-.5-28.88-.88-43.25a12.65,12.65,0,0,0-.75-4.25,3.94,3.94,0,0,1,1.13-4,3,3,0,0,1,3.62-.88,12.57,12.57,0,0,0,4.25.63l70.13-1.13c6.12-.12,6.37.25,6.62,6.5.5,22.75,1,45.38,1.63,68.13v1.75c0,3.75-.75,4.25-4.38,4.12-2.5-.12-5,0-7.5.13-9.87.37-20.12.62-30.37,1Z"/><path d="M835.88,721.82H796.63c-4.63,0-6.63-1.75-6.75-6.5-.25-11-.38-22-.63-33l-.75-41.63c-.12-4.62,1-5.87,5.63-6.25a15.63,15.63,0,0,1,2.37,0c25.5-.12,50.88-.12,76.38-.25,6.25,0,6.75.5,6.87,6.75.38,24.5.75,49.13,1,73.63v1c0,4.5-1.12,5.62-5.62,5.62-12.38.13-24.75.13-37.13.25h-2.37C835.88,721.57,835.88,721.69,835.88,721.82Zm39.5-6c-.38-25.63-.75-50.63-1.13-75.63-5.25-.75-77.5-.25-80.12.63.5,25,.87,50,1.37,75Z"/><path class="cls-3" d="M565.5,720.94H366.38a25.06,25.06,0,0,1-4.38-.25c-2.38-.37-3.25-1.5-3.38-4v-2c.26-24.37.38-48.62.63-73v-.62c.13-5.25,1.63-6.63,6.75-6.63l146.88.38,249.87.75h.63c4.75,0,6.62,1.87,6.87,6.75.25,6.5.38,13,.5,19.37.5,17,.88,34.13,1.25,51.13v1.75c.13,5.37-.87,6.37-6.25,6.37-66.63.13-133.5.13-200.25,0Z"/><path d="M829.34,668.27h9.88c-.5-.88-1-1.63-1.38-2.38-.87-1.62-.62-3.12.5-4s2.63-.62,3.88.63c.87.75,1.62,1.62,2.37,2.37a11.14,11.14,0,0,0,8.75,3.75c4-.12,6.38,3.5,4.88,7.25q-3,7.7-6.38,15.38c-1.5,3.5-3.87,5.25-7.87,5.12-6.75,0-13.38.25-20.13.63-3.25.12-5.25-1-6.62-4.13-2.38-5.37-5-10.75-7.5-16-.38-.87-.75-1.62-1.13-2.5-1.5-4.62-.12-6.37,4.63-6.37h.62c5.25,1,9.63-.25,12.25-5.25,0-.13.13-.13.25-.25,1.75-1.88,3.38-2.25,4.75-1.13s1.13,2.63-.5,4.75A8.48,8.48,0,0,1,829.34,668.27ZM823,691.64c7.25-.25,14.37-.5,21.37-.87a2.74,2.74,0,0,0,2.13-1.38,80.39,80.39,0,0,0,6-14.5c-1.5.13-3.25.75-4.13.13-1.75-1.13-3.62-1.13-5.5-1.13-5.25-.12-10.37,0-15.62-.25a5.65,5.65,0,0,0-4.75,1.88c-2,2.12-3.75,1.87-5-.75-.75-1.5-1.38-1.5-2.88-.75C817.47,679.89,820.22,685.64,823,691.64Z"/><path d="M526,673.77c.87.62,1.5,1.12,2.25,1.75,2.87,2.37,3.5,5.5,2.75,8.87s-3.25,5-6.5,5.63c-1.5.25-3.13.12-4,1.87a2.22,2.22,0,0,1-2.88,1.13,3,3,0,0,1-2.12-2.75c-.25-2.13-.38-4.25-.5-6.5-.38-6.5-.75-13.13-1-19.63-.13-4,.62-4.75,4.62-4.87a19.13,19.13,0,0,1,6,.75c4.38,1.5,5.88,5.37,3.88,9.5A25.45,25.45,0,0,1,526,673.77Zm-5.38,11c4.13-.13,5-.63,5-2.5,0-2.13-1.5-3.38-5.5-4C520.22,680.39,520.34,682.52,520.59,684.77ZM519.72,671c.25,0,.5.12.75.12,1.25-1.5,3.12-2.75,3-5.5-1.13-.25-2.38-.62-3.75-.87Z"/><path d="M556.47,685.39c-1,1.25-1.63,2.25-2.38,3-2.5,2.63-6,2.63-8.37-.12a17.18,17.18,0,0,1-2.75-4.63c-2.38-6-3-12.37-3-18.75,0-2.12,1-3.37,2.5-3.5s2.75,1.13,3,3.5c.37,4,.75,7.88,1.37,11.88a14.89,14.89,0,0,0,3.25,7.87,12.54,12.54,0,0,0,1.75-3.37c.88-3,1.63-6.13,2.38-9.25.37-1.5.37-3.13.75-4.75.37-1.88,1.37-2.88,2.87-2.88s2.5,1,2.75,2.88c.63,5.87,1.38,11.75,2,17.62a10.4,10.4,0,0,1,.13,2,2.24,2.24,0,0,1-2.25,2.5,4.34,4.34,0,0,1-2.75-1.5C556.84,687.77,556.84,686.64,556.47,685.39Z"/><path d="M575.09,667.89c2.38-2.62,4.25-4.87,6.25-7a12.33,12.33,0,0,1,2.25-2.12,2.58,2.58,0,0,1,3.63.37,2.72,2.72,0,0,1,0,3.75l-.75.75a57.25,57.25,0,0,1-5.38,5.63c-2.75,2.37-3.12,5.12-2.5,8.5.5,2.75.75,5.62,1.13,8.37a5.17,5.17,0,0,1,0,2.38,3.93,3.93,0,0,1-2,2,3.73,3.73,0,0,1-2.63-1,4.93,4.93,0,0,1-.87-2.5c-.5-3.5-.88-7-1.25-10.5a8.87,8.87,0,0,0-2-4.88,62.59,62.59,0,0,1-5-6.5,2.48,2.48,0,0,1,0-3.37,2.4,2.4,0,0,1,3.37-.5,16.5,16.5,0,0,1,2.75,2.5A43.7,43.7,0,0,1,575.09,667.89Z"/><path d="M824.22,678.77c0-2.13.37-3.25,2-3.75a2.7,2.7,0,0,1,3.37,2.12c.75,2.75,1.38,5.5,2,8.25a2.58,2.58,0,0,1-1.75,3.25,2.73,2.73,0,0,1-3.5-1.87A70.66,70.66,0,0,1,824.22,678.77Z"/><path d="M840.72,683.52c.12,2.87-.63,4.12-2.25,4.37s-2.88-.87-3.25-2.87-.63-4-.88-6.13c-.12-1.5.38-2.75,1.88-3.12a2.65,2.65,0,0,1,3.37,2A32.6,32.6,0,0,1,840.72,683.52Z"/></g><g id="Accent"><path d="M892.38,197.75q-.57,75-1.13,149.87c0,1.26,0,2.5-.12,3.76-.25,1.5-1.13,2.62-2.63,2.62a2.56,2.56,0,0,1-2.62-2.62c-.13-1.38-.13-2.76-.13-4.13.38-44,.75-87.87,1-131.87q.57-83.64,1.13-167.38c0-1.5,0-3,.12-4.38a2.47,2.47,0,0,1,2.63-2.5,2.56,2.56,0,0,1,2.62,2.63c.13,1.37.13,2.75.13,4.13q-.57,74.81-1,149.87Z"/><path d="M37.62,693.75c-1.5,1.25-2.62,2.37-4,3.5-3.5,2.75-7.37,4.87-12.12,4.75A14.18,14.18,0,0,1,8,688.75c-.25-7.25,5-13,12.38-13.63,5.62-.5,10.24,1.63,14.24,5.26.88.87,1.76,1.62,2.88,2.74,2.12-4,2.25-8,1.62-12.12a43.77,43.77,0,0,0-8.62-19.75c-2-2.75-4.38-5.25-6.38-8-4.62-6.25-9.24-12.37-13.5-18.87s-6.37-14-7.24-21.76c-.63-5.37-1.26-10.87-1.88-16.24a10.23,10.23,0,0,1-.12-2.76c0-2.12,1.12-3.5,2.87-3.62s2.5,1.12,2.75,3.5c.88,7.75,1.62,15.62,2.75,23.38a38.06,38.06,0,0,0,5.63,14.5,138.8,138.8,0,0,0,14.87,20.37,71.51,71.51,0,0,1,9.75,14,46.52,46.52,0,0,1,4.62,13.5c1,6,.63,11.75-2.24,17.25a4,4,0,0,0,.12,4.38c9.5,17.87,9.12,35.74-.25,53.5A93.78,93.78,0,0,1,26,767a36,36,0,0,1-4.62,4,2.62,2.62,0,0,1-3.76-.25c-1-1-.87-2.63.26-4a3.12,3.12,0,0,1,1-.87,78.72,78.72,0,0,0,20.5-28.5c6-13.63,5.87-27.38-.5-40.88A14,14,0,0,0,37.62,693.75Zm-3.24-5.25c-3.38-4.38-6.88-7.75-12.63-7.88-3.37,0-6,1.26-7.5,4.26s-.87,5.74,1.13,8.24c2.12,2.76,5,4,8.37,3C28.25,694.88,31.5,692,34.38,688.5Z"/><path d="M300.88,573a6.69,6.69,0,0,1,2.12,1.75,12.5,12.5,0,0,1,1.62,3.75c3.38,8.75,6.63,17.62,10,26.38.13.37.38.87.5,1.24a2.69,2.69,0,0,1-4.87,2.26,11.59,11.59,0,0,1-1-2.13c-3.63-9.63-7.37-19.25-11-29C297.25,574.88,298.25,573,300.88,573Z"/><path d="M8.12,566.38A8,8,0,0,1,0,558.5a7.4,7.4,0,0,1,7.38-7.38,8.18,8.18,0,0,1,8.37,7.76A7.4,7.4,0,0,1,8.12,566.38ZM10,559.5c-.12-1.62-1.62-3-2.62-2.62a2.76,2.76,0,0,0-1.63,1.74c-.25,1.13,1.37,2.38,2.63,2C9,560.5,9.62,559.75,10,559.5Z"/><path d="M1147.5,817.88h-12.62c-1.63-.13-2.63-.88-2.75-2.5s1-2.5,2.37-2.88a12.17,12.17,0,0,1,3-.25c4.25,0,8.38.13,12.63.13,3.5,0,7-.13,10.5-.13,1.87,0,3,.87,3.25,2.37a2.87,2.87,0,0,1-2.63,3.38,25.28,25.28,0,0,1-3,.25h-10.87A.47.47,0,0,0,1147.5,817.88Z"/><path d="M306.62,617c-.12,2.38-2,3.62-3.62,2.75a5,5,0,0,1-1.75-1.5L287,599.12a6.65,6.65,0,0,1-1.12-2.12,2.57,2.57,0,0,1,1-3.25,2.52,2.52,0,0,1,3.37.5,3.34,3.34,0,0,1,.87,1c4.63,6.25,9.26,12.63,13.88,18.87C305.62,615.25,306.25,616.38,306.62,617Z"/><path d="M907.38,328.88V337c0,1.88-.88,3-2.25,3.25a2.87,2.87,0,0,1-3.13-2.87c-.37-5.88-.62-11.76-.87-17.63,0-2,1-3,2.5-3.13s2.87,1,3,3.13c.12,3,0,6.13,0,9.13Z"/><path d="M334.12,602c-.37.5-.74,1.62-1.5,1.88a3.72,3.72,0,0,1-3-.5,6,6,0,0,1-1.5-2.88c-1.24-3.62-2.37-7.25-3.62-10.88-.75-2.37-.5-3.62,1-4.24s3.38.12,4.25,2.37c1.5,4.37,2.87,8.75,4.25,13.25C334.12,601,334.12,601.25,334.12,602Z"/><path d="M726.07,698.53c-1.87,1.38-3.62,2.5-5.5,3.75-4.12,2.75-7.87,1.25-8.75-3.62-2-10.75-3.87-21.5-5.75-32.13a5.4,5.4,0,0,1-.12-2c.12-2.25,1.5-3.25,3.75-2.75a8.39,8.39,0,0,1,2.25.88c11.12,5.5,22.25,10.87,33.25,16.37.37.25.87.38,1.25.63,2.25,1.37,2.5,3.12.5,5-1.75,1.62-3.63,3-5.5,4.5-.5.37-1,.87-1.88,1.5,1.25,1.5,2.5,2.87,3.75,4.25a32.46,32.46,0,0,1,2.88,3.25,3.85,3.85,0,0,1-.25,5.25c-2.5,2.62-5,5.25-7.63,7.75-1.75,1.62-3.75,1.37-5.25-.75s-2.75-4.63-4.12-7C728.07,701.91,727.2,700.41,726.07,698.53Z"/><path d="M1138.88,832.32h46a25.08,25.08,0,0,1,3,.12,2.66,2.66,0,0,1,.25,5.25,12.17,12.17,0,0,1-3,.25c-31.25-.12-62.5-.37-93.62-.5a5.84,5.84,0,0,1-2.63-.25,2.61,2.61,0,0,1,0-5c.88-.5,2.25-.25,3.38-.25h46.62Z"/><path d="M957.88,628.57c.5-2.5.88-4.88,1.38-7.38a41.9,41.9,0,0,1,6.5-15.62c5.5-7.88,12.62-12.63,22.62-11.88a5.72,5.72,0,0,0,2.88-.62c8.12-3.38,15.87-2.38,23.12,2.25,8.13,5.12,13.13,12.75,15.75,21.87,1,3.5,1.5,7,2.38,10.88h3.62c10.38-.13,20.63,0,31-.25,4.38-.13,6.63,1,7.75,6.12,9.13,39.88,18.38,79.63,27.5,119.5,3.25,14.25,6.63,28.5,9.88,42.75a19.59,19.59,0,0,0,.5,2.38,4.15,4.15,0,0,1-2.25,4.87c-.75.5-1.63.88-2.38,1.38-19.87,11.37-39.87,22.75-59.75,34.12-2,1.13-3.75,1.88-6.12,1.25a15,15,0,0,0-3.38-.12c-49.87-.13-99.75-.38-149.62-.5h-1.75c-3.38-.13-4-1.13-3.5-4.5,3-19.13,6-38.38,9-57.5,3.25-21.38,6.62-42.63,9.87-64q5.25-34.12,10.63-68.38c.62-4.37,1.37-8.75,2-13.12.5-3.25,1.5-3.75,4.62-3.25a16,16,0,0,0,2.38.25c11.12-.13,22.25-.13,33.37-.25A10.52,10.52,0,0,1,957.88,628.57Zm-37,6c-10.25,66.62-20.5,132.75-30.87,199.37h153.5q12-100.12,24.12-200.12h-48.75c.13,1.62.25,2.87.25,4.12,0,2.38-.87,3.63-2.5,3.88s-2.75-.88-3.12-3.25c-.25-1.38-.38-2.88-.5-4.13h-49.5v4c-.13,2.13-1,3.38-2.63,3.38s-2.62-1.13-3-3.13c-.12-1.37-.25-2.62-.37-4C945.38,634.57,933.38,634.57,920.88,634.57Zm151.5,12.87c-.25,0-.5-.12-.75-.12q-10.5,87.55-21.12,175.12c.25.13.5.13.75.25.5-.87,1.12-1.62,1.62-2.5,2.88-4.75,5.75-9.5,8.38-14.37a13.81,13.81,0,0,1,9.75-7.25c1.37-.25,2.62-.63,4-.75,9.12-.88,18.25-1.75,27.37-2.75,1.13-.13,2.38-.13,4-.25C1094.88,745.32,1083.63,696.44,1072.38,647.44Zm-60.62-19.25c0-.87.12-1.25,0-1.5-1.88-7.25-4.88-13.87-9.88-19.5a26.16,26.16,0,0,0-8.37-6.37c-2.75-1.25-3.13-1.25-5.38.87-5.12,5-7.62,11.25-8.37,18.13a30.33,30.33,0,0,0,.12,8.25C990.63,628.19,1001,628.19,1011.76,628.19Zm42.87,200.25c.88-.37,1.38-.5,1.63-.62,15.37-8.75,30.75-17.63,46.12-26.38.13,0,.13-.25.13-.25a.44.44,0,0,0-.13-.37,36.08,36.08,0,0,0-3.75,0c-6.12.5-12.25,1.12-18.25,1.75-2.87.37-5.87,1-8.75,1.62a7.74,7.74,0,0,0-5.5,4.13c-3.37,6-7,12-10.5,18A21.91,21.91,0,0,1,1054.63,828.44Zm-28.25-200.5c-.75-10.5-4.37-19.25-12.12-25.75a35,35,0,0,0-7.88-4.5,11.78,11.78,0,0,0-7.87-.5,40.14,40.14,0,0,1,12.75,13.63c3.12,5.37,5,11.25,6.62,17.25C1020.88,627.94,1023.38,627.94,1026.38,627.94Zm-52.5.5c.88-14.87.88-14.87,7.5-28.25-8.87,1.75-18.25,17.13-17,28.25Z"/><path d="M1028.63,453.07v21.12c0,3.38-1.5,5.88-4.75,7a58.44,58.44,0,0,1-22.75,3.25,60.14,60.14,0,0,1-20.25-5.5c-4.87-2.12-9.75-4.25-14.75-6.25a31.16,31.16,0,0,0-21-1.25c-2,.5-3.87,1.13-5.87,1.5-3.88.88-5.63-.37-6-4.25-1.25-12.25-2.38-24.37-3.63-36.62a11.14,11.14,0,0,0-.5-3,3.43,3.43,0,0,1,1.13-4.25,44.77,44.77,0,0,1,5.62-3.88c11.25-5.87,22.75-5.25,34.25-.62a52.71,52.71,0,0,1,7.5,4c5.75,3.5,11.88,4.87,18.5,5.25a88.6,88.6,0,0,0,26.25-3.25c4-1,5.88.37,5.88,4.5v22.12C1028.26,453.07,1028.51,453.07,1028.63,453.07Z"/><path d="M867.26,491.94c4.87.5,9,.88,13.25,1.25a35.06,35.06,0,0,0,16-2.5,79.69,79.69,0,0,0,17.62-10.12c3.25-2.38,6.25-1.63,7.88,2.12l11.25,24.75c2.25,4.88,4.62,9.63,7,14.38,1.5,3,1.12,5-1.63,6.62-4.5,2.75-9.12,5.5-13.75,8.13-6.75,3.75-14.25,4.37-21.75,4.75-4.62.25-9.25.25-14,.5a50.07,50.07,0,0,0-25.62,9.12l-5.25,3.75c-2.63,1.63-4.25,1.25-6.13-1.25a14.5,14.5,0,0,1-1.37-2.37c-5.38-9.88-10.63-19.75-16-29.63-.88-1.75-2-3.37-2.88-5-2.12-3.75-2-5.62,1-8.87a27.85,27.85,0,0,1,4-3.75c6.5-5.25,13.63-9.5,22-11C861.76,492.32,864.88,492.19,867.26,491.94Z"/><path class="cls-1" d="M883.72,506.59c1.15.27,2.29.14,2.85.61a6.38,6.38,0,0,1,1.81,2.55c.28,1.22-.78,2-2,2.39l-3.19,1.1c-.12,0-.08.16-.35.52a10.65,10.65,0,0,0,1.67.61c.71.15,1.38.19,2,.38q8.55,1.82,4,9.33l1.22,3.54c.5,1.82,0,3.17-1.3,3.89a2.85,2.85,0,0,1-3.69-1.5c-.93-1.93-1.82-3.74-3.81-4.91-1.47-.81-.89-2.6,1.26-4.79a24.11,24.11,0,0,1-3-.69c-4-1-5.81-4.21-4-8a5.91,5.91,0,0,0,.54-4.55c-.57-2.05,0-3.56,1.43-3.93,1.69-.45,2.81.49,3.53,1.82A5,5,0,0,1,883.72,506.59Z"/><path id="Path-Copy-2" class="cls-1" d="M982.2,441.24c.94.71,2,1.06,2.36,1.71a6.43,6.43,0,0,1,.61,3.07c-.24,1.23-1.51,1.5-2.76,1.39l-3.36-.29c-.13,0-.14.11-.53.33a11.34,11.34,0,0,0,1.27,1.24c.59.42,1.19.73,1.66,1.14q7.08,5.15-.14,10.16l-.33,3.73c-.28,1.86-1.25,2.9-2.77,3a2.85,2.85,0,0,1-2.76-2.87c-.06-2.14-.14-4.16-1.48-6-1-1.34.24-2.74,3.1-3.87a23.68,23.68,0,0,1-2.47-1.85c-3.29-2.55-3.6-6.21-.35-8.94a5.93,5.93,0,0,0,2.35-3.93c.31-2.11,1.42-3.27,2.9-3,1.73.28,2.37,1.59,2.49,3.1A5.22,5.22,0,0,1,982.2,441.24Z"/><path d="M331.13,839.82q-42.75.75-85.5,1.37a29.14,29.14,0,0,1-3.37,0c-1.75-.25-3-1.5-2.88-2.87.13-1.63,1.13-2.38,2.75-2.5a23.17,23.17,0,0,1,3-.13c26.63-.37,53.13-.87,79.75-1.25l93-1.5a23.17,23.17,0,0,1,3,.13,2.45,2.45,0,0,1,2.25,2.5,2.48,2.48,0,0,1-2.25,2.62,18.92,18.92,0,0,1-3.75.25c-21.37.38-42.75.63-64.12.88-7.38.12-14.75,0-22.13,0C331.13,839.57,331.13,839.69,331.13,839.82Z"/><path d="M1034.76,520.19a15.13,15.13,0,0,1,14.87-15.5c8,0,14.5,6.75,14.63,15s-6.75,15.25-14.75,15.38S1034.88,528.44,1034.76,520.19Z"/><path d="M882.88,423.94c0-8.12,6.25-14.75,13.88-14.75,8.37,0,15.5,7.38,15.5,15.88a14.27,14.27,0,0,1-14.13,14.5C889.88,439.57,882.88,432.44,882.88,423.94Z"/><path class="cls-1" d="M900.14,427.33c-2.25-.25-4.5-.38-6.75-.75-1.88-.25-2.88-1.5-2.75-2.88a2.84,2.84,0,0,1,3.12-2.5c3,.13,6.13.38,9.13.75a2.67,2.67,0,0,1,2.5,3c-.25,1.38-1.38,2.25-3.25,2.25a5.43,5.43,0,0,1-2,.13Z"/><path class="cls-1" d="M1053.29,522c-2.12.8-4.18,1.71-6.35,2.39-1.79.63-3.25,0-3.76-1.31a2.85,2.85,0,0,1,1.65-3.65c2.73-1.25,5.63-2.44,8.47-3.47a2.67,2.67,0,0,1,3.59,1.54c.4,1.34-.2,2.63-1.87,3.48a5.72,5.72,0,0,1-1.73,1Z"/><path d="M318.63,101.69a27.21,27.21,0,0,1,3.13,0,2.69,2.69,0,0,1,.62,5.25c-1,.38-2,.5-3.25.88.25,1.62.5,3.12.63,4.62.25,2.13-.38,3.38-2,3.75s-3-.62-3.5-2.75c-.38-1.5-.5-3.12-.88-4.87-.87-.13-1.75-.13-2.62-.25a2.71,2.71,0,0,1-.25-5.38c.62-.12,1.37-.25,2.12-.37a13.07,13.07,0,0,0,.13-2.25c.12-2.25.87-3.38,2.37-3.5s2.63.75,3.13,3.25C318.38,100.57,318.51,101.19,318.63,101.69Z"/><path d="M803.63,568.44a29.33,29.33,0,0,0,.13-3.25,2.59,2.59,0,0,1,5.12-.5,15.23,15.23,0,0,1,.5,3.5c1.75.63,4.63.25,4.5,3.25-.12,2.63-2.37,2.5-4.5,2.88v4c.13,2.12-.87,3.5-2.62,3.75s-2.88-1.13-3.13-3.25c-.12-1.5-.12-2.88-.25-4.25-4-1-5-1.75-4.75-3.5C799.26,568.57,801.51,568.82,803.63,568.44Z"/><path d="M1042,389.07a32,32,0,0,1,3.25-.13c1.75.13,3,1.13,3,2.63a2.65,2.65,0,0,1-2.5,2.75c-1.25.25-2.5.37-4.13.62,0,1.13.13,2.38.13,3.5.12,2-.88,3.25-2.5,3.38a3,3,0,0,1-3.25-2.75c-.13-1.13-.13-2.25-.25-3.38-2-.75-4.75-.62-4.5-3.75.25-2.5,2.5-2.25,4.37-2.5l.38-2.25a2.7,2.7,0,0,1,5.37-.5A6.65,6.65,0,0,1,1042,389.07Z"/><path d="M277.51,309.07v3a2.48,2.48,0,0,1-2.25,2.5,2.64,2.64,0,0,1-3-1.75,34.18,34.18,0,0,1-.75-3.5,35.76,35.76,0,0,1-4.25-1.13c-.38-.12-.75-1.12-.75-1.75-.13-1.75.87-2.5,4.12-3.37.63-1.63.13-4.25,3.13-4.38,1.5,0,2,.63,3.25,4,1.75.25,4,.13,4.25,2.75C281.26,307.82,279.38,308.44,277.51,309.07Z"/><path d="M223.51,118.94c1.5.5,3.25.5,3.62,2.63s-1.37,2.87-2.75,3.5c0,3.75-.5,4.87-2.25,5.25s-2.75-.63-3.75-4c-1.25-.88-3.62-.75-3.75-3.13-.12-2,1.38-2.62,3.13-3.25a23.1,23.1,0,0,1,0-3c.25-1.87,1.25-3,2.75-2.87s2.37,1,2.62,2.62C223.26,117.32,223.38,118.07,223.51,118.94Z"/><path d="M370.51,192.32a2.64,2.64,0,0,1-2.38,2.75,2.76,2.76,0,0,1-.37-5.5A2.62,2.62,0,0,1,370.51,192.32Z"/><path d="M235.26,95.44a2.61,2.61,0,0,1-2.75-2.37,2.69,2.69,0,1,1,5.37-.25A2.92,2.92,0,0,1,235.26,95.44Z"/><path d="M344.26,219.69a2.8,2.8,0,0,1-2.88,2.75,2.53,2.53,0,0,1-2.62-2.5,3.13,3.13,0,0,1,3-3A2.64,2.64,0,0,1,344.26,219.69Z"/><path d="M301.26,289.69a2.48,2.48,0,0,1,2.75,2.38,2.55,2.55,0,0,1-2.38,2.75,2.65,2.65,0,0,1-3-2.5A2.83,2.83,0,0,1,301.26,289.69Z"/><path d="M893.63,458.69a2.53,2.53,0,0,1-2.5,2.63,2.63,2.63,0,0,1-2.75-2.38,2.46,2.46,0,0,1,2.5-2.62A2.61,2.61,0,0,1,893.63,458.69Z"/><path d="M944,377.69a2.5,2.5,0,1,1-2.38-2.62A2.44,2.44,0,0,1,944,377.69Z"/><path d="M828.51,551.07a2.65,2.65,0,0,1-2.75-2.5,2.56,2.56,0,0,1,2.37-2.5,2.64,2.64,0,0,1,2.88,2.25A2.5,2.5,0,0,1,828.51,551.07Z"/><path d="M1086.63,552.44h-3a2.52,2.52,0,0,1-2.5-2,2.49,2.49,0,0,1,1.5-3,28.23,28.23,0,0,1,3.75-1c.38-1.75.75-4,3.25-4,2.13,0,2.5,1.88,2.88,3.63a26.1,26.1,0,0,1,3.12.12,2.53,2.53,0,0,1,2.25,2.25,2.44,2.44,0,0,1-1.75,2.88,23.91,23.91,0,0,1-3.75.62c.13,1.5.25,3,.5,4.5.25,2.25-.5,3.63-2.25,3.88s-3-.75-3.5-2.88C1086.88,555.94,1086.88,554.32,1086.63,552.44Z"/><path d="M1082.51,520.32a3.13,3.13,0,0,1,3.12,2.87,2.51,2.51,0,0,1-2.87,2.63,3,3,0,0,1-3-3A2.73,2.73,0,0,1,1082.51,520.32Z"/></g></g></g></g></g></svg>