<svg xmlns="http://www.w3.org/2000/svg" viewBox="0 0 1060.6 775.13"><defs><style>.cls-1{fill:#fff;}.cls-2{fill:#ffd622;}.cls-3{fill:#6250fe;}.cls-4{fill:none;stroke:#fff;stroke-linecap:round;stroke-width:3.6px;}</style></defs><g id="Layer_2" data-name="Layer 2"><g id="All"><g id="Creating-Mobile-App"><g id="Creating-Mobile-App1"><g id="Phone"><path id="Path" class="cls-1" d="M793,85.2c-.36,2.28-.84,4.44-1.08,6.72s0,4.8-.36,7.08c-3.24,25.8-6.48,51.48-9.72,77.28q-4.68,38-9.48,76c-3.6,28.8-7.32,57.6-10.92,86.28s-7.2,57.6-10.8,86.28-7.2,57.6-10.8,86.28c-3.84,30.48-7.56,61.08-11.4,91.56-3,23.64-6.12,47.16-8.76,70.8-1.08,9.84-4,19-7.56,28-2.88,7.08-7.2,13.08-12,19.08-5.52,6.84-13,9.72-21.36,10.44-2.52.24-5.16-.48-7.8-.48q-149.22.36-298.44,1c-10.32-1.32-20.88-1.44-30.84-5-7.2-2.64-13.68-6.24-19.08-11.64a36.88,36.88,0,0,1-7.2-10.44,20.57,20.57,0,0,1-1.92-11.4c2-14.52,3.72-28.92,5.52-43.44,1.92-14.76,3.72-29.4,5.64-44.16s3.72-29.16,5.52-43.8,3.72-29.4,5.64-44.16c2-16.56,4.2-33.12,6.24-49.68l6.12-49c2-16.44,4.2-32.88,6.24-49.32l6.12-49c1.92-14.76,3.72-29.4,5.64-44.16s3.72-29.16,5.52-43.8c2-16.2,4.08-32.4,6.12-48.72,1.92-14.76,3.72-29.64,5.64-44.4s3.84-29.4,5.64-44.16c.72-6,1.2-12.12,1.92-18.24a55.72,55.72,0,0,1,1.68-10A60.89,60.89,0,0,1,424.2,29.52a35.54,35.54,0,0,1,16.08-3.72q152.64-.36,305.28-1a25.19,25.19,0,0,1,11.88,2.88c12.6,6.48,21.6,16.44,27.84,29A64.48,64.48,0,0,1,793,85.2Z"/><path id="Shape" d="M514.68,733.32H364.2c-7.32,0-14.64-.12-21.72-1.92-8-2.16-15.36-5.64-21.48-11.28-5.64-5.16-9.72-11.28-10.8-19a24.14,24.14,0,0,1-.12-7.2c3.36-27,6.84-54.12,10.32-81.12l10.44-81.36c3.36-26.28,6.84-52.56,10.2-78.84,2.76-21.36,5.4-42.6,8.16-64,3.12-24.6,6.36-49.32,9.6-73.92l10.08-79.2c3.6-28,7.2-56,10.8-84,3.12-24.6,6.24-49.32,9.48-73.92C391.68,58.2,401,42.72,416.64,31.08a42.75,42.75,0,0,1,19-8.28,18.32,18.32,0,0,1,3.6-.36q135.72-.54,271.32-1c10.44,0,21,0,31.44-.12a37.24,37.24,0,0,1,22,6.24C781.68,39.48,792.6,56,796,77.16c1,6.24.24,12.6-.6,18.84-2.16,17.16-4.32,34.44-6.48,51.6-2.28,18.36-4.56,36.72-7,55.2l-6.12,50c-2,16.68-4.2,33.36-6.24,49.92l-6.12,50c-2,16.68-4.2,33.36-6.24,49.92-1.8,14.88-3.72,29.88-5.52,44.76S748,477.36,746,492.24s-3.72,29.64-5.52,44.52c-2,16.8-4.2,33.48-6.24,50.28-1.8,14.88-3.72,29.64-5.52,44.52s-3.84,30.12-5.64,45.12c-.84,6.6-1.68,13.2-4.2,19.44-4.68,11.52-11.64,21.24-21.48,28.68a41.9,41.9,0,0,1-26.64,9q-78.12-.19-156.12-.13Zm-118.92-664c-.48,2.16-1,3.84-1.2,5.64Q358,359.76,321.48,644.64c0,.36.12.84.12,1.2,4.08.72,345.72,3.36,348.48,2.64a2.22,2.22,0,0,0,.24-.84c1.56-12.6,3.12-25.08,4.68-37.68,1.8-14.52,3.6-29,5.52-43.44,2-16.68,4.2-33.36,6.24-49.92,2-16.2,4.08-32.4,6.12-48.72,2.28-18.12,4.56-36.36,6.84-54.48s4.56-36.36,6.84-54.48l7.56-59.76c2.76-21.6,5.4-43.32,8.16-64.92,3.12-25.08,6.36-50.16,9.48-75.24L742.2,76.2c.36-2.52.24-5.16.48-8C626.88,68.52,511.44,68.88,395.76,69.36Zm239.4,659.16c1.08.12,1.56.24,2,.24h37a27,27,0,0,0,11-2.52c7.92-3.36,14.16-8.88,19.44-15.6,8.28-10.32,12.24-22.08,13.56-35.16,1.44-15,3.6-29.88,5.4-44.76,1.92-15.12,3.72-30.24,5.64-45.48,1.8-14.76,3.6-29.4,5.52-44.16,1.92-15.12,3.72-30.24,5.64-45.48,1.8-14.76,3.6-29.4,5.52-44.16,1.92-15.12,3.72-30.24,5.64-45.48,1.92-14.88,3.72-29.88,5.64-44.76s3.72-29.64,5.52-44.52,3.6-29.64,5.52-44.52c1.92-15.12,3.72-30.24,5.64-45.48,1.8-14.76,3.6-29.4,5.52-44.16,1.92-15.12,3.72-30.24,5.64-45.48,1.92-14.88,3.72-29.88,5.64-44.76,1.2-9.48.6-18.72-3-27.6-5.4-13.44-13.56-24.6-25.8-32.64a34.21,34.21,0,0,0-20.4-6c-4,.12-7.8,0-11.76.12a12.13,12.13,0,0,0-2,.36c.12.36.12.48.24.6l.48.48c16,12.36,21.24,28.92,19,48.36-1.68,14.64-3.6,29.16-5.52,43.8s-3.72,29.4-5.52,44.16c-2,16.56-4.2,33.12-6.24,49.68-1.8,14.64-3.6,29.16-5.52,43.8-2,16.44-4.2,32.88-6.24,49.32L712.2,356c-2.28,18.12-4.56,36.36-7,54.48s-4.56,36.36-6.84,54.48c-2.76,21.6-5.52,43.32-8.16,64.92s-5.4,43.32-8.16,64.92Q677.58,631,673,667.2c-.48,4.2-.72,8.52-2,12.6-6,18.84-17.4,34-32.88,46.2A20.58,20.58,0,0,1,635.16,728.52Zm-314.4-77.28c-.24,1.2-.36,2-.48,2.88-1.68,12.6-3.12,25.32-4.92,37.92-1.32,8.88,1.2,16.32,7.32,22.68,5.52,5.64,12.24,9,19.68,11.28,7,2.16,14.16,2.16,21.36,2.16q126.72.36,253.56.6a25.73,25.73,0,0,0,13.92-4,48.53,48.53,0,0,0,4.8-3.36,93.58,93.58,0,0,0,27.6-36,43.93,43.93,0,0,0,3.24-10.92c1-5.52,1.56-11.28,2.16-16.92a35.93,35.93,0,0,0,0-3.6Q494.76,652.74,320.76,651.24ZM742.56,63c-.36-2-.48-3.72-.84-5.28-3.12-12.84-9.84-22.92-22-28.92a21.51,21.51,0,0,0-9.48-2.16q-133.74.54-267.6,1a38.47,38.47,0,0,0-22.08,6.84c-10.08,6.84-17.28,16.2-22.2,27.36a22.94,22.94,0,0,0-.72,2.52C512.76,63.84,627.36,63.36,742.56,63Z"/><path d="M464.76,688.56A24.84,24.84,0,1,1,489,713.64,24.67,24.67,0,0,1,464.76,688.56Zm24.72-19.44a19.8,19.8,0,1,0,19.8,19.68A19.64,19.64,0,0,0,489.48,669.12Z"/><path d="M564.24,46.68c-.12-8,8.16-14.4,16-12.36a10.2,10.2,0,0,1,7.32,8.4c1,8.28-6.84,15.6-15,13.92C567.36,55.56,564.24,51.84,564.24,46.68Zm18.24-2.4A5.29,5.29,0,0,0,576.36,39a8.46,8.46,0,0,0-7.08,6.36A5.22,5.22,0,0,0,574,51.84,8.3,8.3,0,0,0,582.48,44.28Z"/></g><g id="Card"><path class="cls-2" d="M525.48,192.24H638.64c5.88,0,6.6.72,5.4,6.48-7.32,36.84-14.52,73.8-21.84,110.64-.12.48-.24,1.08-.36,1.56-.72,3.24-1.2,3.48-4.44,3.24a23.12,23.12,0,0,0-2.88-.12l-224.16,1.8c-1.92,0-3.84.12-5.52-1.32-1.44-1.2-2-2.28-1.68-4.2,1.32-6.48,2.64-13.08,3.84-19.56l18-91.08c.24-1.44.6-2.76,1-4.2a3.25,3.25,0,0,1,3.36-2.64H525.48Z"/><path class="cls-1" d="M513.37,279c-13.92-.36-24.48-11.16-24.12-24.84s12.24-24.48,26.28-24.12a24.2,24.2,0,0,1,23.76,24.48C539.05,268.21,527.29,279.37,513.37,279Zm-19.08-24c0,10.68,8.64,19.08,19.56,19.08,11.16,0,20.4-9.12,20.4-20,0-10.56-8.88-19-19.8-18.84A20,20,0,0,0,494.29,255Z"/><path class="cls-1" d="M511.09,256.57c-2.16-.24-4.08-.24-5.88-.48s-2.76-1.32-2.52-2.76,1.32-2.16,2.88-2.16h5.88c.12-1.68.12-3.48.36-5.16.24-2.52,1.2-3.84,2.76-3.72s2.28,1.44,2.28,4.08c0,1.44,0,2.88-.12,4.2,0,.24.12.36.36,1,1.32.12,2.88.12,4.32.36,1.92.24,2.88,1.2,2.76,2.52s-1.08,2.28-2.88,2.4c-1.56.12-3,0-4.8,0-.12,1.2-.12,2.4-.24,3.6-.12,1,0,1.92-.12,2.88-.24,1.44-1,2.52-2.52,2.52s-2.28-1.08-2.4-2.52.12-2.64.12-4A9.86,9.86,0,0,1,511.09,256.57Z"/></g><g id="Ruler"><path class="cls-1" d="M421.88,612.46c-32.76-.6-65.4-1.08-98.16-1.68-4.08-.12-8-.12-12.12-.36-3.6-.12-5.16-2-4.68-5.52,2.4-18.6,4.92-37.2,7.44-55.8,2-15.72,4.08-31.32,6.24-47s4.2-31.32,6.24-47c1-7,1.8-13.8,2.76-20.76.6-4,3.24-5,6.48-2.28,5,4.32,10,8.88,14.88,13.32q89.64,80.46,179.28,160.8l4.08,3.72c1,.84,1.44,1.92.72,2.88a4.16,4.16,0,0,1-2.28,1.44,7.29,7.29,0,0,1-2.28.12q-54.18-.72-108.6-1.8Zm-69.6-42c29.28.6,58.2,1.32,87.48,1.92-2.76-3.36-77.64-66.12-80-67.2C357.32,526.78,354.8,548.38,352.28,570.46Z"/><path d="M542.4,619c-24.48-.36-48.84-.72-73.32-1.2-16.2-.24-32.52-.6-48.72-.84-36.6-.6-73.32-1.08-109.92-1.68a18.16,18.16,0,0,1-3.6-.24c-1.92-.36-2.64-1.44-2.4-3.24,1.8-12.36,3.6-24.84,5.28-37.2,2.28-16.32,4.56-32.64,6.84-48.84l6.84-49c2-14.76,4.2-29.52,6.24-44.4.24-1.8,0-4,2-4.8,2.28-1,3.6,1.08,4.92,2.28q76.32,68,152.76,136.08c17.4,15.48,34.8,31.08,52.32,46.56A16.67,16.67,0,0,1,544.2,615a3,3,0,0,1,.36,2.64c-.24.72-1.32,1.2-2,1.68C542.64,619.32,542.52,619.08,542.4,619Zm-133-117.48c-1.08,1.32-1.8,2.28-2.64,3.12a2.7,2.7,0,0,1-3.84.24c-1.08-1-1.08-2.28,0-3.72.84-1,1.56-1.92,2.52-3.12L396,489.6,395,491c-.84,1.2-1.92,1.92-3.36,1.2s-1.44-2-1.08-3.36a18.49,18.49,0,0,1,1.2-2.88c-3-2.64-6-5.4-9.12-8.16-.84,1.08-1.44,2-2.16,2.88-1.2,1.44-2.52,1.68-3.72.72s-1.2-2.28-.48-3.48,1.44-2.28,2.28-3.72c-2.4-1.8-4.08-4.08-6.72-5.4a7.68,7.68,0,0,0-.72,1.32c-1.32,1.92-2.4,2.4-3.6,1.8s-1.56-2.16-.84-4.08c.36-1,.84-1.92,1.32-3-2.88-2.64-5.76-5-8.64-7.68-1,1.2-1.56,2.16-2.28,3a2.5,2.5,0,0,1-3.48.36,2.44,2.44,0,0,1-.36-3.48c.72-1.08,1.44-2,2.28-3.24-2.28-2-4.44-4-6.72-5.88a12.49,12.49,0,0,1-1.68,2.28c-1.2,1.44-2.52,1.92-3.6,1.08-1.32-1-1.2-2.28-.6-3.48a25.09,25.09,0,0,1,1.92-3.48c-1.8-1.56-3.36-3.12-5-4.44s-3-3.36-5.52-4.2C326.16,493.92,318,552,309.84,610.32c1.2.12,2,.24,2.88.24,24.84.36,49.68.84,74.64,1.2l71.28,1.08,73,1.08c.84,0,1.68-.12,3.24-.24-5.4-4.8-10.2-9-14.88-13.32a20,20,0,0,1-2.88,2.16A2.47,2.47,0,0,1,514,598.8c.48-.6,1.08-1.2,1.8-2-3.12-2.76-6.12-5.52-9.12-8.16-.6.48-1,.72-1.2,1s-.72.84-1.08,1.2c-1.32,1.2-2.88,1.32-3.84.36s-.84-2.4,0-3.6c.6-.84,1.2-1.68,2-2.76L492,575.28a17.44,17.44,0,0,1-1.8,2.52c-1.2,1.32-2.64,1.68-3.72.84a2.49,2.49,0,0,1-.48-3.48c.6-1.08,1.2-2.28,1.92-3.48-3.6-3.12-7-6.12-10.32-9.24-.6.72-1,1.2-1.32,1.56-1.44,1.44-2.88,1.8-4,.84s-1.08-2-.12-3.84c.36-.72.84-1.44,1.32-2.28-3.24-2.76-6.12-5.64-9.36-8.28-.72,1-1.08,1.56-1.56,2.16-1,1.08-2,1.68-3.48.84-1.2-.72-1.44-2-.6-3.72.48-1,1.08-1.8,1.68-3-2.88-2.52-5.64-5-9-8a7.38,7.38,0,0,1-1.32,2.16,2.36,2.36,0,0,1-3.48.12,2.29,2.29,0,0,1-.24-3.24c.48-.72,1-1.44,1.44-2.28l-10-8.88a20.59,20.59,0,0,1-2,2.28,2.3,2.3,0,0,1-3.24.36,2.22,2.22,0,0,1-.6-3.24c.48-1.08,1.2-2,1.8-3.24-3.84-3.48-7.56-6.72-11.52-10.2a20.38,20.38,0,0,1-2.16,2.28c-1.32,1.2-2.88,1.2-3.84,0a2.46,2.46,0,0,1,.12-3.48c.6-.72,1.2-1.44,1.92-2.28C415.2,506.52,412.44,504.12,409.44,501.48Z"/><path d="M555.48,601.92c.72-1,1.2-1.68,1.68-2.4,1-1.08,2-1.68,3.48-.84,1.2.6,1.56,2,.72,3.48A66,66,0,0,1,557,609a3,3,0,0,1-2.52,1c-.72-.12-1.92-1.32-1.8-1.92.24-2-1.2-2.88-2.4-4q-72.9-67.5-145.68-134.88L365.52,433c-.84-.84-1.8-1.56-2.64-2.4-1.56.6-3.12,1.8-4.44,0s-.12-3,.84-4.44,1.8-2.76,2.76-4.08c1.32-1.8,2.76-2.28,4.08-1.44s1.32,1.92.24,4.08a15.62,15.62,0,0,0-.72,1.44Z"/><path d="M406.32,576c-21.12-.72-35.52-1.32-49.92-1.8a7.92,7.92,0,0,1-1.68-.12c-2-.36-2.88-1.2-2.76-3.24.12-2.88.48-5.64.84-8.4,2.16-18.12,4.32-36.12,6.48-54.24.24-1.56.24-3.36,2-4.08,2-.84,3.48-.12,5,1.2l37.2,31.44,39.24,33.12c1.2,1.08,2.52,2,3.72,3.24,1.56,1.68,1,3.72-1.32,4.2a14.65,14.65,0,0,1-3.24.12C427.92,576.72,413.76,576.24,406.32,576Zm31-4c-.72-.84-1-1.2-1.2-1.44-23.64-19.92-47.4-39.84-71-59.76h-.36c-.12,0-.24.12-.48.36-2.28,19.08-4.68,38.4-6.84,58C384,570.12,410.28,571.08,437.28,572Z"/></g><g id="Checkmark"><path d="M779.4,543.24c5.88-34.56,37.32-52.8,66-47.52a56.14,56.14,0,0,1,46.2,58.8c-1.92,29.88-26,52.8-55.56,52.92a56.54,56.54,0,0,1-57.12-59.16c-1.32,0-2.76-.12-4.08-.12q-78.48-.18-157.08-.48c-4.2,0-8.28,0-12.48-.12-3.84,0-5.16-.6-5.28-2.4s1.32-2.52,5.16-2.52c39,.12,77.88.12,116.88.24,18,0,36,.24,54,.24A28.23,28.23,0,0,0,779.4,543.24Z"/><path class="cls-1" d="M856.58,530.72c1.44-2.16,2.88-4.08,4.2-6,.48-.6.84-1.32,1.32-1.92.84-1,1.8-1.56,3.12-.84a2.34,2.34,0,0,1,1,3.36A44.18,44.18,0,0,1,863.3,530c-1.08,1.68-2.28,3.24-3.36,4.68,10.68,18.24,2,34.68-8.52,41.4a29.41,29.41,0,0,1-37.8-44.4A29,29,0,0,1,834.74,522C843.14,521.72,850.22,525,856.58,530.72ZM837.38,557c5.52-7.56,10.68-14.76,15.84-21.84-7.56-9.12-23-11-33.36-2.52a24.39,24.39,0,0,0,30.36,38.16c11.64-8.88,11.28-24.24,6.12-31.08-1.32,1.8-2.52,3.6-3.84,5.28-4,5.28-7.92,10.68-12,16-2.64,3.36-4.68,3.12-6.84-.24-2.52-4-4.92-8-7.32-12-1.08-1.8-.84-3.36.36-4.08s2.64-.36,3.84,1.32c1.32,1.92,2.4,3.84,3.6,5.76A60.22,60.22,0,0,1,837.38,557Z"/></g><g id="Flowchart"><path class="cls-1" d="M257.52,39.36H345.6c3.48.12,4.32,1.2,3.24,4.56C346,52.32,343.08,60.6,340.2,69c-1.68,4.8-3.36,9.72-5,14.52-1.44,4-1.8,4.32-6.12,4.32-29.28.36-58.44.6-87.72,1L156.6,89.88c-.72,0-1.56.12-2.28.12-2.28.12-3.12-1-2.88-3.24a14.51,14.51,0,0,1,.6-2.16l12.24-40.68c1.2-4.08,1.56-4.44,6-4.44,10.44-.12,21,0,31.44,0,18.48-.12,37.2-.12,55.8-.12Z"/><path class="cls-1" d="M144.12,120.6a6.59,6.59,0,0,1-.84-1.08c-1.32-1.92-1.08-3.12,1-4.08a8.06,8.06,0,0,0,1.8-.72c1.44-1.44,2.64-1.2,4.32,0a6.25,6.25,0,0,0,3.36.6c18.6,0,37.08-.12,55.68-.12,37.2-.12,74.4-.12,111.6-.24,1.68,0,3.24,0,4.92-.12,2.88,0,3.72,1.08,3,3.84a10.56,10.56,0,0,1-.6,1.8c-4.68,13.2-9.36,26.28-13.92,39.48-1,2.88-1.56,3.12-4.56,2.76a29.24,29.24,0,0,0-3.24-.12q-77.76,1.44-155.4,3c-5.16.12-10.2.24-15.36.24-3.72,0-4.68-1.32-3.84-4.92a31,31,0,0,1,1-3.12C136.56,145.44,140.4,133,144.12,120.6Z"/><path class="cls-1" d="M309.6,193.68a32.87,32.87,0,0,1-1.32,3.36l-14.76,36.72a15.57,15.57,0,0,0-1,4.08,2.62,2.62,0,0,1-2.64,2.76,24.1,24.1,0,0,1-3,.12c-32.4.36-64.8.84-97.2,1.2-24.6.36-49.08.72-73.68,1a16.23,16.23,0,0,0-3.48.48c-2.52.48-3.72-.72-3.36-3.12a14.51,14.51,0,0,1,.6-2.16c4.2-13.92,8.28-27.72,12.48-41.64a7.76,7.76,0,0,1,.48-1.56c1.2-3.12,2.4-3.36,5-1.32a3.26,3.26,0,0,0,2,.72c1.68.12,3.24,0,4.92,0l166-1.44c1.8,0,3.6.24,5.16-1.32a2.79,2.79,0,0,1,2.4,0C309,191.88,309.24,193,309.6,193.68Z"/><path d="M213.72,189c1.56-7.56,2.88-14.64,4.44-22.2h-4c-27.24.24-54.48.48-81.84,1-5.52.12-7-1.8-5.28-7.08,4.68-14.52,9-29.16,13.44-43.8.36-1.08.72-2,1.08-3.12a3,3,0,0,1,3.24-2.28h3l78.84-.36h4.2c1.92-6.6,3.84-13.08,5.88-19.92h-3.84c-26.76.24-53.4.6-80.16.84a19.38,19.38,0,0,1-2.64,0c-2.64-.24-3.84-1.8-3.24-4.44a7.76,7.76,0,0,1,.48-1.56c4.68-15.24,9.36-30.48,14-45.6a9,9,0,0,0,.6-1.92A3.15,3.15,0,0,1,165.36,36h1.92l179.28-1.08h3.24c3.6.24,4.92,1.92,3.72,5.4-1.56,4.68-3.36,9.24-4.92,13.8-.36,1-.6,2-1.08,3.24a25.81,25.81,0,0,0,2.76.24,32.41,32.41,0,0,1,14.52,4.68c5.64,3.24,8.4,8.64,10.56,14.52A2.35,2.35,0,0,1,374,80c-1.56.6-2.52-.24-3.24-1.44A27.07,27.07,0,0,1,369.48,76c-3.12-8-9.48-11.64-17.52-13-2-.36-4.08,0-6.48,0-.36,1-.84,2-1.32,3.12-2.4,6.6-4.8,13.08-7,19.68a5.43,5.43,0,0,1-5.76,4.2c-4,0-7.8.12-11.76.24L245.4,91H242c-1.92,6.48-3.84,13-5.76,19.92h3.84l87-.36a14.65,14.65,0,0,1,3.24.12c2.64.36,3.6,1.8,3,4.32a20.68,20.68,0,0,1-.84,2.52L317.4,159.6c-2.16,5.88-2.28,6-8.4,6-26.88.24-53.64.6-80.52.84H223.8c-2.52,7.32-3.24,14.64-4.92,22.32h4.2l83.16-.36a25,25,0,0,1,3,0c2.76.36,3.84,1.92,3.12,4.56l-.72,2.16C306.48,209.64,301.2,224,296,238.56c-1.68,4.56-2.16,4.92-7.2,5q-38,.36-76,.84-50.76.54-101.4,1.2c-5.76.12-7.2-1.56-5.4-7.2,4.68-14.4,9-28.92,13.44-43.44a27.69,27.69,0,0,1,1.2-3.36,3.1,3.1,0,0,1,3-2.16h3l82.8-.36C210.72,189,212,189,213.72,189ZM348.24,40.08H345q-87.84.36-175.68.84c-3,0-3,0-3.84,2.76C161.28,57.24,157.2,70.8,153,84.24c-.24.84-.24,1.68-.48,2.76,60-.6,119.64-1.32,179.52-1.92C337.44,70.2,342.72,55.44,348.24,40.08Zm-36.48,120.6c5.4-15,10.8-29.76,16.08-45-61,.36-121.32.6-181.8,1-4.68,15.36-9.36,30.48-14.16,46.08C192.12,162,251.88,161.4,311.76,160.68ZM111,240.6c60.36-.6,120-1.32,179.88-1.92,5.4-15,10.68-29.76,16.2-45-61,.36-121.44.6-181.92,1C120.36,209.88,115.8,224.88,111,240.6Z"/><path d="M210.36,62a6.48,6.48,0,0,0-5.4-2.16,35.66,35.66,0,0,0-17.52,4.56,3.33,3.33,0,0,0-2,2.76,2.33,2.33,0,0,1-2.76,2.16,2.79,2.79,0,0,1-2.4-3,7.54,7.54,0,0,1,1.8-4,21,21,0,0,1,5-3.48,41,41,0,0,1,16.32-4.08,23.12,23.12,0,0,1,2.88.12c4.2.48,7.56,1.92,9.12,6.72,1.8,0,3.6-.12,5.4,0a52,52,0,0,1,8.64,1.44c8.88,2.64,17.64,2.16,26.52,0a19.18,19.18,0,0,1,2.52-.6,2.33,2.33,0,0,1,2.88,1.68,2.3,2.3,0,0,1-1.32,3,5.31,5.31,0,0,1-1.8.6c-9.6,2.4-19.32,3.36-29,.48a44.33,44.33,0,0,0-12.6-1.68,4.12,4.12,0,0,0-3.84,1.92,10.87,10.87,0,0,1-7.8,4.8c-2.4.36-4.2-.48-5-2.16a4.44,4.44,0,0,1,1.68-5.52,26.59,26.59,0,0,1,5.16-2.76A29.81,29.81,0,0,0,210.36,62Z"/><path d="M290.76,65.4c-3.24-2.4-5.52-2-8,1a2.46,2.46,0,0,1-4.44-2,9.75,9.75,0,0,1,2.52-3.6,10.81,10.81,0,0,1,12.84.24,4.36,4.36,0,0,0,3.84.84c5-.48,10.2-.72,15.24-.84,1.8,0,2.88,1.08,2.88,2.4.12,1.56-1.08,2.64-3,2.64-3.12.12-6.36,0-9.48.12-1.56,0-3,.36-4.56.48a3.56,3.56,0,0,0-2.64,1.68c-1.32,1.92-2.64,2.52-4,1.68-1.56-.84-1.92-2.28-1.32-4C290.88,66,290.76,65.76,290.76,65.4Z"/><path d="M190,137.64a5.61,5.61,0,0,0-4.8-2,34.1,34.1,0,0,0-17.52,4.2c-1.2.6-2.4,1.32-2.52,3.12-.12,1.56-1.32,2.28-2.88,1.92a2.54,2.54,0,0,1-2.28-2.76,7.42,7.42,0,0,1,1.08-3.24,13.15,13.15,0,0,1,3.36-3,39.91,39.91,0,0,1,20.88-5.4,13.6,13.6,0,0,1,3.84.72,8.34,8.34,0,0,1,6.12,6.12c6.84-.36,13.2,1.44,19.68,2.88,7.2,1.56,14.28.12,21.36-1.32a12.75,12.75,0,0,1,2.28-.48,2.32,2.32,0,0,1,2.76,1.8,2.26,2.26,0,0,1-1.56,2.88,10.56,10.56,0,0,1-1.8.6c-9.84,2.52-19.68,3.12-29.64.36-3.84-1.08-7.92-1.08-12-1.56a3.47,3.47,0,0,0-3.6,1.68,11.09,11.09,0,0,1-7.44,4.92c-2.64.48-4.8-.24-5.64-2a4.54,4.54,0,0,1,1.92-5.64,29.65,29.65,0,0,1,5.52-2.76A13.46,13.46,0,0,1,190,137.64Z"/><path d="M270.6,141c-3.24-2.28-5.88-2-8,.72-1,1.2-1.92,1.8-3.36,1.08a2.49,2.49,0,0,1-1.2-3.36,7.62,7.62,0,0,1,2.76-3.36,10.46,10.46,0,0,1,12.48.48,5,5,0,0,0,3.84.84c4.92-.48,10-.72,15-.84,2-.12,3.12,1.08,3.12,2.52s-1.2,2.4-3.48,2.52H290c-3.6.12-7.2.36-10.68.48-1.68.12-3.12.6-4,2.28a2.78,2.78,0,0,1-3.6,1.44c-1.32-.48-1.8-1.68-1.56-3.84C270.48,141.84,270.48,141.6,270.6,141Z"/><path d="M169.08,215.52a5.61,5.61,0,0,0-4.8-2,34.83,34.83,0,0,0-17.64,4.2c-1.2.6-2.4,1.32-2.52,3.12-.12,1.56-1.32,2.28-2.88,1.92A2.54,2.54,0,0,1,139,220a6.6,6.6,0,0,1,1.32-3.6,13.54,13.54,0,0,1,4.08-3.24,39.24,39.24,0,0,1,19.44-4.8,16.64,16.64,0,0,1,5.4,1.08c2.64.84,4.32,2.88,5.16,5.76,6.84-.36,13.2,1.44,19.68,2.88,7.32,1.56,14.52.12,21.72-1.44.72-.12,1.44-.36,2.28-.48a2.14,2.14,0,0,1,2.4,1.8,2.35,2.35,0,0,1-1.2,2.76,7.63,7.63,0,0,1-2.16.72c-9.84,2.52-19.68,3.12-29.64.36-3.72-1.08-7.68-1.08-11.64-1.56a3.86,3.86,0,0,0-4.08,1.92,11,11,0,0,1-7.2,4.68c-2.64.48-4.8-.24-5.64-2a4.54,4.54,0,0,1,1.92-5.64,41.79,41.79,0,0,1,5.16-2.64C166.8,216.12,167.76,216,169.08,215.52Z"/><path d="M249.6,219c-3.12-2.28-5.88-2-7.92.6-.84,1.2-1.8,1.92-3.24,1.2a2.56,2.56,0,0,1-1.2-3.6,6.94,6.94,0,0,1,2.16-2.76,10.44,10.44,0,0,1,12.72-.12c1.56,1.2,3,1.2,4.8,1,4.8-.48,9.72-.6,14.64-.72,1.92,0,3.12,1.32,2.88,2.76s-1.2,2.16-3.12,2.28c-4.2.12-8.52.24-12.72.48a4.57,4.57,0,0,0-4.08,2.28c-1.08,1.8-2.52,2.16-3.84,1.44a2.77,2.77,0,0,1-1.32-3.6A5.28,5.28,0,0,0,249.6,219Z"/></g><g id="Header"><path d="M522.6,170.44q-81.9.36-163.68.6c-5.16,0-6-1.08-4.8-6,5.52-21.6,11-43.32,16.68-64.92.72-2.88,1.56-3.36,4.32-2.88a14.74,14.74,0,0,0,3.24.24q167.58-.9,335.16-1.68c1.32,0,2.64-.24,4-.12,1.92,0,2.76,1.2,2.52,3a10.37,10.37,0,0,1-.84,2.52q-13.68,33.12-27.24,66.24a3.85,3.85,0,0,1-3.72,2.64h-2.64q-81.54,0-163,.36Z"/><path id="Path-Copy" class="cls-1" d="M507,154.84q-81.9.36-163.68.6c-5.16,0-6-1.08-4.8-6,5.52-21.6,11-43.32,16.68-64.92.72-2.88,1.56-3.36,4.32-2.88a14.74,14.74,0,0,0,3.24.24Q530.34,81,697.92,80.2c1.32,0,2.64-.24,4-.12,1.92,0,2.76,1.2,2.52,3a10.37,10.37,0,0,1-.84,2.52q-13.68,33.12-27.24,66.24a3.85,3.85,0,0,1-3.72,2.64H670q-81.54,0-163,.36Z"/><path d="M529.44,77.76q84.78-.36,169.44-.6h2.64c4.68,0,6.24,2.28,4.56,6.72S702.6,92.64,700.92,97c-7.2,18.36-14.64,36.6-21.72,55.08-1.32,3.48-3.48,4.8-6.84,4.8h-1.92q-164.7.54-329.4,1a19.38,19.38,0,0,1-2.64,0c-2.88-.36-4.2-2.16-3.48-5,1.44-6.24,2.88-12.48,4.32-18.84L350.76,84.6a11.24,11.24,0,0,1,.48-1.92c1.08-3.48,2.28-4.32,5.88-4.32L423.48,78h106ZM340,152.88l333.48-1.08c3.36-6.72,26.88-66.84,27.12-69.48L356.16,83.4C350.76,106.56,345.36,129.36,340,152.88Z"/><path d="M417.6,116c0,12.36-10.08,22.56-22.08,22.44a21.44,21.44,0,0,1-21.12-21.72A22.41,22.41,0,0,1,397.08,94.2C408.48,94.32,417.6,104,417.6,116Z"/><path d="M613.32,120.72c1.2,1.8,2.4,3.36,3.36,5a2.74,2.74,0,0,1-.48,3.84c-1.2.84-2.64.36-3.84-1.2-1.32-1.8-2.52-3.48-3.72-5.16-9.36-.24-14.52-3.84-15.84-10.8-1.2-6,1.56-11.76,6.84-14.16a12.63,12.63,0,0,1,15.48,4.08C619.32,107.64,618.72,114.12,613.32,120.72Zm-8.76-18.6a7.16,7.16,0,0,0-7,7.44,8.38,8.38,0,0,0,8.16,8.4,7.17,7.17,0,0,0,7.08-7.68A8.12,8.12,0,0,0,604.56,102.12Z"/><path d="M655.08,119.88h-8.52a4.79,4.79,0,0,1-2.28-.24,3.72,3.72,0,0,1-1.68-2.16,3,3,0,0,1,1.44-2.16,5.63,5.63,0,0,1,2.88-.48c5.4,0,10.92-.12,16.32-.12a7.38,7.38,0,0,1,2.28.24,2.33,2.33,0,0,1,2,2.28,2.39,2.39,0,0,1-2.16,2.52,14.52,14.52,0,0,1-2.28.12Z"/><path d="M659.52,102H669c2.28.12,3.6,1.08,3.48,2.52s-1.2,2.4-3.6,2.4c-6.24,0-12.36-.24-18.6-.36a4.92,4.92,0,0,1-1.32-.12c-1.56-.36-2.52-1.44-2.4-2.64a2.63,2.63,0,0,1,2.76-2.28c2.64,0,5.16,0,7.8.12.72,0,1.56.12,2.28.12A.37.37,0,0,1,659.52,102Z"/><path d="M650.28,127.68h7.8a10.32,10.32,0,0,1,1.92.12c1.8.24,2.88,1.2,2.76,2.64s-1.08,2.28-3,2.4h-1.68c-5.4-.12-10.92-.36-16.32-.48a7.38,7.38,0,0,1-2.28-.24,2.4,2.4,0,0,1,.12-4.68,14.52,14.52,0,0,1,2.28-.12H650C650.28,127.32,650.28,127.56,650.28,127.68Z"/></g><g id="Bracket"><path d="M594.48,409.68a4.08,4.08,0,0,0,1.2-.12,16.22,16.22,0,0,1,14,3.84,36.15,36.15,0,0,0,3.36,2.64c1.68,1.2,2.64,1.08,4-.48a14.15,14.15,0,0,0,1.56-2.16c3.6-5.52,8.76-7.2,15-6,4.2.84,8.28,2.64,12.72,2.64.6,0,1.56,1.08,1.92,1.8a1.93,1.93,0,0,1-1.32,2.64,7,7,0,0,1-3.48.36c-2.4-.36-4.68-1-7.08-1.44-1.56-.36-3.12-.84-4.8-1.2a8.24,8.24,0,0,0-8.4,3.24,40.8,40.8,0,0,1-2.76,3.6c-2.88,3.24-6.6,3.72-10.2,1.2-1.56-1.08-2.88-2.28-4.32-3.48a10.36,10.36,0,0,0-9.72-2.16,32.35,32.35,0,0,1-.48,3.36,8.67,8.67,0,0,1-8,7c-4.44.12-7.32-4.2-5.16-8,.84-1.56,2.4-2.76,3.72-4.08a20.76,20.76,0,0,1,2.4-1.68c-4.8-4.2-13-3-16,2.16-1.2,1.92-2.28,2.52-3.6,1.8s-1.8-2-1-4a7.12,7.12,0,0,1,1.68-2.76,26.76,26.76,0,0,1,6-3.84C582.72,402.24,588.84,403.92,594.48,409.68ZM590.76,417c-2.4,0-2.88.48-3.24,3C589.32,419.64,590.52,418.92,590.76,417Z"/><path d="M544.2,415.08c.6,2.64,1.2,5,1.92,7.44,1,3.36,1.92,4,5.52,3.48.48,0,.84-.24,1.32-.24a2.42,2.42,0,0,1,2.76,1.8,2.66,2.66,0,0,1-1.44,3c-3.72,2.16-10.2.12-11.76-3.72a52.83,52.83,0,0,1-2.16-7.44c-.36-1.44-.6-2.88-2.52-3.36a2.3,2.3,0,0,1-1.56-2.88c.24-1.44,1.32-1.92,2.52-2.16a4.84,4.84,0,0,1,1.32,0c2.4-.12,3.6-1.32,3.72-3.72,0-1.56-.36-3.24-.48-4.8a72.1,72.1,0,0,1-.84-8.76,9.38,9.38,0,0,1,3.72-7.68,5.12,5.12,0,0,1,6.84.24c1.2,1.2,1.56,2.76.84,3.84-1,1.56-2.28,1.32-3.72.48-.24-.12-.6-.24-.84-.36a4.2,4.2,0,0,0-1.8,4c.12,2.76.6,5.4.84,8,.12,1.56.48,3,.48,4.56A10.14,10.14,0,0,1,544.2,415.08Z"/><path d="M600.72,497.88H573.6a7.62,7.62,0,0,1-2.88-.24,3.17,3.17,0,0,1-1.68-2,1.91,1.91,0,0,1,1.68-2.4,9.41,9.41,0,0,1,2.64-.24l54.24-.36a19.44,19.44,0,0,1,2.64.12c1.44.24,2.52.84,2.52,2.4s-1.08,2.28-2.52,2.52a18.58,18.58,0,0,1-2.64.12H600.84C600.72,497.76,600.72,497.76,600.72,497.88Z"/><path d="M604.08,458.4h-26.4a7.62,7.62,0,0,1-2.88-.24,4.24,4.24,0,0,1-1.8-2,2,2,0,0,1,1.68-2.4,11.84,11.84,0,0,1,2.88-.36l53.52.36c2.88,0,4.08.84,4.08,2.64s-1.2,2.4-4,2.4H604.08Z"/><path d="M551.52,447.6c1.8.36,3.12.48,4.32-1a2.1,2.1,0,0,1,3-.24,2.45,2.45,0,0,1,.84,2.88c-.24.72-.6,1.44-.84,2.16-.72,1.68-1.68,3.12-.48,5.16.72,1.08-.12,2.52-1.44,2.88-2,.48-2.4,1.92-2.88,3.48-.12.48-.24,1.08-.36,1.56a2.45,2.45,0,0,1-2.52,1.68,2.28,2.28,0,0,1-2.28-2.28,11.84,11.84,0,0,1,.36-2.88c-2.52-.72-2.52-.72-3.24,1.32a11.26,11.26,0,0,1-.72,1.8,2.29,2.29,0,0,1-2.64,1.44,2.23,2.23,0,0,1-1.92-2.64,10.92,10.92,0,0,0-.24-4.8c-.24-.48.48-1.68,1.08-2.16,2.28-2,2.4-2,1.08-4.44-1-1.8-.36-3,1.68-3.72a4.4,4.4,0,0,0,2-1.2C548.4,443.64,549.72,443.76,551.52,447.6Zm-3,7.56c1.92,0,3.6.48,3.72-2C549.6,452.52,549.6,452.52,548.52,455.16Z"/><path d="M547.44,493h3a4,4,0,0,1,1-2,3.62,3.62,0,0,1,2.4-1.08,3.16,3.16,0,0,1,1.92,1.8,9.66,9.66,0,0,1,.6,4.08A3.44,3.44,0,0,1,555,498c-1.32,1-1.92,2-1.44,3.6.36,1.2-.24,2-1.08,2.88a13.1,13.1,0,0,0-1.56,2c-.72,1.08-1.56,1.8-2.88,1.56a2.56,2.56,0,0,1-2-2.28c0-.36-.24-.6-.36-1-1.56-.12-3-.36-3.72,1.68a2.06,2.06,0,0,1-2.64,1.32,2.6,2.6,0,0,1-1.92-2.64c-.12-2-.36-4.08,1.56-5.64a4.6,4.6,0,0,0,.6-1.32,11.26,11.26,0,0,1-1.08-1.44c-.84-1.68-.36-3.24,1.44-3.6s2.64-1.68,3.24-3.24l.72-1.44c.72-1.08,1.68-1.68,3-1.08a2.59,2.59,0,0,1,1.44,3Zm1.32,5.76c-1.8-.48-3-1.2-4.2.6A3.51,3.51,0,0,0,548.76,498.72Z"/><path d="M662.4,396c-1.2.84-1.8,1.32-2.52,1.8a2.18,2.18,0,0,1-3.24-.24,4.25,4.25,0,0,1-.48-3c.6-1.92,4.68-3.84,7.2-3.48s4,2,4.2,5c.12,1.68,0,3.48.12,5.28s.24,3.48,2.4,4.08A2.72,2.72,0,0,1,672,408.6a133.57,133.57,0,0,1-1.68,13.92c-1.32,6.6-7,9.12-13.68,7-.24-.12-.36-.12-.6-.24-1.44-.84-2.16-2.16-1.44-3.48s1.8-1.68,3.24-1.44c5.88,1.32,7.32.36,8.28-5.64.24-1.8.48-3.72.6-5.52a29,29,0,0,0,0-3.24C661.56,407,663.36,401.28,662.4,396Z"/></g><g id="Line"><path d="M385.32,355.44a29.24,29.24,0,0,1-3.24-.12,2.39,2.39,0,0,1-2.52-2.52c0-1.56,1.08-2.28,2.52-2.52a14.52,14.52,0,0,1,2.28-.12l99-.72a29.18,29.18,0,0,1,3.24,0c1.68.12,2.64,1.08,2.52,2.4,0,1.56-1.08,2.28-2.52,2.4a23.12,23.12,0,0,1-2.88.12H434.4C434.4,355,401.76,355.44,385.32,355.44Z"/><path d="M632.52,354.36c-16.08.24-32.28.36-48.36.6a29.24,29.24,0,0,1-3.24-.12,2.43,2.43,0,0,1-2-2.28,2.34,2.34,0,0,1,1.92-2.4,21.8,21.8,0,0,1,3.84-.36l87.6-1.08c3.12,0,6.36-.12,9.48-.12,2.88,0,4.2.72,4.32,2.4s-1.32,2.52-4.08,2.64c-16.56.36-33,.6-49.44.72Z"/><path d="M522.24,347.88c1.44,0,2.64,1.56,2.64,3.24a2.46,2.46,0,0,1-2.52,2.52,2.85,2.85,0,0,1-2.76-3A2.69,2.69,0,0,1,522.24,347.88Z"/><path d="M537.84,348.12a2.3,2.3,0,0,1,2.4,2.52,3.09,3.09,0,0,1-2.88,3.24,2.33,2.33,0,0,1-2.4-2.4A3.12,3.12,0,0,1,537.84,348.12Z"/><path d="M555.48,350.88a2.53,2.53,0,1,1-5,.24,2.69,2.69,0,0,1,2.64-2.76A2.93,2.93,0,0,1,555.48,350.88Z"/></g><g id="Woman1"><path class="cls-1" d="M961.2,538.92c5.88,4.44,11.28,9.12,14.52,15.6,2.64,5.28,4.68,10.8,7,16.2,1.8,4.44,3.36,9,5.16,13.44,4.08,10,7.08,20.4,10.08,30.72,2.76,9.36,6.12,18.6,9.36,27.84,4.56,13.44,9.12,26.76,14,40.08,2.4,6.6,4.92,13.08,9,18.84a4.15,4.15,0,0,1,.24,4.92,39.69,39.69,0,0,1-5.4,6.48c-.84.84-2.52.84-4,1.08-.72.12-1.44-.36-2.16-.48-5-.72-8.4-3.24-9.72-8.28a21.36,21.36,0,0,0-2.52-5.28c-1.08-1.92-1.68-3.72,0-5.76-20-31.56-36-65.16-52.68-98.28-.24,0-.6.12-.84.12-.6,2.88-1.32,5.76-1.92,8.64-2.76,13.2-5.4,26.52-8.52,39.6-1.56,6.6-4.2,13.08-6.24,19.56-1.44,4.56-2.88,9.12-4.44,13.68-1.92,5.88-3.84,11.88-6.12,17.64-2.52,6.48-5.52,12.84-8.28,19.2a7.22,7.22,0,0,0-.6,3.12c.24,4.2.6,8.52,1.08,12.72.48,3.6.24,4.32-3.12,5.88-2.28,1.08-4.56,2-7,3-4.92,1.8-8.28,0-9.48-5.16-.36-1.56-.36-3.24-.72-4.8s-.84-2.88-1.2-4.32a9.61,9.61,0,0,1-.36-3.12c2.4-17.16,4.92-34.32,7.32-51.48l6.84-48.24c2.52-17.64,5-35.4,7.56-53,1.8-13.08,3.72-26.16,5.52-39.12.12-1.2.36-2.4.6-3.6.6-3.12,2-4.32,5.28-4a54,54,0,0,1,7.68,1.32c6.12,1.44,12.12,1.56,18-.6.36-.12.84-.24,1.2-.36,2.76-.48,4.32.36,4.56,3.12.36,3.24.24,6.48.36,9.72C961.32,536.52,961.2,537.6,961.2,538.92Z"/><path class="cls-1" d="M958.08,255.36a9,9,0,0,1-1.08-1.08c-1.8-1.92-1.44-3.72,1.08-4.44,1.32-.48,2.64-.72,3.48-2a2.39,2.39,0,0,1,3.72-.48c1,1,1.92.72,3,.36L983,243.36a40.49,40.49,0,0,1,4.08-1.2c2.76-.48,4.2.84,4,3.6a22.69,22.69,0,0,1-1,4.8c-.72,2.4-1.68,4.68-2.64,7.08-4.8,12-9.6,24.12-14.4,36.12a109,109,0,0,1-12.48,22.56c-2.64,3.84-6.72,5.76-11,7.2-8.16,2.64-16.44,4.8-25,4.92-8.28.12-16.08,2.52-24,4.44A29,29,0,0,1,882,332c-4.8-1.92-9.84-3.6-14.76-5.52-5.52-2.16-10.2-5.76-15.12-9a4,4,0,0,1-1.92-4.2c.36-1.92,1.8-2.64,3.48-3a33.13,33.13,0,0,1,4.8-.72c2.64-.24,5.28-.36,7.8-.48a25.11,25.11,0,0,1,10.32,1.08,28.58,28.58,0,0,0,17.64.36c13-3.72,26-7.08,39.12-10.44a10.14,10.14,0,0,0,6.84-5.64c3-6.12,6.12-12.24,9-18.48C952.32,269.16,955.08,262.2,958.08,255.36Z"/><path class="cls-1" d="M933.84,190.32h-3.6c-7.92-.24-13.92-4.56-16.56-12.12a37.43,37.43,0,0,1-1.8-9c-.36-5.16-.24-10.44-.12-15.72,0-2.28.12-4.8,3.36-5.16.36,0,.72-.72,1.08-1.08s.36-.84.6-1.2c4.2-9.48,11.52-12.72,21.72-10.2,9.6,2.28,17.52,7.8,23.76,15.48,5.64,7,6,15.84,1.44,23.52-1.32,2.16-2.64,4.32-3.84,6.48a12,12,0,0,0-1.32,8.16c.84,4.44,1.8,9,2.4,13.56s-.24,6-4.2,8.16c-5.52,3-11.52,3.24-17.52,2-2.76-.48-3.6-1.92-3.72-4.92-.24-4.68-.48-9.36-.84-14A40.06,40.06,0,0,0,933.84,190.32Z"/><path class="cls-1" d="M814.44,174a12.61,12.61,0,0,1,9.24,3.48c3.12,2.76,6.84,4.8,9.36,8.16,1.32,1.8,2.52,1.48,3.72,3.28.72,1.08,5.2,4.4,4.48,5.72s-6.16,1.32-7.48,1.2c-10.2-1.08-20.28.36-30.36.36-2.64,0-5.28.24-7.8.24-4.68-.12-7.2-4.68-4.32-8.28,3.48-4.44,7.2-8.76,12.36-11.52A21.5,21.5,0,0,1,814.44,174Z"/><path class="cls-2" d="M864,314.28h-2.88q-101.34.72-202.56,1.56c-1.68,0-3.36.12-4.92-1.08a4.28,4.28,0,0,1-1.92-4.68c1.8-8.64,3.48-17.28,5.16-25.92,5.52-28.08,11.16-56.28,16.68-84.36.24-1.44.48-2.76.84-4.2a3.13,3.13,0,0,1,3.24-2.64h2.64l227.4-.72H909c3.36.12,4.56,1.44,4,4.8-1.08,5.64-2.28,11.28-3.36,17-6.24,31.68-12.48,63.24-18.84,94.92-.12.48-.12.84-.24,1.32-.84,4.08-1,4.2-5.16,4-2.28-.12-4.56,0-6.84,0a3.36,3.36,0,0,1-2.88-1.2,35.39,35.39,0,0,0-3-3c-1.44-1.44-3.12-2.4-5.28-1.68a4.5,4.5,0,0,0-3.24,4.44A3.3,3.3,0,0,1,864,314.28Z"/><path class="cls-1" d="M781,279c-13.92-.36-24.48-11.16-24.12-24.84s12.24-24.48,26.28-24.12a24.2,24.2,0,0,1,23.76,24.48C806.65,268.21,794.89,279.37,781,279Zm-19.08-24c0,10.68,8.64,19.08,19.56,19.08,11.16,0,20.4-9.12,20.4-20,0-10.56-8.88-19-19.8-18.84A20,20,0,0,0,761.89,255Z"/><path class="cls-1" d="M778.69,256.57c-2.16-.24-4.08-.24-5.88-.48s-2.76-1.32-2.52-2.76,1.32-2.16,2.88-2.16h5.88c.12-1.68.12-3.48.36-5.16.24-2.52,1.2-3.84,2.76-3.72s2.28,1.44,2.28,4.08c0,1.44,0,2.88-.12,4.2,0,.24.12.36.36,1,1.32.12,2.88.12,4.32.36,1.92.24,2.88,1.2,2.76,2.52s-1.08,2.28-2.88,2.4c-1.56.12-3,0-4.8,0-.12,1.2-.12,2.4-.24,3.6-.12,1,0,1.92-.12,2.88-.24,1.44-1,2.52-2.52,2.52s-2.28-1.08-2.4-2.52.12-2.64.12-4A9.86,9.86,0,0,1,778.69,256.57Z"/><path class="cls-3" d="M993.57,244.41a12.08,12.08,0,0,1-.36,3.24c-3.24,8.88-4.56,18.24-6.12,27.36-1.8,10.56-3.12,21.12-4.44,31.68-.6,4.68-.36,9.36-.6,14a19.44,19.44,0,0,1-.12,2.64c-.36,2-1.08,2.88-3,3.24-9.12,1.68-18.24,3.36-27.36,4.8-2.4.36-5,.24-7.56.36-1.44,0-2.88-.48-3.24-2.16s.72-2.64,2-3.36,3-1.2,4.56-1.8a40.59,40.59,0,0,0,24.12-22.08c2.16-4.68,3.6-9.84,5.28-14.76.6-1.68.84-3.36,2.76-4.2.6-.24,1-1.32,1.08-2.16,1.56-8,3-16.08,4.56-24.12.84-4.08,2-7.92,3.24-12.24-1.92.24-3.72.24-5.52.6-6.12,1.2-12.24,2.4-18.24,3.6-.36.12-.6.12-1,.24-6.72,1.68-7.08,1.8-8.64,8.52-2.76,12-7.56,23.16-12.6,34.32a7.54,7.54,0,0,1-4.68,4.08,81.22,81.22,0,0,1-16.68,4.32c-3.36.48-6.72,1.8-10.08,2.76a12,12,0,0,1-2.88.48c-2.52,0-4-1.2-4-3.72-.12-13.56-2.28-26.88-3.12-40.44a56.35,56.35,0,0,1,1.68-20c2.52-8.64,4.8-17.16,7.08-25.8.6-2.28,1.08-4.68,1.56-7A5.1,5.1,0,0,1,915,203a34.86,34.86,0,0,1,11.64-1.44,8.18,8.18,0,0,1,4.92,2.28,25.84,25.84,0,0,0,9.48,5,12.58,12.58,0,0,0,8.64-.12c4.08-1.44,8.16-3.24,11.16-6.6a4.6,4.6,0,0,1,2.16-1.32c6.36-1.2,12.6-1.2,18.72,1,8.16,2.88,13,9,16.2,16.56a41.2,41.2,0,0,1,3.24,17.88c-.12,4.92-1.32,6.36-6,7.56A2.15,2.15,0,0,1,993.57,244.41Z"/><path d="M947,328.92c8.88.6,17.64.48,26.16-1.56a43,43,0,0,1,5.4-1.08c2.52-.24,3.36.36,4,2.76a199.29,199.29,0,0,0,8.64,24.6c3.48,8,6.72,16.32,9.84,24.6,4.92,13,5.52,26.4,3.36,40-1.68,10.08-3.72,20.16-6.12,30.12-3.48,14-6.84,28.2-9.84,42.36-2.16,10-5.16,19.8-7.8,29.76-.6,2-1.68,3.6-3.72,4.2-2.64.72-5.28,1.32-7.92,1.92a38.21,38.21,0,0,1-4.44.72c0,3-.12,5.76,0,8.64a3.59,3.59,0,0,0,1.2,2.16c10.2,10.44,16.68,23,22.08,36.36,6.12,15,10.8,30.36,15.6,45.72,7.08,22.2,13.92,44.52,20.88,66.72a37.28,37.28,0,0,0,2.4,4.92c2.28,4.32,4.08,8.88,6,13.44a4.75,4.75,0,0,1-1.08,4.92,46,46,0,0,1-3.36,3.48c-4.8,4.44-9.72,8.76-14.64,13.08a36.09,36.09,0,0,1-13.08,7.32,9.35,9.35,0,0,1-4.44.36c-2.88-.48-4.08-3-2.88-5.76a21.91,21.91,0,0,1,1.92-3.12c3.24-5.4,6.48-10.92,9.72-16.32a5.28,5.28,0,0,0,.12-5.76c-5.16-10.08-10.2-20.28-15.12-30.48l-27.36-56.52c-1.8-3.84-4-7.56-5.88-11.28-.36-.72-1-1.32-1.68-2.52-.48,2.28-1,4.08-1.32,5.88a540.26,540.26,0,0,1-22.8,77.4c-3.48,9.24-6.72,18.72-10,28.08a12.24,12.24,0,0,0-.48,5.16c.12,4.2.6,8.52.6,12.72,0,5.4-1.56,7.32-6.84,8.4-6.72,1.32-13.56,2.4-20.28,3.24-5.76.72-11.52,1.32-17.28,1.68a23.29,23.29,0,0,1-6.48-.36c-3.6-.84-4.56-4.08-1.8-6.6a76.75,76.75,0,0,1,6.12-4.8c5.52-4.08,10.92-8.28,16.56-12.36,2.4-1.8,3.36-4,3.72-7.08,2.28-23.52,4.08-47.16,7.68-70.56q6.84-43.92,13.8-87.84c1.56-9.72,3.24-19.32,4.8-29a18.19,18.19,0,0,0,.24-2.76c-1.8-.72-3.48-1.32-5.16-2A7.26,7.26,0,0,1,911.4,516c-2.76-15.6-5.64-31.08-8.4-46.68s-2.88-31.68-2.4-47.64c.36-13,1-25.92,1.2-38.88.36-14.4.6-28.8.84-43.2v-3c-3.12,0-5.64-.12-8.28,0-8.16.24-15.84-1.92-23-5.16a84,84,0,0,1-18.72-11.16,42.35,42.35,0,0,0-3.84-2.52c-1.56-1.08-2-2.52-1.32-3.84s2.16-1.56,3.72-.72a54,54,0,0,1,5.4,3.72c8.4,6,17.28,11,27.36,13.56a38,38,0,0,0,15.6.84c14-2,28-4.32,42-6.48a5.2,5.2,0,0,0,.6-.12c11.16-2.16,19.08-8,24.12-18.48a287.9,287.9,0,0,0,14.4-36.48c2.16-7.08,4.32-14.16,6.6-21.24a8.06,8.06,0,0,1,.72-1.8,2,2,0,0,1,2.76-1,3.52,3.52,0,0,1,1.56,2.16,6.33,6.33,0,0,1-.48,2.88c-4.8,15.36-9,31-15.6,45.84-2.4,5.4-5,10.68-7.8,15.84a30.31,30.31,0,0,1-18.12,15.12C949.2,328,948.12,328.44,947,328.92ZM901.68,737.16c4.2.12,7.8-.84,11.52-1.8,2.52-.6,2.76-1,2.76-3.6-.12-4.2-.24-8.52-.72-12.72a10.35,10.35,0,0,1,.6-5.4c2.88-8,5.52-16.08,8.52-24,6.6-18,13-36.12,17.88-54.72A579.31,579.31,0,0,0,956,568.08c1.44-10,2.52-19.92,3.6-29.88.36-3.36,0-6.72,0-10.2a99.22,99.22,0,0,1-33.12-2.76c-.24,1.08-.36,1.8-.48,2.52-.84,5-1.44,10.08-2.28,15.24-2.28,13.92-4.8,27.72-7,41.64-2.28,14.16-4.2,28.44-6.36,42.72-1.32,8.52-2.88,17-4,25.56-1.68,13.08-3,26.16-4.44,39.36-1,9.24-1.56,18.48-2.4,27.72a6.43,6.43,0,0,0,.84,4,14.2,14.2,0,0,1,1.92,8.52C902.16,733.8,901.92,735.24,901.68,737.16Zm119.64-23.88L1027,708a2.58,2.58,0,0,0,.72-3c-1.44-3.24-2.64-6.72-4.68-9.72a27.36,27.36,0,0,1-3.48-7.32c-7.08-22.56-14-45.12-21.12-67.68-5-15.84-9.84-31.68-16.2-46.92a131.16,131.16,0,0,0-11.64-21.84c-1.68-2.52-3.72-4.8-5.88-7.68-.36,1.44-.6,2.16-.72,2.88-2.28,15-4.44,30-6.84,44.88a9,9,0,0,0,1,5.88c4.2,7.8,8.4,15.48,12.36,23.4,11.76,23.76,23.28,47.52,34.92,71.28,2,4.32,4,8.76,6,13.08a5,5,0,0,0,.84,1.32C1015.08,708.72,1018,710.76,1021.32,713.28Z"/><path d="M938.16,191.28v14.28a14.46,14.46,0,0,1,0,2.28c-.24,1.68-1.08,2.52-2.4,2.52-1.56,0-2.28-1.08-2.52-2.52a23.12,23.12,0,0,1-.12-2.88c-.12-4-.12-8-.24-12.24-1.2-.12-2-.12-2.88-.24-2.52-.36-5.28-.48-7.68-1.32-4.2-1.68-8.64-2-13.08-2.52a7.92,7.92,0,0,1-1.68-.12c-2.88-.36-4.08-1.44-4.2-4.44-.24-5.64-.48-11.28-.36-17,.24-8.28.72-16.56,1.2-24.84a26.92,26.92,0,0,1,5.64-15.12c4.44-5.76,8.28-6.84,15.48-4.56,3.72-3.12,8.28-4.68,13.08-5.64,15.36-3,27.24,2.28,35.4,15.48,2.88,4.68,4,10,4.32,15.24.36,5,.48,10.08.48,15a58.38,58.38,0,0,0,1.8,15.84c1.08,4,.36,5.4-3.48,6.84a108.89,108.89,0,0,1-10.68,3.12c-1.8.48-3.6.84-5.76,1.44.24,2.52.48,4.8.84,7.2.24,1.8.72,3.6,1.08,5.4.36,2.16-.24,3.36-1.68,3.72s-2.76-.6-3.12-2.52c-.72-3.24-1.2-6.6-1.8-10-.12-.84-.24-1.68-.48-2.76a10,10,0,0,1-2.64.12c-2.64-.12-4.08-1.44-4-4.08a59.84,59.84,0,0,1,.84-6.48c0-.48.24-.84.24-1.32,0-4.32,1.44-6.84,6.36-7.92,5.16-1.08,6.84-7.08,3.84-11.28-.72-1-1.44-1.68-2.76-1.44-2.4.48-4.68,1.08-6.24,3.12s-2.52,2.28-3.72,1.44-1.44-2.16-.6-4.08c.24-.48.6-1,1.08-1.8-4.68-2.16-9.48-4.08-13.08-7.8s-6.6-7.56-10-11.4c-.36.6-.84,1.44-1.32,2.16-2.28,3.24-4.32,6.84-7.08,9.72-2.16,2.28-3.12,4.56-2.76,7.56,0,.48.12,1.08.12,1.68,2.28-1.92,3.72-2.16,5-.6a4.32,4.32,0,0,1-.12,5.16c-1.32,1.2-2.64.84-4.92-1.56.36,5.64.48,10.92,2.64,15.84,3.24,7.56,9.72,10.8,17.76,9,1.8-.48,3.48-1.2,5.28-1.8.6-.24,1.2-.6,1.8-.84a2.41,2.41,0,0,1,3.36,1.08c.72,1.2.24,2.52-1.08,3.36A39.94,39.94,0,0,1,938.16,191.28Z"/><path d="M868.2,310.92a30.69,30.69,0,0,1,1.32,2.88,16,16,0,0,1,.84,2.16,2.35,2.35,0,0,1-1.2,2.76,2,2,0,0,1-2.88-.72c-2-3.12-3.72-6.48-3.84-10.2-.12-2.52,1.56-3.84,4.08-3.48a18.37,18.37,0,0,1,4.92,1.68c11.76,5.88,9.84,4.56,20.4,1.8,13.32-3.48,26.52-7,39.84-10.32,7.8-2,7.8-2,10.44-9.6,1.56-4.56,3.36-9,5.16-13.44,2.88-7.44,5.88-14.76,8.76-22.2a17.67,17.67,0,0,1,1.2-2.64,2.27,2.27,0,0,1,2.88-1,2.35,2.35,0,0,1,1.56,2.88,15.2,15.2,0,0,1-.72,2.16c-2.76,7.08-5.64,14.16-8.4,21.24-2.76,7.32-5.52,14.64-8.16,22.08a4.37,4.37,0,0,1-3.12,3c-3.84,1.08-7.56,2.16-11.4,3.12-13.32,3.48-26.88,6.72-40.08,10.68-6.36,1.8-12,1.56-17.64-1.68a31.09,31.09,0,0,0-3.48-1.68C868.56,310.56,868.44,310.8,868.2,310.92Z"/><path d="M805.44,193.56l3.24-4c.48-.6.72-1.44,1.2-1.92a6.8,6.8,0,0,1,2.76-1.44c1.32-.12,2.16,1,2.52,2.16s.6,2.28,1.08,4.08c1.08-1.56,1.8-2.64,2.52-3.6a37.78,37.78,0,0,1,3.72-4.92,2.45,2.45,0,0,1,3.72-.12c1.08,1.2.84,2.28,0,3.48-1.56,2-3,4.2-4.56,6.36a25.32,25.32,0,0,1-2.28,2.76c-2,1.8-4.08,1.68-6.12,0a12.34,12.34,0,0,1-1.68-1.8,48,48,0,0,1-3.72,3.24c-4,3-6.6,2.16-8.4-2.52a2.11,2.11,0,0,0-.48-.6c-1.08.48-2,1.2-3.12,1.56-3.36,1.2-6-.6-6-4.2a12.47,12.47,0,0,1,.84-4.2c2.28-6.6,6.36-11.64,12.84-14.4a34.07,34.07,0,0,1,13.32-2.88,18.12,18.12,0,0,1,10.2,3c4.92,3,8.52,7.32,12.24,11.76,1.8,2.16,3.6,4.32,5.64,6.84-3.6.48-6.6,1-8.64-2.4a33.43,33.43,0,0,0-4.2-5,62.78,62.78,0,0,0-7.32-6.48,13.24,13.24,0,0,0-10.8-2.4,30.2,30.2,0,0,0-10.56,3.36c-4.2,2.52-6.48,6.24-8,10.56l.6.6c1.2-1.08,2.52-2,3.72-3.12s2.28-1.68,3.84-1c1.32.72,1.44,2,1.2,3.48a33.9,33.9,0,0,0-.24,3.48A3.71,3.71,0,0,1,805.44,193.56Z"/><path d="M925.8,167.88a9,9,0,0,1,2.64,1.32,3.34,3.34,0,0,1,1,2.52,2,2,0,0,1-2.28,1.8,23.74,23.74,0,0,1-5-1.2c-1.68-.6-2-2.16-1.68-3.84.72-3.24,1.56-6.48,2.4-9.72.48-1.8,1.68-2.52,3-2.28s2.16,1.56,1.8,3.36C927.12,162.48,926.52,165.12,925.8,167.88Z"/><path d="M931,182.28c-.72-.36-2.16-.72-3.24-1.32a2.18,2.18,0,0,1-.72-3.12,2.12,2.12,0,0,1,2.76-1.2c2.76,1.08,4.8,0,6.84-1.68a5.64,5.64,0,0,1,1.08-.72c1.2-.6,2.28-.72,3.24.36a2.28,2.28,0,0,1-.12,3.24C938.28,180.48,935.16,181.8,931,182.28Z"/><path d="M931.92,162.24c0-1.92,1.2-3.36,2.88-3.36s3,1.68,3,4c0,1.92-1.2,3.36-2.76,3.36C933.24,166.2,931.8,164.4,931.92,162.24Z"/><path d="M958.68,164.52c0,1.44-2.4,3.84-4,3.84a2.43,2.43,0,0,1-2.52-2.4,4.46,4.46,0,0,1,3.84-3.84A2.54,2.54,0,0,1,958.68,164.52Z"/></g><g id="Man1"><path class="cls-1" d="M205.44,538.68c4.8-1.68,8.52,0,11.76,3.24a83.22,83.22,0,0,1,6,7c2,2.64,2.28,3,5.76,1.92L247.68,545c9.12-2.76,18.36-5.64,27.48-8.4,11.88-3.48,24-2.84,36.36-2.12a16.28,16.28,0,0,1,3.48.72c2.88,1.2,3.48,2.6,1.44,5a10.36,10.36,0,0,1-1.68,1.56c.12.24.12.48.24.6,3.6,2.4,3.6,4.56,0,7-1.56,1.08-3.36,2-5,3,.12.36.12.72.24,1,.84,3,.24,4.68-2.76,5.52a74,74,0,0,1-9,1.44c-3.24.36-6.48.6-9.84.84-.36,6.36-3.6,11.52-6.48,16.68-2.76,4.92-7.32,7.32-13.08,7.32a128.47,128.47,0,0,1-21.48-1.56,35.69,35.69,0,0,0-18.72,1.92c-2.76,1.08-5.4,2.28-8.16,3.24-3.84,1.32-7.56,2.76-11.4,3.84a15.52,15.52,0,0,1-12.6-1.92,15,15,0,0,1-4.56-4.56c-4-5.64-5.76-12.12-6.6-19-1.08-8.88-2.16-17.76-5-26.28-1.44-4.2.12-6.48,4.56-7.2a14.7,14.7,0,0,1,2.28-.24c4.44.12,8.88.24,13.44.6C203.76,534.48,204.6,535.44,205.44,538.68Z"/><path class="cls-1" d="M248.28,427.56c-2.28-1.2-4.44-2.16-6.48-3.36-6-3.48-6-13.08-2.16-16.92,2.88-2.88,5.88-5.28,9.72-6.24a13.11,13.11,0,0,0,7.92-5.88c4.8-7.56,12-10.08,20.64-9,1.68.24,3.24.36,4.8.72,5.64,1.2,10.92,3.12,14.64,7.92.48,0,.72-.12,1.08-.12,2.64-.24,3.84.84,3.24,3.36-1.68,8.52-3.48,17-5.28,25.56a34.56,34.56,0,0,1-2.16,5.88c-4,8.88-10.92,13.32-20.52,13.44-1.56,0-3-.12-4.92-.24l-.72,4.32c-.48,3.84-.84,7.8-1.56,11.64a8.71,8.71,0,0,1-1.92,4.44,141.36,141.36,0,0,1-10.08,10.68c-3.24,3-6,2.52-8.52-1.2a119.11,119.11,0,0,1-6.12-10.8c-1.2-2.28-.48-4.68.36-7,1.44-3.84,3.12-7.68,4.32-11.64,1.32-4.2,2.28-8.64,3.36-13A12.4,12.4,0,0,0,248.28,427.56Z"/><path class="cls-1" d="M242.4,513.36a18.72,18.72,0,0,1-1.92-.6,2.51,2.51,0,0,1-1.2-3.6,3,3,0,0,1,.48-.84c7.44-6.72,15.48-12.12,26.16-11.16,9,.84,15.36,9.36,13,19.68a15.38,15.38,0,0,1-6.36,9.48c-4.92,3.48-10.32,5.64-16.44,5.4-9.48-.24-15.48-7.44-14-16.8A4.7,4.7,0,0,1,242.4,513.36Z"/><path class="cls-1" d="M66.84,757.08c1.2-6.72,2.28-13.44,3.72-20.16a6.76,6.76,0,0,1,6-5.64,35.07,35.07,0,0,1,6.12-.48c2.52,0,3.12,1.08,2.88,3.48-.36,3.72-.36,7.56-.84,11.4-.48,4.56-1.2,9-2,13.56s-2.16,5.52-6.6,5.52a23.12,23.12,0,0,1-2.88-.12C68.64,763.68,67.2,761.76,66.84,757.08Z"/><path class="cls-1" d="M96,727.44c-4.44.36-5.28-.12-5.76-4.32a39.32,39.32,0,0,1-.12-8.4c.24-3.12,1.92-4.8,5-5.52a24,24,0,0,1,2.88-.48c2.88-.24,3.48.6,4.44,3.36,1.32,3.72,1.32,7.2-.84,10.56a2.21,2.21,0,0,0-.12,1.56c0,.48.24.84.24,1.32.12,1.8-.84,3.6-2,4.08C97.68,730.2,97,728.88,96,727.44Z"/><path class="cls-3" d="M98.19,727.2c.48-2.52.72-4.92,1.2-7.2.72-2.88,1.56-5.64,2.52-8.4,1.44-4,4.32-5.88,8.52-6,1.2,0,2.4-.12,3.6-.12,10.2-.12,20.52-.12,30.72-.12h6.12c.84-4.44,1.56-8.52,2.16-12.6,2-14.76,4.56-29.52,7.8-44,2.52-11.52,5-23,7.44-34.56.84-3.84,1.44-7.68,2.28-11.52A30.24,30.24,0,0,1,172,598c1-2,2.16-2.4,4.2-1.32a127.15,127.15,0,0,0,37.32,11.52,69,69,0,0,0,22.2-.6l20.88-3.6a10.5,10.5,0,0,1,1.92-.24c2.64-.12,3.6.48,4.08,3.12a64.46,64.46,0,0,1,1.32,8.4c1.56,16.56,3.24,33,4.32,49.56,1,14.52,1.32,28.92,1.56,43.44a80.78,80.78,0,0,1-1.2,15.24c-1.44,9.12-6.36,15.72-15.12,19.44-5.76,2.52-11.88,3.48-18,4.92-9.12,2.16-18.24,4.32-27.36,6.36a4.91,4.91,0,0,0-3.36,2.16c-3.36,5.52-8.28,8.76-14.52,10.44a122.17,122.17,0,0,1-27.12,3.84c-16,.6-32,.84-48.12,1.32-7.08.24-14.16.72-21.24,1a53.07,53.07,0,0,1-7.56-.24c-4.2-.36-6.24-2.28-6.84-6.6A70.89,70.89,0,0,1,78.87,756a91,91,0,0,1,3.36-22c.24-1.2.6-2.28.72-3.48.36-2.64,1.08-3.36,3.84-3.48,2.4-.12,4.8,0,7.2,0C95.55,727.2,96.75,727.2,98.19,727.2Zm122.52-54c-1,7.56-1.92,15.12-3,23.16,2.16-.48,3.72-1,5.52-1.32C222.87,687.36,222.39,680.28,220.71,673.2Z"/><path id="Line-2" class="cls-4" d="M217.44,702.24l-8.4,45.6"/><polyline id="Line-3" class="cls-4" points="108.24 729.84 146.04 728.76 150.24 708.68"/><path d="M271.92,445.2c-.48,2.88-.84,5.4-1.2,8.16,5.64,1,11,1.92,16.32,2.88a7,7,0,0,0,1.56.24c9.72,1.92,15.36,7.8,17.52,17.52,2.28,10.2,1.92,20.4.12,30.48-1.44,8.64-3.12,17.16-4.68,25.68-.12,1-.24,1.92-.36,3.24,1.44,0,2.64-.12,3.84,0,3.36.24,6.72.48,10.08.84a9.57,9.57,0,0,1,3.72,1.08c3.12,1.44,3.72,3.48,2.28,7.44a6.66,6.66,0,0,0,1,.72c2.16,2,2.28,4.08-.12,6a51.86,51.86,0,0,1-5.76,3.72c0,1.56.48,3.24-.12,4.32a7.71,7.71,0,0,1-3.72,3,55.65,55.65,0,0,1-17,4.32,9.75,9.75,0,0,1-2.64.12c-2-.12-2.88.84-3.24,2.88-.48,2.52-1.32,5-2,7.56-2.16,7-7.08,13.92-18.12,14.28-.48,0-1.08.12-1.8.12-1.2,2.64-1.2,5.52-1.44,8.28-.6,6.48-.84,6.84-7.2,8.64-7,1.92-14.16,2.4-21.36,3.12a114.54,114.54,0,0,1-46-4.44,51.79,51.79,0,0,1-14.88-7.2c-4.08-2.88-4.56-4-3.36-8.76,1.56-6.24,3.24-12.48,4.8-18.72l2.52-10.44a5.19,5.19,0,0,0,.12-1.92c-1.2-7.2-2.52-14.4-3.84-21.6a12.55,12.55,0,0,0-2-.48c-3.48-.84-4.44-2-4-5.52,1-7.2,2-14.4,3.36-21.6a107.31,107.31,0,0,1,11.16-33,51.91,51.91,0,0,1,3.72-6.12C196,459.6,205.8,454,218,452.52c4.92-.6,10-.48,15-.6a36.81,36.81,0,0,1,4.56.6,117.07,117.07,0,0,0,7-23.64,15.75,15.75,0,0,1-7.08-4.56,13.71,13.71,0,0,1-1.2-16.68,10.8,10.8,0,0,0,1.56-3.84c.72-3.36,1.2-6.84,1.92-10.32a43.7,43.7,0,0,1,8-17,19.85,19.85,0,0,1,15.36-8c9.24-.48,18,1.56,26.64,4.32a22.32,22.32,0,0,1,9.36,5.76A16.88,16.88,0,0,1,303.84,390a79.69,79.69,0,0,1-3,24.48c-1.44,5.52-3,10.92-4.92,16.2a24.66,24.66,0,0,1-8.28,11.16A15.11,15.11,0,0,1,276,445.2,11.38,11.38,0,0,1,271.92,445.2Zm-89.4,92.16a6.78,6.78,0,0,0,0,1.56c1.68,9.48,3.24,19,5.16,28.32A112.09,112.09,0,0,0,192,582.6c2.28,6.36,7.08,9.36,13.92,9.36a22.8,22.8,0,0,0,4.92-.48,111.43,111.43,0,0,0,11.28-3.24,320.35,320.35,0,0,0,48.24-22.44c4.68-2.52,9.36-4.68,14.76-4.8,3.72-.12,7.44-.6,11-1.08,3.36-.48,6.72-1.32,10.08-2-.12-.6-.12-.84-.24-1s-.36-.24-.48-.48c-1.44-1.92-1.2-3.36.84-4.56a18.86,18.86,0,0,1,2.76-1.08c1.8-.72,3.48-1.56,5.28-2.28-.12-.24-.12-.48-.24-.6-2.4.36-4.92.72-7.32,1-2.64.24-4-.48-4.2-2s.72-2.64,3.24-3.24c2.28-.6,4.68-1.2,7-1.92a14.44,14.44,0,0,0,2.76-1.32,16,16,0,0,0-6-1.32c-6.36-.24-12.6-.24-19-.6a55.25,55.25,0,0,0-21.6,3.12c-7.92,2.64-15.72,5.28-23.64,7.68A211,211,0,0,1,224.28,555a8.76,8.76,0,0,0-6.12,4.2c-1.44,2.28-2.76,4.68-4.44,6.84a18.27,18.27,0,0,1-4.8,4.32c-3,1.8-5.52.6-6.72-2.64a22.39,22.39,0,0,1-.84-2.64c-2.4.6-4.56,1.92-6.72.24s-1.2-4.08-.72-6.48a12.89,12.89,0,0,1-2.16,0c-3-.36-4.44-2.52-3.6-5.28a21.11,21.11,0,0,1,1.08-2.4,35.12,35.12,0,0,1,9.6-10.56c.6-.48,1.08-1.08,1.8-1.68C194.64,538.2,188.64,537.84,182.52,537.36Zm83.4-146.52c-.36.72-.72,1.08-1,1.56a29.89,29.89,0,0,1-10.32,12.48,4.58,4.58,0,0,0-1.32,1.68c-1.2,1.92-1.8,2.28-4,1.2a6.08,6.08,0,0,0-4.8-.36,8.16,8.16,0,0,0-5.4,9.36,7.83,7.83,0,0,0,8,6.6h1.68c2.16.36,2.88,1.8,2.16,3.72a41.05,41.05,0,0,0-2.16,6.48,155.1,155.1,0,0,1-7.68,24c4.08,5.16,8.28,10.32,12.48,15.48.48-.36.72-.48.84-.72,3.12-4.32,6.36-8.64,9.48-13a4.06,4.06,0,0,0,.72-1.44c.72-4.56,1.44-9.24,2.16-13.92a8.08,8.08,0,0,1-2.28-1.08c-2.28-1.44-4.68-2.76-7-4.32a2.45,2.45,0,0,1,2.52-4.2,7.65,7.65,0,0,1,1.68,1c4.32,3.6,9.6,4.44,15,4.92a11.28,11.28,0,0,0,8.4-2.88,23.18,23.18,0,0,0,7.56-12c2-7.2,3.6-14.52,5.4-21.84.36-1.8.48-3.6.84-5.52C287.76,395.88,277,393.36,265.92,390.84Zm-13.56,116.4c-.48,4.56-.84,8.88-1.2,13.2a3.78,3.78,0,0,0,.6,2.4,68.12,68.12,0,0,0,10.92,7.56c2.64-1.68,5-3.36,7.56-4.92a3.78,3.78,0,0,0,1.92-3.48c.12-4,.36-8,.48-12,0-.72-.12-1.44-.12-2.52C265.68,508,259.32,506.16,252.36,507.24Zm-3.12,75.48c3.84.48,7.2,1.2,10.56,1.44a80.1,80.1,0,0,0,10.68.36,11.59,11.59,0,0,0,8.52-4.08c3.48-4,4.2-9,5.52-14.16a14.29,14.29,0,0,0-7.68,1.8c-8.88,4.56-17.76,9.12-26.64,13.8A3.68,3.68,0,0,1,249.24,582.72Zm-26.52-33.36C220,545.28,216.24,543,212,541.2a6.13,6.13,0,0,0-5.4.48,79.57,79.57,0,0,0-8.28,5.88c-1.56,1.2-2.64,3-4,4.56a2.62,2.62,0,0,0,.48.6c1.68-.84,3.48-1.56,5.16-2.4,1.44-.6,2.76-.84,3.84.6s.36,2.64-.72,3.84a14.38,14.38,0,0,0-1.32,1.44,7.91,7.91,0,0,0-2,3.6c1.8-1,3-1.92,4.44-2.28a4.28,4.28,0,0,1,3,.12c1.2.6,1.2,2,.84,3.24-.24.72-.6,1.44-.84,2.16a24.69,24.69,0,0,0-.36,2.52c2.88-2.28,4.32-4.92,5.76-7.44C215.28,554.16,217.92,550.68,222.72,549.36Z"/><path d="M91.44,714v10.08c0,3.72-.6,4.2-4.44,4.2a7,7,0,0,0-2.16.48c.24.6.36.84.48,1.08,1.44,2.64.48,4.44-2.52,4.56-1.68,0-3.48-.24-5.28-.24H74.4c-1.56,3.72-4.44,23-4.32,28.44l7.8.36a19.44,19.44,0,0,1,2.64.12c1.44.24,2.52,1,2.52,2.52S82,767.88,80.4,768a22.5,22.5,0,0,1-4.92-.12c-5.28-.72-10.32.36-15.36,1.8-6.72,2-13.44,3.48-20.28,5a16.73,16.73,0,0,1-4.92.36c-3.72-.36-5.28-3.24-3.48-6.6a13.47,13.47,0,0,1,1.92-2.64c4.2-4.44,8.28-9,12.48-13.32,6.24-6.36,12.6-12.6,18.84-19.08,2.76-2.76,5.64-4.8,9.72-4.56,1.44.12,2.16-.6,2.76-1.8,2.16-4.2,4.56-8.16,6.72-12.36,1.92-3.72,4.68-5.88,9-6.12,2.88-.24,5.64-.6,8.52-.84,2.16-.12,3.36.48,3.6,1.92s-.84,2.76-3.12,3.12c-2.52.36-5,.48-7.44.72C93.48,713.64,92.76,713.88,91.44,714Z"/><path d="M277.8,421.2c-.6-1.68-1.2-3.12-1.68-4.56a4.66,4.66,0,0,1-.24-2.52,3.4,3.4,0,0,1,1.8-2c.72-.12,2.16.36,2.4,1a48.23,48.23,0,0,1,2.88,8.28,3.83,3.83,0,0,1-1.2,3.12,18.48,18.48,0,0,1-4.68,2.76,2.16,2.16,0,0,1-2.76-1,2.43,2.43,0,0,1,.6-3.24A25,25,0,0,1,277.8,421.2Z"/><path d="M272.76,435.36c-4.08,0-8.52-3.48-9.36-6.84-.36-1.32-.24-2.64,1.2-3.36a2.22,2.22,0,0,1,3.24,1.2,6.51,6.51,0,0,0,5,4.08,2.24,2.24,0,0,1,2,2.76A2.12,2.12,0,0,1,272.76,435.36Z"/><path d="M243.12,412.8c0-2.28,1.56-3.36,3.24-2.88,1.92.48,4.2,4.32,3.6,6.36-.36,1.56-2.16,2.52-3.24,1.56A36.57,36.57,0,0,1,243.12,412.8Z"/><path d="M292.8,416c0,2.52-1.44,4.44-3.36,4.44-1.68,0-2.76-1.32-2.76-3.36,0-2.28,1.56-4.44,3.36-4.44S292.8,414,292.8,416Z"/><path d="M267,411c0-2.28,1.68-4.32,3.48-4.32a2.69,2.69,0,0,1,2.64,3c.12,2.4-1.44,4.44-3.24,4.44S267,412.92,267,411Z"/></g><g id="Accent"><path d="M559.44,747.6H276.72c-2-.12-3.24-1.08-3.12-2.52s1.2-2.16,3-2.4a19.38,19.38,0,0,1,2.64,0l444,.36c38.76,0,77.4.12,116.16.24H842c2.52.12,3.6.84,3.6,2.4s-1.08,2.4-3.48,2.52h-2.64Q702.36,748,565.32,748h-5.88Z"/><path d="M141.36,453c-2.16,1.32-4.08,2.64-6,3.6a21.08,21.08,0,0,1-27.12-7.2c-4.2-6.48-3.12-13.2,3-18a22.48,22.48,0,0,1,13-4.92,14.7,14.7,0,0,1,12.48,5.28,83.79,83.79,0,0,1,5.16,7.56c.6.84,1,1.8,1.8,3.24,1.08-1.8,2-3,2.76-4.44a82.4,82.4,0,0,0,9-31.56A121.13,121.13,0,0,0,151.92,365a43,43,0,0,1-1.08-5.4,7.29,7.29,0,0,1-.12-2.28c.12-1.56,1.08-2.64,2.4-2.52a2.28,2.28,0,0,1,2.4,2.16c3.36,15,6.24,30,5.28,45.6-.72,12-3.12,23.52-8.28,34.44a77.28,77.28,0,0,1-5.64,9.6c-.84,1.32-1.32,2.28-.84,3.84a60.23,60.23,0,0,1-2.28,39.72c-2.88,7.2-6.24,14.4-9.72,21.36-5.28,10.68-10.92,21.12-16.2,31.8a94,94,0,0,0-8.52,25.32,51.89,51.89,0,0,0,2,26c.48,1.32.48,2.64-.84,3.48a2.58,2.58,0,0,1-3.6-1.32,27.26,27.26,0,0,1-1.92-5.52,62.49,62.49,0,0,1,2.4-35.4c2.76-7.32,5.76-14.64,9.12-21.6C121.08,525,126,516,130.8,506.76c4.68-9,8.88-18.24,11.16-28.2a55,55,0,0,0,0-23.4C141.84,454.56,141.6,454,141.36,453Zm-1.68-5.76a38.05,38.05,0,0,0-5.88-11.16,11.11,11.11,0,0,0-8.4-4.44,16.48,16.48,0,0,0-12.36,5c-2.64,2.64-3,5.88-1.08,9.24,2.76,4.8,7.08,7.2,12.48,7.92C130.68,454.56,135.24,451.32,139.68,447.24Z"/><path d="M1032.36,226.08c3.24-1.68,6.12-3.48,9.12-4.68,6-2.4,11.4-1.32,15,2.76,4,4.32,5.28,12.12,3,17.16-2.52,5.4-8.64,7.8-15,6-4.56-1.32-7.8-4.56-10.8-8.16-.72-.84-1.44-1.8-2.4-3a16,16,0,0,0-2.76,10.44,41.52,41.52,0,0,0,4,15.12,126.48,126.48,0,0,0,8,14.16c2.76,4.32,5.88,8.4,8.76,12.6,6.72,9.72,8.4,20.4,5.52,31.8-1.2,4.56-2.4,9-3.6,13.56-.36,1.32-1.08,2.16-2.52,2a2.38,2.38,0,0,1-2.28-2.4,16.9,16.9,0,0,1,.6-4.2c1.2-4.68,2.64-9.24,3.6-13.92a29.52,29.52,0,0,0-3.6-21.12c-2.16-3.6-4.68-6.84-7-10.32-3-4.56-6.12-9-9-13.68a60,60,0,0,1-7-18.6A23.92,23.92,0,0,1,1027.8,232a4.86,4.86,0,0,0,.6-1.08c0-.12.12-.24.12-.48a69.11,69.11,0,0,1-4-16.68,52.38,52.38,0,0,1,3-24.72,206.14,206.14,0,0,0,7.92-23.88,7.76,7.76,0,0,1,.48-1.56c.72-1.68,1.92-2.4,3.24-1.92s2,1.56,1.44,3.48c-1.2,4.56-2.52,9-4,13.44-1.32,4-2.76,7.8-4.32,11.64-4.32,11.16-4,22.44-.84,33.72A11.55,11.55,0,0,0,1032.36,226.08Zm2.28,5.4c2.4,4,5,7.32,8.76,9.72a8.9,8.9,0,0,0,6.24,1.32,6.19,6.19,0,0,0,5.76-5.76,12.65,12.65,0,0,0-1.2-7c-1.8-3.6-4.56-5.28-8.52-4.56A22.68,22.68,0,0,0,1034.64,231.48Z"/><path d="M318.36,341.16q1.44-8.1,2.88-16.56c4.92-28.08,9.84-56.28,14.88-84.36,1.56-8.64,3-17.4,4.56-26a11.24,11.24,0,0,1,.48-1.92,2.42,2.42,0,0,1,2.76-1.8,2.37,2.37,0,0,1,2,2.52,14.7,14.7,0,0,1-.24,2.28c-6.24,35.16-12.36,70.44-18.6,105.6-1.2,6.6-2.28,13.08-3.48,19.68-.12.48-.12,1.08-.24,1.56-.6,2-1.68,2.88-3.12,2.64S318.24,343.32,318.36,341.16Z"/><path d="M792.36,10.56c1.56-2.28,2.76-4.2,4.08-6,.6-.84,1.08-1.68,1.68-2.4,2-2.76,3.6-2.88,5.76-.36,1.56,1.8,3.12,3.72,4.68,5.52.72.84,1.44,1.56,2.4,2.52,1.56-1.8,3-3.48,4.44-5,1.08-1.2,2-2.52,3.24-3.72,1.68-1.56,3.48-1.44,4.56.6,2.16,3.72,4.08,7.44,6,11.16a2.31,2.31,0,0,1-1,3.36c-1.32.72-2.52.24-3.36-1.08a36.86,36.86,0,0,1-2-3.72C822,10,821.28,8.52,820.2,6.72c-1.44,1.68-2.64,3-3.84,4.32-.84,1-1.68,2-2.52,3-2.4,2.64-3.84,2.64-6.12,0-1.44-1.68-2.76-3.36-4.2-5-.72-.84-1.44-1.56-2.28-2.52-1.92,2.88-3.72,5.4-5.52,8-2.16,3.12-3.6,3.24-6.12.48-1.56-1.68-3.12-3.48-5-5.64-1.56,2.4-2.76,4.56-4.2,6.6a17.15,17.15,0,0,1-1.68,2.4,2.36,2.36,0,0,1-3,.36,2.27,2.27,0,0,1-1-2.88,4.06,4.06,0,0,1,.72-1.44c1.92-3.12,3.84-6.36,5.88-9.48,1.8-2.88,3.36-3,5.64-.48,1,1,1.8,1.92,2.64,2.88A19.91,19.91,0,0,0,792.36,10.56Z"/><path d="M120.6,614.4a7.93,7.93,0,0,1,7.32,6.24,12.16,12.16,0,0,1-6.6,13.32c-5.4,2.52-10.92-.72-11.16-6.72a11.59,11.59,0,0,1,6.24-11.4A24.76,24.76,0,0,1,120.6,614.4Zm2.64,8.64c-.12-2.76-1.92-4-4.2-2.88s-4.2,4.56-3.72,7.08c.36,2.28,1.92,3.12,4.08,2A7.29,7.29,0,0,0,123.24,623Z"/><path d="M21.48,750.24c-5.76.24-11.52.36-17.28.6C1.32,751,0,750,0,748.44s1.32-2.4,4-2.52c12-.48,23.88-1,35.88-1.32,2.88-.12,4.2.72,4.08,2.4s-1.08,2.4-3.84,2.52l-18.6.72Z"/><path d="M1046.16,133.92a10.42,10.42,0,0,1-4.92,8.64,7.16,7.16,0,0,1-11.28-5.28,10.37,10.37,0,0,1,2.88-9c2.4-2.52,5.76-3.48,8.52-2.4S1046,130.08,1046.16,133.92Zm-11.28,2.64c.24.36.72,1.68,1.56,2a3.72,3.72,0,0,0,2.76-1,5.25,5.25,0,0,0,1.68-4.68c-.36-2.16-2-2.88-3.72-1.56C1035.72,132.36,1035,133.92,1034.88,136.56Z"/><path d="M954.72,747.84H938.64a2.43,2.43,0,0,1-2.16-2.16,2.36,2.36,0,0,1,1.68-2.52,9.35,9.35,0,0,1,2.52-.48c9.72,0,19.44,0,29.16.12a3.28,3.28,0,0,1,2.16.6,2.73,2.73,0,0,1,1.08,2.16,3.52,3.52,0,0,1-1.56,2.16,4.63,4.63,0,0,1-2.28.24c-4.68,0-9.6,0-14.52-.12Z"/><path d="M1034.64,747.84H1021.2a7.92,7.92,0,0,1-1.68-.12c-1.32-.36-2.16-1-2.16-2.52a2.23,2.23,0,0,1,1.92-2.28,18.16,18.16,0,0,1,3.6-.24h21.6c1.44,0,2.88-.12,4.2-.12,2.28-.12,3.48.72,3.6,2.4s-1,2.64-3.36,2.76c-4.8.12-9.6,0-14.4,0C1034.64,747.72,1034.64,747.72,1034.64,747.84Z"/><path d="M314.4,279.36c-1.2,5.28-2.28,10.56-3.48,16-.36,1.44-.6,3-1.08,4.44-.6,2-1.8,2.88-3.24,2.52s-2-1.56-1.68-3.6c1.2-5.88,2.52-11.64,3.72-17.52.24-.84.24-1.68.48-2.52.48-2,1.56-3,3-2.76S314.4,277.32,314.4,279.36Z"/></g></g></g></g></g></svg>