<svg xmlns="http://www.w3.org/2000/svg" viewBox="0 0 1187.28 885.28"><defs><style>.cls-1,.cls-2{fill:#fff;}.cls-2{stroke:#000;stroke-miterlimit:10;stroke-width:6px;}.cls-3{fill:#ffd622;}.cls-4{fill:#6250fe;}</style></defs><g id="Layer_2" data-name="Layer 2"><g id="All"><g id="Designer"><g id="Designer-2" data-name="Designer"><g id="Chair"><path id="Path" class="cls-1" d="M874.06,571.56c-19.2-.24-38.4-.84-57.6-2.4A239.3,239.3,0,0,1,779.74,563c-4.56-1.08-9-2.4-13.56-3.72-3.48-1-4.92-3.12-5.28-6.84-.6-7.56.48-15,1.08-22.56,1.44-15.84,3-31.68,4.32-47.52,1.44-16.68,2.88-33.48,4.32-50.16.72-8.52,1.32-16.92,2.28-25.44,1.08-9.12,2.64-18.12,4.08-27.12a34.42,34.42,0,0,1,2.64-7.44,16.22,16.22,0,0,1,7.2-7.8,3.75,3.75,0,0,1,1.2-.6c8.76-1.56,17.28-4.44,25.92-6.36a187.59,187.59,0,0,1,34.68-4.2c5.16-.12,10.2-.12,15.36-.24a135.28,135.28,0,0,1,32.52,3.12c7.8,1.8,15.84,3,23.64,4.8,4.08,1,7.92,2.4,11.88,3.72a36.27,36.27,0,0,1,13.8,8.4c2.76,2.76,5.76,5.28,8.52,8A6.78,6.78,0,0,1,956,384.6c1.8,8.16,3.72,16.32,5.16,24.6a181.51,181.51,0,0,1,2,45.6c-.84,9-2,18-2.88,27-1.32,15.6-3.84,31.2-3,46.92a242.77,242.77,0,0,0,3,28c.72,4.68.48,6.84-5.76,8.16a153.89,153.89,0,0,1-22.32,3.24C913.06,569.76,893.62,570.6,874.06,571.56Z"/><path d="M952.89,384.61c-.48,1.2-1,2.4-1.32,3.6-5.16,14.64-7.92,29.64-9.72,45-2.64,22.68-3.6,45.48-4,68.28-.12,6.84-.36,13.8-.48,20.64-.24,14.16,1.08,28.08,2.64,42.12a14.7,14.7,0,0,1,.24,2.28,2.54,2.54,0,0,1-2.4,2.64,2.4,2.4,0,0,1-2.76-2.28c-.48-3.24-.84-6.48-1.2-9.72a301.77,301.77,0,0,1-1.56-45.36c.6-16.08.84-32,1.56-48.12,1-20.4,2.88-40.68,7.8-60.6,2-8,4.68-15.84,7.2-24.36a57.07,57.07,0,0,0-13.2-9.48,83.57,83.57,0,0,0-26.16-7.92,319.71,319.71,0,0,0-53.52-3.12,331.36,331.36,0,0,0-59.4,6.84c-9,1.92-14.52,6.72-17.52,15.12a96.25,96.25,0,0,0-4.32,18.48c-3.36,22.8-5.28,45.72-7,68.64-.84,11.88-.84,23.76-1.44,35.64-.36,8.64-1,17.16-1.56,25.8-.48,6.84-1.2,13.68-1.8,20.52a15,15,0,0,1-.36,2.28,2.5,2.5,0,0,1-2.64,2,2.39,2.39,0,0,1-2.28-2.4,11.59,11.59,0,0,1,.12-2.88c2.16-21.36,3.36-42.84,4-64.32.36-13.56,1.56-27,2.76-40.44s2.64-27.12,4.44-40.68a187.05,187.05,0,0,1,4-20.16c.72-3.12,2.28-6.12,3.6-9.12,3-7.08,8.76-11,16-12.72,6.72-1.56,13.44-3,20.16-4a332.79,332.79,0,0,1,70.8-3.24c13.08.84,26.16,1.8,38.88,5.16a71.6,71.6,0,0,1,28.32,14.52,31.37,31.37,0,0,1,10,15.72,163.22,163.22,0,0,1,5.28,30.6c1.2,15.24,0,30.24-1,45.48-.84,14-2,28.08-2.64,42.12s-.84,28.32-1.08,42.48c-.12,4,.12,7.8.24,11.76,0,.72.12,1.56.12,2.28a2.4,2.4,0,0,1-2,2.64,2.49,2.49,0,0,1-3-1.92,6,6,0,0,1-.24-2.52c0-12.48,0-24.84.24-37.32.12-8.28.48-16.56,1-24.84.72-11.52,1.56-23,2.4-34.56,1-15.12,2.28-30.24,1.08-45.48a166.7,166.7,0,0,0-4.92-28.68c-.6-2-1.44-4.08-2.16-6.12C953.37,384.73,953.13,384.73,952.89,384.61Z"/></g><g id="Table"><path d="M801.89,583.36q189.18.36,378.36.6h3.24c1.44,0,2.88.12,3.6,1.8.6,1.44-.36,2.4-1.32,3.48l-15.12,17.64Q1072,721.9,973.25,836.8a20.89,20.89,0,0,1-1.44,1.68,3.59,3.59,0,0,1-3.24,1.2,48.18,48.18,0,0,0-5.88-.24l-347.16,1.8q-122.94.72-245.76,1.32-81.72.36-163.32,1a12.19,12.19,0,0,1-5.88-1.44c-1.92-1.08-2.4-2.4-1.2-4.2a11.4,11.4,0,0,1,1.92-2.28q80.46-94,161-187.8,26.46-30.78,52.8-61.68a8.16,8.16,0,0,1,7-3.12q86.4.18,172.8.24H802C801.89,583.12,801.89,583.24,801.89,583.36Z"/><path id="Path-Copy" class="cls-2" d="M791.89,563.36q189.18.36,378.36.6h3.24c1.44,0,2.88.12,3.6,1.8.6,1.44-.36,2.4-1.32,3.48l-15.12,17.64Q1062,701.9,963.25,816.8a20.89,20.89,0,0,1-1.44,1.68,3.59,3.59,0,0,1-3.24,1.2,48.18,48.18,0,0,0-5.88-.24l-347.16,1.8q-122.94.72-245.76,1.32-81.72.36-163.32,1a12.19,12.19,0,0,1-5.88-1.44c-1.92-1.08-2.4-2.4-1.2-4.2a11.4,11.4,0,0,1,1.92-2.28q80.46-94,161-187.8,26.46-30.78,52.8-61.68a8.16,8.16,0,0,1,7-3.12q86.4.18,172.8.24H792C791.89,563.12,791.89,563.24,791.89,563.36Z"/></g><g id="Window2"><path class="cls-3" d="M596.18,373.76c-8.64-.36-17.16-.6-25.8-1l-90.6-2.88q-58.5-2-117-3.84c-4-.12-4.32-.48-5.52-5-7.2-27-14.52-54-21.72-81.12-6.48-24.36-12.84-48.72-19.32-73a10.11,10.11,0,0,1-.48-3.24c.12-1.92,2-3.12,3.48-1.92,1.8,1.44,3.6,1.2,5.52,1.2q108.36-.9,216.84-1.92h1.32c4.08-.36,6,.36,7.56,5.76,1.8,6,3.6,11.88,5.28,17.88l42.48,142.56c.36,1.2.72,2.28,1,3.48C599.66,373.16,598.58,374.24,596.18,373.76Z"/><path id="Shape" class="cls-1" d="M482.6,291.56c5.28,1.56,8.64,5.28,11.64,9.36,2.28,3.12,4.44,6.24,6.6,9.36,3.6,5.16,8.16,8.76,14.52,9.72,2.76.48,5.52,1.32,8.28,2a7.09,7.09,0,0,1,2.4.84,3.39,3.39,0,0,1,1.08,2.4,3.16,3.16,0,0,1-1.8,1.92,4.76,4.76,0,0,1-2.88-.12c-4-1-8-2-12-3.12a17.74,17.74,0,0,1-9.12-5.4c-2.88-3.24-5.4-6.84-8-10.2-2.16-2.76-4.2-5.64-6.36-8.28a9,9,0,0,0-6-3.48c-.48.84-1,1.8-1.44,2.76a35.52,35.52,0,0,1-6.72,9.6,12.32,12.32,0,0,1-6.36,3.72c-4.68,1.08-8.16-2.16-7.08-6.84a15.38,15.38,0,0,1,2.76-5.4,23.82,23.82,0,0,1,12.6-8.4c2-.6,3-1.56,3.24-3.48.36-2.16,1-4.2,1.32-6.36,1.44-10.2-4.32-18.12-14.52-19.68a29.66,29.66,0,0,0-15.12,1.8,2.9,2.9,0,0,0-2,2.88,49.56,49.56,0,0,1-13.68,28.68,27.78,27.78,0,0,1-5,4.08,12.09,12.09,0,0,1-3.84,1.68c-4.68,1.2-8.4-1.32-8.64-6.12a20.6,20.6,0,0,1,1-7.08,29.55,29.55,0,0,1,3.72-7.56,55.58,55.58,0,0,1,18.84-17.76l2.52-1.44c1.44-12.72-7.32-23-19.8-23.52a29.77,29.77,0,0,0-15.12,3.36c-13.8,7-25.32,16.56-33.84,29.52-3.12,4.68-5.52,9.72-5.76,15.48-.12,2.16-1.2,3.12-2.76,3s-2.4-1.2-2.4-3.24a26.52,26.52,0,0,1,2.4-10.44,62.38,62.38,0,0,1,12-17.88,98.38,98.38,0,0,1,24.6-19.32c5.76-3.24,11.88-5.52,18.6-5.64,15-.24,25.32,8.52,27.48,23.4.12.84.24,1.68.36,2.88,1.32-.36,2.4-.6,3.48-1a32.25,32.25,0,0,1,16.2-.48c12,3,18.6,12.72,16.92,25A66.74,66.74,0,0,0,482.6,291.56Zm-40.68-22.8-.72-.36c-1.68,1.2-3.36,2.28-5,3.48a48,48,0,0,0-12.72,14.64c-1.44,2.64-2.52,5.28-2.28,8.4.12,1.8,1,2.52,2.64,1.68a22.35,22.35,0,0,0,5.64-3.84,42.72,42.72,0,0,0,11.4-19.44C441.2,271.88,441.56,270.32,441.92,268.76Zm22.44,39.36c4.92-1.8,7.2-5.64,9.72-9.72C468.92,299.84,464.84,303.92,464.36,308.12Z"/><path class="cls-1" d="M553,333.92a7.59,7.59,0,0,1-7.2,7.8c-4.2.12-8-3.84-8-8.28a7.59,7.59,0,0,1,7.2-7.8C549.2,325.52,552.92,329.36,553,333.92ZM545.12,331a2.29,2.29,0,0,0-2.16,2.4c0,1.56,1.44,3.12,2.76,3s1.8-1.08,1.92-2.28A2.71,2.71,0,0,0,545.12,331Z"/></g><g id="Window1"><path class="cls-1" d="M255.32,283.35q102.6.54,205.2,1.2h1.92c2.28.12,2.88.6,3.36,2.76,4.2,15.24,8.28,30.48,12.48,45.72q32.58,118.62,65.28,237.36a31.37,31.37,0,0,1,.72,3.24c.12,2.16-1.44,3.6-3.24,2.64a5,5,0,0,0-3.72-.24,24.1,24.1,0,0,1-3,.12q-81.18.54-162.24,1.2l-239.16,1.8h-3.24c-3.72-.12-4.2-.48-5.16-4.08-5.16-19.08-10.44-38.28-15.6-57.48Q78.14,403.83,47.24,290.07a15.65,15.65,0,0,0-1.92-3.72c-1.2-1.92-.6-3.72,1.68-4.2a21.85,21.85,0,0,1,4-.12l183.84,1.08h20.64A.37.37,0,0,0,255.32,283.35Z"/><path class="cls-3" d="M418.92,454.28A28.14,28.14,0,1,1,447,426.2,28.12,28.12,0,0,1,418.92,454.28Z"/><path d="M335.94,581q-103.5.54-206.88,1.2h-1.32c-4.08,0-4.92-.72-6-4.56-5.88-21.72-11.76-43.32-17.64-65Q73.32,399.15,42.66,285.63a30.05,30.05,0,0,1-.84-3.12c-.36-1.92.24-3,2.16-3.36a18.07,18.07,0,0,1,3.6-.12q170.64.54,341.28,1c24.36.12,48.6.12,73,.12h2.64c2.28.12,2.88.72,3.6,3Q483,337.29,497.94,391.59q25,90.9,50.16,181.92c1.44,5.28.12,6.36-4.92,6.36-68.88.24-138.12.6-207.24,1.08Zm-288-296.76c26.52,98,52.8,195.24,79.2,292.68,138.72-.72,277.2-1.56,416.16-2.28-26.64-96.72-53.28-192.84-79.8-289.2C324.9,284.91,186.66,284.55,47.94,284.19Z"/><path d="M199.5,494.19H123.3c-6.48,0-6.48,0-7.92-6.36-9.12-38.76-18.12-77.52-27.24-116.16a31.37,31.37,0,0,1-.72-3.24c-.24-2,.6-3.36,2.64-3.72a18.58,18.58,0,0,1,2.64-.12l152.88-.72c5.16,0,5.76.48,7.08,5.64,6.36,25.32,12.84,50.76,19.2,76.08,3.6,14,7.08,28.08,10.68,42.12a7.33,7.33,0,0,1,.36,1.56c.6,3.12-.48,4.56-3.6,4.92a29.24,29.24,0,0,1-3.24.12c-25.56-.12-51-.12-76.56-.12Zm71-5.4a5.2,5.2,0,0,1,.12-.6c-28.8-19.08-57.72-38.28-86.4-57.24-5.88,4.56-59.52,55.8-60.72,58Q197.16,488.73,270.54,488.79Zm5.4-3.48c.12-.12.36-.24.48-.36-9.6-37.92-19.2-75.72-28.92-114.24-20,19-39.6,37.44-59.52,56.28C217.5,446.55,246.66,465.87,275.94,485.31ZM94,371c-.24.12-.36.24-.6.36,8.76,37.44,17.52,75,26.4,112.92,20.16-19.08,39.84-37.68,59.76-56.52C150.78,408.63,122.46,389.79,94,371Zm9-1.2-.36.72q40.32,26.82,80.88,53.64c19.32-18.24,38.4-36.36,57.6-54.48a1.71,1.71,0,0,1-.24-.72Q172,369.27,103,369.75Z"/><path d="M294.66,427.59a17.15,17.15,0,0,1,.72-2.52l15.12-41.76a12.11,12.11,0,0,1,.84-1.8,2.4,2.4,0,0,1,3.84-.72,20.45,20.45,0,0,1,2.28,2.28c7,8.28,13.92,16.44,20.88,24.72a3.18,3.18,0,0,1,.6.72c2.28,3,1.92,4.56-1.56,6-11,4.56-22.2,9.12-33.36,13.56a63.25,63.25,0,0,1-6.12,2.28C296,431.19,294.66,430,294.66,427.59Z"/><path d="M230.22,537.51H140a18.16,18.16,0,0,1-3.6-.24,2.22,2.22,0,0,1-2-2.52,2.32,2.32,0,0,1,2-2.28,21.94,21.94,0,0,1,4-.24c41.4-.12,82.92-.36,124.32-.48,18.84-.12,37.68-.12,56.64-.24a29.24,29.24,0,0,1,3.24.12,2.36,2.36,0,0,1,2.16,2.4,2.28,2.28,0,0,1-2.16,2.4,29.24,29.24,0,0,1-3.24.12h-91A3.38,3.38,0,0,0,230.22,537.51Z"/><path d="M445.14,404.07c-.84,3.24-1.68,6-2.4,8.88-1.44,5.28-2.16,5.64-7.32,3.6-1.8-.72-3.6-1.32-5.76-2.16-.84,3.12-1.68,5.88-2.52,8.64a26.06,26.06,0,0,1-.84,2.88c-.84,2.52-1.8,3.12-4.44,2.64s-5-1.2-7.68-1.68a15.74,15.74,0,0,1-1.8-.36c-.72,2-1.32,4-1.92,5.88l-.72,2.16a2.53,2.53,0,0,1-3.12,1.68,2.59,2.59,0,0,1-1.68-3.36c1-3.24,1.92-6.48,3.12-9.6.72-2,1.92-2.64,4.08-2.16,3.12.6,6.12,1.44,9.6,2.16.84-2.88,1.68-5.64,2.52-8.52.36-1.32.72-2.76,1.2-4.08.84-2,2-2.64,4.08-1.92,2.52.84,5,1.92,8,3,.36-1.2.72-2.28,1.08-3.36.72-2.64,1.32-5.28,2.16-7.92.72-2.4,2.16-3.12,4.56-2q5.76,2.52,11.52,5.4c1.8,1,2.4,2.28,1.68,3.72s-2,1.8-4,1C451.5,407.07,448.62,405.63,445.14,404.07Z"/><path d="M303.78,473.43c-1.44-.84-2.76-1.56-3.84-2.28q-3.78-2.7-1.08-6.48a28.59,28.59,0,0,1,2.64-3.24l-2.76-2.76c-2.88-3-2.88-5.4-.24-8.64a30.87,30.87,0,0,1,3.36-3.48c1.32-1.2,2.76-1.2,3.84-.12s1,2.28-.24,3.84c-1.08,1.32-2.28,2.52-3.72,4.08l3.72,3.36c2.16,1.92,2.4,3.6.84,6-.72,1.2-1.56,2.28-2.52,3.6a19.64,19.64,0,0,0,2.64,1.44c3.84,1.92,4.32,3.36,2.16,7.2a18.06,18.06,0,0,0-1.32,2.64c-.12.12,0,.48,0,.84,1.2.48,2.52,1,3.84,1.44a6.37,6.37,0,0,1,2,1,2.22,2.22,0,0,1,1.08,2.76c-.36,1.2-1.32,2-2.4,1.68a64.38,64.38,0,0,1-9.24-3.12c-1.68-.72-1.92-2.76-1.08-4.92C302.22,476.55,303.06,475.11,303.78,473.43Z"/><path d="M439.26,303.51a7.15,7.15,0,0,1,7.44-7.32,8.34,8.34,0,0,1,7.68,8.16,7.4,7.4,0,0,1-7.32,7.56A8.08,8.08,0,0,1,439.26,303.51Zm7-1.92c-1.2,0-1.68.84-1.8,2.16a3,3,0,0,0,2.4,3,2.11,2.11,0,0,0,2.16-2.28A2.82,2.82,0,0,0,446.22,301.59Z"/><path d="M429.78,304.11a6.93,6.93,0,0,1-6.72,7.32,7.92,7.92,0,0,1-7.68-7.8,7.18,7.18,0,0,1,6.84-7.32A7.66,7.66,0,0,1,429.78,304.11Zm-5.28.6c0-1.92-1-3-2.16-3s-1.68,1-1.68,1.92c0,1.2,1.08,2.64,2.16,2.4C423.54,305.91,424.14,305,424.5,304.71Z"/><path d="M399.78,310.71a7.25,7.25,0,0,1-7.44-7.08,7.43,7.43,0,0,1,7.08-7.56,7.29,7.29,0,0,1,7.68,7.32A7.51,7.51,0,0,1,399.78,310.71Zm-.6-9.36c-.36.48-1.32,1.08-1.56,1.92s.84,2,1.92,2a2,2,0,0,0,2-1.68C401.7,302.55,401,301.47,399.18,301.35Z"/><path d="M142.86,551.43h-1.32a2.57,2.57,0,0,1-2.4-2.28,2.48,2.48,0,0,1,1.92-2.64,13,13,0,0,1,2.28-.36l16-1.08a7.93,7.93,0,0,1,2.88.36,2.07,2.07,0,0,1,1.56,2.52c-.24.84-1.08,1.44-1.8,2.16-.24.24-.84.24-1.2.24Z"/></g><g id="Accent"><path d="M136.56,672c-45.24.48-83.4,1-121.44,1.32a18.16,18.16,0,0,1-3.6-.24,2.14,2.14,0,0,1-1.8-2.4,2.22,2.22,0,0,1,1.92-2.28,18.16,18.16,0,0,1,3.6-.24l96.84-1.08c43.68-.48,87.24-1,130.92-1.32h3.6a2.54,2.54,0,0,1,2.64,2.4c.12,1.56-1,2.4-2.4,2.64A23.12,23.12,0,0,1,244,671C205.68,671.32,167.52,671.8,136.56,672Z"/><path d="M951.84,873.64c2-1.56,4-3.12,5.88-4.68,2.52-2,5-4.2,7.56-6.24,3-2.4,3.72-2.4,6.48,0s5.52,4.92,8.28,7.32l2.52,2.16c4-2.76,7.8-5.52,11.64-8.16.84-.6,1.8-1.2,2.64-1.92a3.13,3.13,0,0,1,4.2.24c5.52,4.8,11,9.48,16.56,14.4,1.44,1.32,1.56,2.64.6,3.72s-2.52,1.32-4.08,0c-4.2-3.6-8.4-7.2-12.6-10.92-.84-.72-1.8-1.56-2.88-2.4-3.84,2.76-7.56,5.4-11.28,8a29.11,29.11,0,0,1-2.4,1.68c-2.28,1.44-3.36,1.44-5.52-.48-3-2.64-6-5.4-9-8-.6-.48-1.2-1-1.92-1.56-.84.6-1.56,1.08-2.28,1.68-3.72,3-7.44,6.12-11.16,9.12-2.4,1.92-3.24,2-5.88.36-3-1.8-5.88-3.72-8.88-5.52a33.56,33.56,0,0,0-3-1.68c-2.28,2.64-4.56,5-6.84,7.56-1.8,1.92-3.48,4-5.28,5.76-1.44,1.44-2.88,1.56-4,.48s-1.08-2.4.24-3.84c4.32-4.92,8.64-9.72,13.08-14.52,1.44-1.56,2.64-1.68,4.68-.48,3.24,1.92,6.48,4,9.72,6A30,30,0,0,0,951.84,873.64Z"/><path d="M622.08,302.2c1.8.12,2.76.84,3,2.16a7.27,7.27,0,0,1,0,2.28,5.25,5.25,0,0,0,3.12,5.28c1.8.84,3.84,1.56,5.76,2.28,1.32.48,2.52.84,2.88,2.28.36,1.68-.6,2.64-1.8,3.48a13.5,13.5,0,0,0-5.52,7.8c-.24.6-.36,1.2-.6,1.92-.48,1.44-1.08,2.64-2.76,2.76s-2.4-1-3-2.16c-1.92-3.72-5-5.88-8.76-7.44a11.67,11.67,0,0,1-3.48-2.28c-1.44-1.56-.84-3.72,1.2-4.08,5.64-.84,6.6-5.28,7.56-9.6.24-1,0-2,.48-2.88A13.19,13.19,0,0,1,622.08,302.2Zm-2.76,17c2,1.56,4,3,5.88,4.32,1.2-1.92,2.28-3.6,3.36-5.52-2-1.2-4-2.28-5.88-3.24C621.6,316.36,620.52,317.8,619.32,319.24Z"/><path d="M254.76,194.2a2.49,2.49,0,0,1,2.52,2.16c.24,1.2.24,2.4.48,3.6a6,6,0,0,0,4.8,5.52c.6.12,1.32.36,1.92.48,1.56.36,3,.84,3.12,2.76.12,1.68-1.2,2.4-2.4,3.12a21.55,21.55,0,0,0-4.08,3.12,23.87,23.87,0,0,0-2.76,4.32,17.18,17.18,0,0,1-1.44,2.52c-1.56,2.28-3.84,2-5.16-.24a11.26,11.26,0,0,1-.72-1.8c-1.68-3.36-3.72-6.12-7.56-7.08-1.44-.36-2.76-1.08-2.76-2.76s1.32-2.52,2.64-2.88c4.8-1.44,7.2-4.92,8.52-9.48C252.6,195.16,253.44,194.2,254.76,194.2Zm3.72,15.72-4.56-4.2c-1.32,1.44-2.64,2.88-4,4.2,1.56,1.8,3,3.36,4.56,4.92C256,213.16,257.28,211.48,258.48,209.92Z"/><path d="M61.32,470.56a19,19,0,0,1-1.92,2.64c-3.36,2.52-6.12,5.52-7.32,9.72a2.71,2.71,0,0,1-5.28.12c-1.32-4.08-4.44-6.6-7.68-9.12A16.46,16.46,0,0,1,37,472c-1-1.44-.48-3.48,1.08-3.72,4.2-.6,5.76-4,7.68-6.84a9,9,0,0,1,.84-1.44,2.82,2.82,0,0,1,3-1.56,2.7,2.7,0,0,1,2,2.64v1c-.12,2.64,1.44,4.2,3.84,5a15.7,15.7,0,0,1,3.36,1.08A15.17,15.17,0,0,1,61.32,470.56ZM47.64,468c-1.08,1.2-2,2.16-2.52,2.76,1.44,1.8,2.76,3.48,4.2,5.28,1.2-1.56,2.28-2.88,3.36-4.2C50.88,470.56,49.32,469.36,47.64,468Z"/><path d="M8.52,421.72a8.4,8.4,0,0,1,.12,16.8,8.4,8.4,0,1,1-.12-16.8ZM11.64,430a3.58,3.58,0,0,0-3.24-3.12,3.18,3.18,0,0,0-3,3.24,3.58,3.58,0,0,0,3.24,3.12A3.27,3.27,0,0,0,11.64,430Z"/><path d="M223.8,237.52c4.32,0,7.68,2.88,7.68,6.84s-3.6,7.56-7.92,7.68a7.35,7.35,0,0,1-7.68-6.84A7.87,7.87,0,0,1,223.8,237.52Zm2.28,6.36a6.28,6.28,0,0,0-2.4-1,2,2,0,0,0-2.4,1.92c0,1.32,1.08,1.8,2.16,1.8A2.55,2.55,0,0,0,226.08,243.88Z"/><path d="M277.44,668.08c1.68,0,3.48-.12,5.16,0,2,.12,3.24,1.2,3.24,2.52s-1.2,2.52-3.12,2.52c-3.48.12-7,.12-10.44.12-.48,0-.84-.12-1.32-.12a2.62,2.62,0,0,1-2.52-2.52c-.12-1.32,1-2.4,2.76-2.52,2-.12,4.08,0,6.12,0Z"/><path d="M548.16,392.92a17.84,17.84,0,0,1-1,2.76c-1.08,2.4-2,4.8-3.24,7.08a2.69,2.69,0,0,1-3.84,1.2c-1.2-.72-1.44-1.92-.72-3.72,1.2-2.52,2.28-5.16,3.48-7.68a9,9,0,0,1,.84-1.44c.84-1,1.92-1.32,2.88-.6A16.48,16.48,0,0,1,548.16,392.92Z"/><path d="M548.88,399.4c.24-1.8.48-4,1-6s1.68-2.88,3.12-2.52,2.16,1.44,1.92,3.24c-.24,2.16-.6,4.32-1,6.48s-1.44,3-3,2.76S548.76,402,548.88,399.4Z"/><path d="M538.56,387.76c1.92,0,3.36,1.8,2.52,3.12a58.78,58.78,0,0,1-5.4,6.84,2.06,2.06,0,0,1-3.12-.24,3.57,3.57,0,0,1-.36-2.88,70.17,70.17,0,0,1,4.56-5.88C537.24,388.12,538.08,388,538.56,387.76Z"/></g><g id="Keyboard"><path class="cls-1" d="M683.93,624.12H766c1.68,0,3.24-.12,4.92-.12a10.29,10.29,0,0,1,2.64.24c1.32.24,2.4,1.08,2.28,2.4a3.58,3.58,0,0,1-1.68,2.4,5.73,5.73,0,0,0-3.36,2.88c-9,13.92-19.44,26.88-29.52,40a7.24,7.24,0,0,1-6.36,3.12c-19.68,0-39.24.24-58.92.48-27,.24-54.12.36-81.12.72-9.72.12-19.44.48-29.16.72-6,.12-5.64-1.2-6-6.12a8.74,8.74,0,0,1,2.28-6c3.72-4.56,7.32-9.24,11-13.8,5.64-7,11.4-13.8,17-20.76a5,5,0,0,0,1-2.64,2.77,2.77,0,0,1,2.76-2.64c2.16-.12,4.32-.12,6.48-.12,21.48-.12,43-.24,64.44-.24h19C683.93,624.48,683.93,624.36,683.93,624.12Z"/><path d="M685.1,619.84c29.28-.24,58.68-.6,88-.84h1.68a4.3,4.3,0,0,1,3.72,6.24,17.15,17.15,0,0,1-1.68,2.4C766.34,642,755.9,656.44,745.7,671c-3.24,4.68-7.44,6.72-13,6.84h-1.92l-167.16-.36c-1.68,0-3.6.48-4.92-1.2-1.68-2-3.24-4.2-3-7a7.84,7.84,0,0,1,1.56-4.2c10.68-13.56,21.6-27.12,32.28-40.8a8.55,8.55,0,0,1,7.2-3.6c29.4-.12,58.92-.48,88.32-.84ZM564,665.2h3.36q82.26-.36,164.52-.6a5.7,5.7,0,0,0,4.8-2.16l31.68-35.28c.72-.72,1.32-1.56,2.4-2.88H766.7q-84.42.9-168.84,1.68a5.67,5.67,0,0,0-4.92,2.4c-8.88,11.28-17.88,22.56-26.76,33.84C565.58,663,565.1,663.88,564,665.2Zm169.92,4.56c-57.48.24-114.84.36-172.44.6,1,2.52,2.76,1.8,4.08,1.8l164.28.36a23.12,23.12,0,0,0,2.88-.12C734.3,672.28,734.54,671.44,733.94,669.76Zm13.8-10.8-.48-.48-7.2,7.92c-.84.84-.84,1.8,0,3.24C742.82,665.92,745.34,662.44,747.74,659Z"/><path d="M655.94,658.24H582.38a29.24,29.24,0,0,1-3.24-.12,2.69,2.69,0,0,1-2.4-2.64,2.57,2.57,0,0,1,2.4-2.28,18.58,18.58,0,0,1,2.64-.12q74-.18,147.84-.48a23.12,23.12,0,0,1,2.88.12c1.44.24,2.52,1,2.52,2.52a2.46,2.46,0,0,1-2.52,2.52,29.24,29.24,0,0,1-3.24.12H655.94Z"/><path d="M665.78,647.08h-71a29.24,29.24,0,0,1-3.24-.12,2.44,2.44,0,0,1-2.28-2.76,2.57,2.57,0,0,1,2.4-2.28,19.44,19.44,0,0,1,2.64-.12c47.88,0,95.76.12,143.64.12a14.74,14.74,0,0,1,3.24.24,2.24,2.24,0,0,1,1.8,2.4,2.14,2.14,0,0,1-1.92,2.28,18.16,18.16,0,0,1-3.6.24Z"/><path d="M674.66,637.36H603.74a29.24,29.24,0,0,1-3.24-.12,2.57,2.57,0,0,1-2.4-2.28,2.42,2.42,0,0,1,2.28-2.64,14.52,14.52,0,0,1,2.28-.12q72-.36,143.88-.6a14.9,14.9,0,0,1,3.24.36,2.24,2.24,0,0,1,1.8,2.4,2.43,2.43,0,0,1-2,2.28,29.24,29.24,0,0,1-3.24.12H674.66Z"/></g><g id="Woman"><path class="cls-1" d="M815.48,383.25c-3.12-.24-6-.24-8.76-.72a52.14,52.14,0,0,1-8.52-2.16,17.49,17.49,0,0,1-11.4-11.76,55.28,55.28,0,0,1-2.52-22.56c1.08-11.76,3.72-23.28,6.24-34.68.24-1.32.72-2.76,2.16-2.88,1.68-.12,2.16-1.32,2.76-2.4a32.1,32.1,0,0,1,7.2-8.88c6.72-5.52,13.56-5.88,20.64-.72a56.49,56.49,0,0,1,4.92,4.2c2.16,2,4.2,4.2,6.12,6.36,8.28,9.84,17.88,18.12,28.08,25.8a79.67,79.67,0,0,1,7.68,6.6c7.92,8,7.2,19.2-1.56,26.4a19.83,19.83,0,0,1-10.32,4.68,3.91,3.91,0,0,0-3.72,3.72c-.72,4.92-1.32,10-2,14.88-.24,2-.48,4.08-.84,6.12a5.69,5.69,0,0,1-4.08,4.56A109,109,0,0,1,827,403.89a9.72,9.72,0,0,1-2.64,0c-4-.36-5.4-1.68-6.12-5.52-.84-4.32-1.56-8.52-2.4-12.84A3.27,3.27,0,0,0,815.48,383.25Z"/><path class="cls-1" d="M630.68,462.57c-6.12,4.08-9.84,9.36-12.84,15.48a27.07,27.07,0,0,1-1.32,2.64c-1.44,2.4-3.48,2.76-5.76,1.08a10.82,10.82,0,0,1-1.2-1.08,110.5,110.5,0,0,1-13.2-14.88A12.06,12.06,0,0,0,592,462c-6.24-2.88-10.92-7.08-13.68-13.44a5.54,5.54,0,0,0-.84-1.2H574.4c-2.16,0-3.36-.72-4-2.76a16.73,16.73,0,0,1-.12-10.56,6.37,6.37,0,0,1,5.16-4.44c.6-.12,1.2-.24,2.16-.36.12-1.08.12-2.16.24-3.24a30.87,30.87,0,0,1,.6-4.8c1.08-4.32,3.6-6.24,9-6.84a20,20,0,0,1-1-2.4c-2.4-5.76-4.92-11.64-7.32-17.52a13.15,13.15,0,0,1-.72-3.12,2.54,2.54,0,0,1,1.68-2.88,2.63,2.63,0,0,1,3.24.84,21.82,21.82,0,0,1,1.8,2.76,62.59,62.59,0,0,0,19.68,22.92,24.59,24.59,0,0,1,10.56,16.92,28.25,28.25,0,0,0,8.64,16.44c4.08,4,8,8,12,12.12a24.49,24.49,0,0,1,2.76,3.24c1,1.44.72,3-.48,3.72a2.49,2.49,0,0,1-3.48-.6C633.32,465.33,632,464,630.68,462.57Z"/><path class="cls-1" d="M774.68,630.81c-1.8,2.16-3.6,4.2-5.4,6.24a17.05,17.05,0,0,1-7.44,5.16c-4.56,1.44-6.72-.36-6.12-5a10.06,10.06,0,0,0,0-1.92h-3.24c-4.92-.12-6.24-1.8-5-6.48-.12-.24-.12-.48-.24-.6-3.6-3.12-4.08-5.16-1.08-8.88a40.22,40.22,0,0,1,7.08-7.2c9.84-7.68,20.64-12.48,33.48-11.52a38.28,38.28,0,0,1,6.48.84c4.68,1.2,9,.36,13.32-1.32l1.44-.72c2.28-1,3.6-.6,4.2.84s0,2.64-2,3.84a7.86,7.86,0,0,0-1.56,1,29.32,29.32,0,0,0,5,8c1.68,2,3.48,3.84,5.16,5.88,2.76,3.36,2.4,5.64-1.44,7.56-6.12,3-12.36,5.88-18.6,8.76-8.16,3.84-15.72,2.4-22.44-3.36a6.59,6.59,0,0,1-1.08-.84C775.28,630.93,775,630.93,774.68,630.81Z"/><path class="cls-4" d="M853.9,560.59h-73c-.36-2.16-.84-4.2-1.08-6.36-1.08-10.44-3.84-17.52-6.48-27.72-1.08-4.2-2.88-7.08-6.84-9.12-4.8-2.4-7.8-6.84-10.44-11.52-1-1.68-1.92-3.36-3-5.28l-3,3.36c-9.72,11.88-19.32,23.88-29.28,35.64-3.36,4-7.2,7.56-10.92,11.28a25.32,25.32,0,0,1-2.76,2.28c-7.92,6-18,5.28-25.44-1.2-6.84-5.88-14-11.4-20.88-17.28-13.92-11.88-27.72-24-41.64-35.88-2.28-2-4.68-4-7-5.88a4.14,4.14,0,0,1-1.68-4c.6-5.64,2.76-10.68,5.64-15.6A43.83,43.83,0,0,1,631.9,458c3.36-1.92,6.48-2,9.84.12,10.44,6.72,21,13.2,31.56,19.8,5.88,3.72,12,7.2,18,10.68,1.08.6,2.16,1.08,3.36,1.68a25.14,25.14,0,0,0,1.68-2c10.2-14.52,20.28-29.28,30.72-43.56,7.56-10.44,15.6-20.52,23.64-30.48a62.24,62.24,0,0,1,13.8-12.48,33.46,33.46,0,0,1,16.92-6.24c10-1,20-1.68,30-2.52.6,0,1.08-.12,1.68-.12,2.88.12,4.32,1.08,4.56,4,.24,2.28,1.44,3.24,3.36,3.84a28.58,28.58,0,0,0,26.64-4.2c3.48-2.52,6.48-3.72,10.92-3.12,12.48,1.8,25.08,3.48,37.32,6.6,3.72,1,7.32,2.16,10.92,3.24a24.34,24.34,0,0,1,13,10c4.08,5.88,5.88,12.6,7.08,19.44,1.92,10.68,1.44,21.48.36,32.28-1.92,19-3.72,37.92-5.76,57-1,9.48-2.16,18.84-3.72,28.2-1.68,10.44-7,19.2-14.28,26.76-6.36,6.6-13.8,11.76-21.24,16.8l-13.68,9c-10.2,6.72-19.56,14.64-29,22.32-1.92,1.56-4,3.12-5.88,4.68a3.79,3.79,0,0,1-4.8.36c-2.16-1.44-4.68-2.28-7-3.48C813,622,808.18,614.23,805.3,605.11c-1.68-5.28.24-8.52,5.28-11.16,7.8-4.08,15.72-8.16,23.28-12.72s13.56-11.16,20.28-16.92C854.14,564.19,854,561,853.9,560.59Z"/><path d="M887.48,300l1.44,2.52a50.8,50.8,0,0,1,8.4,26.16,110.7,110.7,0,0,1-.48,16.68c-.48,4.92-2.76,9.36-5.76,13.32a47,47,0,0,1-12.48,11.88c-2.88,1.8-5.76,3.48-8.64,5.4-4.92,3.12-9.72,6.12-14.52,9.24.12,2.28.24,4.08.36,6a14.46,14.46,0,0,1,0,2.28,2.31,2.31,0,0,1-2.4,2.28,2.38,2.38,0,0,1-2.52-2.16c-1.2-8.28-1.44-16.56,2.76-24.24a35,35,0,0,1,2.52-3.36,4.29,4.29,0,0,1,5.16-1.68c2.28.84,4.56,0,6.48-1.44a12.88,12.88,0,0,0,4-15,7.32,7.32,0,0,0-8.16-4.56,5.65,5.65,0,0,0-4.32,3,47.24,47.24,0,0,1-4.2,6.6A25.39,25.39,0,0,1,850.4,357a3.27,3.27,0,0,1-4.2-.12c-1.2-1.08-1.08-2.52-.6-4,.72-2.16,1.44-4.32,2-6.6.12-.6.12-1.32.24-2.28-6.6-2.28-13.32-4.56-18.84-9.24a50,50,0,0,1-12.84-16.32,65.44,65.44,0,0,1-6.48-20.4,6.26,6.26,0,0,0-1.8.72,90.68,90.68,0,0,0-16.2,15.6,7.72,7.72,0,0,0-1.32,3.24,144.6,144.6,0,0,0-3.48,40,26.73,26.73,0,0,0,7,17.16c4.68,5,10.68,6.48,17.28,5.64a49.33,49.33,0,0,0,14.4-4,18.21,18.21,0,0,1,3.36-1.08,2.34,2.34,0,0,1,2.76,1.68,2.27,2.27,0,0,1-1.44,3c-2.28,1-4.68,1.92-7,2.76-1,.36-2,.84-3,1.2.36,4.44.84,8.76,1.2,13.08a14.52,14.52,0,0,1,.12,2.28,2.22,2.22,0,0,1-1.92,2.28A2.46,2.46,0,0,1,816.8,400a12.32,12.32,0,0,1-.6-2.88c-.24-2.88-.48-5.88-.84-8.76-.12-1.08-.36-2-.6-3.36-1.32.12-2.4.24-3.48.36-10.8,1.44-20.16-3.12-25.56-12.6a30.12,30.12,0,0,1-4.32-14.88c.12-7.92-1.32-15.6-2.28-23.4-1.2-9.24-1.8-18.48-.36-27.72,1.2-8.64,5.28-15.84,11.4-22,4-4,9-6,14.4-7.32,1.32-.36,2.64-1.08,4-1.44,3.12-1,6.12-2.28,9.36-2.88,11.4-2,15.84-1.92,28.68-.24-.24-1.2-.48-2.4-.72-3.48-2.64-13.08,4.2-25.68,16.56-29.64a118,118,0,0,1,16-3.48,26.15,26.15,0,0,1,13.56,1.44c13.56,5.16,22.68,14.4,25.32,29.16a23.92,23.92,0,0,1-5,19.32c-5.4,6.72-12.6,10.56-21,12.36l-3.24.72C888,299.59,887.84,299.71,887.48,300Zm-32.64-24.6a56.62,56.62,0,0,1-1.92-6,35.47,35.47,0,0,1-.72-6.12c-.12-1.8,0-3.6,0-6C849.56,263.23,851,273.07,854.84,275.35Z"/><path d="M577.28,451.15c-6.36,1.32-9.6-.72-10.32-7.08-1-7.8.84-14.88,6.6-20.64a6.53,6.53,0,0,0,1.32-2.16,11.24,11.24,0,0,0,.48-1.92c1.08-4.08,3.12-7.44,8.16-8.28-.6-1.2-1.2-2.28-1.68-3.36-2.16-5.28-4.44-10.68-6.48-16.08a14,14,0,0,1-.48-4.56,5.06,5.06,0,0,1,3.24-4.8c2.16-.72,3.84.12,5.28,1.56a18.57,18.57,0,0,1,2.88,4,52.58,52.58,0,0,0,15.24,17.64c2.64,2,5.16,4.44,7.8,6.6a22.07,22.07,0,0,1,8.28,15.12,8.26,8.26,0,0,1,.24,1.56c-.12,5.76,2.52,10.08,6.72,13.92,3.72,3.48,7.2,7.2,10.8,10.92a11.4,11.4,0,0,1,1.92,2.28,2.43,2.43,0,0,1-.6,3.24,2.22,2.22,0,0,1-3,0,6.86,6.86,0,0,1-1-.84c-5.52-5.76-11-11.52-16.68-17.16a11,11,0,0,1-2.76-6.12c-.36-2.76-.84-5.4-1.08-8a15.72,15.72,0,0,0-5.52-10.08c-3.48-3-6.84-6-10.44-8.88a52,52,0,0,1-13.68-16.08,27.92,27.92,0,0,0-2-3.12l-.72.36c.6,2,1.2,4.08,1.92,6.12a100.59,100.59,0,0,0,11.4,21.6,8.51,8.51,0,0,0,2.16,1.92c1.32,1,2.64,1.92,4,3,1.44,1.32,1.68,2.88.72,4.08s-2.28,1.08-3.84.12c-2-1.32-4.08-2.88-6.24-4.2a17,17,0,0,0-3.48-1.2c-.12.24-.36.36-.48.6a25.42,25.42,0,0,0,1.68,3.72,28.44,28.44,0,0,0,10.56,10.44c1.8,1.08,2.28,2.4,1.44,3.72a2.81,2.81,0,0,1-4,1c-1-.48-1.8-1.2-2.76-1.8s-2-1.56-3.24-2.4a21.7,21.7,0,0,1-2.28,3,30,30,0,0,1-4,3.84c-2,1.56-2.4,2.52-1.92,5A18.51,18.51,0,0,0,590.84,460a18.06,18.06,0,0,0,2.64,1.32,14.74,14.74,0,0,1,6.84,5.28c4.08,4.92,8.52,9.36,12.84,13.92a11.4,11.4,0,0,1,1.92,2.28,2.42,2.42,0,0,1-.36,3.24,2.28,2.28,0,0,1-3.24,0c-.6-.48-1.08-1.08-1.68-1.56L595,468.31a5.78,5.78,0,0,0-2-1.44C585.56,463.63,579.92,458.83,577.28,451.15Zm8.4-19.32c-1.92-3.6-3.72-6.84-5.4-10.2-1.32,6.72-.72,13.08,1.68,15.84C583.28,435.43,584.6,433.51,585.68,431.83ZM577,441.91c-1.08-3.6-2-6.72-3-10.08-3,5.28-3.12,11.4-.36,14.4C575.72,445.39,576.08,443.35,577,441.91Z"/><path d="M746.36,624c1.56,1.08,2.64.6,3.72-1,1.68-2.4,3.36-4.8,5.16-7.2,3.36-4.56,7.56-7.44,13.44-7.56,1.56,0,3.24-.6,4.8-.72s2.64.36,3,1.92a2.44,2.44,0,0,1-1.92,3,32.42,32.42,0,0,1-5.76,1.08c-3.84.12-6.6,1.92-8.88,4.8-2.4,3.12-4.68,6.36-7,9.48-1.2,1.56-2.4,3-3.6,4.68,3.6.84,7.2-.6,8.4-3.36A18.78,18.78,0,0,1,767.12,619c1.2-.6,2.16-1.44,3.36-2a2.38,2.38,0,0,1,3.48.6,2.35,2.35,0,0,1-.36,3.48,18.28,18.28,0,0,1-4.08,2.64c-3.36,1.56-5.4,4.2-7,7.56s-3.36,6.72-5.28,10.56a13.78,13.78,0,0,0,8.76-5.76c1.56-2.28,2.88-4.56,4.44-6.84a17.15,17.15,0,0,1,1.68-2.4c1.92-2.28,3.24-2.4,5.4-.24,1.68,1.68,3.36,3.48,5,5.16,4.68,4.56,7.44,5.16,13.08,1.92a121.8,121.8,0,0,1,21.6-10.08,20.68,20.68,0,0,1,2.52-.84,2.43,2.43,0,0,1,2,4.32,13.68,13.68,0,0,1-2.28,1.2,123.92,123.92,0,0,0-21,9.84,23.08,23.08,0,0,1-3,1.44c-5.4,2.4-10.44,1.56-14.88-2.28-1.92-1.68-3.6-3.48-5.76-5.4-1.44,2.28-2.76,4.44-4.08,6.48A18.6,18.6,0,0,1,759,647a10.34,10.34,0,0,1-3.84.12c-3.48-.72-4.8-3.24-3.48-6.6l.84-1.68c-2.64-.24-5.16-.12-7-2.28s-1.68-4.32-.72-6.72c-5.64-4.2-5.76-6.48-.72-11.16a71.59,71.59,0,0,0,7.08-7.68,23.75,23.75,0,0,1,6.6-5.88c3.72-2,7.44-4.2,11.28-6a20.48,20.48,0,0,1,12.84-1.32c3.12.6,6.24,1.08,9.36,1.68a16.19,16.19,0,0,0,9.24-1,40.58,40.58,0,0,1,4.08-1.32,2.45,2.45,0,0,1,3.12,1.56,2.42,2.42,0,0,1-1.44,3c-4.32,1.8-8.64,3.72-13.56,3.12-3.72-.6-7.56-1.2-11.28-1.92a16.27,16.27,0,0,0-11.16,1.2c-4,2-7.8,4.32-11.64,6.6a3.4,3.4,0,0,0-1.2,1.08C753.68,615.79,750.08,619.87,746.36,624Z"/><path d="M802.28,346.87c.6,1,1.2,1.92,1.92,2.88a2.37,2.37,0,0,1-.36,3.48,2.61,2.61,0,0,1-3.6-.12,10.67,10.67,0,0,1-3.36-6.48,4.2,4.2,0,0,1,2.64-4.44c1.92-.84,2.28-2.4,2.4-4.2s.24-3.48.48-5.16,1.44-2.64,2.88-2.4,2.16,1.44,2.16,2.88-.12,3-.24,4.56C806.72,343.27,806.72,343.39,802.28,346.87Z"/><path d="M806.72,367.39c-1.92-.6-4-1.08-5.88-1.8a2.43,2.43,0,0,1-1.32-3.48,2.47,2.47,0,0,1,3.36-1.08c4.08,1.8,7.68.6,10.92-2.16a13.47,13.47,0,0,1,2.64-1.92,2.44,2.44,0,0,1,3.48.48,2.39,2.39,0,0,1-.24,3.24C816,364,812.12,367,806.72,367.39Z"/><path d="M817.28,340.63a17.76,17.76,0,0,1,1.2-3.6,3.44,3.44,0,0,1,6-.24,6.44,6.44,0,0,1,1.2,5.88c-.72,2.52-2.88,4.2-5,3.84S817.28,344.23,817.28,340.63Z"/><path d="M790.52,335.35c.72-1.56,1.2-3.24,2-4.68,1.2-2,3.24-2,4.92-.36,2.76,2.64,1.44,8.28-2.16,9.48C792.8,340.63,790.76,338.71,790.52,335.35Z"/></g><g id="Paper"><path class="cls-1" d="M809.44,672.28c-1.68-3.84-1.32-5.4,2.16-6.72,6.48-2.52,13.08-4.92,19.68-7.08q32.76-10.62,65.76-21a12.66,12.66,0,0,1,2.88-.72,4.29,4.29,0,0,1,2.52,1.08c1.32,1.08,2.4,2.4,3.84,3.48,24.72,17.52,49.56,34.92,74.28,52.44a45.71,45.71,0,0,0,4.8,2.76c1.92,1,2.28,2.76.6,4.2-1.08,1-2.52,1.8-3.84,2.76.36.72.72,1.32,1.08,1.92,1.2,2.28.84,3.6-1.32,4.92-1.8,1.08-3.72,1.92-5.52,2.88-23.64,12.72-47.28,25.32-70.92,38a16.13,16.13,0,0,1-2.88,1.44,5,5,0,0,1-3-.48c-11.64-9.12-23-18.24-34.68-27.36q-27.72-21.78-55.44-43.32c-1.32-1-2.4-2.16-4.32-1.44-.6.24-2-.6-2.28-1.2a3.58,3.58,0,0,1,.48-2.88c.36-.72,1.32-1.08,2.16-1.44A18,18,0,0,1,809.44,672.28Z"/><path d="M806,670.56a16.87,16.87,0,0,1-2.16-2c-1.32-1.56-1-3.36,1-4.32a23.83,23.83,0,0,1,3.12-1.08c29.88-9.12,59.88-18.24,89.64-27.48A9.38,9.38,0,0,1,907,637.2c26.4,19,52.92,37.68,79.44,56.52,4.44,3.12,4.56,4.32,1.32,8.88a11.2,11.2,0,0,1,1.8,1.56,3.56,3.56,0,0,1-.6,5.64,26.41,26.41,0,0,1-3.12,1.8q-37.8,20.52-75.48,41.16c-1.68,1-3.36,1.92-5,3a2.89,2.89,0,0,1-3.6,0c-.72-.48-1.44-1.08-2.16-1.56L803.08,680c-4.8-3.6-4.32-6,.6-8a7.65,7.65,0,0,0,1.68-1C805.72,671,805.72,670.92,806,670.56ZM983.68,698.4a7.83,7.83,0,0,0-1.2-1.08c-26.28-18.72-52.68-37.32-79-56a3.94,3.94,0,0,0-4-.48c-28.8,8.88-57.48,17.64-86.28,26.4a5.31,5.31,0,0,0-1.8,1c1,.72,1.56,1.32,2.28,1.8q43.56,34.2,87.24,68.52a4.18,4.18,0,0,0,5.16.48q37.26-19.44,74.52-38.76C981.64,699.6,982.6,699,983.68,698.4Zm0,8.52c-1.8-2-3.12-.84-4.56-.12-23.88,12.36-47.76,24.84-71.64,37.2a20.85,20.85,0,0,0-2.28,1.2,3.43,3.43,0,0,1-4.2-.36l-1.8-1.44L814,676.56c-1-.72-1.92-1.44-3-2.28-1.2.72-2.4,1.32-3.72,2.16A15.7,15.7,0,0,0,809.2,678l92,70.8c1.92,1.44,3.24,1.44,5.16.36q37.44-20.52,74.88-40.8C982,707.88,982.72,707.52,983.68,706.92Z"/><path d="M901.84,726.84c-.72-.6-1.8-1.08-2-1.8a4.55,4.55,0,0,1,.36-2.76c.24-.48,1-.84,1.56-1.2,14.52-8,28.92-16,43.44-23.88,2.52-1.32,5-2.52,7.56-3.72a4.19,4.19,0,0,1,2.16-.72,4.55,4.55,0,0,1,2.52,1.56c.36.6-.12,1.8-.48,2.64a3,3,0,0,1-1.56,1.08c-17,8-33.24,17.64-49.68,26.76C904.48,725.52,903.28,726.12,901.84,726.84Z"/><path d="M937.84,688.2a14.39,14.39,0,0,1-1.92,1.92c-1.44.84-3.12,1.44-4.68,2.28-12.6,6.12-25.2,12.36-37.8,18.48a8.38,8.38,0,0,1-2.4,1,2.35,2.35,0,0,1-2.88-1.56,2.4,2.4,0,0,1,.84-2.88,7.76,7.76,0,0,1,1.92-1.08c13.44-6.6,26.76-13.08,40.2-19.56a17.55,17.55,0,0,1,4-1.44C936.64,685,938,686.16,937.84,688.2Z"/><path d="M913.84,682.32c-.24,1.56-1.32,2.16-2.52,2.64-4.8,2.28-9.72,4.44-14.52,6.72-4,1.8-7.8,3.72-11.76,5.64-1.92.84-3.12.72-4-.72s-.36-2.76,1.32-3.84l1.44-.72,24.84-11.52a7.63,7.63,0,0,1,2.16-.72A2.44,2.44,0,0,1,913.84,682.32Z"/></g><g id="Pen"><path class="cls-1" d="M920.7,646.39c15,.84,30,1.8,45,2.64,3.6.24,7.32.72,11-.36,1.32-.36,3.12.48,4.68,1.08a2.23,2.23,0,0,1,1.2,2.76,4.25,4.25,0,0,1-1.92,1.92,5.84,5.84,0,0,1-2.52.24c-7.44-.24-14.76-.48-22.2-.84l-38.52-2.16a58.39,58.39,0,0,0-6.48.12c-1.92.12-3-.48-3.36-1.92s.6-2.76,2.52-3.24a21.8,21.8,0,0,1,3.84-.36c2.16-.12,4.44.12,6.72.12Z"/><path d="M971.63,659.28l-13.08-.72c-15.48-.72-31-1.56-46.44-2.16-3.72-.12-6.72-1.32-9-4.44-2-2.76-1.92-4.68,1-6.6a28.28,28.28,0,0,1,4.56-2.64A8.47,8.47,0,0,1,912,642c21,1.08,42,2.28,63,3.48,2.76.12,5.64.36,7.8,2.76.72.84,2.4.72,3.72,1,3.24.48,4.44,2.16,3.72,5.16a3.37,3.37,0,0,1-3.36,2.88H985c-3.36-.36-5.64,1.32-7.08,4.08a7.58,7.58,0,0,1-6.24,4.2c-5.16.36-10.44.24-15.72.24a2.39,2.39,0,0,1-2.52-2.52,2.46,2.46,0,0,1,2.52-2.52c2-.12,4.08,0,6.24,0,2.64,0,5.28-.12,7.8-.24a10,10,0,0,0,1.8-.48A1.52,1.52,0,0,1,971.63,659.28Zm-63.36-10c.84,1.8,2.28,1.68,3.72,1.8,5.88.24,11.76.48,17.64.84,15,.72,30.12,1.56,45.12,2.28.6,0,1.32.12,1.92.12,1.2-.12,2.16-.84,2-2s-1.08-1.44-2.16-1.44a14.52,14.52,0,0,1-2.28-.12c-6.36-.36-12.6-.6-19-1-13.92-.72-27.84-1.56-41.76-2.28A5.36,5.36,0,0,0,908.27,649.32Z"/></g><g id="Lamp"><path class="cls-1" d="M1043.08,119.6c28.2.48,52.68,8.16,73.8,25.32,15.6,12.72,26.4,28.56,31.44,48.24.12.48.24,1.08.36,1.56.72,3.6.12,4.44-3.6,4.56-9.24.36-18.48.72-27.72.84q-74.16,1.26-148.44,2.28c-7.56.12-15,.24-22.56.48a5.55,5.55,0,0,0-3,1c-1,.6-1.8,1.2-3,.6a2.82,2.82,0,0,1-1.44-3,91.52,91.52,0,0,1,2-10c6.24-22.56,19.68-39.84,39-52.68a111.81,111.81,0,0,1,52.2-18.24C1036.24,120,1040.2,119.84,1043.08,119.6Z"/><path class="cls-3" d="M1045.76,233.52c-13.32-.6-23.88-5.4-31-16.56-2-3.12-3.24-6.84-4.68-10.32-.6-1.44.12-2.76,1.2-3.84s2-.6,3.36-.12a8.45,8.45,0,0,0,3.48.48c18.84-.48,37.68-1.08,56.52-1.56H1076c2.52,0,3.84,1.2,3.36,3.6a45.41,45.41,0,0,1-2.88,10c-4.92,10.08-13.32,15.48-24.12,17.64A52.18,52.18,0,0,1,1045.76,233.52Z"/><path d="M1074.74,234c.84.36,1.44.36,1.8.72,2.64,1.92,5.16,3.84,7.68,5.88a3.27,3.27,0,0,1,1,1.92,2.4,2.4,0,0,1-3.72,2.16c-2.88-1.92-5.64-4.08-8.28-6.24a1.91,1.91,0,0,1-.48-2.88A5.8,5.8,0,0,1,1074.74,234Z"/><path d="M1007.42,251.28c-2.28-.12-3.36-1.92-2.28-3.84a39.22,39.22,0,0,1,3.36-4.44,41.36,41.36,0,0,1,3.12-3.36c1.08-1,2.28-1.32,3.48-.36a2.39,2.39,0,0,1,.36,3.48c-1.32,1.8-2.88,3.48-4.44,5.28a20.54,20.54,0,0,1-2.16,2.4A2.29,2.29,0,0,1,1007.42,251.28Z"/><path d="M1039,250.44c-.12-1.44-.12-2.76-.24-4.2a2.4,2.4,0,0,1,1.92-2.64,2.32,2.32,0,0,1,3,1.8,73.68,73.68,0,0,1,.24,10.32,2.31,2.31,0,0,1-2.88,2,2.45,2.45,0,0,1-2.16-2.76c.12-1.56.12-3.12.12-4.56Z"/><path d="M1017.7,117.8c-1.44-10,.6-19,6.36-26.76,3.84-5.16,8-10,12.36-14.76a7.7,7.7,0,0,0,2.16-5.16c.24-22,.6-43.8.84-65.76a9.63,9.63,0,0,1,.24-3.24,4,4,0,0,1,2.16-2A2.15,2.15,0,0,1,1044.46,2a24,24,0,0,1,.24,4.2c0,1.2,0,2.4-.12,3.6a7.47,7.47,0,0,0,1.68,5.4,90.4,90.4,0,0,1,10.44,18.48c3.24,7.44,2.88,14.88.24,22.32a50.52,50.52,0,0,1-11.16,17.88,7.5,7.5,0,0,0-2.16,5.52c0,10.92-.24,21.84-.24,32.76,0,1,.12,1.92.12,3,4.32.36,8.4.6,12.48,1.08,45.72,5.28,83.64,36.72,95.76,78.84,1.56,5.52.48,6.84-5.28,7q-98.1,1.26-196.32,2.64c-3,0-5.88.12-8.88.24a23.12,23.12,0,0,1-2.88-.12c-3.24-.36-4.08-1.44-3.48-4.56a67.9,67.9,0,0,1,1.56-6.72c9.48-33.12,30.6-55.92,61.92-69.48,3.12-1.32,6.36-2.4,9.48-3.48S1014.34,118.76,1017.7,117.8Zm129,79c-.36-1.44-.6-2.4-1-3.48A97.15,97.15,0,0,0,1134,168.92c-30.72-46.56-94.56-62.28-143.76-35.28-25.08,13.8-41.76,34.56-49.08,62.4-.24,1-.36,2-.72,3.48C1009.42,198.68,1077.82,197.72,1146.7,196.76ZM1038,81.92c-2.64,3.24-5,5.88-7.2,8.64a40.21,40.21,0,0,0-7.08,12.72c-1.44,4.44-1.32,8.88-1,13.44,5.16-.6,10.08-1.08,15.24-1.68Zm7.2-59.4a3.5,3.5,0,0,1-1.08.24v44.4a41,41,0,0,0,8.64-15.48,24.51,24.51,0,0,0,.6-11C1052.14,34,1048.18,28.52,1045.18,22.52Z"/></g><g id="Plant"><path class="cls-1" d="M1085.08,566.67l-1.8,56.52c-.12,4.2-.48,4.56-4.32,5.76-6.48,2-13,3.84-19.8,3.6a45.66,45.66,0,0,1-7.08-.84c-2.64-.48-3.48-1.44-3.6-4.2-.84-13.44-1.68-26.76-2.52-40.2-1.2-20.52-2.52-40.92-3.72-61.44-.36-5.4-.6-10.92-1-16.32a14.46,14.46,0,0,1,0-2.28c.24-1.8,1.44-2.76,3.24-2.28a73,73,0,0,0,19.8,1.92c4.56,0,9.12,0,13.68-.12a19.32,19.32,0,0,0,5.16-.84c2.28-.6,4,.36,4.08,2.64a18.16,18.16,0,0,1-.24,3.6c-.84,18.24-1.44,36.36-1.92,54.48Z"/><path d="M1071.87,485.9a10.38,10.38,0,0,0,5.28-7.2c.84-3.72,1.2-7.56,2-11.28a34.45,34.45,0,0,1,2-6.84,15.43,15.43,0,0,1,10.32-9.12c.24-1.08.48-2.16.72-3.12,2.28-9.6,8.52-15.6,17.64-18.36,8.28-2.52,15,3.84,13.44,12.24a23.14,23.14,0,0,1-3.12,7.8c-2,3.48-4.44,6.72-6.6,9.84.72,2.64,1.8,5,2,7.56.6,5.88-1.56,10.92-5.4,15.24a33.82,33.82,0,0,1-12.12,8.76c-4.32,2-8.76,3.84-13.2,5.88-2.28,1.08-4.44,2.28-6.6,3.36.12.24.12.48.24.72,2.28-.36,4.56-.72,6.84-1.2.48-.12,1.08-.36,1.56-.48,2.76-.6,4,.24,4,3,0,3.24-.24,6.6-.36,9.84-.84,14.4-1.56,28.8-2.4,43.08-1.32,23-2.64,46.2-3.84,69.24a5.37,5.37,0,0,1-2.88,4.8c-9.48,5.4-19.56,6.36-30,3.24l-1.8-.72c-4.2-1.56-6.12-4.32-6.36-9.12-.84-22.08-2-44.28-3-66.36-.72-16-1.56-31.8-2.28-47.76-.12-1.68-.12-3.24-.12-4.92,0-2.88,1-4,4-4a28.35,28.35,0,0,1,5.4,1c1.56.24,3.12.36,5.4.72-1-1.2-1.44-1.92-2-2.52-6.72-7.56-8.64-16.44-7.32-26.16,1-6.72,1-6.84-5.16-9.6-4.68-2.16-8.28-5.28-9.72-10.44a13.68,13.68,0,0,1,1.32-11.64c1.44-2.16,3-4.2,4.68-6.36,1-1.2,1.92-2.28,2.88-3.36-.12-.48-.12-.72-.24-.84-7.2-6.36-8.52-14.76-8-23.52a34.1,34.1,0,0,1,1.8-9.24,24.87,24.87,0,0,1,24.6-17c7.44.36,12.84,4.2,15.24,11.28a33.46,33.46,0,0,1,1,17.52,145.27,145.27,0,0,1-4.32,15.72,49.1,49.1,0,0,1-2.16,5.88,2.57,2.57,0,0,0,1,3.48l1.56,1.2c7.08,6,9.48,13.56,7.08,22.32-1.32,4.56-3.72,8.76-5.88,13.08a5.23,5.23,0,0,0,0,6C1070.07,480.14,1070.79,483,1071.87,485.9Zm-27.24,44.76c0,2.52-.12,4.68,0,6.84.84,17.16,1.68,34.44,2.4,51.6.6,11.4,1.2,22.92,1.68,34.32a4.43,4.43,0,0,0,3.12,4.32,31.78,31.78,0,0,0,18,1.32,26.59,26.59,0,0,0,9.12-3.72c1.08-8.4,5.4-92,4.8-94.68C1070.91,534.86,1057.83,535.46,1044.63,530.66Zm-1.2-24.36c0,1.8-.12,3.12,0,4.56.24,3.84.24,3.84,3.84,4.92,9.12,2.76,18.36,2.4,27.6,1.08,3.48-.48,7-1.44,10.68-2.28v-8.52C1071.51,508.22,1057.47,508.94,1043.43,506.3Zm.84,14c-.6,4.56-.6,4.56,3.36,5.88,8.16,2.64,16.44,3.6,24.84,1.92,4.2-.84,8.16-1.92,12.36-3v-5C1071.15,523.22,1057.71,524.42,1044.27,520.34Z"/><path d="M1071.87,485.9a10.38,10.38,0,0,0,5.28-7.2c.84-3.72,1.2-7.56,2-11.28a34.45,34.45,0,0,1,2-6.84,15.43,15.43,0,0,1,10.32-9.12c.24-1.08.48-2.16.72-3.12,2.28-9.6,8.52-15.6,17.64-18.36,8.28-2.52,15,3.84,13.44,12.24a23.14,23.14,0,0,1-3.12,7.8c-2,3.48-4.44,6.72-6.6,9.84.72,2.64,1.8,5,2,7.56.6,5.88-1.56,10.92-5.4,15.24a33.82,33.82,0,0,1-12.12,8.76c-4.32,2-8.76,3.84-13.2,5.88-2.28,1.08-4.44,2.28-6.6,3.36.12.24.12.48.24.72,2.28-.36,4.56-.72,6.84-1.2.48-.12,1.08-.36,1.56-.48,2.76-.6,4,.24,4,3,0,3.24-.24,6.6-.36,9.84-.84,14.4-1.56,28.8-2.4,43.08-1.32,23-2.64,46.2-3.84,69.24a5.37,5.37,0,0,1-2.88,4.8c-9.48,5.4-19.56,6.36-30,3.24l-1.8-.72c-4.2-1.56-6.12-4.32-6.36-9.12-.84-22.08-2-44.28-3-66.36-.72-16-1.56-31.8-2.28-47.76-.12-1.68-.12-3.24-.12-4.92,0-2.88,1-4,4-4a28.35,28.35,0,0,1,5.4,1c1.56.24,3.12.36,5.4.72-1-1.2-1.44-1.92-2-2.52-6.72-7.56-8.64-16.44-7.32-26.16,1-6.72,1-6.84-5.16-9.6-4.68-2.16-8.28-5.28-9.72-10.44a13.68,13.68,0,0,1,1.32-11.64c1.44-2.16,3-4.2,4.68-6.36,1-1.2,1.92-2.28,2.88-3.36-.12-.48-.12-.72-.24-.84-7.2-6.36-8.52-14.76-8-23.52a34.1,34.1,0,0,1,1.8-9.24,24.87,24.87,0,0,1,24.6-17c7.44.36,12.84,4.2,15.24,11.28a33.46,33.46,0,0,1,1,17.52,145.27,145.27,0,0,1-4.32,15.72,49.1,49.1,0,0,1-2.16,5.88,2.57,2.57,0,0,0,1,3.48l1.56,1.2c7.08,6,9.48,13.56,7.08,22.32-1.32,4.56-3.72,8.76-5.88,13.08a5.23,5.23,0,0,0,0,6C1070.07,480.14,1070.79,483,1071.87,485.9Zm-27.24,44.76c0,2.52-.12,4.68,0,6.84.84,17.16,1.68,34.44,2.4,51.6.6,11.4,1.2,22.92,1.68,34.32a4.43,4.43,0,0,0,3.12,4.32,31.78,31.78,0,0,0,18,1.32,26.59,26.59,0,0,0,9.12-3.72c1.08-8.4,5.4-92,4.8-94.68C1070.91,534.86,1057.83,535.46,1044.63,530.66Zm-1.2-24.36c0,1.8-.12,3.12,0,4.56.24,3.84.24,3.84,3.84,4.92,9.12,2.76,18.36,2.4,27.6,1.08,3.48-.48,7-1.44,10.68-2.28v-8.52C1071.51,508.22,1057.47,508.94,1043.43,506.3Zm.84,14c-.6,4.56-.6,4.56,3.36,5.88,8.16,2.64,16.44,3.6,24.84,1.92,4.2-.84,8.16-1.92,12.36-3v-5C1071.15,523.22,1057.71,524.42,1044.27,520.34Z"/></g><g id="PC"><path class="cls-1" d="M531,686.4c-.72,1.8-1.08,3.24-1.68,4.44a120,120,0,0,0-9.24,23,3.86,3.86,0,0,0,.12,1,14.15,14.15,0,0,0,3.24.72c3.84.12,7.68.36,11.4.24,4.68-.12,9.36-.6,14-.72a9.31,9.31,0,0,1,4,1.08c1.8,1.2,1.56,3.12-.24,4.2a5,5,0,0,1-1.2.48C544,724,536.72,727,529.52,730.32a19.62,19.62,0,0,1-10.8,1.68c-9.36-1-18.72-1.68-28.08-2.4-8.88-.6-17.88-1.2-26.76-1.56a10.46,10.46,0,0,1-9.6-11.16,17.75,17.75,0,0,1,1.44-5.64c2.52-5.76,5.28-11.52,8.16-17.52a4.69,4.69,0,0,0-.48-.6,2.5,2.5,0,0,1-.48-3.48,2.87,2.87,0,0,1,4.08-.84,4.77,4.77,0,0,0,3.36.48,139.14,139.14,0,0,1,14-1.44c13-.36,25.92-.48,38.88-.72a2.89,2.89,0,0,0,1.92-.48,11.82,11.82,0,0,0-2-.24l-66.48,1.08-68.4,1.08c-4,.12-6.72-2.16-9.24-4.8a4.73,4.73,0,0,1-.72-1.8q-9-38-18.12-76c-6.6-27.6-13.32-55.08-20-82.68-.36-1.68-.72-3.36-2.16-4.68-1.2-1.08-1-2.64,0-3.84a15,15,0,0,1,7.2-4.92,5.19,5.19,0,0,1,1.92-.12c2.64.24,5.16.6,7.8.6q90.36-1.08,180.6-2.4c13.56-.12,27.12,0,40.56-.6,5.76-.24,10.92,1.2,16.32,2.52a9,9,0,0,1,3.24,1.56,3.51,3.51,0,0,1,1.68,3.36,18.64,18.64,0,0,0,.48,4.44Q618.32,594.48,639,669.72c.12.6,1.36,2.32,1.48,2.92,1.8,5.88-1.2,10.68-7.08,13.32-.6.24-2.44,1.24-3.28,1.12-1.68-.12-3.48-.48-5.16-.48l-86,1.44C536.12,688.28,533.48,686.4,531,686.4Z"/><path d="M524,714.48h2.76c13.32-.12,26.64-.24,40-.48,1.56,0,2.88.12,3.36,1.92s-.72,2.64-2,3.24c-2.4,1.08-4.8,2-7.32,3-10.68,4.32-21.48,8.64-32.16,13a17.32,17.32,0,0,1-8.52,1.44c-17.16-1.08-34.44-1.92-51.6-3a45.7,45.7,0,0,1-7.08-1c-4.8-1-7.44-3.6-8-8.52a27.93,27.93,0,0,1,1.08-12.6c1.68-5.16,3.6-10.32,5.4-15.48.36-1.08.84-2.28,1.44-3.84h-4.08c-21,.24-42.12.36-63.12.6h-7.2a11,11,0,0,1-10.32-8.16q-15.3-59.76-30.6-119.4c-3.6-13.92-7-28-10.8-41.76a11.35,11.35,0,0,1,5.64-13,18.71,18.71,0,0,1,8.4-2.28c40.32-.24,80.76-.36,121.08-.6,38-.24,76.08-.36,114.24-.6a37.3,37.3,0,0,1,5.16.36c6.36.6,10.44,4.2,12.36,10.08,2,6.48,4,13.2,5.76,19.8q17.46,64.62,34.92,129.12a64.74,64.74,0,0,1,1.92,9.6c.6,7.32-4.08,13.2-11.4,14.4a28.08,28.08,0,0,1-4.56.36c-30.6.24-61.32.6-91.92.72a4,4,0,0,0-4.08,2.4,89.45,89.45,0,0,0-7.44,17A25,25,0,0,0,524,714.48ZM340.5,523.08c.24,1.2.48,1.92.6,2.52,7.2,27.84,14.28,55.68,21.48,83.64,6,23.28,12,46.68,18,70,2,8.16,2.4,8.4,10.8,8.4,17.76-.12,35.52-.36,53.28-.48q90.72-.72,181.56-1.56h5.28a35.48,35.48,0,0,0-1-3.84Q614,620.88,597.3,559.92c-2.64-9.72-5.4-19.56-7.8-29.4-1.56-6.48-4.2-8.76-10.92-8.76l-234,1.44A39.91,39.91,0,0,0,340.5,523.08ZM466.62,692.16c-2.4,6.72-4.8,13.32-7.08,19.92a22.84,22.84,0,0,0-1.2,10.68c.48,3.48,1.2,4.44,4.56,4.92a72.4,72.4,0,0,0,8.76,1l44.76,2.52h2.64c-.24-1-.36-1.68-.48-2.28a25,25,0,0,1-.72-10.32c1.2-8.16,4.32-15.72,7.92-23,.6-1.08,1.08-2.28,1.92-4C507.06,691.68,487,691.92,466.62,692.16ZM340.86,517.08c.12.24.12.6.24.84h3.84l234-1.44c9,0,13.92,4,15.84,12.84a29.52,29.52,0,0,0,.84,3.48l40.32,147.6c.24.72.6,1.44,1,2.28a5.67,5.67,0,0,0,2.52-5.64,62.81,62.81,0,0,0-1.44-8.28Q620.7,604.32,603.18,540c-1.8-6.84-3.84-13.68-5.88-20.4-1.2-4.08-3.84-6.84-8.4-7-2-.12-4.08-.24-6.24-.24q-114.12.54-228.36,1.2c-1.8,0-3.48-.12-5.28,0C345.78,513.72,342.9,514.56,340.86,517.08ZM551.34,720.24c0-.12-.12-.24-.12-.36h-28a13,13,0,0,0,2,10.92C533.94,727.2,542.58,723.72,551.34,720.24Z"/><path d="M494.82,679.8H466.38a11.35,11.35,0,0,1-2.88-.12c-2.4-.48-4.2-1.56-4.8-4.2-1-3.84-2-7.56-3-11.4-1.08-4.2.24-6,4.56-6.12,16.2-.36,32.4-.6,48.72-1,4.68-.12,9.36-.36,14-.24a14.28,14.28,0,0,1,4.32,1.08,3.31,3.31,0,0,1,2,3.12c.36,4.08,1,8.16,1.32,12.36.36,3.72-1.56,5.76-5.28,5.76-10.08.12-20.28,0-30.36,0C494.82,679.56,494.82,679.68,494.82,679.8Zm29.28-17.64c-21.24.48-42,.84-63.36,1.32,1.08,4.08,2.16,7.56,3,10.92,5.88.72,59.16,0,61.56-.84C524.94,669.84,524.46,666.12,524.1,662.16Z"/><path d="M440,663.24a7.11,7.11,0,0,1,6.72,7.08,6.35,6.35,0,0,1-6.48,6.36,6.77,6.77,0,0,1-6.6-7.08A6.25,6.25,0,0,1,440,663.24Zm-.12,4.92c-.48.72-1.08,1.2-1.08,1.44a14.56,14.56,0,0,0,1.2,1.68c.36-.36,1.2-.84,1.08-1.2C441.06,669.48,440.46,669,439.86,668.16Z"/><path d="M553.26,666.48l4.92-.36a7.29,7.29,0,0,1,2.28.12c1.32.36,2.16,1.08,2,2.52a2.31,2.31,0,0,1-2.28,2.4c-1.8.24-3.72.36-5.52.48-2.76.12-5.4.24-8.16.12a4.32,4.32,0,0,1-2.64-1.08,2.29,2.29,0,0,1-.36-2.28,3.7,3.7,0,0,1,2.52-1.68c2.4-.24,4.8-.12,7.2-.12Z"/><path d="M547.38,663.24c-2.76.12-4.2-.6-4.44-2.28s1.32-3,4.2-3c2.64,0,5.16-.48,7.8-.6a7.26,7.26,0,0,1,2.28,0,2.05,2.05,0,0,1,2,2.16A2.28,2.28,0,0,1,557.7,662a3.7,3.7,0,0,1-1.56.36C553.14,662.76,550.26,663,547.38,663.24Z"/><path d="M413.82,670.92a2.47,2.47,0,0,1-2.16,2.52,2.44,2.44,0,0,1-2.64-2.28,2.47,2.47,0,0,1,2.16-2.52A2.59,2.59,0,0,1,413.82,670.92Z"/><path d="M427.86,670.32a2.11,2.11,0,0,1-2.28,2.16,2.13,2.13,0,0,1-2.16-2,2.28,2.28,0,0,1,2.16-2.4A2.2,2.2,0,0,1,427.86,670.32Z"/></g></g></g></g></g></svg>