<svg xmlns="http://www.w3.org/2000/svg" viewBox="0 0 1135.01 833.72"><defs><style>.cls-1{fill:#fff;}.cls-2{fill:#ffd622;}.cls-3{fill:#6250fe;}</style></defs><g id="Layer_2" data-name="Layer 2"><g id="All"><g id="E-Commerce1"><g id="E-Commerce1-2" data-name="E-Commerce1"><g id="Device"><path id="Shape" d="M434,830.6q-108,1.3-216.13,2.5c-18.25.25-36.62.37-54.87.62h-3.13c-4-.12-5.87-1.75-6.37-5.62-1-8.88-1.88-17.88-2.88-26.75-1.75-15.63-3.5-31.13-5.12-46.75-1.5-13.38-2.88-26.63-4.38-40-1.75-15.63-3.37-31.13-5.12-46.75-1.5-13.38-2.88-26.63-4.38-40-1.75-15.75-3.5-31.38-5.12-47.13-1.5-13.25-2.88-26.37-4.38-39.62-1.75-15.75-3.5-31.63-5.25-47.38-1.75-15.5-3.37-31-5.12-46.37-1.75-15.63-3.5-31.13-5.13-46.75-1.75-15.38-3.37-30.75-5-46.13-1.75-15.75-3.5-31.37-5.25-47.12-1.5-13.13-2.87-26.25-4.25-39.25-1.75-15.88-3.5-31.88-5.25-47.75-1.75-15.5-3.37-31-5-46.38-1.75-15.62-3.5-31.12-5.12-46.75-.88-8.5-2.13-16.87-2.75-25.37a42.83,42.83,0,0,1,2.5-16.75C80.63,72.6,87.76,62.35,98.76,55a40.27,40.27,0,0,1,23.5-7q227.06.75,454.12,1.25c7.38,0,14.88,0,22,1.88a61.31,61.31,0,0,1,12.5,4.37c15.75,7.63,24.5,20.25,26.13,37.88,1.87,19.5,4,38.87,6,58.25,2.12,20.62,4.25,41.37,6.37,62s4.38,41.37,6.5,62c1.75,16.25,3.38,32.5,5,48.75s3.5,32.75,5.13,49.12c1.5,14,2.87,28,4.37,42,1.75,16.5,3.5,33,5.13,49.5,1.5,14,2.87,28,4.37,42,1.75,16.5,3.5,33,5.13,49.5,1.5,13.88,2.87,27.75,4.37,41.63,1.75,16.75,3.5,33.5,5.25,50.12,1.5,14,2.88,28,4.38,42,1.75,16.5,3.5,33,5.12,49.5,1.38,13.5,2.88,27.13,4.25,40.63,1.5,14,2.88,28,4.38,42,.37,3.62-.38,4.5-4,4.62-1.5.13-3,0-4.38.13Q624,828,543.51,828.85c-36.5.87-73,1.37-109.5,1.75Zm273-8.75c-.5-5.38-1-10.13-1.5-14.75-1.75-16.75-3.5-33.38-5.25-50.13-1.5-13.87-2.88-27.75-4.38-41.62-1.75-16.5-3.5-33-5.12-49.5-1.5-14-2.88-28-4.38-42-1.5-14.5-3-28.88-4.5-43.38-1.5-13.87-2.87-27.75-4.37-41.62L673,496.1c-1.5-14.13-2.88-28.25-4.38-42.38-1.75-16.75-3.5-33.37-5.25-50.12-1.5-13.88-2.87-27.75-4.37-41.63-1.75-16.5-3.5-33-5.13-49.5-1.5-14-2.87-28-4.37-42-1.75-16.37-3.5-32.75-5.13-49.12-1.5-14.13-2.87-28.25-4.37-42.38-1.75-16.75-3.5-33.37-5.25-50.12-1.38-12.5-2.63-25.13-4-37.63-1.25-11.37-6.88-20.37-16.25-26.75a68.65,68.65,0,0,0-10.88-5.62c-7.5-3-15.37-3.5-23.37-3.63Q482,55,383.63,54.6l-260.75-.75a37.1,37.1,0,0,0-25.5,9.5A49,49,0,0,0,81.26,89.6c-.88,3.87-1.88,7.87-1.63,11.75.5,8.75,1.88,17.37,2.75,26.12,1.75,15.5,3.38,30.88,5,46.38,1.5,13.25,2.88,26.37,4.38,39.62,1.75,15.5,3.37,30.88,5.12,46.38s3.38,31,5,46.37c1.88,17.5,3.88,35,5.88,52.5l6.37,58.88c2.13,19.62,4.38,39.25,6.5,58.87L127,535.35c2.62,23.75,5.25,47.37,7.87,71.12S140,654.1,142.63,678q4.32,38.82,8.63,77.5c2.37,21.75,4.75,43.63,7.12,65.38.25,2.37.63,4.62,1,7.25Q433.13,825.1,707,821.85Z"/><path id="Path" d="M1058.88,826H1129a18.92,18.92,0,0,1,3.75.25,2.46,2.46,0,0,1,2.25,2.5,2.58,2.58,0,0,1-2.25,2.63,22.21,22.21,0,0,1-4,.25h-142a6,6,0,0,1-2.63-.25,4.12,4.12,0,0,1-2-2.38c-.37-1.37.63-2.37,2-2.75a12.17,12.17,0,0,1,3-.25c23.88-.12,47.88-.12,71.75,0Z"/><path d="M68.63,826.22c21.13.25,42.25.63,63.38.88a24.1,24.1,0,0,1,3,.12c1.62.38,2.5,1.5,2.25,2.88a2.48,2.48,0,0,1-2.5,2.37,19.55,19.55,0,0,1-2.75.13c-41.88-.63-83.75-1.13-125.63-1.75-1.25,0-2.5-.13-3.75-.25A2.56,2.56,0,0,1,0,828c-.13-1.5,1-2.62,2.87-2.75a15.91,15.91,0,0,1,3.38,0C27,825.47,47.76,825.85,68.63,826.22Z"/><path d="M767.76,823.47l26.62.75a14.61,14.61,0,0,1,2.38.13c1.87.25,2.87,1.37,2.75,2.87s-1.13,2.38-3,2.63h-1.38l-54.87-1.5c-2.88-.13-4.38-1-4.38-2.75s1.5-2.88,4.63-2.75C749.51,823,758.63,823.22,767.76,823.47Z"/><path d="M516.88,462.72c-35.75.63-71.62,1.25-107.37,2-4.25.13-4.88-.5-5.38-4.75-1.12-10-2-20.12-3.12-30.12-1.5-15.13-3-30.25-4.63-45.38-1.5-14.5-2.87-28.87-4.37-43.37-1.5-14.88-3-29.88-4.5-44.75-1.5-14.5-2.88-28.88-4.38-43.38-1.25-12.5-2.5-25.12-3.75-37.62-.5-5,1-6.88,6.25-6.88l205.88.75c4.75,0,6.62,1.63,7.25,6.25,3.12,24.13,6.37,48.25,9.5,72.25,3.12,23.25,6.25,46.63,9.25,69.88,2.87,21.62,5.62,43.25,8.5,64.87,1.37,10.75,2.87,21.63,4.25,32.38.5,4.12-.88,5.87-5.13,6-12.12.25-24.37.5-36.5.62-23.87.38-47.87.75-71.75,1.25Zm102.38-49.87c-8.75-66.38-17.38-132.13-26-197.88a4.05,4.05,0,0,0-1.25-.37l-204.5-.75c-.63,0-1.13.12-1.75.12-.13,0-.13.13-.25.25l-.5.5Q394.94,314.1,405,414C476.51,413.72,547.63,413.22,619.26,412.85ZM409.63,459.1c71.88-1.25,143.38-2.63,215.25-3.88-1.62-12.5-3.25-24.5-4.87-36.75-71.63.38-142.75.75-214.38,1.25C407,432.85,408.26,445.72,409.63,459.1Z"/><path d="M259,462.72c-35.75.63-71.63,1.38-107.38,2-4,.13-4.75-.5-5.25-4.5-1.12-10.25-2.12-20.62-3.12-30.87-1.5-14.88-3-29.88-4.5-44.75-1.25-12.25-2.38-24.38-3.63-36.63-1.5-15-3-30-4.5-45.12-1.5-14.38-2.87-28.75-4.25-43.13-1.5-14.75-2.87-29.37-4.37-44.12-.63-5.88.75-7.5,6.62-7.5,47.13.12,94.38.25,141.5.5,21.25.12,42.5.12,63.75.25,2,0,4.25-.25,5.5,1.87a8.38,8.38,0,0,1,1.75,3.5c1.88,13.75,3.63,27.5,5.5,41.25,2.13,16.38,4.25,32.63,6.5,49s4.38,32.88,6.5,49.38,4.38,33.12,6.5,49.62c2.25,17.25,4.5,34.5,6.75,51.63.5,3.75-1.12,5.5-5.37,5.5l-40.25.75c-22.88.62-45.5,1-68.25,1.37Zm-111.75-49c6.75.75,211.5-.75,214.12-1.5q-12.93-98.62-26-197.62l-208.12-.75C134,280.85,140.63,347.22,147.26,413.72Zm4.62,45.38c71.88-1.25,143.38-2.63,215.25-3.88-1.62-12.5-3.25-24.37-4.75-36.37-5-.75-211.75.62-214.37,1.5C149.26,433.1,150.51,446,151.88,459.1Z"/><path d="M384.13,121c-115.12.38-202.87.75-290.75,1a18.83,18.83,0,0,1-3.75-.12c-1.75-.25-3-1.5-2.75-2.88a2.74,2.74,0,0,1,2.75-2.5c1.25-.12,2.5-.12,3.75-.12q218.45-.75,437-1.63l90.63-.37a29.14,29.14,0,0,1,3.37,0c1.88.25,2.88,1.25,2.88,2.75s-1,2.5-2.88,2.75a27,27,0,0,1-3.12,0C533.26,120.47,445,120.85,384.13,121Z"/><path d="M230.13,151.6c-24.37.12-68,.25-111.62.5a18.83,18.83,0,0,1-3.75-.13,2.66,2.66,0,0,1,0-5.25,9.93,9.93,0,0,1,2.75-.12Q249.69,146,382,145.35a19.07,19.07,0,0,1,3.75.37,2.33,2.33,0,0,1,1.87,2.5,2.43,2.43,0,0,1-2,2.38,26.4,26.4,0,0,1-4.37.25C337,151.22,293.13,151.35,230.13,151.6Z"/><path d="M229.38,175c34.38-.5,68.88-.87,103.25-1.37a7.82,7.82,0,0,1,3,.25,4.11,4.11,0,0,1,2.13,2.25c.37,1.37-.63,2.37-1.88,2.75a15.46,15.46,0,0,1-3.37.37c-22.63.25-45.25.63-67.88.88q-69.18.93-138.37,2a15.31,15.31,0,0,1-3.38-.13,2.37,2.37,0,0,1-2.12-2.62,2.57,2.57,0,0,1,2.25-2.63,15.68,15.68,0,0,1,2.37-.12Q177.51,175.66,229.38,175Z"/><path d="M118.76,99.6c-5.13,0-9.63-2.75-11.38-7.13a11.77,11.77,0,0,1,3.25-13,13.83,13.83,0,0,1,13-3.37,11.24,11.24,0,0,1,7.63,15.5A14.31,14.31,0,0,1,118.76,99.6Zm1.62-18.5c-3.12.12-5.37,1.25-6.87,3.5-2.5,3.62-1,8,3.37,9.12a7.85,7.85,0,0,0,7.5-2,5.9,5.9,0,0,0-4-10.62Z"/><path d="M142.51,89.6c.12-6.88,5.87-12.88,12.37-12.88,5.88,0,10.5,4.88,10.5,11.13,0,7-6,13.12-12.62,13C146.88,100.6,142.51,95.85,142.51,89.6Zm17.25-1.38c.25-4-2.38-6.37-6.13-5.75-4,.75-6.75,5.88-5.12,9.63A4.82,4.82,0,0,0,154.38,95,7.36,7.36,0,0,0,159.76,88.22Z"/><path d="M201.26,88.35c0,6.37-5.38,11.87-11.63,11.75-5.87,0-10.37-4.75-10.5-10.75a11.62,11.62,0,0,1,11.38-11.88A10.63,10.63,0,0,1,201.26,88.35Zm-5.63-.13a5,5,0,0,0-5.25-5.12,6,6,0,0,0-5.75,6.37,5,5,0,0,0,5,5A6.13,6.13,0,0,0,195.63,88.22Z"/><path d="M364.51,180.1c-2.13,0-4.25.12-6.5,0a4.3,4.3,0,0,1-2.5-.88,2.51,2.51,0,0,1,.75-4.37,10.42,10.42,0,0,1,2-.25c5-.25,10-.38,14.87-.63.75,0,1.63-.12,2.38-.12,1.87,0,3.12.87,3.25,2.25s-1,2.87-2.88,3.12c-1.25.25-2.5.25-3.75.38-2.62.25-5.25.37-7.75.5Z"/><path d="M593.38,79.35h-6.75A6.15,6.15,0,0,1,584,79.1,3.94,3.94,0,0,1,582.13,77a2.12,2.12,0,0,1,1.63-2.62,8.29,8.29,0,0,1,3-.5c4.87-.13,9.75-.25,14.62-.25,2.88,0,4.25.87,4.25,2.75s-1.37,2.75-4.25,2.75c-2.62.12-5.25,0-7.87,0A.37.37,0,0,0,593.38,79.35Z"/><path d="M595.51,89.35h-7.13a6.22,6.22,0,0,1-2.62-.5,2.26,2.26,0,0,1-1.5-2.75A4.39,4.39,0,0,1,586.13,84a2.37,2.37,0,0,1,1.63-.12c5,.12,10,.25,15,.5,2.87.12,4.12,1.25,4,3.12-.13,1.5-1.75,3-4.5,2.5a61.07,61.07,0,0,0-6.75-.37Z"/><path d="M596.51,99.85h-6.38a8.91,8.91,0,0,1-2.62-.25,2.34,2.34,0,0,1-1.88-2.5,2.42,2.42,0,0,1,1.88-2.5,7.29,7.29,0,0,1,2.37-.25c4.75.12,9.5.25,14.25.5,2.13.12,3.25,1.12,3.25,2.62s-1.25,2.75-3.5,2.75h-7.12C596.51,100.1,596.51,100,596.51,99.85Z"/><path d="M488.63,247.35a26.23,26.23,0,0,1,9.63,2.12c11.87,5,23.75,9.75,35.62,14.63a21.34,21.34,0,0,1,12.5,24.25,40.49,40.49,0,0,1-1.75,5.5c-10.87,27.25-21.75,54.37-32.62,81.62a13.78,13.78,0,0,1-7.88,8,20,20,0,0,1-15.87,0c-14.38-5.75-27.88-13.25-41.75-19.87-3.63-1.75-6.75-4.13-8.38-8.13a9.34,9.34,0,0,1-.25-6.62c4.63-12.88,9.25-25.63,13.75-38.5,6-17,12-34,17.88-51.13a13.75,13.75,0,0,1,7.62-8.62C480.63,248.72,484.38,247.1,488.63,247.35ZM449,334c17.37,8,34.5,15.75,52,23.75,8.75-20.25,17.37-40,26.12-60.12-18.75-9.13-37.12-18.13-55.75-27.25C463.88,291.72,456.51,312.72,449,334Zm-1.75,5.25c-1.25,3.63-2.38,6.75-3.5,9.75s-1,5,1.62,7.13A28.8,28.8,0,0,0,450,359c10.75,5.38,21.62,10.63,32.37,15.88a13.64,13.64,0,0,0,2.75,1.25c3.38,1.12,7.63,0,9.13-2.88,1.75-3.25,3-6.75,4.62-10.5C481.51,355,464.63,347.22,447.26,339.22Zm39.62-85.75c.5.25,1.13.63,1.63.88C500.76,260,513,265.6,525.38,271.1c10,4.5,13.75,14.37,8.88,24.25-.88,1.75-1.63,3.5-2.38,5.25L500.38,373a50.37,50.37,0,0,1-3.5,6.13c5.25-.5,8.63-2.63,10.5-7.5,10.25-26.13,20.75-52,31.25-78,.75-2,1.5-4,2.13-6.13A15.6,15.6,0,0,0,532,269.22c-12.38-5.12-24.75-10.12-37.13-15.25A13.48,13.48,0,0,0,486.88,253.47Zm42.25,38.88c3.38-5.88,1.38-12.38-4.5-15.13-13.62-6.25-27.12-12.5-40.75-18.75A16.7,16.7,0,0,0,479,257.1a2.84,2.84,0,0,0-3.38,1.75c-.87,2.12-1.5,4.25-2.25,6.37C492,274.35,510.51,283.35,529.13,292.35Z"/><path d="M616.38,440a28.58,28.58,0,0,1,.13,3c.12,1.75-.25,3.13-2.13,3.88s-3.25.87-4.75-.5c-.12-.13-.37-.25-.5-.5-4.37-4-4.87-3.75-9.62.37a14.23,14.23,0,0,1-2,1.88c-1.88,1.5-3.75.87-4.63-1.38a7.29,7.29,0,0,1-.37-1.62c-.38-4.88-.63-9.75-.88-14.63-.12-3.25.63-4.12,3.75-4.37l15-1.13c3.63-.25,4.75.75,5,4.38A84.42,84.42,0,0,1,616.38,440Zm-18.25.25c4.13-4,8.13-3.75,12.63-.62-.25-3.38-.5-6-.63-8.88-4.37.13-8.5.13-12.62,1C597.63,434.6,597.88,437,598.13,440.22Z"/><path d="M471.26,446.22c-1.63-.62-3-1-4.38-1.62a15.24,15.24,0,0,1-7.25-5.88c-3-4.75-1.75-10.25,3.25-12.75a17.44,17.44,0,0,1,7.5-1.75A18.89,18.89,0,0,1,484.76,430c5,5.13,3.75,11.75-1.63,14.75a19.25,19.25,0,0,0-3.87,3.25c-.75.75-1.38,1.5-2.13,2.13-2.25,1.87-4.37,1.25-5.25-1.5C471.63,448,471.51,447.1,471.26,446.22Zm5.37-3.75c1.13-.87,2.38-1.75,3.5-2.5,2.5-1.75,2.63-3.62.63-5.87-3-3.38-9.75-5.25-14-3.75-3.63,1.25-4.38,4-1.5,6.62a23.89,23.89,0,0,0,5.75,3.38C472.88,441.1,474.63,441.6,476.63,442.47Z"/><path d="M433.51,430.72a34.39,34.39,0,0,1,3.37-2c4.63-2,9,.63,9.25,5.63.25,4.5-1.62,8.37-4.5,11.87-1.12,1.38-2.37,2.5-3.37,3.75-1.38,1.63-3,2.25-4.88,1.38-5.87-2.63-10.87-6.13-12.62-12.88-1-3.62-.25-6.62,2.62-8.87s5.75-1.63,8.63,0A5.11,5.11,0,0,0,433.51,430.72Zm.62,15c5.25-4.5,7.25-8.62,5.38-12.12a26.91,26.91,0,0,0-2.75,2.37c-2.25,2.38-3.88,2.5-6.25.13-1.13-1.13-2.25-2.75-3.88-1.5s-.5,2.87.13,4.37C428,442.35,431,444,434.13,445.72Z"/><path d="M502,445.22c-4.5-2.75-4.63-5.5-.75-8.5s7.62-5.62,11.5-8.37c1.12-.75,2.25-1.63,3.75-.88s1.75,2.25,1.75,3.75c0,4.75,0,9.5-.13,14.25-.12,3.5-2.62,5.63-6,5a4.81,4.81,0,0,0-3.5.63,8.69,8.69,0,0,1-2.37,1.25,3,3,0,0,1-4.25-2.5C501.88,448.22,502,446.72,502,445.22Zm10.62-10C510,437.1,508,438.6,506,440.1c.75,1.62,1.5,3,2.12,4.37,1.5-.12,2.88-.12,4.5-.25Z"/><path d="M250.26,249.22c5.37.13,8.62,2.63,10.37,7.88q9.57,29.63,19,59.37a5.45,5.45,0,0,0,4.5,4.25c12.75,3.5,25.38,7.13,38,10.75,2.25.63,4.5,1.13,5.38,4a10.1,10.1,0,0,1-.5,8.5,12.75,12.75,0,0,1-5.75,5.13c-21.13,10.5-42.25,21.12-63.38,31.62-3.75,1.88-7.62,3.63-11.25,5.63-2.75,1.5-5.25,1.37-8.12.12-15.5-6.87-31.13-13.62-46.75-20.5-2.63-1.12-5.25-2-7.13-4.25-2.25-2.87-4-5.75-3.75-9.5,0-.62.13-1.62-.25-2-1.87-1.87-2.12-4.5-2.87-6.87l-17.25-58.13a12.31,12.31,0,0,1-.75-3.62c-.25-5.5,2.5-9.13,8.37-10.75L197.76,263c16.12-4.25,32.25-8.62,48.37-12.87A21.93,21.93,0,0,1,250.26,249.22ZM274.76,320a6.31,6.31,0,0,0-.38-1.5c-6.37-19.75-12.62-39.62-19-59.37-1.12-3.63-2.87-4.63-6.62-4a23.8,23.8,0,0,0-3.25.75c-13.63,3.62-27.25,7.25-40.75,10.87-11.5,3.13-23,6.13-34.5,9.25-4.75,1.25-5.63,3-4.38,7.75a.46.46,0,0,0,.13.38c5.75,19.62,11.62,39.12,17.5,58.75.25.87.62,1.62,1,2.62C214.51,337,244.51,328.47,274.76,320Zm-83.63,29.5c1,.5,1.5.88,2.13,1.13,15.87,7,31.87,13.87,47.75,20.87a4.8,4.8,0,0,0,4.5-.37c22.87-11.25,45.87-22.38,68.75-33.63.87-.37,1.75-1,3-1.62-1-.38-1.5-.5-2-.75-11.63-3.38-23.38-6.63-35-10a8.26,8.26,0,0,0-4.63.25c-27.12,7.62-54.12,15.25-81.25,22.87A21.88,21.88,0,0,1,191.13,349.47Zm-4.5,4.38a9,9,0,0,0,5.13,6c15.87,6.87,31.87,13.75,47.75,20.87a6.37,6.37,0,0,0,6-.12c20.25-10.25,40.62-20.38,60.87-30.5,4.13-2.13,8.38-4.13,12.5-6.25a5.27,5.27,0,0,0,3.13-3.38,21.36,21.36,0,0,0-3.88,1.5c-23.5,11.5-46.87,22.88-70.37,34.38a10,10,0,0,1-9.38.25c-10.75-4.88-21.62-9.5-32.37-14.25C199.76,359.6,193.51,356.85,186.63,353.85Z"/><path d="M334.63,437.1c-.12-2.38-.37-4.75-.5-7.13,0-2.75.88-3.62,3.63-3.87L353,425c3.37-.25,4.62.75,4.87,4.13.38,4.5.63,9.12.88,13.62.12,1.88-.25,3.25-2.13,4.13a4.2,4.2,0,0,1-5-.88c-4.37-4.25-5-4.12-10.12.5A17.68,17.68,0,0,1,340,448c-2.13,1.75-4.25,1-4.88-1.62a34.22,34.22,0,0,1-.37-5.13c0-1.37,0-2.75-.13-4.12Zm17.75-6.38c-2.37.13-4.5.13-6.5.25s-4,.38-6.25.63c.25,2.75.5,5.25.75,7.87,5.88-2.75,5.88-2.75,12.63-.62C352.76,436.35,352.63,433.72,352.38,430.72Z"/><path d="M213.51,446.47c-2.75-1.37-5.38-2.37-7.63-3.75-4.62-3-6.62-7.37-5.37-11.5,1.5-4.75,5.5-6.5,10-7a19.87,19.87,0,0,1,15,4.38,15.84,15.84,0,0,1,3.5,4.12c2.25,4,1.12,8.38-2.38,11.25-2.12,1.63-4.12,3.5-6.12,5.38-3.25,3.12-5.38,2.62-6.63-1.88A4.27,4.27,0,0,0,213.51,446.47Zm5.37-4c1.25-.87,2.38-1.75,3.63-2.5,2.37-1.75,2.62-3.37.87-5.62-2.87-3.63-10.25-5.63-14.62-3.88-3.13,1.25-4,3.75-1.63,6a29.21,29.21,0,0,0,6.25,3.88C215.13,441.1,216.88,441.72,218.88,442.47Z"/><path d="M244.26,445.22c-4.5-2.75-4.63-5.5-.75-8.5s7.62-5.62,11.5-8.37c1.25-.88,2.5-1.63,4-.75s1.5,2.12,1.5,3.5c0,4.75,0,9.5-.13,14.25-.12,3.5-2.62,5.62-6,5a4.85,4.85,0,0,0-3.5.62,8.69,8.69,0,0,1-2.37,1.25c-2.13.75-4-.25-4.25-2.5C244.13,448.22,244.26,446.72,244.26,445.22Zm10.62-.87c-.12-3,.5-5.75-.37-8.88-2.38,1.75-4.38,3.25-6.38,4.63.88,1.62,1.5,2.87,2.13,4.25Z"/><path d="M473.88,359a6.21,6.21,0,0,1-6.25,6.63,7.39,7.39,0,0,1-7.12-7.25,6.36,6.36,0,0,1,6.25-6.63A7.32,7.32,0,0,1,473.88,359Zm-7.12-1.5c-.25,1.38-.25,1.38.87,2.25C468,358.47,468,358.47,466.76,357.47Z"/><path d="M503.51,276a2.93,2.93,0,0,1-2.75-2.5,2.71,2.71,0,0,1,2.75-2.87,2.65,2.65,0,0,1,2.75,2.5A2.88,2.88,0,0,1,503.51,276Z"/><path d="M218.13,271.72a3.19,3.19,0,0,1-3.37,3,2.9,2.9,0,0,1-2.63-3,3.31,3.31,0,0,1,3.25-3.25A3.15,3.15,0,0,1,218.13,271.72Z"/><path d="M227,361.47a18.07,18.07,0,0,1-2.75-.87c-4.63-2.13-9.25-4.25-13.88-6.5a5.31,5.31,0,0,1-1.75-1.13,2.69,2.69,0,0,1,.38-4.37,8.67,8.67,0,0,1,2.5-1c21.37-6.63,42.62-13.25,64-19.88,5.25-1.62,9.87.38,14.37,2.38,2.25,1,2,3.87-.12,5.25-.63.37-1.38.62-2.13,1q-28.5,12-57.12,23.87C229.26,360.72,228.13,361.1,227,361.47Zm53.25-28.25a2.21,2.21,0,0,1-.25-.87c-10.25,2.87-20.38,6.25-30.63,9.37s-20.37,6.38-30.5,9.5a33.79,33.79,0,0,0,4.63,2.88c2.37,1.5,4.5,1.25,7,.25,15.5-6.63,31.12-13.13,46.75-19.63Z"/><path d="M263.51,356.6c-.63-.5-1.75-.88-2.13-1.63a3.59,3.59,0,0,1,.25-2.75,3.75,3.75,0,0,1,2.13-1.5c3.37-1.5,6.75-3,10.25-4.5a.46.46,0,0,0,.25-.12c2.25-.75,3.75-.38,4.37,1.12s-.12,3-2.12,4-4.13,1.75-6.25,2.75c-1.5.63-2.88,1.38-4.38,2A9.24,9.24,0,0,0,263.51,356.6Z"/></g><g id="Panel"><path d="M369.22,525.06h274c5.38,0,6.38-1.13,7.38,6.5,1.62,12.87,2.87,25.75,4.37,38.62,1.75,15.13,3.5,30.25,5.13,45.38,1.5,13,2.87,26,4.37,38.87,1.75,15.13,3.38,30.25,5.13,45.38,1.75,14.87,3.37,29.75,5,44.75l5.25,45.75c.37,3.37,1,6.75,1.37,10.12.38,3.13-1.5,4.63-4.5,3.75a14.21,14.21,0,0,0-4-.37q-77.25,1.31-154.37,2.75-67.69,1.13-135.25,2.37-83.07,1.5-166,3.13l-86.88,1.5c-5.37.12-6.37-.88-7.12-6.38-2.38-19.87-4.88-39.62-7.25-59.5-2.13-17.75-4.25-35.37-6.38-53.12s-4.37-35.38-6.5-53.13c-1.87-15.75-3.87-31.62-5.75-47.37s-3.87-31.75-5.87-47.63c-.5-4-1-8.12-1.5-12.12a10.92,10.92,0,0,0-1.38-4.75c-1.12-1.63-.12-3.38,1.88-3.75a24.89,24.89,0,0,1,4.37-.25q129-.19,258-.25H369.1A.41.41,0,0,0,369.22,525.06Z"/><path id="Path-Copy-2" class="cls-1" d="M339.22,495.06h274c5.38,0,6.38-1.13,7.38,6.5,1.62,12.87,2.87,25.75,4.37,38.62,1.75,15.13,3.5,30.25,5.13,45.38,1.5,13,2.87,26,4.37,38.87,1.75,15.13,3.38,30.25,5.13,45.38,1.75,14.87,3.37,29.75,5,44.75l5.25,45.75c.37,3.37,1,6.75,1.37,10.12.38,3.13-1.5,4.63-4.5,3.75a14.21,14.21,0,0,0-4-.37q-77.25,1.31-154.37,2.75-67.69,1.13-135.25,2.37-83.07,1.5-166,3.13l-86.88,1.5c-5.37.12-6.37-.88-7.12-6.38-2.38-19.87-4.88-39.62-7.25-59.5-2.13-17.75-4.25-35.37-6.38-53.12S75.1,629.18,73,611.43c-1.87-15.75-3.87-31.62-5.75-47.37s-3.87-31.75-5.87-47.63c-.5-4-1-8.12-1.5-12.12a10.92,10.92,0,0,0-1.38-4.75c-1.12-1.63-.12-3.38,1.88-3.75a24.89,24.89,0,0,1,4.37-.25q129-.19,258-.25H339.1A.41.41,0,0,0,339.22,495.06Z"/><path class="cls-2" d="M340.29,492.66h273c2.37,0,4.87.63,7.37-.5,1.5-.62,2.75.63,3.13,2.75.5,3.38.87,6.75,1.25,10.13l5.25,48.75c1.75,15.75,3.37,31.37,5,47.12s3.5,31.63,5.12,47.38,3.38,31.37,5,47.12,3.5,31.63,5.13,47.38c1,8.75,1.75,17.62,2.87,26.37.38,2.75-1.12,4.75-2.12,7-.25.63-1.5,1-2.38,1.13-1.37.25-2.75.12-4.12.25-49.25.62-98.38,1.12-147.63,1.75l-211,2.62q-94.31,1.13-188.5,2.5c-5.87.13-7.25-.12-8.12-7.12-2.63-22.38-5.38-44.63-8.13-67-2.62-21.63-5.12-43.25-7.75-65-2.87-23.5-5.75-46.88-8.62-70.38q-3.95-32.43-7.75-65c-.38-3.37-.88-6.75-1.25-10.12a6.15,6.15,0,0,1,5.37-6.5,29.32,29.32,0,0,1,3.38,0H339.91C340.29,493.29,340.29,492.91,340.29,492.66Zm97.5,5.75c12.37,92.25,24.62,183.75,36.87,275.25,4.75.75,171-1.62,173.38-2.5-.25-8.62-29-270.75-29.88-272.75Z"/><path d="M191,635.48c-9.63,9.25-21.5,13.37-33.5,16.87-7.5,2.25-15.13,4.13-22.75,5.88A104.3,104.3,0,0,0,102,672.85c-.63.38-1.13,1-1.75,1a4.87,4.87,0,0,1-3-.75,2.18,2.18,0,0,1-.13-3.37,16,16,0,0,1,2.88-2.25A118.19,118.19,0,0,1,137.7,651.6c10.25-2.37,20.5-4.87,30.37-8.75,5-2,9.88-4.12,14.13-7.37a22.5,22.5,0,0,0,4-3.63c1.5-1.62,1.75-3.37,1.25-5.62a37.72,37.72,0,0,1,1.25-23.75c1.62-4.13,3.12-8,7.25-10.25a6.76,6.76,0,0,0-.5-1.5c-2-4.13-.38-6.88,2.75-8.25,5.75-2.5,11.62-4.63,17.37-6.75a4,4,0,0,1,4.5,1.62c.88,1,1.75,2.13,2.63,3.25,11.75-4.87,23.25-9.75,34.5-14.5.25-2.25.12-4.37.87-6.12.63-1.25,2.38-2.13,3.75-2.75,4.88-2.38,5.63-2.13,10.88,2.5.25-.5.87-1.13.75-1.5-.5-4.63,0-5.88,3.87-7.38,4.38-1.87,6.25-1.37,9,2.38.25.25.38.5.63.75,8.5-.25,13.75,4.5,17.25,11.62,1.37,2.75,2.62,5.5,3.87,8.25.38-.12.75-.12.75-.25,7.75-9.37,17.75-15.25,29.13-18.75,10.37-3.25,21-5.5,31.62-8.25,3.5-.87,7-1.87,10.5-2.87A72.11,72.11,0,0,0,403.7,532.6a32.35,32.35,0,0,1,4.87-3.12,2.74,2.74,0,0,1,3.88.75c.87,1.25.62,2.75-.88,3.87-.75.63-1.62.88-2.25,1.38-12.37,9.62-27,13.75-41.87,17.25-8.75,2.12-17.38,4.37-26,6.62a65.3,65.3,0,0,0-19.25,9.25c-4.5,3.13-8.38,6.63-10.88,12,10,21.5,20.13,43.38,30.38,65.13a5.69,5.69,0,0,0,1.12-.38c8.38-5.62,17.88-8.25,27.5-10.37,10-2.13,20-4.13,29.88-6.88a76.49,76.49,0,0,0,30.87-16.62,17.74,17.74,0,0,1,2.5-1.75,2.37,2.37,0,0,1,3.13.62,2.34,2.34,0,0,1,.25,3.13,14.43,14.43,0,0,1-2.38,2.37c-11.5,10.38-25.37,16.13-40.25,19.88-9.5,2.37-19.12,4.12-28.62,6.12A57.94,57.94,0,0,0,346,650c-1.88,1.25-2.5,2.62-2.5,5,.12,9.25-4.38,16.25-11.63,21.62a25.75,25.75,0,0,1-6.62,3.5q-40.69,15.75-81.38,31.38a34.75,34.75,0,0,1-7.25,1.75c-5.5.75-10-1.5-13.87-5.13-1.75-1.75-3.38-3.62-5.13-5.62-6.12,6.5-14,10-22.12,13.12a201.85,201.85,0,0,0-27.75,12.13c-11,6.12-21.13,13.37-29.75,22.5a32.59,32.59,0,0,1-3,2.75,2.34,2.34,0,0,1-3.13-.38,2.49,2.49,0,0,1-.5-3.12,22.65,22.65,0,0,1,2.13-2.63c15-15.87,33.37-26.5,53.5-34.12,4.62-1.75,9.37-3.63,13.87-5.5a39.34,39.34,0,0,0,11.88-7.88,4.59,4.59,0,0,0,1.12-5.75c-7.62-18.75-15-37.5-22.5-56.25C191.7,637,191.32,636.35,191,635.48Zm145.12,27.37c-.5.25-.87.5-1.37.75a101.63,101.63,0,0,1-9.5,5.13c-14,5.62-28.13,10.87-42.25,16.37-12.5,4.88-25,9.63-37.38,14.5-5,2-9.62,1.13-13.87-1.75a19.47,19.47,0,0,1-7-8.25,49.08,49.08,0,0,1-2.63-5.87C212.7,662,203.32,640.1,194,618.35a30.72,30.72,0,0,0-1.38-2.75c-.87,4.63.13,8.75,1.75,12.88q13.5,33.56,27,67.37a19.34,19.34,0,0,0,2.38,4.5c5.37,7.63,10.5,9.5,19,6.25l80.62-31.12a27.23,27.23,0,0,0,6.25-3.38A16.4,16.4,0,0,0,336.07,662.85Z"/><path class="cls-1" d="M277.42,633.83c.75,6.37,1.5,12.62,2.25,18.87a17.75,17.75,0,0,1,.25,4.38,3.09,3.09,0,0,1-2,2.25,3.74,3.74,0,0,1-2.88-1c-.75-.63-1-1.75-1.5-2.63-5.87-10.5-11.62-21-17.5-31.5a5.58,5.58,0,0,0-2.25-2.25c.38,4.13.88,8.13,1.25,12.25.13.63.13,1.38.25,2,.75,5.38.38,4.75-3.75,6.63-6.5,3-13.12,5.5-19.75,8.25a2.88,2.88,0,0,1-2,.37,4.35,4.35,0,0,1-2.5-1.87c-.37-.63.13-2,.75-2.63a8.11,8.11,0,0,1,2.88-1.62c5.62-2.38,11.37-4.63,17-7,.5-.25,1-.5,1.87-.88-.37-4.25-.87-8.5-1.25-12.75-.37-3.87-.75-7.62-1-11.5a5.15,5.15,0,0,1,.13-2.37c.62-2.5,3-3.38,5-1.75a14.91,14.91,0,0,1,2.75,3.5c5.12,8.37,10.12,16.75,15.12,25a8.9,8.9,0,0,0,2.25,2.62c-.25-2-.5-3.87-.75-5.87-.5-4.38.13-4.75,4.13-6.38,7.5-3,15-6.5,22.5-9.75a13.66,13.66,0,0,1,3.12-1.25,2.35,2.35,0,0,1,3,1.63,2.54,2.54,0,0,1-1,3.25,11.86,11.86,0,0,1-1.75.87c-7.62,3.38-15.37,6.75-23,10.13C278.17,633.33,277.79,633.58,277.42,633.83Z"/><path class="cls-1" d="M329.54,649.45c-.25,1.75-.37,3.5-.75,5.13-.62,2.62-2,3.75-4.62,2.87a24.63,24.63,0,0,1-6.5-2.75,3.77,3.77,0,0,1-1.88-4.62c.63-2,2.13-2.75,4.13-3a4.13,4.13,0,0,0,2.25-.88c1.37-1.62,3-2.5,5-1.62C329.17,645.7,329.42,647.58,329.54,649.45Z"/><path class="cls-1" d="M209.29,608.2c-2.62.13-4-.75-4.25-2.25s.63-2.5,2.13-3.12l6.37-2.25c2-.63,3.38,0,4,1.37s0,2.75-1.75,3.5A40,40,0,0,1,209.29,608.2Z"/><path class="cls-1" d="M210.79,614.58c-1.87,0-3-.63-3.37-2a2.23,2.23,0,0,1,1.5-3,49.9,49.9,0,0,1,7.12-2,2.34,2.34,0,0,1,2.88,1.75,2.39,2.39,0,0,1-1.63,3.25C215,613.45,212.67,614,210.79,614.58Z"/><path class="cls-1" d="M291.42,572.45a3.08,3.08,0,0,1,2.75,2.88,2.54,2.54,0,0,1-2.88,2.5,2.79,2.79,0,0,1-2.5-3A2.52,2.52,0,0,1,291.42,572.45Z"/><path class="cls-1" d="M297.42,581.45a2.65,2.65,0,0,1-2.63,2.63,2.38,2.38,0,0,1-2.5-2.25,2.53,2.53,0,0,1,2.38-2.75A2.47,2.47,0,0,1,297.42,581.45Z"/><path class="cls-1" d="M297.92,585.2a2.39,2.39,0,0,1,.5,4.75,2.52,2.52,0,0,1-2.75-2.37A2.35,2.35,0,0,1,297.92,585.2Z"/><path d="M70.2,780.1v.63a2.75,2.75,0,0,1-2.5,2.75,2.41,2.41,0,0,1-2.75-2c-.25-1.13-.38-2.25-.63-3.38-2-16.5-4-32.87-5.87-49.37-1.88-16.13-3.75-32.25-5.75-48.38s-3.88-32.5-5.88-48.75c-1.12-9.75-2.37-19.37-3.5-29.12a3.69,3.69,0,0,1,.13-2,2.55,2.55,0,0,1,2.37-2.13,2.35,2.35,0,0,1,2.63,1.75,17.71,17.71,0,0,1,.75,3.63c2.75,22.62,5.37,45.25,8.12,68,2.63,22,5.13,44,7.75,66,1.63,13.5,3.25,27,4.88,40.62C70.07,778.85,70.07,779.23,70.2,780.1Z"/><path d="M48.7,766.1c0,1.25.12,2.5,0,3.75a2.67,2.67,0,0,1-2.38,2.5,2.47,2.47,0,0,1-2.75-2A13.07,13.07,0,0,1,43.2,768c-.63-7.5-1.38-15.13-2-22.63a7.51,7.51,0,0,1,0-3.37,4.6,4.6,0,0,1,2.12-2.25c1.38-.5,2.38.37,2.88,1.75a20.14,20.14,0,0,1,.5,2.62c.75,7.25,1.5,14.63,2.12,22Z"/><path d="M148.2,566.48a12.19,12.19,0,0,1,2,1.37l8.62,8.63c2,2,2.38,3.75,1.13,5s-2.88,1-5-1c-2.75-2.63-5.5-5.38-8.13-8.13a7.44,7.44,0,0,1-1.5-2.5C144.82,568.23,146.07,566.6,148.2,566.48Z"/><path d="M157.07,557.35a3,3,0,0,1,1.88-3.12,2.68,2.68,0,0,1,3.37,1.5c2,4,4,8.12,5.88,12.12.75,1.75.25,3.13-1,3.88a2.84,2.84,0,0,1-3.75-1.25c-2.13-4-4.25-8-6.25-12A3,3,0,0,0,157.07,557.35Z"/><path d="M172.7,555.73c0-1.5-.13-3,0-4.38a2.87,2.87,0,0,1,2.87-2.75c1.5,0,2.38,1,2.63,3,.25,3.75.5,7.38.75,11.13.12,2.12-.75,3.37-2.25,3.62s-2.88-.87-3.25-2.87c-.5-2.5-.63-5.13-1-7.75Z"/><path d="M534.29,524.66l61-.75c1.75,0,3.62.13,5.37.25,2.5.13,3.25.63,3.63,3.13.37,2.25.5,4.5.75,6.75,1.62,15.75,3.25,31.37,4.87,47.12a18.65,18.65,0,0,1,.13,2.75,3.19,3.19,0,0,1-2.38,3.25,20.45,20.45,0,0,1-7.25,1.25l-121.25-.75c-4.62,0-6.12-1.37-6.75-5.87-2.5-17-5-33.88-7.5-50.88a15.89,15.89,0,0,1-.25-2.37c0-2.25.88-3,3.13-3.13l66.5-.75Z"/><path class="cls-1" d="M527.67,549c.88-1.75,1.75-3.38,2.63-5a21,21,0,0,1,1.25-2.38c1-1.5,2.5-2,3.75-1.25a2.69,2.69,0,0,1,1.12,3.5c-.5,1.5-1.25,2.88-2,4.63h6.5a9.55,9.55,0,0,1-1-3,5.12,5.12,0,0,1,1-3c1-1,2.38-.63,3.38.37a17.8,17.8,0,0,1,2.25,3c1.25,2.13,2.87,3.38,5.5,2.88a15,15,0,0,1,4.12,0c2.88.12,4.13,1.5,3.88,4.37a13.73,13.73,0,0,1-.75,3c-2,4.25-4,8.38-6,12.63a5.83,5.83,0,0,1-5.5,3.37c-6,.13-12,.38-18,.63a5.79,5.79,0,0,1-6-3.38c-1.88-3.37-4-6.62-6-9.87a17.33,17.33,0,0,0-1.25-2c-2.88-4.38-2-9,4.75-8.38C523.17,549.09,525.42,549,527.67,549Zm12.63,17.5v-12h-6.13c1.13,4.25,2.13,8.12,3.13,12.12A24.1,24.1,0,0,0,540.3,566.47Zm6-10.63v10.63c.87-.25,1.62-.13,1.75-.5,2.37-3.5,4-7.38,6-12C551.05,554.72,548.8,555.34,546.3,555.84Zm-24.75-1.12c2.37,4,4.5,7.37,6.5,11,.75,1.25,1.62,1.75,3.37.75-.62-2.75-1.37-5.5-2-8.13-1.5-.25-2.87-.12-3.75-.75s-1.25-2-1.87-3.12C523.17,554.59,522.55,554.59,521.55,554.72Z"/><path d="M560.54,717.91c-25.63.25-43.13.5-60.5.63h-3a2.65,2.65,0,0,1-2.63-2.63,2.74,2.74,0,0,1,2.5-2.75,15.82,15.82,0,0,1,2.38-.12c35.25-.38,70.37-.88,105.62-1.25a29.32,29.32,0,0,1,3.38,0c1.75.25,2.87,1.37,2.75,2.87s-1.13,2.38-2.75,2.5a24.18,24.18,0,0,1-3.13.13C587.66,717.54,570,717.79,560.54,717.91Z"/><path d="M537,737.91l37.12-.75a29.38,29.38,0,0,1,3.38.13,2.64,2.64,0,0,1,2.75,2.5c.12,1.5-.88,2.5-2.75,2.87a14.61,14.61,0,0,1-2.38.13l-71.37,1.87a56.42,56.42,0,0,1-6.5-.25c-2.25-.25-3.25-1.25-3.25-2.75,0-1.75,1.25-2.62,3.62-2.75,12.75-.25,25.38-.62,38.13-.87h1.37C537,738,537,737.91,537,737.91Z"/><path d="M595.54,741.79c-1.75.12-3.63.25-5.38.25a4.5,4.5,0,0,1-2.62-.5,3.31,3.31,0,0,1-1.5-2.38,3.52,3.52,0,0,1,1.62-2.25,4.53,4.53,0,0,1,2.63-.5c3.37-.25,6.75-.37,10.12-.5a14.61,14.61,0,0,1,2.38.13,2.64,2.64,0,0,1,2.12,3,2.56,2.56,0,0,1-2.5,2.37c-2.25.13-4.5,0-6.75,0A.48.48,0,0,0,595.54,741.79Z"/></g><g id="Picking"><path d="M696.62,423.25l-179.25,1.12h-3.75c-3.5-.12-4.38-.75-4.75-4.37-1-9.38-1.88-18.75-2.88-28.13-1.5-14.87-3-29.87-4.5-44.75-1.5-14.37-2.87-28.75-4.37-43-1.5-14.87-3-29.87-4.5-44.75-1.5-14.25-2.88-28.5-4.25-42.75-1.13-11.62-2.25-23.25-3.5-34.87a7.6,7.6,0,0,0-1.13-2.75c-1.37-2.25-.87-3.88,1.75-4.63a7.29,7.29,0,0,1,2.38-.37c2,0,4.12.37,6.12.37q173.63.94,347.25,2c1.88,0,3.63-.12,5.5,0,2.5.13,3.25.88,3.5,3.25,1.5,11.5,3,23,4.63,34.38,2.37,17,4.75,34,7.12,50.87,2.63,18.5,5.25,37.13,7.88,55.63,2.37,17,4.75,34,7.12,50.87,2.13,15,4.13,29.88,6.25,44.88v.37c.88,4.88.5,5.38-4.62,5.38q-90.95.93-182,1.25Z"/><path id="Path-Copy" class="cls-1" d="M666.62,388.25l-179.25,1.12h-3.75c-3.5-.12-4.38-.75-4.75-4.37-1-9.38-1.88-18.75-2.88-28.13-1.5-14.87-3-29.87-4.5-44.75-1.5-14.37-2.87-28.75-4.37-43-1.5-14.87-3-29.87-4.5-44.75-1.5-14.25-2.88-28.5-4.25-42.75-1.13-11.62-2.25-23.25-3.5-34.87a7.6,7.6,0,0,0-1.13-2.75c-1.37-2.25-.87-3.88,1.75-4.63a7.29,7.29,0,0,1,2.38-.37c2,0,4.12.37,6.12.37q173.63.94,347.25,2c1.88,0,3.63-.12,5.5,0,2.5.13,3.25.88,3.5,3.25,1.5,11.5,3,23,4.63,34.38,2.37,17,4.75,34,7.12,50.87,2.63,18.5,5.25,37.13,7.88,55.63,2.37,17,4.75,34,7.12,50.87,2.13,15,4.13,29.88,6.25,44.88v.37c.88,4.88.5,5.38-4.62,5.38q-90.95.93-182,1.25Z"/><path class="cls-2" d="M636,136.5H813.82a36.15,36.15,0,0,0,3.75-.13c2.63,0,3.5.63,3.88,3.13.75,4.62,1.37,9.25,2,13.87,2.87,20.88,5.87,41.88,8.75,62.75,3,22,6.12,44.13,9.12,66.13,2.88,20.5,5.75,40.87,8.63,61.37l5.62,40.5c.13,1,.5,2,.63,3,.25,2.63-1.25,4.13-3.75,3.75a30.5,30.5,0,0,0-4.75-.37q-182.25.18-364.38.25H480.2c-3.88-.13-4.63-.75-5.13-4.75L474,375.5c-1.63-16.75-3.38-33.5-5-50.13-1.88-19-3.88-38-5.88-56.87-1.75-16.75-3.37-33.5-5-50.13s-3.37-33.5-5.12-50.12c-1-9.25-1.88-18.5-2.88-27.75-.37-3.25.63-4.25,3.88-4.5H636Zm180.25,5.62H669.82q15.38,121.5,30.75,242.63H849.82C838.7,303.75,827.45,223.12,816.2,142.12Z"/><path d="M752.82,211.12,697,213.75h-1c-3.25,0-4.38-.75-4.63-4-.5-4.88-1-9.75-1.37-14.63-1-11.25-2.13-22.37-3.13-33.62-.37-3.38,1-5.13,4.38-5.5a10.28,10.28,0,0,1,2,0c35.37-.13,70.62-.38,106-.5H801c4,0,5.5,1.25,6.12,5.25l3.38,19.12c1.25,7.25,2.62,14.5,3.87,21.75a10.62,10.62,0,0,1,.25,2c.13,3.13-1.25,4.63-4.37,4.88-2.88.12-5.63.37-8.5.5C785.45,209.75,769.2,210.5,752.82,211.12Z"/><path d="M544.79,217.23c.88-1.25,1.63-2.25,2.38-3.12,8.87-12,19.62-22,33.12-28.88a55.1,55.1,0,0,1,23.13-6.37,35.81,35.81,0,0,1,13.12,1.87,25.24,25.24,0,0,1,3.25.88c2.5.87,5.38,1.5,7.5,3,15.13,10.37,26.25,23.62,30.5,41.87,2.5,10.63,1.5,21-1.25,31.38-3.37,12.12-9.12,23.25-15,34.25a17.65,17.65,0,0,1-1.5,2.62c-2.12,2.75-2.25,5.75-1.75,9.13,3.38,24.87-14.75,49.5-39.75,52.87a35.54,35.54,0,0,1-37.62-21.62,20.86,20.86,0,0,0-2.88-4.88c-7.62-9.37-9-20.12-6.12-31.5,1.12-4.5,3.25-8.87,5-13.25-.5.38-1.25,1-2,1.63-10.75,8.75-22.88,13.5-36.88,12-12.37-1.38-21.75-7.38-27.12-19a14.48,14.48,0,0,0-1.25-2.38c-9.75-15.25-8.75-33.12,2.62-47.25,8-10,18.25-15.87,31.13-16.75a46,46,0,0,1,18.37,2.75A6.57,6.57,0,0,1,544.79,217.23Zm19.38,59c.12.13.25.25.37.25a7.43,7.43,0,0,0,1.25-.87c9.88-7.75,20.88-9.75,32.75-5.5,4.13,1.5,8.38,1.62,12.63,2.37a96.5,96.5,0,0,0,20-36.87c2.37-8.63,3.37-17.38,1.87-26.25-1-5.38-2.75-10.5-6.37-14.88A25.9,25.9,0,0,0,616,196.86c-15.12,6.5-27.12,16.75-36.87,29.87A102.53,102.53,0,0,0,571,240.11a5.75,5.75,0,0,0-.5,3.5c2.75,10.87.5,20.87-5,30.37A20.85,20.85,0,0,0,564.17,276.23Zm-.88,42.38c-.25,22.75,18.75,37.5,40.25,31.25,18.38-5.38,31.63-25.38,29.38-44.38-2.5-20.87-21.13-33.37-42.13-25.87C574.67,285.11,563.54,301.36,563.29,318.61Zm71.38-27c.5-.38.75-.5.87-.63,6.38-11.37,12.5-23,15.88-35.75,5.25-19.62,1.37-37.37-12-52.75-.88-1-1.75-2-3-3.37a5.93,5.93,0,0,0,.12,1.75c3.75,10.87,3.38,21.87.88,32.87-3.13,14-9.63,26.38-18.25,37.75-.75,1-1.38,1.88-2.25,3.13A36.68,36.68,0,0,1,634.67,291.61Zm-111.25-5c1.5-.13,2.5-.25,3.5-.38,12.75-2.62,21.87-10,27.62-21.62a18.9,18.9,0,0,0,1.5-4.5c1.88-9.13-3.12-14.88-12.5-14.25a2.89,2.89,0,0,0-1,.12c-14,2.75-23.87,10.63-29.25,23.75a20.72,20.72,0,0,0-1,8.38c.25,4,2.75,6.62,6.63,7.87C520.42,286.23,522.17,286.36,523.42,286.61Zm43.37-51.38a109.09,109.09,0,0,1,22.75-28.12c9.13-8,19.25-14.25,31-17.75-2-2.13-5.75-3.75-9.62-4.5-8.75-1.63-17,.25-24.88,3.75-15.62,6.87-27.37,18.25-36.87,32.25-.13.12,0,.37-.13.87A33.63,33.63,0,0,1,566.79,235.23Zm-78,22.13a51,51,0,0,1,16.63-25.25,53.31,53.31,0,0,1,28-11.88C508.79,213.36,485.79,238,488.79,257.36Z"/><path class="cls-1" d="M737.17,175.91l3-5.25c.5-.75.88-1.75,1.63-2.13a4.56,4.56,0,0,1,3.12-.25,2.08,2.08,0,0,1,1.13,2.88c-.5,1.37-1.25,2.62-2,4.25,2.12.87,4-.13,6.5.12-.75-1.37-1.25-2.37-1.63-3.25-.75-1.62-.5-3.12.75-3.87s2.63-.5,3.88,1c1.25,1.75,2.5,3.5,3.62,5.25,2-.13,3.88-.5,5.63-.5,3.25,0,4.62,1.62,4.12,4.75-.87,5-1.87,10-2.87,15-.5,2.5-1.75,3.37-4.38,3.37l-19.75.75c-4.87.13-5.62-.37-7.37-4.75-1.5-3.75-3.13-7.5-4.75-11.25-1.5-3.25-1-4.5,2.5-5.25A54,54,0,0,1,737.17,175.91Zm3,7.62c-1.75.25-3.37.38-5.12.63,1.12,2.75,2.25,5.62,3.5,8.37,1.5-.12,2.75-.12,4.37-.25C741.8,189,740.92,186.16,740.17,183.53Zm15-.62c.25,2.5.5,5.5.88,8.62h2.87q.95-5.62,1.88-10.5C758.92,181.66,757.17,182.16,755.17,182.91ZM749.3,181c-1.63.25-2.63.5-3.75.63,1.37,6.75,2.37,9,4.62,10.25C750.17,188.28,749.67,184.91,749.3,181Z"/><path d="M719.79,148.11a18.2,18.2,0,0,1-2-1.5,18.15,18.15,0,0,1-1.5-2.63c-4.37-7.12-8.75-14.37-13.12-21.5-1.13-1.87-1.25-3.12.12-4.25s3.13-.87,4.5.75c1.13,1.38,2.13,3,3.13,4.5,4,6.63,7.87,13.25,11.75,20a3.78,3.78,0,0,1,.62,1.88A3.16,3.16,0,0,1,719.79,148.11Z"/><path d="M734.67,141c0,1.75-.63,2.75-2,3.13a2.34,2.34,0,0,1-2.88-1.25,29,29,0,0,1-1.25-2.75c-2.62-7.75-5.37-15.38-8-23.13a3,3,0,0,1-.25-1c-.37-1.87.13-3.25,1.5-3.75s3,0,3.75,2c1.63,4.13,3,8.38,4.38,12.5s2.75,8.13,4.12,12.25A19.39,19.39,0,0,0,734.67,141Z"/><path d="M653.92,330.86a65.34,65.34,0,0,1-2.75,6.87c-3,5.88-7.25,10.63-12,15.25a3.7,3.7,0,0,1-2.38,1.25,3.91,3.91,0,0,1-2.62-1.12,3,3,0,0,1,0-2.75c.25-.75,1.12-1.38,1.75-2,5.25-5.38,10.25-11,12.25-18.5a3.28,3.28,0,0,1,.75-1.5,2.47,2.47,0,0,1,3.25-1.13C653.54,327.61,654,328.61,653.92,330.86Z"/><path d="M515.17,197.61a6.65,6.65,0,0,1-1.88,1.87,43.73,43.73,0,0,1-4.37,1.75c-5,2-9.75,4.5-12.63,9.25a2.43,2.43,0,0,1-3.5,1,2.6,2.6,0,0,1-1.25-3.5,12.63,12.63,0,0,1,2.5-3.62,31,31,0,0,1,11.5-7.63,43.78,43.78,0,0,1,6.38-2.25C513.92,193.86,515.29,195.11,515.17,197.61Z"/><path d="M744.92,137.61V139a2.55,2.55,0,0,1-2.13,2.38,2.72,2.72,0,0,1-3-1.75,9.75,9.75,0,0,1-.5-2c-.62-5.63-1.37-11.25-2-16.88a4.29,4.29,0,0,1,0-1.75,2.67,2.67,0,0,1,2.5-2.37,2.38,2.38,0,0,1,2.63,1.62,7.37,7.37,0,0,1,.37,1.63C743.67,126,744.29,131.86,744.92,137.61Z"/><path d="M492.67,201.11c-1.75,0-3-1.13-2.88-2.63a5.06,5.06,0,0,1,1.25-3c2.88-2.62,6-5.12,9-7.75a3.29,3.29,0,0,1,.88-.5c1.62-.62,3.25-.25,3.87,1s.25,2.5-1.25,3.75c-3.12,2.63-6.12,5.38-9.25,8A9.89,9.89,0,0,1,492.67,201.11Z"/><path d="M656.79,345.23a7.06,7.06,0,0,1-.75,1.88c-1.62,2.5-3.25,5.12-5.12,7.5-1.25,1.62-2.88,1.87-4.13,1s-1.37-2.5-.25-4.25c1.75-2.88,3.63-5.75,5.5-8.5a2.59,2.59,0,0,1,3.25-1.13A3.13,3.13,0,0,1,656.79,345.23Z"/><path d="M579.92,320.86c.12-11.38,11-22.88,24.75-20.5,7.87,1.37,13.37,8.62,13.12,16.75-.37,11.87-11.87,21.62-23.62,20.12A16.25,16.25,0,0,1,579.92,320.86Zm16.62,10.87a16.22,16.22,0,0,0,15.13-11.5c2.37-8.62-3.75-15.75-12.5-14.5a16.64,16.64,0,0,0-13.5,13.13C584.54,326,589.29,331.73,596.54,331.73Z"/><path d="M567.42,315.73c.87-3,1.37-6.25,2.5-9.12a44.6,44.6,0,0,1,19-22.5,32.87,32.87,0,0,1,6.87-2.75,2.53,2.53,0,0,1,3.25,1.75,4.18,4.18,0,0,1-.5,2.75c-.25.5-1.12.75-1.75.87C584,291.48,576.79,301,573.54,314c-.25,1-.25,2-.5,3-.37,1.88-1.37,2.88-2.75,2.75a3.21,3.21,0,0,1-2.75-3v-1Z"/><path d="M577.92,337.48a3.4,3.4,0,0,1-3.38-3.12,2.71,2.71,0,0,1,2.5-2.63,3.5,3.5,0,0,1,3.38,3.13A2.62,2.62,0,0,1,577.92,337.48Z"/><path d="M603.29,319.36a4.91,4.91,0,0,0,0-1.38c-.12-3.25-2.37-4.37-5.12-2.62a19,19,0,0,0-1.88,1.5,2.62,2.62,0,0,1-3.75-.25c-1.12-1.13-.87-2.5,0-3.75,2.38-3.5,8.13-5,11.88-3.13s5.75,7.88,3.87,11.88c-.62,1.37-1.5,2.25-3.12,2a2.76,2.76,0,0,1-2.13-3,5.73,5.73,0,0,1,.25-1.25Z"/><path d="M756.57,372.25H715.7a6.38,6.38,0,0,1-1.63-.13c-1.12-.37-2.12-1.25-1.87-2.5a4.58,4.58,0,0,1,1.75-2.5c.75-.5,2-.37,3-.37,26.25-.13,52.37-.13,78.62-.25a18.92,18.92,0,0,1,3.75.25,2.45,2.45,0,0,1,2,2.5,2.55,2.55,0,0,1-1.87,2.62,15.4,15.4,0,0,1-3.38.25h-39.5Z"/><path d="M753.45,351.12c8.25-.12,19.87-.37,31.62-.62a25.08,25.08,0,0,1,3,.12c1.25.25,2.25,1.13,2,2.38a4.44,4.44,0,0,1-1.62,2.62,4.53,4.53,0,0,1-2.63.5l-67,.38c-2,0-4.12,0-6.12-.13a2.79,2.79,0,0,1-2.88-2.75c0-1.5,1.13-2.5,3-2.62,1.63-.13,3.13,0,4.75,0C728.45,351.12,739.2,351.12,753.45,351.12Z"/><path d="M715.45,330.25c-1.25-.75-2.63-1.25-3.88-2.13-3.62-2.37-4.12-5.62-1.37-9a7.81,7.81,0,0,1,1.37-1.5,2.86,2.86,0,0,0,1.38-3.25V314c.12-3,1-4.38,2.75-4.38s2.5,1,3,4.38c.75.25,1.62.5,2.37.75,1.75.75,2.5,1.87,2.13,3.37a2.51,2.51,0,0,1-3.13,2c-2.5-.25-4.25.75-6,3,1.63.75,2.88,1.25,4.13,1.88a18.22,18.22,0,0,1,3.75,2.12c2.87,2.63,2.25,6.25-1.25,8-.63.25-1.25.5-2,.88-.25,2,.75,4.75-2.38,5.12-2.75.25-2.87-2.25-3.62-4.12a2,2,0,0,0-.63-.25c-1.62-.13-2.87-.75-3.12-2.5-.13-1.5,1.12-2.63,3.12-3.13a24.59,24.59,0,0,1,3-.62C715.32,330.5,715.32,330.37,715.45,330.25Z"/><path d="M744.2,328.12c-2-.25-3.88,0-5.5-.62-3-1.25-4.5-5.13-3.5-8.38a9,9,0,0,1,5.62-6,6.83,6.83,0,0,1,8.63,4.13,17.94,17.94,0,0,1,.12,13c-1.75,4.5-5.37,6.25-9.75,6.75a2.52,2.52,0,0,1-1.62-.25,2.66,2.66,0,0,1-2-2.5,2.47,2.47,0,0,1,1.75-2.63c.87-.25,1.75-.25,2.62-.5C742.2,330.75,743.82,330.12,744.2,328.12Zm-3.13-5.5c1.63-1.25,2.25-2.37,1.63-4.12C741.07,319.37,740.07,320.37,741.07,322.62Z"/><path d="M760.82,329.75a1.61,1.61,0,0,1-.37-.25c-2.88.87-5.5.5-7.25-2.13s-1.5-5.62.12-8.37c2.38-4.13,5.63-5.38,9.88-3.5a5.41,5.41,0,0,1,2.5,2.5,34.57,34.57,0,0,1,1.75,8.62c.37,4.5-2,7.75-5.63,10.13a11.19,11.19,0,0,1-2.12,1,2.6,2.6,0,0,1-3.38-1.5,2.56,2.56,0,0,1,1.25-3.5C758.82,332,760.2,331.5,760.82,329.75Zm-.62-8.88c-2,.38-2.75,1.38-1.63,3.38C759.07,323,759.7,321.87,760.2,320.87Z"/><path d="M776.45,327.62c.12-3.25,1.37-6.12,4.87-7.5,4.88-2,9.88,1.63,9.13,6.88a12.33,12.33,0,0,1-2.25,5.25c-2,2.87-4.63,3.62-7.38,2.62C777.82,333.62,776.32,331.37,776.45,327.62Zm8.12-2.5c-2.87,1.25-3,1.88-1.62,4.13A3.31,3.31,0,0,0,784.57,325.12Z"/><path d="M773.82,335a2.38,2.38,0,1,1-4.75-.25,2.36,2.36,0,0,1,2.5-2.13A2.19,2.19,0,0,1,773.82,335Z"/></g><g id="Man"><path class="cls-1" d="M929.64,816.76c-1.75,3.63-2.13,3.75-5.88,3-4.75-1-9.5-2.12-14.25-3.25a17.62,17.62,0,0,0-5-.75c-2.5.13-4.37-.12-4.62-3.12-2.38-.13-4.5-.38-6.75-.5a136.84,136.84,0,0,1-29.38-3.25c-2-.38-2.62-1-2.62-3.25,0-3.25.12-6.63.25-9.88.87-18.12,1.62-36.37,2.5-54.5,1-22.75,2.12-45.37,3.12-68.12.75-16.88,1.5-33.88,2.25-50.75,1-22.88,2.13-45.88,3.13-68.75.75-16.63,1.5-33.38,2.25-50l3.37-73.5c0-1.13.25-2.88,1-3.38,1.75-1.12,1.88-2.62,2-4.37.25-3.63,1.63-6.25,5.63-7.13s5.12-4.25,5.62-7.75a123.5,123.5,0,0,0,1.38-13.5c.62-13.75,1.12-27.5,1.37-41.25.25-12.37.13-24.75,0-37.12-.12-5.13-.75-10.13-1.12-15.25a5.57,5.57,0,0,0-.25-1.38c-2-9.62-8.75-14.12-18.25-11.75a39.83,39.83,0,0,0-20.88,12.88c-4.5,5.25-8.5,10.87-12.75,16.37a43.71,43.71,0,0,0-2.62,4c.37.5.5.88.87,1.13a162.13,162.13,0,0,0,24.38,16.75c3.75,2,7.12,2.37,10.87.12a18,18,0,0,1,5.13-1.87c3-.5,4.5,1.5,3.75,4.37a24.06,24.06,0,0,1-1.38,3.13,20.56,20.56,0,0,0-2.25,11.25c.5,5.5-2.12,10.12-4.25,14.87-1,2.13-2.87,2.75-5.25,2.13a43.24,43.24,0,0,1-6.62-2.63c-9.63-4.37-19.25-8.75-28.63-13.37-10.12-5-20.5-9.88-29.87-16.25a81.52,81.52,0,0,1-8.25-6.5c-5.38-4.88-6.25-9.63-2.13-15.75,4.88-7.13,10.25-13.88,15.63-20.63s11-13,16.25-19.75c3.12-4,5.5-8.62,8.12-12.87a13.92,13.92,0,0,0,1.38-3.13c1.25-3.5.87-4.5-2.38-6.25-12.5-6.62-25.12-13.12-37.75-19.75-2.12-1.12-4.25-2.25-6.25-3.5-4-2.5-6.87-5.87-7.87-10.62a18.65,18.65,0,0,0-.63-2c-.12-.25-.25-.38-.37-.63h-3.25c-3.63-.12-5.25-2.25-3.88-5.62,1.13-2.63,2.5-5.13,3.88-7.88a18.36,18.36,0,0,0-2.25-1.75c-4.5-3-9.13-6-13.63-9a43.71,43.71,0,0,1-4-2.62c-1.87-1.38-2.37-2.88-1.62-4.38,1-1.75,2.62-1.5,4.25-1.25.37.13.62.13,1,.25,6.87,1.75,13.62,3.63,20.5,5s12.12,4.5,15.62,10.38c1.63,2.87,4,4.12,7.13,5q14.05,4.31,27.75,9.37c7.5,2.75,14.87,6.13,22.37,9.13,1.38.5,2.63,1.12,4.25.62a5,5,0,0,1,3.13.75c1.87.88,3.62,2,5.37,2.88a11.89,11.89,0,0,0,9.88.25c1.87-.75,3.75-1.63,5.62-2.5,8.88-4.5,16.13-10.88,23.13-17.88A13.54,13.54,0,0,0,911,200c.13-5.5.38-11.12.5-16.62,0-.75-.12-1.5-.12-2.38-3.75-.5-7.25-1-10.88-1.62-8.87-1.75-11.75-4.5-13-13.25-1.37-9-1.75-18.13.88-27,1-3.38,1.62-6.88,2.75-10.13a35.54,35.54,0,0,1,3.87-7.87c3.25-5,8.25-7.38,14.13-7.75,15.75-.75,36.62,9.62,36.87,34.75.13,6.25-1.5,12.12-3.37,18s-4,11.62-5.25,17.62a84.53,84.53,0,0,0-1.5,15.88,20.11,20.11,0,0,0,1.87,7.5,44,44,0,0,0,4.25,7.37,67.3,67.3,0,0,0,5.13,6.75c13,14.63,20,32.13,23.12,51.13,1.88,11,2.75,22.12,4.13,33.12,1.75,13.75,3.37,27.5,5.12,41.25,1.38,10.25,2.88,20.5,4.25,30.75,1.63,12.25,5.38,23.88,10,35.25,1.38,3.38,2.88,6.75,4,10.13,1.5,4.37,3.13,8.75,2.25,13.62-.12.38.13.88.25,1.38,1.5,4.5,1.5,9.12,1.5,13.87a10.14,10.14,0,0,0,.13,2.75c.75,2,1,3.63-.88,5.25-.5.38-.37,1.5-.5,2.25-.5,9.25-1.12,18.38-1.37,27.63-.13,7.62.25,15.25.5,22.87,0,1.88.25,3.63-1.63,4.75-.62.38-.87,1.5-1,2.38-1.62,13.5-3.25,27-5,40.62-2,15.88-3.87,31.75-5.87,47.63-1.88,15.62-3.88,31.37-5.75,47-2,16-3.88,32-5.88,48-1.87,15.75-3.87,31.62-5.75,47.37s-3.87,31.63-5.75,47.38c-.5,4.5-1.25,9-1.62,13.5s-3.63,7.25-8.88,6.25C945.89,816,934.89,815.64,929.64,816.76Z"/><path class="cls-3" d="M886.92,331.4c-1.75,1.25-3.38,2.5-5,3.63a23.08,23.08,0,0,1-2.13,1.62c-2,1.13-4,.25-4.37-2a19.39,19.39,0,0,1,0-2.75c.87-13.25,1.62-26.5,2.5-39.75v-2.5a12.59,12.59,0,0,0-1.88,1.63c-2.87,3.25-5.75,6.5-8.5,9.75-1.37,1.62-2.75,2.25-5,1.37a18.6,18.6,0,0,1-5.5-3.12l-25.87-20.63a27.5,27.5,0,0,1-5-5.12c-2.25-2.88-2.13-4.13.25-6.88,5.62-6.37,11.12-12.87,17.12-19,8.25-8.5,16.75-16.75,25.13-25A50.82,50.82,0,0,1,891,209.53c4.5-1.25,8.75-3.13,13.25-4.63.13-.75.38-1.37.5-2a4.4,4.4,0,0,1,4.13-3.87c8.37-1,16.75-1.75,25-2.63a22.71,22.71,0,0,1,4.12.13c1.75.12,3.25.75,3.88,2.37,1,2.63,3,3.13,5.37,3.25a140.51,140.51,0,0,1,28.75,5,93.12,93.12,0,0,1,15.25,5.63c7.13,3.25,10.5,9.25,11,17.12.5,9-1,17.63-3.12,26.25-1.88,7.38-3.75,14.75-5.88,22a77,77,0,0,0-2.75,30.63c1.75,16.75,4.25,33.37,7.25,49.87,2.5,14,5,27.88,7.5,41.88,0,.37.13.62.13,1,.87,6.12-1.63,9.12-8,9.62-5.88.5-11.75.88-17.63,1.38-12.5,1.12-25.12,2.25-37.62,3.25-5.25.37-10.5.37-15.63.37-14.62.13-29.25.13-44,0a44.79,44.79,0,0,1-5.75-.5A2.9,2.9,0,0,1,874,412.4c-.62-11.62-1.25-23.12-1.87-34.62-.13-3.38,1-5.75,4.37-6.75,2.63-.75,4-2.88,4.88-5.38a30.82,30.82,0,0,0,1.37-13.5c-.87-6-.12-11.5,3.63-16.5C886.79,334.78,887.79,333.53,886.92,331.4Z"/><path d="M1005.88,474.62c-.63,18.5-2.25,38.63-4.88,58.63-3.12,24.25-6.87,48.37-10.12,72.5-2.5,18.62-4.75,37.12-7.13,55.75-3,23.62-6.25,47.25-9.25,70.87-1.62,13-3.25,25.88-5,38.88s-3.5,26.37-5.12,39.5c-.63,4.62-1.13,9.25-1.63,13.87-.37,3-1.25,3.75-4.25,3.5-11.25-.75-22.37-1.62-33.62-2.5-1.88-.12-3.5-.37-5,1.38-.5.62-1.88.87-2.75,1-9,.75-17.88,1.37-26.88,2-12.12.87-24.25,1.75-36.37,2.5-7.5.5-15,.75-22.5,1.12a12.49,12.49,0,0,1-3.75-.25,3.05,3.05,0,0,1-1.63-5.25,27.48,27.48,0,0,1,2.88-2.37c8.5-6.13,16.87-12.38,25.37-18.38a5.74,5.74,0,0,0,2.75-5c1.25-25.62,2.63-51.25,4-76.87,1.25-23.88,2.5-47.88,3.75-71.75,1.25-24.13,2.5-48.38,3.75-72.5,1-19.5,2.13-39,3.13-58.5l3-59.25c.75-14.25,1.5-28.63,2.25-42.88v-.37c.5-6,1.5-7,7.37-6.5a307.27,307.27,0,0,0,37.13,1.37c13.75-.5,27.5-1.12,41.12-1.75l27.25-1.5a13.17,13.17,0,0,0,3.25-.75c2.5-1,3.75-.62,4.38,1.75,2.12,7.75,4.37,15.5,6,23.38C1006.13,448.25,1006.25,460.5,1005.88,474.62ZM920.25,778c.25-4.38.63-8.75.88-13l3-47.63,4.5-69.75c1-16.25,2-32.37,3-48.62,1.5-24.88,3.12-49.63,4.75-74.5a57.27,57.27,0,0,1,.5-8.13c2.25-12.25,4.62-24.5,7-36.75a13.89,13.89,0,0,1,.87-3.25A2.25,2.25,0,0,1,947.5,475a3.83,3.83,0,0,1,2,2c.38.62.13,1.5,0,2.37-1.12,6.63-2.12,13.25-3.37,19.75-2.13,11-4.25,22-4.63,33.38-.5,14.75-1.75,29.5-2.75,44.25-1.37,20.75-2.62,41.5-4,62.25-.75,11.62-1.5,23.37-2.25,35-1.25,20.12-2.62,40.37-3.87,60.5-.88,12.87-1.63,25.87-2.5,38.75-.13,2.37,0,4.75,0,7.25a18.18,18.18,0,0,0,2.75,1c5.87.87,11.75,1.75,17.62.62,5.38-1,10.88-2.25,16.38-3.5.37-2.75.75-5.62,1.12-8.37,1.63-13.13,3.38-26.13,5-39.25,3.5-27.63,7.13-55.13,10.75-82.75,2.13-16.5,4.25-33.13,6.63-49.63,2-14.25,4.37-28.5,6.25-42.75,2.87-20.87,5.12-41.75,6.62-62.62a335.85,335.85,0,0,0,.88-38.88,135,135,0,0,0-6-33.75c-1-3.12-1.63-3.5-4.88-3.25-2.5.13-5,.38-7.5.5-15.37.75-30.87,1.63-46.25,2.38a371.48,371.48,0,0,1-40.87-.13c-3.88-.25-7.63-.5-11.75-.75-.13,2.25-.38,4.25-.5,6.25-1.25,24-2.38,48.13-3.63,72.13l-4.5,85.12c-1.75,32.75-3.37,65.63-5,98.38-1.62,30.37-3.12,60.75-4.75,91.25-.25,4.62,0,5,4.25,6.87a35,35,0,0,0,6.13,2.13,94.51,94.51,0,0,0,11.75,1.62C898,783.87,909.25,783.25,920.25,778Zm-.37,6.5c-9.38,3.62-18.63,4.62-28.13,4.37s-18.75-1-27.87-5.62c-.38,7.37-.75,14.12-1.13,21.37,18.38,4.13,36.63,7.13,55.13,11C918.5,805,919.13,795,919.88,784.5ZM924,807.12c5.88,1.13,11.5,2.25,17.13,3.13s11.25,3.12,17.25,3.62c1.25-10,2.62-19.5,3.62-29.62-12.25,4-24.25,5.12-36.62,2.25C924.88,793.5,924.5,800.12,924,807.12Z"/><path d="M937.38,187.75c.12,1.25.25,3.12.37,4.87a18.12,18.12,0,0,1,.25,2.75,2.74,2.74,0,0,1-2.25,3,2.67,2.67,0,0,1-3.12-2.37,43.74,43.74,0,0,1-.75-5.75c0-2.38-1.13-3.63-3.13-4.75-2.75-1.5-5.25-3.5-8.5-5.63-1.12.25-3.12.75-5,1.25.13,5.13.38,10,.5,14.88a25.08,25.08,0,0,1-.12,3,2.48,2.48,0,0,1-2.5,2.37,2.6,2.6,0,0,1-2.75-2.12,9.82,9.82,0,0,1-.25-2.75c-.13-3.13,0-6.13-.13-9.25,0-1.5-.37-2.88-.5-4.5-2,0-3.75-.13-5.5,0-7.25.5-12.37-3.13-16-9a23,23,0,0,1-3.25-10.63,5.66,5.66,0,0,0-2.62-4.75c-3.13-2.12-3.38-3.87-1-7.12a44.23,44.23,0,0,0,6.62-14.13c1.38-5.12,3.25-10.12,4.88-15.25.37-1.12.75-2.37,1.25-3.62-4.25-4.13-5.63-9.25-5.88-14.88a27.15,27.15,0,0,1,.75-7.75c1.38-4.87,7.13-8.25,11.88-3.12a4.71,4.71,0,0,0,1.12,1c2.5-2,4.75-4.5,8.13-4.5,3.75,0,5.37,2.87,7.12,5.37,4.25.38,8.5.5,12.63,1.13a50,50,0,0,1,8.25,2.12c3.12,1,5.37,3,6,6.38.12.37.37.87.62,1.5,1.88,0,3.75-.13,5.63,0,18.87,1,26.12,16.25,22.87,30.62a82.11,82.11,0,0,1-15.25,31.75,129.14,129.14,0,0,1-12,13C943.5,183.37,940.5,185.25,937.38,187.75Zm-38.63-65.88c-.37.88-.75,1.63-1,2.38-1.87,6-4,12.12-5.62,18.25A69.29,69.29,0,0,0,890,154.87c-.37,5.25,0,10.5,2.5,15.25,1.88,3.63,4.63,6.38,8.75,6.88,6,.75,11.5-1.38,17.38-2.63a28.23,28.23,0,0,1,.5-11.75c.75-2.75,2.12-4.37,5.12-4.62a14.14,14.14,0,0,0,3.25-.75c2.25-.88,4.13-2.25,4.13-4.88,0-3.12-.88-5.87-3.88-7.5-2.5-1.25-4.62-.25-6.5,1.38s-3.37,1.87-5.5.5c-3.87-2.63-7.37-5.63-9.25-10.13a30.69,30.69,0,0,1-2.12-12.12C902.5,123.75,900.75,122.87,898.75,121.87Z"/><path d="M844.38,320.37c1,.75,1.87,1.5,2.75,2.13,7.25,4.75,14.62,9.5,21.87,14.37,1.88,1.25,3.25,1.25,5.13-.12a92.22,92.22,0,0,1,9.62-5.75,9.75,9.75,0,0,1,3.25-1,3.44,3.44,0,0,1,4.13,3.75,11.58,11.58,0,0,1-1.88,5c-6.62,8.62-5.12,6.87-4.87,16.25.25,7.25-2.63,13.25-6.38,19-1.62,2.37-3.87,2.75-6.5,1.5-7.62-3.63-15.37-7.25-23.12-10.88-9.88-4.62-19.88-8.87-29.63-13.75-8.87-4.37-16.5-10.5-23.75-17-5.25-4.75-6.37-10.12-3.5-16.62a41.54,41.54,0,0,1,4.38-7.63c6.37-8.25,12.87-16.5,19.37-24.62,2.88-3.5,5.88-6.88,8.88-10.38.37-.37.75-1.12,1.12-1.25.88-.25,2.25-.62,2.75-.12a3.78,3.78,0,0,1,1.25,2.75,7.45,7.45,0,0,1-1.5,3c-2.12,2.62-4.5,5.12-6.62,7.75C814.5,294.87,808,303,801.5,311.12a54.48,54.48,0,0,0-4.5,7.25c-2.62,5.25-2,8.25,2.38,12a119.2,119.2,0,0,0,30.75,20c10.75,4.75,21.37,9.5,32,14.25,3.75,1.63,7.37,3.5,11.12,5.38,3.13-4,5.5-8.13,5.13-13.38-.13-1.5.12-3,0-4.37-.38-4.88,0-9.5,3.62-13.38a2.1,2.1,0,0,1-.62-.5c-1.63,1.13-3.38,2.13-4.88,3.38-3.25,2.62-6.25,3-9.87.5-8.25-5.63-16.75-10.88-25-16.5-5.38-3.63-5.25-4.13-1.63-9.5,4.25-6.25,8.5-12.38,12.75-18.5a15.52,15.52,0,0,1,1-1.38,2.41,2.41,0,0,1,3.38-.37,4.2,4.2,0,0,1,1,3,9.52,9.52,0,0,1-1.88,3.5c-3.37,5-6.87,9.87-10.37,14.87A11,11,0,0,1,844.38,320.37Z"/><path d="M762.88,189.62c.87.63,1.5,1.13,2.12,1.5,4.63,2.88,9.13,5.88,13.88,8.75a7.94,7.94,0,0,0,3.75,1c5.62.13,10,2.5,13.87,6.38a5.68,5.68,0,0,1,.88,1,2.72,2.72,0,0,1-.13,3.75,2.66,2.66,0,0,1-3.5.12c-.87-.62-1.75-1.5-2.62-2.25a11.92,11.92,0,0,0-10.63-3l3.38,1.88c3.62,1.87,4,2.62,3.25,6.75-.13.5-.25,1.12-.38,1.62-.62,4.88,1.13,8.38,5.63,10.63,14.37,7.5,28.87,15,43.25,22.5.87.5,2,.87,2.5,1.62a4.25,4.25,0,0,1,.62,2.75,2.19,2.19,0,0,1-2.62,1.63,8,8,0,0,1-2.88-1c-13.37-7-26.75-13.88-40.25-20.88-.25-.12-.62-.37-.87-.5-7.88-4.12-8-4.25-11-12.37-2,0-4.13.37-6-.13-4.13-.87-5.75-3.87-4.75-7.87a7.31,7.31,0,0,1,.87-2.5c1.75-2.38,2-5.13,2-8.38-2.12-1.37-4.5-2.87-6.87-4.37-3.38-2.13-6.88-4.13-10.13-6.25a22.81,22.81,0,0,1-4-3.75c-1.25-1.5-1.75-3.25-.62-5a4.37,4.37,0,0,1,4.62-2.13,13.73,13.73,0,0,1,3,.75c8.88,2.75,17.75,5.63,26.63,8.25,6,1.75,11.12,4.38,14.62,9.75,2,3.13,5,4.75,8.38,5.88,14.12,4.62,28.12,9.5,42.25,14.37,3,1,8,4.25,10.87,5.38a3.63,3.63,0,0,1,2,1.25,3.87,3.87,0,0,1,.75,2.75,3.07,3.07,0,0,1-2.25,1.62,6,6,0,0,1-2.87-.62c-15.75-5.5-33.5-13-49.25-18.5a.46.46,0,0,1-.38-.13c-11.25-3.87-8.62-2.25-15.25-10.37a14.86,14.86,0,0,0-7.12-5c-7.75-2.38-15.63-4.75-23.5-7C764,189.37,763.63,189.5,762.88,189.62Zm14.37,22c-.62,1.5-1.12,2.75-1.62,4.13,2.62,1,4.25-.13,6.25-1.5C780.38,213.37,779,212.62,777.25,211.62Z"/><path d="M900.5,168a22.08,22.08,0,0,1-4-1.5,2.54,2.54,0,0,1-1.12-3.5,2.44,2.44,0,0,1,3.12-1.38c2.5,1.13,4.38,0,6-1.75a3.16,3.16,0,0,1,.75-.62c1.75-1.25,3.13-1.25,4.25,0,.88,1.12.88,2.5-.5,4C906.75,165.75,904.25,167.75,900.5,168Z"/><path d="M895.13,142.75c0-2.25,1-3.63,2.62-3.63s2.88,1.25,3.13,3.38a5.6,5.6,0,0,1,0,2c-.25,2-1.38,3.25-2.88,3.25s-2.62-1.25-2.87-3.25Z"/></g><g id="Money"><path d="M736,54.1c0-26.63,20.62-50,47.75-53.63a55.1,55.1,0,0,1,61.5,46.25c4.5,28.13-14.13,55.38-42,61.63-2.5.62-4,1.62-4.63,4.12a49.9,49.9,0,0,1-2,6.13c-1.62,3.87-4.37,4.25-6.87,1a79.74,79.74,0,0,1-5.25-7.5,7.23,7.23,0,0,0-5.38-3.63A53.5,53.5,0,0,1,745.75,86C739.12,76.6,736,66.22,736,54.1Z"/><path class="cls-1" d="M817,67.65c0,1.5-.13,3.12,0,4.62.25,2.38-.88,3.63-2.88,4.38a38.76,38.76,0,0,1-17.62,3A71.35,71.35,0,0,1,778.9,76c-3.62-1.12-7.25-2.12-11-1.62A16.7,16.7,0,0,0,763,75.77c-3.25,1.63-5.88.63-6.63-3.12-.25-1.38-.37-2.75-.5-4-.87-6-1.75-11.88-2.62-17.88A14.67,14.67,0,0,1,753,48.4c-.25-4.13,1.12-6.13,5-7.25a26.11,26.11,0,0,1,5.37-.75,31.41,31.41,0,0,1,3.5,0c-.25-1.63-.37-2.75-.5-4-.37-3.5.88-5.5,4.13-6.88a15,15,0,0,1,9.37-.25c5.25,1.38,10.63,2.5,16.13,2.25a64.52,64.52,0,0,0,19.5-4.25l1.87-.75c3.13-1.12,5-.5,5.88,2.5a87.37,87.37,0,0,1,2.87,12.63c.88,6,1.38,12,2,17.87.25,2.88-.75,4.75-3.62,5.75A40.24,40.24,0,0,1,817,67.65ZM761.78,69.4c4-.13,7.75-.5,11.37-.13a62.79,62.79,0,0,1,9.5,2.25c6.63,2,13.25,3.25,20.13,2.38,2.87-.38,5.75-1.25,8.75-1.88-.75-7.62-1.38-15-2.13-22.5-1.75.5-2.87.88-4.12,1.25a28.39,28.39,0,0,1-16.75,1c-4.25-1-8.5-2.25-12.75-3.37-2.75-.75-5.38-1.63-8.25-2.13s-6-.62-9.25,1.13C759.65,54.77,760.78,62.27,761.78,69.4ZM818.9,32.52c-3.75,1-7,2-10.25,2.88-9.37,2.37-18.87,2.75-28.25-.13l-3-.75c-4.75-.75-5.62.13-4.87,4.88.25,1.37.62,2.25,2.12,2.75,5.38,1.37,10.63,3.12,16,4.37a22,22,0,0,0,13-1,34.05,34.05,0,0,1,3.88-1.37c4.25-1.25,6.87.37,7.37,4.75l.75,7.12c.25,1.88.5,3.75.75,5.88,2.25-.63,4.13-1,6.25-1.5C821.78,50.9,821.4,41.65,818.9,32.52Z"/><path class="cls-1" d="M787.21,56c.56.42,1.2.62,1.39,1a3.78,3.78,0,0,1,.36,1.8c-.14.73-.89.89-1.62.82l-2-.17c-.07,0-.08.07-.31.2a7.31,7.31,0,0,0,.75.73c.34.25.7.43,1,.67q4.15,3-.08,6l-.19,2.2c-.17,1.1-.74,1.72-1.63,1.79a1.68,1.68,0,0,1-1.62-1.7,6,6,0,0,0-.87-3.55c-.6-.8.14-1.62,1.82-2.29a13.33,13.33,0,0,1-1.45-1.09c-1.94-1.5-2.12-3.66-.21-5.27a3.52,3.52,0,0,0,1.39-2.32c.18-1.24.83-1.92,1.7-1.77a1.74,1.74,0,0,1,1.46,1.83A2.71,2.71,0,0,1,787.21,56Z"/></g><g id="Heart"><path class="cls-3" d="M118.63,430.25c3.5.87,6.88,1.75,10.25,2.75a16.78,16.78,0,0,1,3.63,1,5.56,5.56,0,0,1,2.12,2.37,2.63,2.63,0,0,1-1.5,3.13,27.36,27.36,0,0,1-4.5,1.62c-3.37,1-6.75,2-10.12,2.88a3,3,0,0,0-2.5,2.5,20.11,20.11,0,0,1-1.25,3.87c-2,5.75-6,8.88-12.13,9.13-5.5.25-10.87.37-16.37.5-14.88.37-29.75.87-44.63,1.25-10.75.25-19.12-6.88-20.12-18-1-10.5-1.25-21.13-1.5-31.63a27.77,27.77,0,0,1,3.5-14.37,16.24,16.24,0,0,1,11.75-8.38c2.12-.37,4.25.13,6.37.13,18-.38,35.88-.75,53.88-1a22.8,22.8,0,0,1,4.12.25c8.13,1.12,13,5.75,15.25,13.5a101.85,101.85,0,0,1,3.63,24.5C118.51,427.5,118.63,428.75,118.63,430.25Z"/><path class="cls-1" d="M70.48,413.63c3.13-1.5,5.75-3,8.5-4,3.13-1.12,6.38-.87,8.75,1.75a9.55,9.55,0,0,1,2,9.88,8.28,8.28,0,0,1-.62,1.62,77.23,77.23,0,0,1-13.88,16.75c-2.25,2-2.87,1.88-5.37.25-3.75-2.5-7.5-5-11.25-7.62a16.35,16.35,0,0,1-7.25-10.38c-.88-4-.25-7.5,3.12-10.12A10,10,0,0,1,66,410.63,25.86,25.86,0,0,1,70.48,413.63Z"/><path class="cls-3" d="M171.9,427.47a34.44,34.44,0,0,1,5.75-2.25,7.07,7.07,0,0,1,8.87,6.88,10.13,10.13,0,0,1-.37,3.37c-1.75,5.13-4.38,9.75-8.75,13.13-2.25,1.75-3.88,2-6.25.37-2.75-1.75-5.5-3.75-8.13-5.62a12.49,12.49,0,0,1-4.75-7.25c-.75-3.5,0-6.63,2.88-8.88a7.91,7.91,0,0,1,9-.62A11.38,11.38,0,0,1,171.9,427.47Z"/></g><g id="Doodles"><path d="M540.06,16.92c-1.75,1.88-3.37,3.75-5,5.38-2.62,2.75-3.62,2.87-6.75.87-2-1.25-4-2.62-6.12-4.12-1,1.5-1.75,2.75-2.63,4.12a17.18,17.18,0,0,1-1.75,2.5,2.59,2.59,0,0,1-3.62.63c-1.25-.75-1.38-2-1-3.38a5.81,5.81,0,0,1,.62-1.25c1.5-2.37,3-4.87,4.5-7.25s3-2.62,5.5-1.12,4.75,3.12,7.38,4.87c1.12-1.25,2.12-2.37,3.25-3.5,5.62-6.25,5.62-6.25,11.5.13.75.87,1.5,1.62,2.5,2.62,2.25-1.62,4.5-3.12,6.62-4.62a22.55,22.55,0,0,1,2.25-1.5c2-1.13,3.5-1,4.75.75,1.88,2.75,3.63,5.75,5.38,8.62a2.86,2.86,0,0,1-.5,4c-1.25.88-3,.5-4.13-1.12-1.37-2-2.62-4.13-4.12-6.5-2.63,1.87-5,3.5-7.38,5.25-3,2.12-4.12,2-6.62-.75A32.14,32.14,0,0,1,540.06,16.92Z"/><path d="M1043.52,656.12c-1.88,1-3.38,1.87-4.88,2.5a18.07,18.07,0,0,1-9.87,2c-6-.75-9.88-5.25-9.63-11.25a14.13,14.13,0,0,1,3.38-8.75c3.25-3.88,7.37-5,12.25-3.63a18.14,18.14,0,0,1,8.75,6.13c.75.87,1.37,1.75,2.25,2.87a32.43,32.43,0,0,0,7.87-15.75,69.67,69.67,0,0,0,1.25-20.37,183.31,183.31,0,0,0-13.12-56.5c-1-2.25-2.13-4.5-3.25-6.75-.88-1.88-.63-3.38.62-4.25a2.85,2.85,0,0,1,4,1.37,55.76,55.76,0,0,1,3.63,7.25A179.91,179.91,0,0,1,1059,596.62a185.81,185.81,0,0,1,1.37,20.37c.25,12.88-2.75,24.75-12.25,34.5,3.38,10.63,1.25,20.88-1.75,31.13a251.46,251.46,0,0,1-12,32.87c-5.25,11.5-8.62,23.63-11.5,36-.5,2.38-1.62,3.38-3.25,3s-2.75-1.75-2.12-4c1.37-5.75,2.62-11.5,4.5-17.12,2.25-6.88,4.87-13.75,7.62-20.38,4.88-12,9.63-24,12.88-36.62,1.37-5.63,2.37-11.38,1.75-17.25A14.52,14.52,0,0,1,1043.52,656.12Zm-2.13-5.63a15,15,0,0,0-6-7c-5-3-10-.37-10.5,5.5-.37,4,1.63,6.25,5.75,6.25S1038,653,1041.39,650.49Z"/><path d="M1033,774.24c-.5,1.25-1,4-2.25,6.13-2.63,4.25-7.63,4.37-10.88.75-3.75-4.25-3.87-12-.25-16.38,2.88-3.37,7-3.5,10-.37C1032,766.74,1032.77,769.74,1033,774.24Zm-8,3.75c3.25-3.12,2.87-7.87-.5-10.12C1021.77,770.74,1021.89,775,1025,778Z"/></g></g></g></g></g></svg>